<?xml version="1.0" encoding="utf-8" standalone="no"?>
<!DOCTYPE svg PUBLIC "-//W3C//DTD SVG 1.1//EN"
  "http://www.w3.org/Graphics/SVG/1.1/DTD/svg11.dtd">
<svg xmlns:xlink="http://www.w3.org/1999/xlink" width="460.8pt" height="345.6pt" viewBox="0 0 460.8 345.6" xmlns="http://www.w3.org/2000/svg" version="1.1">
 <metadata>
  <rdf:RDF xmlns:dc="http://purl.org/dc/elements/1.1/" xmlns:cc="http://creativecommons.org/ns#" xmlns:rdf="http://www.w3.org/1999/02/22-rdf-syntax-ns#">
   <cc:Work>
    <dc:type rdf:resource="http://purl.org/dc/dcmitype/StillImage"/>
    <dc:date>2023-09-17T21:23:16.369058</dc:date>
    <dc:format>image/svg+xml</dc:format>
    <dc:creator>
     <cc:Agent>
      <dc:title>Matplotlib v3.8.0, https://matplotlib.org/</dc:title>
     </cc:Agent>
    </dc:creator>
   </cc:Work>
  </rdf:RDF>
 </metadata>
 <defs>
  <style type="text/css">*{stroke-linejoin: round; stroke-linecap: butt}</style>
 </defs>
 <g id="figure_1">
  <g id="patch_1">
   <path d="M 0 345.6 
L 460.8 345.6 
L 460.8 0 
L 0 0 
z
" style="fill: #ffffff"/>
  </g>
  <g id="patch_2">
   <path d="M 103.104 307.584 
L 369.216 307.584 
L 369.216 41.472 
L 103.104 41.472 
z
" style="fill: #ffffff"/>
  </g>
  <g id="pane3d_1">
   <g id="patch_3">
    <path d="M 209.854564 62.073991 
L 117.770234 129.272941 
L 123.197291 241.969309 
L 211.076164 168.307495 
" style="fill: #f2f2f2; opacity: 0.5; stroke: #f2f2f2; stroke-linejoin: miter"/>
   </g>
  </g>
  <g id="pane3d_2">
   <g id="patch_4">
    <path d="M 357.122702 99.402171 
L 209.854564 62.073991 
L 211.076164 168.307495 
L 352.090401 209.294766 
" style="fill: #e6e6e6; opacity: 0.5; stroke: #e6e6e6; stroke-linejoin: miter"/>
   </g>
  </g>
  <g id="pane3d_3">
   <g id="patch_5">
    <path d="M 352.090401 209.294766 
L 211.076164 168.307495 
L 123.197291 241.969309 
L 272.679269 290.790123 
" style="fill: #ececec; opacity: 0.5; stroke: #ececec; stroke-linejoin: miter"/>
   </g>
  </g>
  <g id="grid3d_1">
   <g id="Line3DCollection_1">
    <path d="M 246.769997 282.328155 
L 327.737896 202.216454 
L 331.645729 92.944501 
" style="fill: none; stroke: #b0b0b0; stroke-width: 0.8"/>
    <path d="M 223.100056 274.597552 
L 305.457616 195.740457 
L 308.352944 87.040459 
" style="fill: none; stroke: #b0b0b0; stroke-width: 0.8"/>
    <path d="M 199.815499 266.992816 
L 283.509701 189.361064 
L 285.42282 81.228341 
" style="fill: none; stroke: #b0b0b0; stroke-width: 0.8"/>
    <path d="M 176.906991 259.510897 
L 261.886769 183.076132 
L 262.846954 75.506017 
" style="fill: none; stroke: #b0b0b0; stroke-width: 0.8"/>
    <path d="M 154.365494 252.148844 
L 240.581654 176.883576 
L 240.617197 69.871422 
" style="fill: none; stroke: #b0b0b0; stroke-width: 0.8"/>
    <path d="M 132.18226 244.9038 
L 219.5874 170.781375 
L 218.725652 64.322553 
" style="fill: none; stroke: #b0b0b0; stroke-width: 0.8"/>
   </g>
  </g>
  <g id="grid3d_2">
   <g id="Line3DCollection_2">
    <path d="M 205.062266 65.571192 
L 206.486238 172.154862 
L 347.960067 213.533504 
" style="fill: none; stroke: #b0b0b0; stroke-width: 0.8"/>
    <path d="M 189.955117 76.595701 
L 192.02893 184.273265 
L 334.937946 226.897404 
" style="fill: none; stroke: #b0b0b0; stroke-width: 0.8"/>
    <path d="M 174.381511 87.960609 
L 177.144092 196.750031 
L 321.510982 240.676772 
" style="fill: none; stroke: #b0b0b0; stroke-width: 0.8"/>
    <path d="M 158.319505 99.68193 
L 161.812476 209.601296 
L 307.659998 254.891289 
" style="fill: none; stroke: #b0b0b0; stroke-width: 0.8"/>
    <path d="M 141.745756 111.776696 
L 146.013659 222.844177 
L 293.364587 269.561898 
" style="fill: none; stroke: #b0b0b0; stroke-width: 0.8"/>
    <path d="M 124.635414 124.263045 
L 129.725956 236.496853 
L 278.603009 284.710909 
" style="fill: none; stroke: #b0b0b0; stroke-width: 0.8"/>
   </g>
  </g>
  <g id="grid3d_3">
   <g id="Line3DCollection_3">
    <path d="M 356.862115 105.092708 
L 209.917695 67.564049 
L 118.051711 135.118002 
" style="fill: none; stroke: #b0b0b0; stroke-width: 0.8"/>
    <path d="M 355.811795 128.029026 
L 210.172292 89.704478 
L 119.185737 158.666795 
" style="fill: none; stroke: #b0b0b0; stroke-width: 0.8"/>
    <path d="M 354.780147 150.557572 
L 210.422582 111.470276 
L 120.298825 181.780789 
" style="fill: none; stroke: #b0b0b0; stroke-width: 0.8"/>
    <path d="M 353.766679 172.689122 
L 210.668672 132.870871 
L 121.39155 204.471918 
" style="fill: none; stroke: #b0b0b0; stroke-width: 0.8"/>
    <path d="M 352.770915 194.43408 
L 210.910667 153.915379 
L 122.464464 226.751679 
" style="fill: none; stroke: #b0b0b0; stroke-width: 0.8"/>
   </g>
  </g>
  <g id="axis3d_1">
   <g id="line2d_1">
    <path d="M 123.197291 241.969309 
L 272.679269 290.790123 
" style="fill: none; stroke: #000000; stroke-width: 0.8; stroke-linecap: square"/>
   </g>
   <g id="xtick_1">
    <g id="line2d_2">
     <path d="M 247.47743 281.628203 
L 245.351971 283.731186 
" style="fill: none; stroke: #000000; stroke-width: 0.8; stroke-linecap: square"/>
    </g>
    <g id="text_1">
     <!-- 10 -->
     <g transform="translate(233.009271 306.434292) scale(0.1 -0.1)">
      <defs>
       <path id="DejaVuSans-31" d="M 794 531 
L 1825 531 
L 1825 4091 
L 703 3866 
L 703 4441 
L 1819 4666 
L 2450 4666 
L 2450 531 
L 3481 531 
L 3481 0 
L 794 0 
L 794 531 
z
" transform="scale(0.015625)"/>
       <path id="DejaVuSans-30" d="M 2034 4250 
Q 1547 4250 1301 3770 
Q 1056 3291 1056 2328 
Q 1056 1369 1301 889 
Q 1547 409 2034 409 
Q 2525 409 2770 889 
Q 3016 1369 3016 2328 
Q 3016 3291 2770 3770 
Q 2525 4250 2034 4250 
z
M 2034 4750 
Q 2819 4750 3233 4129 
Q 3647 3509 3647 2328 
Q 3647 1150 3233 529 
Q 2819 -91 2034 -91 
Q 1250 -91 836 529 
Q 422 1150 422 2328 
Q 422 3509 836 4129 
Q 1250 4750 2034 4750 
z
" transform="scale(0.015625)"/>
      </defs>
      <use xlink:href="#DejaVuSans-31"/>
      <use xlink:href="#DejaVuSans-30" x="63.623047"/>
     </g>
    </g>
   </g>
   <g id="xtick_2">
    <g id="line2d_3">
     <path d="M 223.819132 273.909039 
L 221.658717 275.97763 
" style="fill: none; stroke: #000000; stroke-width: 0.8; stroke-linecap: square"/>
    </g>
    <g id="text_2">
     <!-- 20 -->
     <g transform="translate(209.3094 298.537997) scale(0.1 -0.1)">
      <defs>
       <path id="DejaVuSans-32" d="M 1228 531 
L 3431 531 
L 3431 0 
L 469 0 
L 469 531 
Q 828 903 1448 1529 
Q 2069 2156 2228 2338 
Q 2531 2678 2651 2914 
Q 2772 3150 2772 3378 
Q 2772 3750 2511 3984 
Q 2250 4219 1831 4219 
Q 1534 4219 1204 4116 
Q 875 4013 500 3803 
L 500 4441 
Q 881 4594 1212 4672 
Q 1544 4750 1819 4750 
Q 2544 4750 2975 4387 
Q 3406 4025 3406 3419 
Q 3406 3131 3298 2873 
Q 3191 2616 2906 2266 
Q 2828 2175 2409 1742 
Q 1991 1309 1228 531 
z
" transform="scale(0.015625)"/>
      </defs>
      <use xlink:href="#DejaVuSans-32"/>
      <use xlink:href="#DejaVuSans-30" x="63.623047"/>
     </g>
    </g>
   </g>
   <g id="xtick_3">
    <g id="line2d_4">
     <path d="M 200.545748 266.315463 
L 198.351792 268.350499 
" style="fill: none; stroke: #000000; stroke-width: 0.8; stroke-linecap: square"/>
    </g>
    <g id="text_3">
     <!-- 30 -->
     <g transform="translate(185.99687 290.770756) scale(0.1 -0.1)">
      <defs>
       <path id="DejaVuSans-33" d="M 2597 2516 
Q 3050 2419 3304 2112 
Q 3559 1806 3559 1356 
Q 3559 666 3084 287 
Q 2609 -91 1734 -91 
Q 1441 -91 1130 -33 
Q 819 25 488 141 
L 488 750 
Q 750 597 1062 519 
Q 1375 441 1716 441 
Q 2309 441 2620 675 
Q 2931 909 2931 1356 
Q 2931 1769 2642 2001 
Q 2353 2234 1838 2234 
L 1294 2234 
L 1294 2753 
L 1863 2753 
Q 2328 2753 2575 2939 
Q 2822 3125 2822 3475 
Q 2822 3834 2567 4026 
Q 2313 4219 1838 4219 
Q 1578 4219 1281 4162 
Q 984 4106 628 3988 
L 628 4550 
Q 988 4650 1302 4700 
Q 1616 4750 1894 4750 
Q 2613 4750 3031 4423 
Q 3450 4097 3450 3541 
Q 3450 3153 3228 2886 
Q 3006 2619 2597 2516 
z
" transform="scale(0.015625)"/>
      </defs>
      <use xlink:href="#DejaVuSans-33"/>
      <use xlink:href="#DejaVuSans-30" x="63.623047"/>
     </g>
    </g>
   </g>
   <g id="xtick_4">
    <g id="line2d_5">
     <path d="M 177.64796 258.844435 
L 175.421823 260.846726 
" style="fill: none; stroke: #000000; stroke-width: 0.8; stroke-linecap: square"/>
    </g>
    <g id="text_4">
     <!-- 40 -->
     <g transform="translate(163.062263 283.129431) scale(0.1 -0.1)">
      <defs>
       <path id="DejaVuSans-34" d="M 2419 4116 
L 825 1625 
L 2419 1625 
L 2419 4116 
z
M 2253 4666 
L 3047 4666 
L 3047 1625 
L 3713 1625 
L 3713 1100 
L 3047 1100 
L 3047 0 
L 2419 0 
L 2419 1100 
L 313 1100 
L 313 1709 
L 2253 4666 
z
" transform="scale(0.015625)"/>
      </defs>
      <use xlink:href="#DejaVuSans-34"/>
      <use xlink:href="#DejaVuSans-30" x="63.623047"/>
     </g>
    </g>
   </g>
   <g id="xtick_5">
    <g id="line2d_6">
     <path d="M 155.116747 251.493013 
L 152.85974 253.463343 
" style="fill: none; stroke: #000000; stroke-width: 0.8; stroke-linecap: square"/>
    </g>
    <g id="text_5">
     <!-- 50 -->
     <g transform="translate(140.496462 275.610984) scale(0.1 -0.1)">
      <defs>
       <path id="DejaVuSans-35" d="M 691 4666 
L 3169 4666 
L 3169 4134 
L 1269 4134 
L 1269 2991 
Q 1406 3038 1543 3061 
Q 1681 3084 1819 3084 
Q 2600 3084 3056 2656 
Q 3513 2228 3513 1497 
Q 3513 744 3044 326 
Q 2575 -91 1722 -91 
Q 1428 -91 1123 -41 
Q 819 9 494 109 
L 494 744 
Q 775 591 1075 516 
Q 1375 441 1709 441 
Q 2250 441 2565 725 
Q 2881 1009 2881 1497 
Q 2881 1984 2565 2268 
Q 2250 2553 1709 2553 
Q 1456 2553 1204 2497 
Q 953 2441 691 2322 
L 691 4666 
z
" transform="scale(0.015625)"/>
      </defs>
      <use xlink:href="#DejaVuSans-35"/>
      <use xlink:href="#DejaVuSans-30" x="63.623047"/>
     </g>
    </g>
   </g>
   <g id="xtick_6">
    <g id="line2d_7">
     <path d="M 132.943377 244.258347 
L 130.656759 246.197475 
" style="fill: none; stroke: #000000; stroke-width: 0.8; stroke-linecap: square"/>
    </g>
    <g id="text_6">
     <!-- 60 -->
     <g transform="translate(118.290642 268.212476) scale(0.1 -0.1)">
      <defs>
       <path id="DejaVuSans-36" d="M 2113 2584 
Q 1688 2584 1439 2293 
Q 1191 2003 1191 1497 
Q 1191 994 1439 701 
Q 1688 409 2113 409 
Q 2538 409 2786 701 
Q 3034 994 3034 1497 
Q 3034 2003 2786 2293 
Q 2538 2584 2113 2584 
z
M 3366 4563 
L 3366 3988 
Q 3128 4100 2886 4159 
Q 2644 4219 2406 4219 
Q 1781 4219 1451 3797 
Q 1122 3375 1075 2522 
Q 1259 2794 1537 2939 
Q 1816 3084 2150 3084 
Q 2853 3084 3261 2657 
Q 3669 2231 3669 1497 
Q 3669 778 3244 343 
Q 2819 -91 2113 -91 
Q 1303 -91 875 529 
Q 447 1150 447 2328 
Q 447 3434 972 4092 
Q 1497 4750 2381 4750 
Q 2619 4750 2861 4703 
Q 3103 4656 3366 4563 
z
" transform="scale(0.015625)"/>
      </defs>
      <use xlink:href="#DejaVuSans-36"/>
      <use xlink:href="#DejaVuSans-30" x="63.623047"/>
     </g>
    </g>
   </g>
   <g id="text_7">
    <!-- Runtime -->
    <g transform="translate(158.96884 297.147931) rotate(-341.912962) scale(0.1 -0.1)">
     <defs>
      <path id="DejaVuSans-52" d="M 2841 2188 
Q 3044 2119 3236 1894 
Q 3428 1669 3622 1275 
L 4263 0 
L 3584 0 
L 2988 1197 
Q 2756 1666 2539 1819 
Q 2322 1972 1947 1972 
L 1259 1972 
L 1259 0 
L 628 0 
L 628 4666 
L 2053 4666 
Q 2853 4666 3247 4331 
Q 3641 3997 3641 3322 
Q 3641 2881 3436 2590 
Q 3231 2300 2841 2188 
z
M 1259 4147 
L 1259 2491 
L 2053 2491 
Q 2509 2491 2742 2702 
Q 2975 2913 2975 3322 
Q 2975 3731 2742 3939 
Q 2509 4147 2053 4147 
L 1259 4147 
z
" transform="scale(0.015625)"/>
      <path id="DejaVuSans-75" d="M 544 1381 
L 544 3500 
L 1119 3500 
L 1119 1403 
Q 1119 906 1312 657 
Q 1506 409 1894 409 
Q 2359 409 2629 706 
Q 2900 1003 2900 1516 
L 2900 3500 
L 3475 3500 
L 3475 0 
L 2900 0 
L 2900 538 
Q 2691 219 2414 64 
Q 2138 -91 1772 -91 
Q 1169 -91 856 284 
Q 544 659 544 1381 
z
M 1991 3584 
L 1991 3584 
z
" transform="scale(0.015625)"/>
      <path id="DejaVuSans-6e" d="M 3513 2113 
L 3513 0 
L 2938 0 
L 2938 2094 
Q 2938 2591 2744 2837 
Q 2550 3084 2163 3084 
Q 1697 3084 1428 2787 
Q 1159 2491 1159 1978 
L 1159 0 
L 581 0 
L 581 3500 
L 1159 3500 
L 1159 2956 
Q 1366 3272 1645 3428 
Q 1925 3584 2291 3584 
Q 2894 3584 3203 3211 
Q 3513 2838 3513 2113 
z
" transform="scale(0.015625)"/>
      <path id="DejaVuSans-74" d="M 1172 4494 
L 1172 3500 
L 2356 3500 
L 2356 3053 
L 1172 3053 
L 1172 1153 
Q 1172 725 1289 603 
Q 1406 481 1766 481 
L 2356 481 
L 2356 0 
L 1766 0 
Q 1100 0 847 248 
Q 594 497 594 1153 
L 594 3053 
L 172 3053 
L 172 3500 
L 594 3500 
L 594 4494 
L 1172 4494 
z
" transform="scale(0.015625)"/>
      <path id="DejaVuSans-69" d="M 603 3500 
L 1178 3500 
L 1178 0 
L 603 0 
L 603 3500 
z
M 603 4863 
L 1178 4863 
L 1178 4134 
L 603 4134 
L 603 4863 
z
" transform="scale(0.015625)"/>
      <path id="DejaVuSans-6d" d="M 3328 2828 
Q 3544 3216 3844 3400 
Q 4144 3584 4550 3584 
Q 5097 3584 5394 3201 
Q 5691 2819 5691 2113 
L 5691 0 
L 5113 0 
L 5113 2094 
Q 5113 2597 4934 2840 
Q 4756 3084 4391 3084 
Q 3944 3084 3684 2787 
Q 3425 2491 3425 1978 
L 3425 0 
L 2847 0 
L 2847 2094 
Q 2847 2600 2669 2842 
Q 2491 3084 2119 3084 
Q 1678 3084 1418 2786 
Q 1159 2488 1159 1978 
L 1159 0 
L 581 0 
L 581 3500 
L 1159 3500 
L 1159 2956 
Q 1356 3278 1631 3431 
Q 1906 3584 2284 3584 
Q 2666 3584 2933 3390 
Q 3200 3197 3328 2828 
z
" transform="scale(0.015625)"/>
      <path id="DejaVuSans-65" d="M 3597 1894 
L 3597 1613 
L 953 1613 
Q 991 1019 1311 708 
Q 1631 397 2203 397 
Q 2534 397 2845 478 
Q 3156 559 3463 722 
L 3463 178 
Q 3153 47 2828 -22 
Q 2503 -91 2169 -91 
Q 1331 -91 842 396 
Q 353 884 353 1716 
Q 353 2575 817 3079 
Q 1281 3584 2069 3584 
Q 2775 3584 3186 3129 
Q 3597 2675 3597 1894 
z
M 3022 2063 
Q 3016 2534 2758 2815 
Q 2500 3097 2075 3097 
Q 1594 3097 1305 2825 
Q 1016 2553 972 2059 
L 3022 2063 
z
" transform="scale(0.015625)"/>
     </defs>
     <use xlink:href="#DejaVuSans-52"/>
     <use xlink:href="#DejaVuSans-75" x="64.982422"/>
     <use xlink:href="#DejaVuSans-6e" x="128.361328"/>
     <use xlink:href="#DejaVuSans-74" x="191.740234"/>
     <use xlink:href="#DejaVuSans-69" x="230.949219"/>
     <use xlink:href="#DejaVuSans-6d" x="258.732422"/>
     <use xlink:href="#DejaVuSans-65" x="356.144531"/>
    </g>
   </g>
  </g>
  <g id="axis3d_2">
   <g id="line2d_8">
    <path d="M 352.090401 209.294766 
L 272.679269 290.790123 
" style="fill: none; stroke: #000000; stroke-width: 0.8; stroke-linecap: square"/>
   </g>
   <g id="xtick_7">
    <g id="line2d_9">
     <path d="M 346.772441 213.186144 
L 350.338158 214.229055 
" style="fill: none; stroke: #000000; stroke-width: 0.8; stroke-linecap: square"/>
    </g>
    <g id="text_8">
     <!-- 0.01 -->
     <g transform="translate(348.769488 233.497426) scale(0.1 -0.1)">
      <defs>
       <path id="DejaVuSans-2e" d="M 684 794 
L 1344 794 
L 1344 0 
L 684 0 
L 684 794 
z
" transform="scale(0.015625)"/>
      </defs>
      <use xlink:href="#DejaVuSans-30"/>
      <use xlink:href="#DejaVuSans-2e" x="63.623047"/>
      <use xlink:href="#DejaVuSans-30" x="95.410156"/>
      <use xlink:href="#DejaVuSans-31" x="159.033203"/>
     </g>
    </g>
   </g>
   <g id="xtick_8">
    <g id="line2d_10">
     <path d="M 333.737409 226.539331 
L 337.341933 227.614419 
" style="fill: none; stroke: #000000; stroke-width: 0.8; stroke-linecap: square"/>
    </g>
    <g id="text_9">
     <!-- 0.02 -->
     <g transform="translate(335.922947 247.058213) scale(0.1 -0.1)">
      <use xlink:href="#DejaVuSans-30"/>
      <use xlink:href="#DejaVuSans-2e" x="63.623047"/>
      <use xlink:href="#DejaVuSans-30" x="95.410156"/>
      <use xlink:href="#DejaVuSans-32" x="159.033203"/>
     </g>
    </g>
   </g>
   <g id="xtick_9">
    <g id="line2d_11">
     <path d="M 320.297299 240.307483 
L 323.941339 241.416261 
" style="fill: none; stroke: #000000; stroke-width: 0.8; stroke-linecap: square"/>
    </g>
    <g id="text_10">
     <!-- 0.03 -->
     <g transform="translate(322.676794 261.040829) scale(0.1 -0.1)">
      <use xlink:href="#DejaVuSans-30"/>
      <use xlink:href="#DejaVuSans-2e" x="63.623047"/>
      <use xlink:href="#DejaVuSans-30" x="95.410156"/>
      <use xlink:href="#DejaVuSans-33" x="159.033203"/>
     </g>
    </g>
   </g>
   <g id="xtick_10">
    <g id="line2d_12">
     <path d="M 306.432931 254.510248 
L 310.117204 255.654325 
" style="fill: none; stroke: #000000; stroke-width: 0.8; stroke-linecap: square"/>
    </g>
    <g id="text_11">
     <!-- 0.04 -->
     <g transform="translate(309.012089 275.465268) scale(0.1 -0.1)">
      <use xlink:href="#DejaVuSans-30"/>
      <use xlink:href="#DejaVuSans-2e" x="63.623047"/>
      <use xlink:href="#DejaVuSans-30" x="95.410156"/>
      <use xlink:href="#DejaVuSans-34" x="159.033203"/>
     </g>
    </g>
   </g>
   <g id="xtick_11">
    <g id="line2d_13">
     <path d="M 292.123894 269.168535 
L 295.849128 270.349624 
" style="fill: none; stroke: #000000; stroke-width: 0.8; stroke-linecap: square"/>
    </g>
    <g id="text_12">
     <!-- 0.05 -->
     <g transform="translate(294.908674 290.352808) scale(0.1 -0.1)">
      <use xlink:href="#DejaVuSans-30"/>
      <use xlink:href="#DejaVuSans-2e" x="63.623047"/>
      <use xlink:href="#DejaVuSans-30" x="95.410156"/>
      <use xlink:href="#DejaVuSans-35" x="159.033203"/>
     </g>
    </g>
   </g>
   <g id="xtick_12">
    <g id="line2d_14">
     <path d="M 277.348447 284.304617 
L 281.115375 285.524542 
" style="fill: none; stroke: #000000; stroke-width: 0.8; stroke-linecap: square"/>
    </g>
    <g id="text_13">
     <!-- 0.06 -->
     <g transform="translate(280.345079 305.726114) scale(0.1 -0.1)">
      <use xlink:href="#DejaVuSans-30"/>
      <use xlink:href="#DejaVuSans-2e" x="63.623047"/>
      <use xlink:href="#DejaVuSans-30" x="95.410156"/>
      <use xlink:href="#DejaVuSans-36" x="159.033203"/>
     </g>
    </g>
   </g>
   <g id="text_14">
    <!-- Price -->
    <g transform="translate(334.596451 286.891093) rotate(-45.742112) scale(0.1 -0.1)">
     <defs>
      <path id="DejaVuSans-50" d="M 1259 4147 
L 1259 2394 
L 2053 2394 
Q 2494 2394 2734 2622 
Q 2975 2850 2975 3272 
Q 2975 3691 2734 3919 
Q 2494 4147 2053 4147 
L 1259 4147 
z
M 628 4666 
L 2053 4666 
Q 2838 4666 3239 4311 
Q 3641 3956 3641 3272 
Q 3641 2581 3239 2228 
Q 2838 1875 2053 1875 
L 1259 1875 
L 1259 0 
L 628 0 
L 628 4666 
z
" transform="scale(0.015625)"/>
      <path id="DejaVuSans-72" d="M 2631 2963 
Q 2534 3019 2420 3045 
Q 2306 3072 2169 3072 
Q 1681 3072 1420 2755 
Q 1159 2438 1159 1844 
L 1159 0 
L 581 0 
L 581 3500 
L 1159 3500 
L 1159 2956 
Q 1341 3275 1631 3429 
Q 1922 3584 2338 3584 
Q 2397 3584 2469 3576 
Q 2541 3569 2628 3553 
L 2631 2963 
z
" transform="scale(0.015625)"/>
      <path id="DejaVuSans-63" d="M 3122 3366 
L 3122 2828 
Q 2878 2963 2633 3030 
Q 2388 3097 2138 3097 
Q 1578 3097 1268 2742 
Q 959 2388 959 1747 
Q 959 1106 1268 751 
Q 1578 397 2138 397 
Q 2388 397 2633 464 
Q 2878 531 3122 666 
L 3122 134 
Q 2881 22 2623 -34 
Q 2366 -91 2075 -91 
Q 1284 -91 818 406 
Q 353 903 353 1747 
Q 353 2603 823 3093 
Q 1294 3584 2113 3584 
Q 2378 3584 2631 3529 
Q 2884 3475 3122 3366 
z
" transform="scale(0.015625)"/>
     </defs>
     <use xlink:href="#DejaVuSans-50"/>
     <use xlink:href="#DejaVuSans-72" x="58.552734"/>
     <use xlink:href="#DejaVuSans-69" x="99.666016"/>
     <use xlink:href="#DejaVuSans-63" x="127.449219"/>
     <use xlink:href="#DejaVuSans-65" x="182.429688"/>
    </g>
   </g>
  </g>
  <g id="axis3d_3">
   <g id="line2d_15">
    <path d="M 352.090401 209.294766 
L 357.122702 99.402171 
" style="fill: none; stroke: #000000; stroke-width: 0.8; stroke-linecap: square"/>
   </g>
   <g id="xtick_13">
    <g id="line2d_16">
     <path d="M 355.626396 104.777113 
L 359.336617 105.72468 
" style="fill: none; stroke: #000000; stroke-width: 0.8; stroke-linecap: square"/>
    </g>
    <g id="text_15">
     <!-- 0.04 -->
     <g transform="translate(364.735769 110.301489) scale(0.1 -0.1)">
      <use xlink:href="#DejaVuSans-30"/>
      <use xlink:href="#DejaVuSans-2e" x="63.623047"/>
      <use xlink:href="#DejaVuSans-30" x="95.410156"/>
      <use xlink:href="#DejaVuSans-34" x="159.033203"/>
     </g>
    </g>
   </g>
   <g id="xtick_14">
    <g id="line2d_17">
     <path d="M 354.587584 127.706879 
L 358.263224 128.674112 
" style="fill: none; stroke: #000000; stroke-width: 0.8; stroke-linecap: square"/>
    </g>
    <g id="text_16">
     <!-- 0.06 -->
     <g transform="translate(363.518761 133.188135) scale(0.1 -0.1)">
      <use xlink:href="#DejaVuSans-30"/>
      <use xlink:href="#DejaVuSans-2e" x="63.623047"/>
      <use xlink:href="#DejaVuSans-30" x="95.410156"/>
      <use xlink:href="#DejaVuSans-36" x="159.033203"/>
     </g>
    </g>
   </g>
   <g id="xtick_15">
    <g id="line2d_18">
     <path d="M 353.567233 150.229154 
L 357.20893 151.215206 
" style="fill: none; stroke: #000000; stroke-width: 0.8; stroke-linecap: square"/>
    </g>
    <g id="text_17">
     <!-- 0.08 -->
     <g transform="translate(362.323323 155.66914) scale(0.1 -0.1)">
      <defs>
       <path id="DejaVuSans-38" d="M 2034 2216 
Q 1584 2216 1326 1975 
Q 1069 1734 1069 1313 
Q 1069 891 1326 650 
Q 1584 409 2034 409 
Q 2484 409 2743 651 
Q 3003 894 3003 1313 
Q 3003 1734 2745 1975 
Q 2488 2216 2034 2216 
z
M 1403 2484 
Q 997 2584 770 2862 
Q 544 3141 544 3541 
Q 544 4100 942 4425 
Q 1341 4750 2034 4750 
Q 2731 4750 3128 4425 
Q 3525 4100 3525 3541 
Q 3525 3141 3298 2862 
Q 3072 2584 2669 2484 
Q 3125 2378 3379 2068 
Q 3634 1759 3634 1313 
Q 3634 634 3220 271 
Q 2806 -91 2034 -91 
Q 1263 -91 848 271 
Q 434 634 434 1313 
Q 434 1759 690 2068 
Q 947 2378 1403 2484 
z
M 1172 3481 
Q 1172 3119 1398 2916 
Q 1625 2713 2034 2713 
Q 2441 2713 2670 2916 
Q 2900 3119 2900 3481 
Q 2900 3844 2670 4047 
Q 2441 4250 2034 4250 
Q 1625 4250 1398 4047 
Q 1172 3844 1172 3481 
z
" transform="scale(0.015625)"/>
      </defs>
      <use xlink:href="#DejaVuSans-30"/>
      <use xlink:href="#DejaVuSans-2e" x="63.623047"/>
      <use xlink:href="#DejaVuSans-30" x="95.410156"/>
      <use xlink:href="#DejaVuSans-38" x="159.033203"/>
     </g>
    </g>
   </g>
   <g id="xtick_16">
    <g id="line2d_19">
     <path d="M 352.564854 172.354704 
L 356.17323 173.358766 
" style="fill: none; stroke: #000000; stroke-width: 0.8; stroke-linecap: square"/>
    </g>
    <g id="text_18">
     <!-- 0.10 -->
     <g transform="translate(361.148887 177.755193) scale(0.1 -0.1)">
      <use xlink:href="#DejaVuSans-30"/>
      <use xlink:href="#DejaVuSans-2e" x="63.623047"/>
      <use xlink:href="#DejaVuSans-31" x="95.410156"/>
      <use xlink:href="#DejaVuSans-30" x="159.033203"/>
     </g>
    </g>
   </g>
   <g id="xtick_17">
    <g id="line2d_20">
     <path d="M 351.579979 194.093921 
L 355.155635 195.115214 
" style="fill: none; stroke: #000000; stroke-width: 0.8; stroke-linecap: square"/>
    </g>
    <g id="text_19">
     <!-- 0.12 -->
     <g transform="translate(359.994904 199.456612) scale(0.1 -0.1)">
      <use xlink:href="#DejaVuSans-30"/>
      <use xlink:href="#DejaVuSans-2e" x="63.623047"/>
      <use xlink:href="#DejaVuSans-31" x="95.410156"/>
      <use xlink:href="#DejaVuSans-32" x="159.033203"/>
     </g>
    </g>
   </g>
   <g id="text_20">
    <!-- Max failure rate -->
    <g transform="translate(395.878505 189.69032) rotate(-87.378092) scale(0.1 -0.1)">
     <defs>
      <path id="DejaVuSans-4d" d="M 628 4666 
L 1569 4666 
L 2759 1491 
L 3956 4666 
L 4897 4666 
L 4897 0 
L 4281 0 
L 4281 4097 
L 3078 897 
L 2444 897 
L 1241 4097 
L 1241 0 
L 628 0 
L 628 4666 
z
" transform="scale(0.015625)"/>
      <path id="DejaVuSans-61" d="M 2194 1759 
Q 1497 1759 1228 1600 
Q 959 1441 959 1056 
Q 959 750 1161 570 
Q 1363 391 1709 391 
Q 2188 391 2477 730 
Q 2766 1069 2766 1631 
L 2766 1759 
L 2194 1759 
z
M 3341 1997 
L 3341 0 
L 2766 0 
L 2766 531 
Q 2569 213 2275 61 
Q 1981 -91 1556 -91 
Q 1019 -91 701 211 
Q 384 513 384 1019 
Q 384 1609 779 1909 
Q 1175 2209 1959 2209 
L 2766 2209 
L 2766 2266 
Q 2766 2663 2505 2880 
Q 2244 3097 1772 3097 
Q 1472 3097 1187 3025 
Q 903 2953 641 2809 
L 641 3341 
Q 956 3463 1253 3523 
Q 1550 3584 1831 3584 
Q 2591 3584 2966 3190 
Q 3341 2797 3341 1997 
z
" transform="scale(0.015625)"/>
      <path id="DejaVuSans-78" d="M 3513 3500 
L 2247 1797 
L 3578 0 
L 2900 0 
L 1881 1375 
L 863 0 
L 184 0 
L 1544 1831 
L 300 3500 
L 978 3500 
L 1906 2253 
L 2834 3500 
L 3513 3500 
z
" transform="scale(0.015625)"/>
      <path id="DejaVuSans-20" transform="scale(0.015625)"/>
      <path id="DejaVuSans-66" d="M 2375 4863 
L 2375 4384 
L 1825 4384 
Q 1516 4384 1395 4259 
Q 1275 4134 1275 3809 
L 1275 3500 
L 2222 3500 
L 2222 3053 
L 1275 3053 
L 1275 0 
L 697 0 
L 697 3053 
L 147 3053 
L 147 3500 
L 697 3500 
L 697 3744 
Q 697 4328 969 4595 
Q 1241 4863 1831 4863 
L 2375 4863 
z
" transform="scale(0.015625)"/>
      <path id="DejaVuSans-6c" d="M 603 4863 
L 1178 4863 
L 1178 0 
L 603 0 
L 603 4863 
z
" transform="scale(0.015625)"/>
     </defs>
     <use xlink:href="#DejaVuSans-4d"/>
     <use xlink:href="#DejaVuSans-61" x="86.279297"/>
     <use xlink:href="#DejaVuSans-78" x="147.558594"/>
     <use xlink:href="#DejaVuSans-20" x="206.738281"/>
     <use xlink:href="#DejaVuSans-66" x="238.525391"/>
     <use xlink:href="#DejaVuSans-61" x="273.730469"/>
     <use xlink:href="#DejaVuSans-69" x="335.009766"/>
     <use xlink:href="#DejaVuSans-6c" x="362.792969"/>
     <use xlink:href="#DejaVuSans-75" x="390.576172"/>
     <use xlink:href="#DejaVuSans-72" x="453.955078"/>
     <use xlink:href="#DejaVuSans-65" x="492.818359"/>
     <use xlink:href="#DejaVuSans-20" x="554.341797"/>
     <use xlink:href="#DejaVuSans-72" x="586.128906"/>
     <use xlink:href="#DejaVuSans-61" x="627.242188"/>
     <use xlink:href="#DejaVuSans-74" x="688.521484"/>
     <use xlink:href="#DejaVuSans-65" x="727.730469"/>
    </g>
   </g>
  </g>
  <g id="axes_1">
   <g id="Path3DCollection_1">
    <defs>
     <path id="C0_0_a1701d3d8d" d="M 0 2.236068 
C 0.593012 2.236068 1.161816 2.000462 1.581139 1.581139 
C 2.000462 1.161816 2.236068 0.593012 2.236068 -0 
C 2.236068 -0.593012 2.000462 -1.161816 1.581139 -1.581139 
C 1.161816 -2.000462 0.593012 -2.236068 0 -2.236068 
C -0.593012 -2.236068 -1.161816 -2.000462 -1.581139 -1.581139 
C -2.000462 -1.161816 -2.236068 -0.593012 -2.236068 0 
C -2.236068 0.593012 -2.000462 1.161816 -1.581139 1.581139 
C -1.161816 2.000462 -0.593012 2.236068 0 2.236068 
z
"/>
    </defs>
    <g clip-path="url(#p8a5335b6ff)">
     <use xlink:href="#C0_0_a1701d3d8d" x="212.967095" y="169.866779" style="fill: #bdb76b; fill-opacity: 0.3; stroke: #bdb76b; stroke-opacity: 0.3"/>
    </g>
    <g clip-path="url(#p8a5335b6ff)">
     <use xlink:href="#C0_0_a1701d3d8d" x="212.967095" y="169.866779" style="fill: #bdb76b; fill-opacity: 0.3; stroke: #bdb76b; stroke-opacity: 0.3"/>
    </g>
    <g clip-path="url(#p8a5335b6ff)">
     <use xlink:href="#C0_0_a1701d3d8d" x="212.967095" y="169.866779" style="fill: #bdb76b; fill-opacity: 0.3; stroke: #bdb76b; stroke-opacity: 0.3"/>
    </g>
    <g clip-path="url(#p8a5335b6ff)">
     <use xlink:href="#C0_0_a1701d3d8d" x="212.967095" y="169.866779" style="fill: #bdb76b; fill-opacity: 0.3; stroke: #bdb76b; stroke-opacity: 0.3"/>
    </g>
    <g clip-path="url(#p8a5335b6ff)">
     <use xlink:href="#C0_0_a1701d3d8d" x="212.967095" y="169.866779" style="fill: #bdb76b; fill-opacity: 0.3; stroke: #bdb76b; stroke-opacity: 0.3"/>
    </g>
    <g clip-path="url(#p8a5335b6ff)">
     <use xlink:href="#C0_0_a1701d3d8d" x="225.26197" y="86.196319" style="fill: #bdb76b; fill-opacity: 0.998035; stroke: #bdb76b; stroke-opacity: 0.998035"/>
    </g>
    <g clip-path="url(#p8a5335b6ff)">
     <use xlink:href="#C0_0_a1701d3d8d" x="225.26197" y="86.196319" style="fill: #bdb76b; fill-opacity: 0.998035; stroke: #bdb76b; stroke-opacity: 0.998035"/>
    </g>
    <g clip-path="url(#p8a5335b6ff)">
     <use xlink:href="#C0_0_a1701d3d8d" x="225.26197" y="86.196319" style="fill: #bdb76b; fill-opacity: 0.998035; stroke: #bdb76b; stroke-opacity: 0.998035"/>
    </g>
    <g clip-path="url(#p8a5335b6ff)">
     <use xlink:href="#C0_0_a1701d3d8d" x="225.26197" y="86.196319" style="fill: #bdb76b; fill-opacity: 0.998035; stroke: #bdb76b; stroke-opacity: 0.998035"/>
    </g>
    <g clip-path="url(#p8a5335b6ff)">
     <use xlink:href="#C0_0_a1701d3d8d" x="225.26197" y="86.196319" style="fill: #bdb76b; fill-opacity: 0.998035; stroke: #bdb76b; stroke-opacity: 0.998035"/>
    </g>
    <g clip-path="url(#p8a5335b6ff)">
     <use xlink:href="#C0_0_a1701d3d8d" x="225.213013" y="86.233825" style="fill: #bdb76b; fill-opacity: 0.999018; stroke: #bdb76b; stroke-opacity: 0.999018"/>
    </g>
    <g clip-path="url(#p8a5335b6ff)">
     <use xlink:href="#C0_0_a1701d3d8d" x="225.213013" y="86.233825" style="fill: #bdb76b; fill-opacity: 0.999018; stroke: #bdb76b; stroke-opacity: 0.999018"/>
    </g>
    <g clip-path="url(#p8a5335b6ff)">
     <use xlink:href="#C0_0_a1701d3d8d" x="225.213013" y="86.233825" style="fill: #bdb76b; fill-opacity: 0.999018; stroke: #bdb76b; stroke-opacity: 0.999018"/>
    </g>
    <g clip-path="url(#p8a5335b6ff)">
     <use xlink:href="#C0_0_a1701d3d8d" x="225.213013" y="86.233825" style="fill: #bdb76b; fill-opacity: 0.999018; stroke: #bdb76b; stroke-opacity: 0.999018"/>
    </g>
    <g clip-path="url(#p8a5335b6ff)">
     <use xlink:href="#C0_0_a1701d3d8d" x="225.213013" y="86.233825" style="fill: #bdb76b; fill-opacity: 0.999018; stroke: #bdb76b; stroke-opacity: 0.999018"/>
    </g>
    <g clip-path="url(#p8a5335b6ff)">
     <use xlink:href="#C0_0_a1701d3d8d" x="225.164051" y="86.271334" style="fill: #bdb76b; stroke: #bdb76b"/>
    </g>
    <g clip-path="url(#p8a5335b6ff)">
     <use xlink:href="#C0_0_a1701d3d8d" x="225.164051" y="86.271334" style="fill: #bdb76b; stroke: #bdb76b"/>
    </g>
    <g clip-path="url(#p8a5335b6ff)">
     <use xlink:href="#C0_0_a1701d3d8d" x="225.164051" y="86.271334" style="fill: #bdb76b; stroke: #bdb76b"/>
    </g>
    <g clip-path="url(#p8a5335b6ff)">
     <use xlink:href="#C0_0_a1701d3d8d" x="225.164051" y="86.271334" style="fill: #bdb76b; stroke: #bdb76b"/>
    </g>
    <g clip-path="url(#p8a5335b6ff)">
     <use xlink:href="#C0_0_a1701d3d8d" x="225.164051" y="86.271334" style="fill: #bdb76b; stroke: #bdb76b"/>
    </g>
   </g>
   <g id="text_21">
    <!-- httpcore_dot -->
    <g transform="translate(198.017813 35.472) scale(0.12 -0.12)">
     <defs>
      <path id="DejaVuSans-68" d="M 3513 2113 
L 3513 0 
L 2938 0 
L 2938 2094 
Q 2938 2591 2744 2837 
Q 2550 3084 2163 3084 
Q 1697 3084 1428 2787 
Q 1159 2491 1159 1978 
L 1159 0 
L 581 0 
L 581 4863 
L 1159 4863 
L 1159 2956 
Q 1366 3272 1645 3428 
Q 1925 3584 2291 3584 
Q 2894 3584 3203 3211 
Q 3513 2838 3513 2113 
z
" transform="scale(0.015625)"/>
      <path id="DejaVuSans-70" d="M 1159 525 
L 1159 -1331 
L 581 -1331 
L 581 3500 
L 1159 3500 
L 1159 2969 
Q 1341 3281 1617 3432 
Q 1894 3584 2278 3584 
Q 2916 3584 3314 3078 
Q 3713 2572 3713 1747 
Q 3713 922 3314 415 
Q 2916 -91 2278 -91 
Q 1894 -91 1617 61 
Q 1341 213 1159 525 
z
M 3116 1747 
Q 3116 2381 2855 2742 
Q 2594 3103 2138 3103 
Q 1681 3103 1420 2742 
Q 1159 2381 1159 1747 
Q 1159 1113 1420 752 
Q 1681 391 2138 391 
Q 2594 391 2855 752 
Q 3116 1113 3116 1747 
z
" transform="scale(0.015625)"/>
      <path id="DejaVuSans-6f" d="M 1959 3097 
Q 1497 3097 1228 2736 
Q 959 2375 959 1747 
Q 959 1119 1226 758 
Q 1494 397 1959 397 
Q 2419 397 2687 759 
Q 2956 1122 2956 1747 
Q 2956 2369 2687 2733 
Q 2419 3097 1959 3097 
z
M 1959 3584 
Q 2709 3584 3137 3096 
Q 3566 2609 3566 1747 
Q 3566 888 3137 398 
Q 2709 -91 1959 -91 
Q 1206 -91 779 398 
Q 353 888 353 1747 
Q 353 2609 779 3096 
Q 1206 3584 1959 3584 
z
" transform="scale(0.015625)"/>
      <path id="DejaVuSans-5f" d="M 3263 -1063 
L 3263 -1509 
L -63 -1509 
L -63 -1063 
L 3263 -1063 
z
" transform="scale(0.015625)"/>
      <path id="DejaVuSans-64" d="M 2906 2969 
L 2906 4863 
L 3481 4863 
L 3481 0 
L 2906 0 
L 2906 525 
Q 2725 213 2448 61 
Q 2172 -91 1784 -91 
Q 1150 -91 751 415 
Q 353 922 353 1747 
Q 353 2572 751 3078 
Q 1150 3584 1784 3584 
Q 2172 3584 2448 3432 
Q 2725 3281 2906 2969 
z
M 947 1747 
Q 947 1113 1208 752 
Q 1469 391 1925 391 
Q 2381 391 2643 752 
Q 2906 1113 2906 1747 
Q 2906 2381 2643 2742 
Q 2381 3103 1925 3103 
Q 1469 3103 1208 2742 
Q 947 2381 947 1747 
z
" transform="scale(0.015625)"/>
     </defs>
     <use xlink:href="#DejaVuSans-68"/>
     <use xlink:href="#DejaVuSans-74" x="63.378906"/>
     <use xlink:href="#DejaVuSans-74" x="102.587891"/>
     <use xlink:href="#DejaVuSans-70" x="141.796875"/>
     <use xlink:href="#DejaVuSans-63" x="205.273438"/>
     <use xlink:href="#DejaVuSans-6f" x="260.253906"/>
     <use xlink:href="#DejaVuSans-72" x="321.435547"/>
     <use xlink:href="#DejaVuSans-65" x="360.298828"/>
     <use xlink:href="#DejaVuSans-5f" x="421.822266"/>
     <use xlink:href="#DejaVuSans-64" x="471.822266"/>
     <use xlink:href="#DejaVuSans-6f" x="535.298828"/>
     <use xlink:href="#DejaVuSans-74" x="596.480469"/>
    </g>
   </g>
   <g id="Path3DCollection_2">
    <defs>
     <path id="C1_0_9452d9454e" d="M 0 2.236068 
C 0.593012 2.236068 1.161816 2.000462 1.581139 1.581139 
C 2.000462 1.161816 2.236068 0.593012 2.236068 -0 
C 2.236068 -0.593012 2.000462 -1.161816 1.581139 -1.581139 
C 1.161816 -2.000462 0.593012 -2.236068 0 -2.236068 
C -0.593012 -2.236068 -1.161816 -2.000462 -1.581139 -1.581139 
C -2.000462 -1.161816 -2.236068 -0.593012 -2.236068 0 
C -2.236068 0.593012 -2.000462 1.161816 -1.581139 1.581139 
C -1.161816 2.000462 -0.593012 2.236068 0 2.236068 
z
"/>
    </defs>
    <g clip-path="url(#p8a5335b6ff)">
     <use xlink:href="#C1_0_9452d9454e" x="214.29237" y="83.27027" style="fill: #9370db; fill-opacity: 0.3; stroke: #9370db; stroke-opacity: 0.3"/>
    </g>
    <g clip-path="url(#p8a5335b6ff)">
     <use xlink:href="#C1_0_9452d9454e" x="214.29237" y="83.27027" style="fill: #9370db; fill-opacity: 0.3; stroke: #9370db; stroke-opacity: 0.3"/>
    </g>
    <g clip-path="url(#p8a5335b6ff)">
     <use xlink:href="#C1_0_9452d9454e" x="214.29237" y="83.27027" style="fill: #9370db; fill-opacity: 0.3; stroke: #9370db; stroke-opacity: 0.3"/>
    </g>
    <g clip-path="url(#p8a5335b6ff)">
     <use xlink:href="#C1_0_9452d9454e" x="214.29237" y="83.27027" style="fill: #9370db; fill-opacity: 0.3; stroke: #9370db; stroke-opacity: 0.3"/>
    </g>
    <g clip-path="url(#p8a5335b6ff)">
     <use xlink:href="#C1_0_9452d9454e" x="214.29237" y="83.27027" style="fill: #9370db; fill-opacity: 0.3; stroke: #9370db; stroke-opacity: 0.3"/>
    </g>
    <g clip-path="url(#p8a5335b6ff)">
     <use xlink:href="#C1_0_9452d9454e" x="225.310923" y="86.158818" style="fill: #9370db; fill-opacity: 0.320765; stroke: #9370db; stroke-opacity: 0.320765"/>
    </g>
    <g clip-path="url(#p8a5335b6ff)">
     <use xlink:href="#C1_0_9452d9454e" x="225.310923" y="86.158818" style="fill: #9370db; fill-opacity: 0.320765; stroke: #9370db; stroke-opacity: 0.320765"/>
    </g>
    <g clip-path="url(#p8a5335b6ff)">
     <use xlink:href="#C1_0_9452d9454e" x="225.310923" y="86.158818" style="fill: #9370db; fill-opacity: 0.320765; stroke: #9370db; stroke-opacity: 0.320765"/>
    </g>
    <g clip-path="url(#p8a5335b6ff)">
     <use xlink:href="#C1_0_9452d9454e" x="225.310923" y="86.158818" style="fill: #9370db; fill-opacity: 0.320765; stroke: #9370db; stroke-opacity: 0.320765"/>
    </g>
    <g clip-path="url(#p8a5335b6ff)">
     <use xlink:href="#C1_0_9452d9454e" x="225.310923" y="86.158818" style="fill: #9370db; fill-opacity: 0.320765; stroke: #9370db; stroke-opacity: 0.320765"/>
    </g>
    <g clip-path="url(#p8a5335b6ff)">
     <use xlink:href="#C1_0_9452d9454e" x="277.518933" y="98.145834" style="fill: #9370db; fill-opacity: 0.480581; stroke: #9370db; stroke-opacity: 0.480581"/>
    </g>
    <g clip-path="url(#p8a5335b6ff)">
     <use xlink:href="#C1_0_9452d9454e" x="277.518933" y="98.145834" style="fill: #9370db; fill-opacity: 0.480581; stroke: #9370db; stroke-opacity: 0.480581"/>
    </g>
    <g clip-path="url(#p8a5335b6ff)">
     <use xlink:href="#C1_0_9452d9454e" x="277.518933" y="98.145834" style="fill: #9370db; fill-opacity: 0.480581; stroke: #9370db; stroke-opacity: 0.480581"/>
    </g>
    <g clip-path="url(#p8a5335b6ff)">
     <use xlink:href="#C1_0_9452d9454e" x="277.518933" y="98.145834" style="fill: #9370db; fill-opacity: 0.480581; stroke: #9370db; stroke-opacity: 0.480581"/>
    </g>
    <g clip-path="url(#p8a5335b6ff)">
     <use xlink:href="#C1_0_9452d9454e" x="277.518933" y="98.145834" style="fill: #9370db; fill-opacity: 0.480581; stroke: #9370db; stroke-opacity: 0.480581"/>
    </g>
    <g clip-path="url(#p8a5335b6ff)">
     <use xlink:href="#C1_0_9452d9454e" x="247.243564" y="179.045607" style="fill: #9370db; fill-opacity: 0.948544; stroke: #9370db; stroke-opacity: 0.948544"/>
    </g>
    <g clip-path="url(#p8a5335b6ff)">
     <use xlink:href="#C1_0_9452d9454e" x="247.243564" y="179.045607" style="fill: #9370db; fill-opacity: 0.948544; stroke: #9370db; stroke-opacity: 0.948544"/>
    </g>
    <g clip-path="url(#p8a5335b6ff)">
     <use xlink:href="#C1_0_9452d9454e" x="247.243564" y="179.045607" style="fill: #9370db; fill-opacity: 0.948544; stroke: #9370db; stroke-opacity: 0.948544"/>
    </g>
    <g clip-path="url(#p8a5335b6ff)">
     <use xlink:href="#C1_0_9452d9454e" x="247.243564" y="179.045607" style="fill: #9370db; fill-opacity: 0.948544; stroke: #9370db; stroke-opacity: 0.948544"/>
    </g>
    <g clip-path="url(#p8a5335b6ff)">
     <use xlink:href="#C1_0_9452d9454e" x="247.243564" y="179.045607" style="fill: #9370db; fill-opacity: 0.948544; stroke: #9370db; stroke-opacity: 0.948544"/>
    </g>
    <g clip-path="url(#p8a5335b6ff)">
     <use xlink:href="#C1_0_9452d9454e" x="259.390681" y="182.647319" style="fill: #9370db; fill-opacity: 0.974264; stroke: #9370db; stroke-opacity: 0.974264"/>
    </g>
    <g clip-path="url(#p8a5335b6ff)">
     <use xlink:href="#C1_0_9452d9454e" x="259.390681" y="182.647319" style="fill: #9370db; fill-opacity: 0.974264; stroke: #9370db; stroke-opacity: 0.974264"/>
    </g>
    <g clip-path="url(#p8a5335b6ff)">
     <use xlink:href="#C1_0_9452d9454e" x="259.390681" y="182.647319" style="fill: #9370db; fill-opacity: 0.974264; stroke: #9370db; stroke-opacity: 0.974264"/>
    </g>
    <g clip-path="url(#p8a5335b6ff)">
     <use xlink:href="#C1_0_9452d9454e" x="259.390681" y="182.647319" style="fill: #9370db; fill-opacity: 0.974264; stroke: #9370db; stroke-opacity: 0.974264"/>
    </g>
    <g clip-path="url(#p8a5335b6ff)">
     <use xlink:href="#C1_0_9452d9454e" x="259.390681" y="182.647319" style="fill: #9370db; fill-opacity: 0.974264; stroke: #9370db; stroke-opacity: 0.974264"/>
    </g>
    <g clip-path="url(#p8a5335b6ff)">
     <use xlink:href="#C1_0_9452d9454e" x="265.305001" y="184.507455" style="fill: #9370db; fill-opacity: 0.987547; stroke: #9370db; stroke-opacity: 0.987547"/>
    </g>
    <g clip-path="url(#p8a5335b6ff)">
     <use xlink:href="#C1_0_9452d9454e" x="265.305001" y="184.507455" style="fill: #9370db; fill-opacity: 0.987547; stroke: #9370db; stroke-opacity: 0.987547"/>
    </g>
    <g clip-path="url(#p8a5335b6ff)">
     <use xlink:href="#C1_0_9452d9454e" x="265.305001" y="184.507455" style="fill: #9370db; fill-opacity: 0.987547; stroke: #9370db; stroke-opacity: 0.987547"/>
    </g>
    <g clip-path="url(#p8a5335b6ff)">
     <use xlink:href="#C1_0_9452d9454e" x="265.305001" y="184.507455" style="fill: #9370db; fill-opacity: 0.987547; stroke: #9370db; stroke-opacity: 0.987547"/>
    </g>
    <g clip-path="url(#p8a5335b6ff)">
     <use xlink:href="#C1_0_9452d9454e" x="265.305001" y="184.507455" style="fill: #9370db; fill-opacity: 0.987547; stroke: #9370db; stroke-opacity: 0.987547"/>
    </g>
    <g clip-path="url(#p8a5335b6ff)">
     <use xlink:href="#C1_0_9452d9454e" x="267.744137" y="185.35742" style="fill: #9370db; fill-opacity: 0.993617; stroke: #9370db; stroke-opacity: 0.993617"/>
    </g>
    <g clip-path="url(#p8a5335b6ff)">
     <use xlink:href="#C1_0_9452d9454e" x="267.744137" y="185.35742" style="fill: #9370db; fill-opacity: 0.993617; stroke: #9370db; stroke-opacity: 0.993617"/>
    </g>
    <g clip-path="url(#p8a5335b6ff)">
     <use xlink:href="#C1_0_9452d9454e" x="267.744137" y="185.35742" style="fill: #9370db; fill-opacity: 0.993617; stroke: #9370db; stroke-opacity: 0.993617"/>
    </g>
    <g clip-path="url(#p8a5335b6ff)">
     <use xlink:href="#C1_0_9452d9454e" x="267.744137" y="185.35742" style="fill: #9370db; fill-opacity: 0.993617; stroke: #9370db; stroke-opacity: 0.993617"/>
    </g>
    <g clip-path="url(#p8a5335b6ff)">
     <use xlink:href="#C1_0_9452d9454e" x="267.744137" y="185.35742" style="fill: #9370db; fill-opacity: 0.993617; stroke: #9370db; stroke-opacity: 0.993617"/>
    </g>
    <g clip-path="url(#p8a5335b6ff)">
     <use xlink:href="#C1_0_9452d9454e" x="268.67619" y="185.769244" style="fill: #9370db; fill-opacity: 0.996558; stroke: #9370db; stroke-opacity: 0.996558"/>
    </g>
    <g clip-path="url(#p8a5335b6ff)">
     <use xlink:href="#C1_0_9452d9454e" x="268.67619" y="185.769244" style="fill: #9370db; fill-opacity: 0.996558; stroke: #9370db; stroke-opacity: 0.996558"/>
    </g>
    <g clip-path="url(#p8a5335b6ff)">
     <use xlink:href="#C1_0_9452d9454e" x="268.67619" y="185.769244" style="fill: #9370db; fill-opacity: 0.996558; stroke: #9370db; stroke-opacity: 0.996558"/>
    </g>
    <g clip-path="url(#p8a5335b6ff)">
     <use xlink:href="#C1_0_9452d9454e" x="268.67619" y="185.769244" style="fill: #9370db; fill-opacity: 0.996558; stroke: #9370db; stroke-opacity: 0.996558"/>
    </g>
    <g clip-path="url(#p8a5335b6ff)">
     <use xlink:href="#C1_0_9452d9454e" x="268.67619" y="185.769244" style="fill: #9370db; fill-opacity: 0.996558; stroke: #9370db; stroke-opacity: 0.996558"/>
    </g>
    <g clip-path="url(#p8a5335b6ff)">
     <use xlink:href="#C1_0_9452d9454e" x="269.01722" y="186.009244" style="fill: #9370db; fill-opacity: 0.998271; stroke: #9370db; stroke-opacity: 0.998271"/>
    </g>
    <g clip-path="url(#p8a5335b6ff)">
     <use xlink:href="#C1_0_9452d9454e" x="269.01722" y="186.009244" style="fill: #9370db; fill-opacity: 0.998271; stroke: #9370db; stroke-opacity: 0.998271"/>
    </g>
    <g clip-path="url(#p8a5335b6ff)">
     <use xlink:href="#C1_0_9452d9454e" x="269.01722" y="186.009244" style="fill: #9370db; fill-opacity: 0.998271; stroke: #9370db; stroke-opacity: 0.998271"/>
    </g>
    <g clip-path="url(#p8a5335b6ff)">
     <use xlink:href="#C1_0_9452d9454e" x="269.01722" y="186.009244" style="fill: #9370db; fill-opacity: 0.998271; stroke: #9370db; stroke-opacity: 0.998271"/>
    </g>
    <g clip-path="url(#p8a5335b6ff)">
     <use xlink:href="#C1_0_9452d9454e" x="269.01722" y="186.009244" style="fill: #9370db; fill-opacity: 0.998271; stroke: #9370db; stroke-opacity: 0.998271"/>
    </g>
    <g clip-path="url(#p8a5335b6ff)">
     <use xlink:href="#C1_0_9452d9454e" x="269.365103" y="186.251317" style="fill: #9370db; stroke: #9370db"/>
    </g>
    <g clip-path="url(#p8a5335b6ff)">
     <use xlink:href="#C1_0_9452d9454e" x="269.365103" y="186.251317" style="fill: #9370db; stroke: #9370db"/>
    </g>
    <g clip-path="url(#p8a5335b6ff)">
     <use xlink:href="#C1_0_9452d9454e" x="269.365103" y="186.251317" style="fill: #9370db; stroke: #9370db"/>
    </g>
    <g clip-path="url(#p8a5335b6ff)">
     <use xlink:href="#C1_0_9452d9454e" x="269.365103" y="186.251317" style="fill: #9370db; stroke: #9370db"/>
    </g>
    <g clip-path="url(#p8a5335b6ff)">
     <use xlink:href="#C1_0_9452d9454e" x="269.365103" y="186.251317" style="fill: #9370db; stroke: #9370db"/>
    </g>
   </g>
   <g id="legend_1">
    <g id="patch_6">
     <path d="M 233.945688 78.82825 
L 362.216 78.82825 
Q 364.216 78.82825 364.216 76.82825 
L 364.216 48.472 
Q 364.216 46.472 362.216 46.472 
L 233.945688 46.472 
Q 231.945688 46.472 231.945688 48.472 
L 231.945688 76.82825 
Q 231.945688 78.82825 233.945688 78.82825 
z
" style="fill: #ffffff; opacity: 0.8; stroke: #cccccc; stroke-linejoin: miter"/>
    </g>
    <g id="Path3DCollection_3">
     <defs>
      <path id="m42ddf688a4" d="M 0 2.236068 
C 0.593012 2.236068 1.161816 2.000462 1.581139 1.581139 
C 2.000462 1.161816 2.236068 0.593012 2.236068 0 
C 2.236068 -0.593012 2.000462 -1.161816 1.581139 -1.581139 
C 1.161816 -2.000462 0.593012 -2.236068 0 -2.236068 
C -0.593012 -2.236068 -1.161816 -2.000462 -1.581139 -1.581139 
C -2.000462 -1.161816 -2.236068 -0.593012 -2.236068 0 
C -2.236068 0.593012 -2.000462 1.161816 -1.581139 1.581139 
C -1.161816 2.000462 -0.593012 2.236068 0 2.236068 
z
" style="stroke: #9370db"/>
     </defs>
     <g>
      <use xlink:href="#m42ddf688a4" x="245.945688" y="55.445437" style="fill: #9370db; stroke: #9370db"/>
     </g>
    </g>
    <g id="text_22">
     <!-- Pareto frontiers: 50 -->
     <g transform="translate(263.945688 58.070437) scale(0.1 -0.1)">
      <defs>
       <path id="DejaVuSans-73" d="M 2834 3397 
L 2834 2853 
Q 2591 2978 2328 3040 
Q 2066 3103 1784 3103 
Q 1356 3103 1142 2972 
Q 928 2841 928 2578 
Q 928 2378 1081 2264 
Q 1234 2150 1697 2047 
L 1894 2003 
Q 2506 1872 2764 1633 
Q 3022 1394 3022 966 
Q 3022 478 2636 193 
Q 2250 -91 1575 -91 
Q 1294 -91 989 -36 
Q 684 19 347 128 
L 347 722 
Q 666 556 975 473 
Q 1284 391 1588 391 
Q 1994 391 2212 530 
Q 2431 669 2431 922 
Q 2431 1156 2273 1281 
Q 2116 1406 1581 1522 
L 1381 1569 
Q 847 1681 609 1914 
Q 372 2147 372 2553 
Q 372 3047 722 3315 
Q 1072 3584 1716 3584 
Q 2034 3584 2315 3537 
Q 2597 3491 2834 3397 
z
" transform="scale(0.015625)"/>
       <path id="DejaVuSans-3a" d="M 750 794 
L 1409 794 
L 1409 0 
L 750 0 
L 750 794 
z
M 750 3309 
L 1409 3309 
L 1409 2516 
L 750 2516 
L 750 3309 
z
" transform="scale(0.015625)"/>
      </defs>
      <use xlink:href="#DejaVuSans-50"/>
      <use xlink:href="#DejaVuSans-61" x="55.802734"/>
      <use xlink:href="#DejaVuSans-72" x="117.082031"/>
      <use xlink:href="#DejaVuSans-65" x="155.945312"/>
      <use xlink:href="#DejaVuSans-74" x="217.46875"/>
      <use xlink:href="#DejaVuSans-6f" x="256.677734"/>
      <use xlink:href="#DejaVuSans-20" x="317.859375"/>
      <use xlink:href="#DejaVuSans-66" x="349.646484"/>
      <use xlink:href="#DejaVuSans-72" x="384.851562"/>
      <use xlink:href="#DejaVuSans-6f" x="423.714844"/>
      <use xlink:href="#DejaVuSans-6e" x="484.896484"/>
      <use xlink:href="#DejaVuSans-74" x="548.275391"/>
      <use xlink:href="#DejaVuSans-69" x="587.484375"/>
      <use xlink:href="#DejaVuSans-65" x="615.267578"/>
      <use xlink:href="#DejaVuSans-72" x="676.791016"/>
      <use xlink:href="#DejaVuSans-73" x="717.904297"/>
      <use xlink:href="#DejaVuSans-3a" x="770.003906"/>
      <use xlink:href="#DejaVuSans-20" x="803.695312"/>
      <use xlink:href="#DejaVuSans-35" x="835.482422"/>
      <use xlink:href="#DejaVuSans-30" x="899.105469"/>
     </g>
    </g>
    <g id="Path3DCollection_4">
     <defs>
      <path id="mbf4adaa5b8" d="M 0 2.236068 
C 0.593012 2.236068 1.161816 2.000462 1.581139 1.581139 
C 2.000462 1.161816 2.236068 0.593012 2.236068 0 
C 2.236068 -0.593012 2.000462 -1.161816 1.581139 -1.581139 
C 1.161816 -2.000462 0.593012 -2.236068 0 -2.236068 
C -0.593012 -2.236068 -1.161816 -2.000462 -1.581139 -1.581139 
C -2.000462 -1.161816 -2.236068 -0.593012 -2.236068 0 
C -2.236068 0.593012 -2.000462 1.161816 -1.581139 1.581139 
C -1.161816 2.000462 -0.593012 2.236068 0 2.236068 
z
" style="stroke: #bdb76b"/>
     </defs>
     <g>
      <use xlink:href="#mbf4adaa5b8" x="245.945688" y="70.123562" style="fill: #bdb76b; stroke: #bdb76b"/>
     </g>
    </g>
    <g id="text_23">
     <!-- Normal: 20 -->
     <g transform="translate(263.945688 72.748562) scale(0.1 -0.1)">
      <defs>
       <path id="DejaVuSans-4e" d="M 628 4666 
L 1478 4666 
L 3547 763 
L 3547 4666 
L 4159 4666 
L 4159 0 
L 3309 0 
L 1241 3903 
L 1241 0 
L 628 0 
L 628 4666 
z
" transform="scale(0.015625)"/>
      </defs>
      <use xlink:href="#DejaVuSans-4e"/>
      <use xlink:href="#DejaVuSans-6f" x="74.804688"/>
      <use xlink:href="#DejaVuSans-72" x="135.986328"/>
      <use xlink:href="#DejaVuSans-6d" x="175.349609"/>
      <use xlink:href="#DejaVuSans-61" x="272.761719"/>
      <use xlink:href="#DejaVuSans-6c" x="334.041016"/>
      <use xlink:href="#DejaVuSans-3a" x="361.824219"/>
      <use xlink:href="#DejaVuSans-20" x="395.515625"/>
      <use xlink:href="#DejaVuSans-32" x="427.302734"/>
      <use xlink:href="#DejaVuSans-30" x="490.925781"/>
     </g>
    </g>
   </g>
  </g>
 </g>
 <defs>
  <clipPath id="p8a5335b6ff">
   <rect x="103.104" y="41.472" width="266.112" height="266.112"/>
  </clipPath>
 </defs>
</svg>
