<?xml version="1.0" encoding="utf-8" standalone="no"?>
<!DOCTYPE svg PUBLIC "-//W3C//DTD SVG 1.1//EN"
  "http://www.w3.org/Graphics/SVG/1.1/DTD/svg11.dtd">
<svg xmlns:xlink="http://www.w3.org/1999/xlink" width="1008pt" height="360pt" viewBox="0 0 1008 360" xmlns="http://www.w3.org/2000/svg" version="1.1">
 <metadata>
  <rdf:RDF xmlns:dc="http://purl.org/dc/elements/1.1/" xmlns:cc="http://creativecommons.org/ns#" xmlns:rdf="http://www.w3.org/1999/02/22-rdf-syntax-ns#">
   <cc:Work>
    <dc:type rdf:resource="http://purl.org/dc/dcmitype/StillImage"/>
    <dc:date>2023-09-20T22:44:32.785205</dc:date>
    <dc:format>image/svg+xml</dc:format>
    <dc:creator>
     <cc:Agent>
      <dc:title>Matplotlib v3.7.1, https://matplotlib.org/</dc:title>
     </cc:Agent>
    </dc:creator>
   </cc:Work>
  </rdf:RDF>
 </metadata>
 <defs>
  <style type="text/css">*{stroke-linejoin: round; stroke-linecap: butt}</style>
 </defs>
 <g id="figure_1">
  <g id="patch_1">
   <path d="M 0 360 
L 1008 360 
L 1008 0 
L 0 0 
z
" style="fill: #ffffff"/>
  </g>
  <g id="axes_1">
   <g id="patch_2">
    <path d="M 126 320.4 
L 481.090909 320.4 
L 481.090909 43.2 
L 126 43.2 
z
" style="fill: #ffffff"/>
   </g>
   <g id="patch_3">
    <path d="M 142.140496 142.007241 
L 153.056773 142.007241 
L 153.056773 64.140639 
L 142.140496 64.140639 
z
" clip-path="url(#pe6a7b8ae28)" style="fill: #507dbc; stroke: #04080f; stroke-linejoin: miter"/>
   </g>
   <g id="patch_4">
    <path d="M 157.735178 142.007241 
L 168.651455 142.007241 
L 168.651455 91.862442 
L 157.735178 91.862442 
z
" clip-path="url(#pe6a7b8ae28)" style="fill: #507dbc; stroke: #04080f; stroke-linejoin: miter"/>
   </g>
   <g id="patch_5">
    <path d="M 173.32986 142.007241 
L 184.246137 142.007241 
L 184.246137 91.865345 
L 173.32986 91.865345 
z
" clip-path="url(#pe6a7b8ae28)" style="fill: #507dbc; stroke: #04080f; stroke-linejoin: miter"/>
   </g>
   <g id="patch_6">
    <path d="M 188.924542 142.007241 
L 199.840819 142.007241 
L 199.840819 91.876641 
L 188.924542 91.876641 
z
" clip-path="url(#pe6a7b8ae28)" style="fill: #507dbc; stroke: #04080f; stroke-linejoin: miter"/>
   </g>
   <g id="patch_7">
    <path d="M 204.519224 142.007241 
L 215.435501 142.007241 
L 215.435501 91.856619 
L 204.519224 91.856619 
z
" clip-path="url(#pe6a7b8ae28)" style="fill: #507dbc; stroke: #04080f; stroke-linejoin: miter"/>
   </g>
   <g id="patch_8">
    <path d="M 220.113906 142.007241 
L 231.030183 142.007241 
L 231.030183 91.857004 
L 220.113906 91.857004 
z
" clip-path="url(#pe6a7b8ae28)" style="fill: #507dbc; stroke: #04080f; stroke-linejoin: miter"/>
   </g>
   <g id="patch_9">
    <path d="M 235.708588 142.007241 
L 246.624865 142.007241 
L 246.624865 91.85833 
L 235.708588 91.85833 
z
" clip-path="url(#pe6a7b8ae28)" style="fill: #507dbc; stroke: #04080f; stroke-linejoin: miter"/>
   </g>
   <g id="patch_10">
    <path d="M 251.30327 142.007241 
L 262.219547 142.007241 
L 262.219547 91.859796 
L 251.30327 91.859796 
z
" clip-path="url(#pe6a7b8ae28)" style="fill: #507dbc; stroke: #04080f; stroke-linejoin: miter"/>
   </g>
   <g id="patch_11">
    <path d="M 266.897952 142.007241 
L 277.814229 142.007241 
L 277.814229 91.862194 
L 266.897952 91.862194 
z
" clip-path="url(#pe6a7b8ae28)" style="fill: #507dbc; stroke: #04080f; stroke-linejoin: miter"/>
   </g>
   <g id="patch_12">
    <path d="M 282.492634 142.007241 
L 293.408911 142.007241 
L 293.408911 91.866381 
L 282.492634 91.866381 
z
" clip-path="url(#pe6a7b8ae28)" style="fill: #507dbc; stroke: #04080f; stroke-linejoin: miter"/>
   </g>
   <g id="patch_13">
    <path d="M 298.087316 142.007241 
L 309.003593 142.007241 
L 309.003593 91.869998 
L 298.087316 91.869998 
z
" clip-path="url(#pe6a7b8ae28)" style="fill: #507dbc; stroke: #04080f; stroke-linejoin: miter"/>
   </g>
   <g id="patch_14">
    <path d="M 313.681998 142.007241 
L 324.598275 142.007241 
L 324.598275 91.869998 
L 313.681998 91.869998 
z
" clip-path="url(#pe6a7b8ae28)" style="fill: #507dbc; stroke: #04080f; stroke-linejoin: miter"/>
   </g>
   <g id="patch_15">
    <path d="M 329.27668 142.007241 
L 340.192957 142.007241 
L 340.192957 91.869488 
L 329.27668 91.869488 
z
" clip-path="url(#pe6a7b8ae28)" style="fill: #507dbc; stroke: #04080f; stroke-linejoin: miter"/>
   </g>
   <g id="patch_16">
    <path d="M 344.871362 142.007241 
L 355.787639 142.007241 
L 355.787639 91.869488 
L 344.871362 91.869488 
z
" clip-path="url(#pe6a7b8ae28)" style="fill: #507dbc; stroke: #04080f; stroke-linejoin: miter"/>
   </g>
   <g id="patch_17">
    <path d="M 360.466044 142.007241 
L 371.382321 142.007241 
L 371.382321 91.869488 
L 360.466044 91.869488 
z
" clip-path="url(#pe6a7b8ae28)" style="fill: #507dbc; stroke: #04080f; stroke-linejoin: miter"/>
   </g>
   <g id="patch_18">
    <path d="M 376.060726 142.007241 
L 386.977003 142.007241 
L 386.977003 91.870207 
L 376.060726 91.870207 
z
" clip-path="url(#pe6a7b8ae28)" style="fill: #507dbc; stroke: #04080f; stroke-linejoin: miter"/>
   </g>
   <g id="patch_19">
    <path d="M 391.655408 142.007241 
L 402.571685 142.007241 
L 402.571685 91.870742 
L 391.655408 91.870742 
z
" clip-path="url(#pe6a7b8ae28)" style="fill: #507dbc; stroke: #04080f; stroke-linejoin: miter"/>
   </g>
   <g id="patch_20">
    <path d="M 407.25009 142.007241 
L 418.166367 142.007241 
L 418.166367 91.870742 
L 407.25009 91.870742 
z
" clip-path="url(#pe6a7b8ae28)" style="fill: #507dbc; stroke: #04080f; stroke-linejoin: miter"/>
   </g>
   <g id="patch_21">
    <path d="M 422.844772 142.007241 
L 433.761049 142.007241 
L 433.761049 91.870742 
L 422.844772 91.870742 
z
" clip-path="url(#pe6a7b8ae28)" style="fill: #507dbc; stroke: #04080f; stroke-linejoin: miter"/>
   </g>
   <g id="patch_22">
    <path d="M 438.439454 142.007241 
L 449.355731 142.007241 
L 449.355731 91.870742 
L 438.439454 91.870742 
z
" clip-path="url(#pe6a7b8ae28)" style="fill: #507dbc; stroke: #04080f; stroke-linejoin: miter"/>
   </g>
   <g id="patch_23">
    <path d="M 454.034136 142.007241 
L 464.950413 142.007241 
L 464.950413 91.870742 
L 454.034136 91.870742 
z
" clip-path="url(#pe6a7b8ae28)" style="fill: #507dbc; stroke: #04080f; stroke-linejoin: miter"/>
   </g>
   <g id="patch_24">
    <path d="M 142.140496 142.007241 
L 153.056773 142.007241 
L 153.056773 179.487913 
L 142.140496 179.487913 
z
" clip-path="url(#pe6a7b8ae28)" style="fill: #bbd1ea; stroke: #04080f; stroke-linejoin: miter"/>
   </g>
   <g id="patch_25">
    <path d="M 157.735178 142.007241 
L 168.651455 142.007241 
L 168.651455 223.680205 
L 157.735178 223.680205 
z
" clip-path="url(#pe6a7b8ae28)" style="fill: #bbd1ea; stroke: #04080f; stroke-linejoin: miter"/>
   </g>
   <g id="patch_26">
    <path d="M 173.32986 142.007241 
L 184.246137 142.007241 
L 184.246137 224.612598 
L 173.32986 224.612598 
z
" clip-path="url(#pe6a7b8ae28)" style="fill: #bbd1ea; stroke: #04080f; stroke-linejoin: miter"/>
   </g>
   <g id="patch_27">
    <path d="M 188.924542 142.007241 
L 199.840819 142.007241 
L 199.840819 224.359733 
L 188.924542 224.359733 
z
" clip-path="url(#pe6a7b8ae28)" style="fill: #bbd1ea; stroke: #04080f; stroke-linejoin: miter"/>
   </g>
   <g id="patch_28">
    <path d="M 204.519224 142.007241 
L 215.435501 142.007241 
L 215.435501 227.571306 
L 204.519224 227.571306 
z
" clip-path="url(#pe6a7b8ae28)" style="fill: #bbd1ea; stroke: #04080f; stroke-linejoin: miter"/>
   </g>
   <g id="patch_29">
    <path d="M 220.113906 142.007241 
L 231.030183 142.007241 
L 231.030183 228.155946 
L 220.113906 228.155946 
z
" clip-path="url(#pe6a7b8ae28)" style="fill: #bbd1ea; stroke: #04080f; stroke-linejoin: miter"/>
   </g>
   <g id="patch_30">
    <path d="M 235.708588 142.007241 
L 246.624865 142.007241 
L 246.624865 227.976155 
L 235.708588 227.976155 
z
" clip-path="url(#pe6a7b8ae28)" style="fill: #bbd1ea; stroke: #04080f; stroke-linejoin: miter"/>
   </g>
   <g id="patch_31">
    <path d="M 251.30327 142.007241 
L 262.219547 142.007241 
L 262.219547 229.093358 
L 251.30327 229.093358 
z
" clip-path="url(#pe6a7b8ae28)" style="fill: #bbd1ea; stroke: #04080f; stroke-linejoin: miter"/>
   </g>
   <g id="patch_32">
    <path d="M 266.897952 142.007241 
L 277.814229 142.007241 
L 277.814229 228.85642 
L 266.897952 228.85642 
z
" clip-path="url(#pe6a7b8ae28)" style="fill: #bbd1ea; stroke: #04080f; stroke-linejoin: miter"/>
   </g>
   <g id="patch_33">
    <path d="M 282.492634 142.007241 
L 293.408911 142.007241 
L 293.408911 229.119337 
L 282.492634 229.119337 
z
" clip-path="url(#pe6a7b8ae28)" style="fill: #bbd1ea; stroke: #04080f; stroke-linejoin: miter"/>
   </g>
   <g id="patch_34">
    <path d="M 298.087316 142.007241 
L 309.003593 142.007241 
L 309.003593 228.917013 
L 298.087316 228.917013 
z
" clip-path="url(#pe6a7b8ae28)" style="fill: #bbd1ea; stroke: #04080f; stroke-linejoin: miter"/>
   </g>
   <g id="patch_35">
    <path d="M 313.681998 142.007241 
L 324.598275 142.007241 
L 324.598275 228.917013 
L 313.681998 228.917013 
z
" clip-path="url(#pe6a7b8ae28)" style="fill: #bbd1ea; stroke: #04080f; stroke-linejoin: miter"/>
   </g>
   <g id="patch_36">
    <path d="M 329.27668 142.007241 
L 340.192957 142.007241 
L 340.192957 228.917864 
L 329.27668 228.917864 
z
" clip-path="url(#pe6a7b8ae28)" style="fill: #bbd1ea; stroke: #04080f; stroke-linejoin: miter"/>
   </g>
   <g id="patch_37">
    <path d="M 344.871362 142.007241 
L 355.787639 142.007241 
L 355.787639 228.917864 
L 344.871362 228.917864 
z
" clip-path="url(#pe6a7b8ae28)" style="fill: #bbd1ea; stroke: #04080f; stroke-linejoin: miter"/>
   </g>
   <g id="patch_38">
    <path d="M 360.466044 142.007241 
L 371.382321 142.007241 
L 371.382321 228.917864 
L 360.466044 228.917864 
z
" clip-path="url(#pe6a7b8ae28)" style="fill: #bbd1ea; stroke: #04080f; stroke-linejoin: miter"/>
   </g>
   <g id="patch_39">
    <path d="M 376.060726 142.007241 
L 386.977003 142.007241 
L 386.977003 228.601107 
L 376.060726 228.601107 
z
" clip-path="url(#pe6a7b8ae28)" style="fill: #bbd1ea; stroke: #04080f; stroke-linejoin: miter"/>
   </g>
   <g id="patch_40">
    <path d="M 391.655408 142.007241 
L 402.571685 142.007241 
L 402.571685 228.601679 
L 391.655408 228.601679 
z
" clip-path="url(#pe6a7b8ae28)" style="fill: #bbd1ea; stroke: #04080f; stroke-linejoin: miter"/>
   </g>
   <g id="patch_41">
    <path d="M 407.25009 142.007241 
L 418.166367 142.007241 
L 418.166367 228.601679 
L 407.25009 228.601679 
z
" clip-path="url(#pe6a7b8ae28)" style="fill: #bbd1ea; stroke: #04080f; stroke-linejoin: miter"/>
   </g>
   <g id="patch_42">
    <path d="M 422.844772 142.007241 
L 433.761049 142.007241 
L 433.761049 228.601679 
L 422.844772 228.601679 
z
" clip-path="url(#pe6a7b8ae28)" style="fill: #bbd1ea; stroke: #04080f; stroke-linejoin: miter"/>
   </g>
   <g id="patch_43">
    <path d="M 438.439454 142.007241 
L 449.355731 142.007241 
L 449.355731 228.844047 
L 438.439454 228.844047 
z
" clip-path="url(#pe6a7b8ae28)" style="fill: #bbd1ea; stroke: #04080f; stroke-linejoin: miter"/>
   </g>
   <g id="patch_44">
    <path d="M 454.034136 142.007241 
L 464.950413 142.007241 
L 464.950413 229.586302 
L 454.034136 229.586302 
z
" clip-path="url(#pe6a7b8ae28)" style="fill: #bbd1ea; stroke: #04080f; stroke-linejoin: miter"/>
   </g>
   <g id="matplotlib.axis_1">
    <g id="xtick_1">
     <g id="line2d_1">
      <defs>
       <path id="m1075835384" d="M 0 0 
L 0 3.5 
" style="stroke: #000000; stroke-width: 0.8"/>
      </defs>
      <g>
       <use xlink:href="#m1075835384" x="178.787999" y="320.4" style="stroke: #000000; stroke-width: 0.8"/>
      </g>
     </g>
     <g id="text_1">
      <!-- 0.1 -->
      <g transform="translate(172.223155 334.959375) scale(0.1 -0.1)">
       <defs>
        <path id="Georgia-30" d="M 3209 2919 
Q 3409 2678 3507 2354 
Q 3606 2031 3606 1678 
Q 3606 1253 3484 917 
Q 3363 581 3150 359 
Q 2931 131 2631 15 
Q 2331 -100 1963 -100 
Q 1559 -100 1243 34 
Q 928 169 731 403 
Q 525 647 423 973 
Q 322 1300 322 1678 
Q 322 2050 420 2362 
Q 519 2675 728 2928 
Q 928 3172 1243 3312 
Q 1559 3453 1966 3453 
Q 2394 3453 2700 3309 
Q 3006 3166 3209 2919 
z
M 2916 1678 
Q 2916 2422 2661 2831 
Q 2406 3241 1969 3241 
Q 1525 3241 1269 2831 
Q 1013 2422 1013 1678 
Q 1013 972 1258 542 
Q 1503 113 1963 113 
Q 2422 113 2669 542 
Q 2916 972 2916 1678 
z
" transform="scale(0.015625)"/>
        <path id="Georgia-2e" d="M 1297 359 
Q 1297 184 1170 60 
Q 1044 -63 869 -63 
Q 694 -63 567 60 
Q 441 184 441 359 
Q 441 534 567 661 
Q 694 788 869 788 
Q 1044 788 1170 661 
Q 1297 534 1297 359 
z
" transform="scale(0.015625)"/>
        <path id="Georgia-31" d="M 2528 0 
L 422 0 
L 422 222 
Q 516 228 714 248 
Q 913 269 988 291 
Q 1084 322 1136 392 
Q 1188 463 1188 603 
L 1188 2797 
L 409 2797 
L 409 3059 
L 581 3059 
Q 919 3059 1186 3184 
Q 1453 3309 1569 3453 
L 1828 3453 
Q 1819 3250 1809 2978 
Q 1800 2706 1800 2491 
L 1800 638 
Q 1800 528 1848 442 
Q 1897 356 1988 316 
Q 2069 281 2253 253 
Q 2438 225 2528 222 
L 2528 0 
z
" transform="scale(0.015625)"/>
       </defs>
       <use xlink:href="#Georgia-30"/>
       <use xlink:href="#Georgia-2e" x="61.376953"/>
       <use xlink:href="#Georgia-31" x="88.330078"/>
      </g>
     </g>
    </g>
    <g id="xtick_2">
     <g id="line2d_2">
      <g>
       <use xlink:href="#m1075835384" x="209.977363" y="320.4" style="stroke: #000000; stroke-width: 0.8"/>
      </g>
     </g>
     <g id="text_2">
      <!-- 0.2 -->
      <g transform="translate(202.767988 334.959375) scale(0.1 -0.1)">
       <defs>
        <path id="Georgia-32" d="M 3272 0 
L 344 0 
L 344 425 
Q 428 522 578 642 
Q 728 763 934 903 
Q 1059 988 1234 1088 
Q 1409 1188 1631 1306 
Q 1878 1438 2011 1538 
Q 2144 1638 2253 1784 
Q 2325 1881 2369 2026 
Q 2413 2172 2413 2441 
Q 2413 2831 2203 3014 
Q 1994 3197 1666 3197 
Q 1463 3197 1281 3117 
Q 1100 3038 1009 2897 
Q 1031 2797 1064 2659 
Q 1097 2522 1097 2391 
Q 1097 2272 998 2180 
Q 900 2088 706 2088 
Q 550 2088 465 2195 
Q 381 2303 381 2484 
Q 381 2653 475 2823 
Q 569 2994 744 3138 
Q 916 3278 1169 3365 
Q 1422 3453 1716 3453 
Q 2356 3453 2732 3167 
Q 3109 2881 3109 2403 
Q 3109 2175 3042 1987 
Q 2975 1800 2825 1656 
Q 2659 1497 2437 1383 
Q 2216 1269 1759 1066 
Q 1488 944 1253 811 
Q 1019 678 869 553 
L 3272 553 
L 3272 0 
z
" transform="scale(0.015625)"/>
       </defs>
       <use xlink:href="#Georgia-30"/>
       <use xlink:href="#Georgia-2e" x="61.376953"/>
       <use xlink:href="#Georgia-32" x="88.330078"/>
      </g>
     </g>
    </g>
    <g id="xtick_3">
     <g id="line2d_3">
      <g>
       <use xlink:href="#m1075835384" x="241.166727" y="320.4" style="stroke: #000000; stroke-width: 0.8"/>
      </g>
     </g>
     <g id="text_3">
      <!-- 0.3 -->
      <g transform="translate(233.991727 334.959375) scale(0.1 -0.1)">
       <defs>
        <path id="Georgia-33" d="M 1522 -1141 
Q 1228 -1141 984 -1067 
Q 741 -994 566 -869 
Q 391 -744 295 -581 
Q 200 -419 200 -247 
Q 200 -94 275 29 
Q 350 153 516 153 
Q 703 153 801 61 
Q 900 -31 900 -150 
Q 900 -250 867 -403 
Q 834 -556 816 -622 
Q 838 -650 895 -697 
Q 953 -744 1038 -781 
Q 1138 -828 1247 -856 
Q 1356 -884 1556 -884 
Q 1744 -884 1917 -821 
Q 2091 -759 2222 -622 
Q 2359 -478 2436 -286 
Q 2513 -94 2513 219 
Q 2513 388 2477 553 
Q 2441 719 2344 841 
Q 2247 963 2080 1030 
Q 1913 1097 1656 1097 
L 1247 1097 
L 1247 1456 
L 1519 1456 
Q 1950 1456 2140 1693 
Q 2331 1931 2331 2409 
Q 2331 2800 2147 2998 
Q 1963 3197 1625 3197 
Q 1463 3197 1358 3158 
Q 1253 3119 1188 3081 
Q 1109 3038 1059 2984 
Q 1009 2931 984 2906 
Q 1006 2806 1037 2661 
Q 1069 2516 1069 2384 
Q 1069 2269 970 2176 
Q 872 2084 681 2084 
Q 516 2084 439 2203 
Q 363 2322 363 2478 
Q 363 2641 453 2809 
Q 544 2978 722 3125 
Q 900 3272 1156 3362 
Q 1413 3453 1747 3453 
Q 2131 3453 2382 3339 
Q 2634 3225 2778 3063 
Q 2919 2903 2972 2728 
Q 3025 2553 3025 2428 
Q 3025 2272 2981 2114 
Q 2938 1956 2838 1822 
Q 2728 1675 2548 1554 
Q 2369 1434 2097 1359 
L 2097 1309 
Q 2272 1294 2470 1231 
Q 2669 1169 2828 1047 
Q 2994 919 3100 717 
Q 3206 516 3206 206 
Q 3206 -394 2725 -767 
Q 2244 -1141 1522 -1141 
z
" transform="scale(0.015625)"/>
       </defs>
       <use xlink:href="#Georgia-30"/>
       <use xlink:href="#Georgia-2e" x="61.376953"/>
       <use xlink:href="#Georgia-33" x="88.330078"/>
      </g>
     </g>
    </g>
    <g id="xtick_4">
     <g id="line2d_4">
      <g>
       <use xlink:href="#m1075835384" x="272.356091" y="320.4" style="stroke: #000000; stroke-width: 0.8"/>
      </g>
     </g>
     <g id="text_4">
      <!-- 0.4 -->
      <g transform="translate(265.114684 334.959375) scale(0.1 -0.1)">
       <defs>
        <path id="Georgia-34" d="M 3388 281 
L 2753 281 
L 2753 -1141 
L 2153 -1141 
L 2153 281 
L 153 281 
L 153 763 
L 2344 3434 
L 2753 3434 
L 2753 691 
L 3388 691 
L 3388 281 
z
M 2153 691 
L 2153 2738 
L 466 691 
L 2153 691 
z
" transform="scale(0.015625)"/>
       </defs>
       <use xlink:href="#Georgia-30"/>
       <use xlink:href="#Georgia-2e" x="61.376953"/>
       <use xlink:href="#Georgia-34" x="88.330078"/>
      </g>
     </g>
    </g>
    <g id="xtick_5">
     <g id="line2d_5">
      <g>
       <use xlink:href="#m1075835384" x="303.545455" y="320.4" style="stroke: #000000; stroke-width: 0.8"/>
      </g>
     </g>
     <g id="text_5">
      <!-- 0.5 -->
      <g transform="translate(296.487642 334.959375) scale(0.1 -0.1)">
       <defs>
        <path id="Georgia-35" d="M 2634 1466 
Q 2841 1303 2977 1047 
Q 3113 791 3113 406 
Q 3113 -266 2653 -703 
Q 2194 -1141 1488 -1141 
Q 941 -1141 562 -881 
Q 184 -622 184 -278 
Q 184 -119 262 0 
Q 341 119 503 119 
Q 691 119 789 20 
Q 888 -78 888 -194 
Q 888 -294 853 -444 
Q 819 -594 800 -666 
Q 825 -688 881 -725 
Q 938 -763 1016 -797 
Q 1097 -831 1214 -857 
Q 1331 -884 1488 -884 
Q 1688 -884 1866 -803 
Q 2044 -722 2166 -563 
Q 2300 -388 2367 -164 
Q 2434 59 2434 403 
Q 2434 844 2189 1133 
Q 1944 1422 1544 1422 
Q 1294 1422 1076 1328 
Q 859 1234 688 1016 
L 478 1097 
L 744 3353 
L 2981 3353 
L 2981 2797 
L 997 2797 
L 834 1472 
Q 975 1572 1204 1670 
Q 1434 1769 1709 1769 
Q 1938 1769 2183 1698 
Q 2428 1628 2634 1466 
z
" transform="scale(0.015625)"/>
       </defs>
       <use xlink:href="#Georgia-30"/>
       <use xlink:href="#Georgia-2e" x="61.376953"/>
       <use xlink:href="#Georgia-35" x="88.330078"/>
      </g>
     </g>
    </g>
    <g id="xtick_6">
     <g id="line2d_6">
      <g>
       <use xlink:href="#m1075835384" x="334.734819" y="320.4" style="stroke: #000000; stroke-width: 0.8"/>
      </g>
     </g>
     <g id="text_6">
      <!-- 0.6 -->
      <g transform="translate(327.488725 334.959375) scale(0.1 -0.1)">
       <defs>
        <path id="Georgia-36" d="M 3359 1441 
Q 3359 1116 3242 831 
Q 3125 547 2928 347 
Q 2700 119 2423 9 
Q 2147 -100 1847 -100 
Q 1500 -100 1219 28 
Q 938 156 741 391 
Q 541 628 431 972 
Q 322 1316 322 1744 
Q 322 2859 986 3625 
Q 1650 4391 2766 4544 
L 2822 4263 
L 2541 4213 
Q 1863 3994 1492 3531 
Q 1122 3069 1013 2409 
Q 1281 2644 1543 2741 
Q 1806 2838 2097 2838 
Q 2619 2838 2989 2438 
Q 3359 2038 3359 1441 
z
M 2681 1356 
Q 2681 1863 2448 2169 
Q 2216 2475 1825 2475 
Q 1591 2475 1389 2387 
Q 1188 2300 1000 2094 
Q 997 2056 990 1920 
Q 984 1784 984 1706 
Q 984 975 1223 561 
Q 1463 147 1853 147 
Q 2225 147 2453 470 
Q 2681 794 2681 1356 
z
" transform="scale(0.015625)"/>
       </defs>
       <use xlink:href="#Georgia-30"/>
       <use xlink:href="#Georgia-2e" x="61.376953"/>
       <use xlink:href="#Georgia-36" x="88.330078"/>
      </g>
     </g>
    </g>
    <g id="xtick_7">
     <g id="line2d_7">
      <g>
       <use xlink:href="#m1075835384" x="365.924183" y="320.4" style="stroke: #000000; stroke-width: 0.8"/>
      </g>
     </g>
     <g id="text_7">
      <!-- 0.7 -->
      <g transform="translate(358.995276 334.959375) scale(0.1 -0.1)">
       <defs>
        <path id="Georgia-37" d="M 3216 3150 
L 988 -1141 
L 597 -1141 
L 2694 2828 
L 1466 2828 
Q 1194 2828 1041 2822 
Q 888 2816 759 2763 
Q 663 2722 586 2555 
Q 509 2388 469 2128 
L 278 2128 
L 278 3353 
L 3216 3353 
L 3216 3150 
z
" transform="scale(0.015625)"/>
       </defs>
       <use xlink:href="#Georgia-30"/>
       <use xlink:href="#Georgia-2e" x="61.376953"/>
       <use xlink:href="#Georgia-37" x="88.330078"/>
      </g>
     </g>
    </g>
    <g id="xtick_8">
     <g id="line2d_8">
      <g>
       <use xlink:href="#m1075835384" x="397.113547" y="320.4" style="stroke: #000000; stroke-width: 0.8"/>
      </g>
     </g>
     <g id="text_8">
      <!-- 0.8 -->
      <g transform="translate(389.71589 334.959375) scale(0.1 -0.1)">
       <defs>
        <path id="Georgia-38" d="M 3491 1175 
Q 3491 650 3037 272 
Q 2584 -106 1847 -106 
Q 1156 -106 740 241 
Q 325 588 325 1134 
Q 325 1538 570 1808 
Q 816 2078 1297 2266 
Q 900 2488 703 2753 
Q 506 3019 506 3353 
Q 506 3863 939 4206 
Q 1372 4550 1975 4550 
Q 2578 4550 2951 4225 
Q 3325 3900 3325 3409 
Q 3325 3094 3119 2811 
Q 2913 2528 2513 2347 
Q 3031 2125 3261 1856 
Q 3491 1588 3491 1175 
z
M 2734 3444 
Q 2734 3825 2507 4064 
Q 2281 4303 1928 4303 
Q 1575 4303 1350 4073 
Q 1125 3844 1125 3503 
Q 1125 3175 1381 2947 
Q 1638 2719 2294 2459 
Q 2528 2609 2631 2856 
Q 2734 3103 2734 3444 
z
M 2866 1028 
Q 2866 1225 2781 1373 
Q 2697 1522 2538 1644 
Q 2384 1763 2111 1892 
Q 1838 2022 1519 2156 
Q 1219 1994 1078 1742 
Q 938 1491 938 1169 
Q 938 709 1208 426 
Q 1478 144 1928 144 
Q 2359 144 2612 394 
Q 2866 644 2866 1028 
z
" transform="scale(0.015625)"/>
       </defs>
       <use xlink:href="#Georgia-30"/>
       <use xlink:href="#Georgia-2e" x="61.376953"/>
       <use xlink:href="#Georgia-38" x="88.330078"/>
      </g>
     </g>
    </g>
    <g id="xtick_9">
     <g id="line2d_9">
      <g>
       <use xlink:href="#m1075835384" x="428.302911" y="320.4" style="stroke: #000000; stroke-width: 0.8"/>
      </g>
     </g>
     <g id="text_9">
      <!-- 0.9 -->
      <g transform="translate(421.056817 334.959375) scale(0.1 -0.1)">
       <defs>
        <path id="Georgia-39" d="M 3300 1613 
Q 3300 1069 3128 589 
Q 2956 109 2634 -253 
Q 2319 -609 1864 -845 
Q 1409 -1081 847 -1156 
L 791 -875 
L 1072 -825 
Q 1744 -613 2122 -172 
Q 2500 269 2609 947 
Q 2353 728 2098 626 
Q 1844 525 1525 525 
Q 1016 525 639 922 
Q 263 1319 263 1922 
Q 263 2569 698 3012 
Q 1134 3456 1775 3456 
Q 2472 3456 2886 2959 
Q 3300 2463 3300 1613 
z
M 2638 1650 
Q 2638 2381 2398 2795 
Q 2159 3209 1769 3209 
Q 1397 3209 1169 2889 
Q 941 2569 941 2006 
Q 941 1500 1173 1194 
Q 1406 888 1797 888 
Q 2041 888 2244 977 
Q 2447 1066 2622 1263 
Q 2622 1275 2626 1312 
Q 2631 1350 2631 1419 
Q 2631 1463 2634 1525 
Q 2638 1588 2638 1650 
z
" transform="scale(0.015625)"/>
       </defs>
       <use xlink:href="#Georgia-30"/>
       <use xlink:href="#Georgia-2e" x="61.376953"/>
       <use xlink:href="#Georgia-39" x="88.330078"/>
      </g>
     </g>
    </g>
    <g id="xtick_10">
     <g id="line2d_10">
      <g>
       <use xlink:href="#m1075835384" x="459.492275" y="320.4" style="stroke: #000000; stroke-width: 0.8"/>
      </g>
     </g>
     <g id="text_10">
      <!-- 1.0 -->
      <g transform="translate(452.927431 334.959375) scale(0.1 -0.1)">
       <use xlink:href="#Georgia-31"/>
       <use xlink:href="#Georgia-2e" x="42.96875"/>
       <use xlink:href="#Georgia-30" x="69.921875"/>
      </g>
     </g>
    </g>
    <g id="text_11">
     <!-- The parameter a -->
     <g transform="translate(430.181847 350.26125) scale(0.12 -0.12)">
      <defs>
       <path id="Georgia-Bold-54" d="M 4338 3166 
L 4097 3166 
Q 4000 3450 3786 3775 
Q 3572 4100 3391 4125 
Q 3291 4138 3144 4147 
Q 2997 4156 2891 4156 
L 2744 4156 
L 2744 678 
Q 2744 566 2784 480 
Q 2825 394 2944 344 
Q 3016 316 3167 286 
Q 3319 256 3425 244 
L 3425 0 
L 953 0 
L 953 244 
Q 1044 253 1208 270 
Q 1372 288 1431 313 
Q 1553 363 1593 447 
Q 1634 531 1634 647 
L 1634 4156 
L 1488 4156 
Q 1381 4156 1234 4147 
Q 1088 4138 988 4125 
Q 806 4100 592 3775 
Q 378 3450 281 3166 
L 41 3166 
L 41 4434 
L 4338 4434 
L 4338 3166 
z
" transform="scale(0.015625)"/>
       <path id="Georgia-Bold-68" d="M 4244 0 
L 2363 0 
L 2363 228 
Q 2425 234 2509 243 
Q 2594 253 2634 275 
Q 2700 309 2726 375 
Q 2753 441 2753 569 
L 2753 2031 
Q 2753 2353 2633 2512 
Q 2513 2672 2291 2672 
Q 2166 2672 2058 2634 
Q 1950 2597 1847 2525 
Q 1756 2463 1701 2397 
Q 1647 2331 1609 2281 
L 1609 603 
Q 1609 488 1637 420 
Q 1666 353 1744 309 
Q 1791 281 1867 259 
Q 1944 238 2016 228 
L 2016 0 
L 116 0 
L 116 228 
Q 197 234 273 243 
Q 350 253 409 275 
Q 509 313 545 383 
Q 581 453 581 569 
L 581 4053 
Q 581 4153 534 4265 
Q 488 4378 403 4434 
Q 341 4475 222 4498 
Q 103 4522 9 4528 
L 9 4756 
L 1563 4838 
L 1609 4788 
L 1609 2638 
L 1622 2638 
Q 1741 2744 1836 2830 
Q 1931 2916 2069 3003 
Q 2184 3078 2370 3131 
Q 2556 3184 2772 3184 
Q 3278 3184 3533 2893 
Q 3788 2603 3788 2128 
L 3788 597 
Q 3788 481 3822 412 
Q 3856 344 3950 303 
Q 4006 278 4075 259 
Q 4144 241 4244 228 
L 4244 0 
z
" transform="scale(0.015625)"/>
       <path id="Georgia-Bold-65" d="M 3541 747 
Q 3431 569 3276 411 
Q 3122 253 2925 141 
Q 2716 22 2502 -39 
Q 2288 -100 2009 -100 
Q 1547 -100 1211 31 
Q 875 163 656 384 
Q 438 606 330 907 
Q 222 1209 222 1563 
Q 222 1881 339 2173 
Q 456 2466 672 2694 
Q 884 2916 1207 3053 
Q 1531 3191 1931 3191 
Q 2369 3191 2650 3084 
Q 2931 2978 3116 2791 
Q 3294 2613 3375 2370 
Q 3456 2128 3456 1863 
L 3456 1659 
L 1344 1659 
Q 1344 1019 1591 684 
Q 1838 350 2375 350 
Q 2669 350 2903 511 
Q 3138 672 3303 919 
L 3541 747 
z
M 2347 1934 
Q 2347 2122 2328 2319 
Q 2309 2516 2263 2641 
Q 2209 2788 2117 2863 
Q 2025 2938 1884 2938 
Q 1644 2938 1500 2694 
Q 1356 2450 1344 1922 
L 2347 1934 
z
" transform="scale(0.015625)"/>
       <path id="Georgia-Bold-20" transform="scale(0.015625)"/>
       <path id="Georgia-Bold-70" d="M 3988 1522 
Q 3988 863 3547 391 
Q 3106 -81 2431 -81 
Q 2131 -81 1943 -20 
Q 1756 41 1634 128 
L 1609 128 
L 1609 -750 
Q 1609 -859 1657 -940 
Q 1706 -1022 1794 -1059 
Q 1878 -1094 2033 -1122 
Q 2188 -1150 2291 -1156 
L 2291 -1388 
L 34 -1388 
L 34 -1156 
Q 113 -1150 231 -1133 
Q 350 -1116 409 -1097 
Q 509 -1063 545 -980 
Q 581 -897 581 -791 
L 581 2406 
Q 572 2509 533 2587 
Q 494 2666 409 2725 
Q 347 2766 244 2792 
Q 141 2819 41 2828 
L 41 3056 
L 1563 3138 
L 1609 3097 
L 1609 2750 
L 1634 2744 
Q 1841 2953 2092 3068 
Q 2344 3184 2591 3184 
Q 3238 3184 3613 2726 
Q 3988 2269 3988 1522 
z
M 2866 1509 
Q 2866 1744 2831 1958 
Q 2797 2172 2709 2341 
Q 2625 2509 2486 2609 
Q 2347 2709 2147 2709 
Q 1944 2709 1822 2639 
Q 1700 2569 1609 2456 
L 1609 684 
Q 1628 622 1681 523 
Q 1734 425 1788 366 
Q 1866 281 1966 240 
Q 2066 200 2184 200 
Q 2494 200 2680 533 
Q 2866 866 2866 1509 
z
" transform="scale(0.015625)"/>
       <path id="Georgia-Bold-61" d="M 3753 66 
Q 3616 6 3428 -44 
Q 3241 -94 3031 -94 
Q 2647 -94 2465 20 
Q 2284 134 2219 347 
L 2200 347 
Q 2094 241 1995 166 
Q 1897 91 1784 38 
Q 1638 -31 1502 -64 
Q 1366 -97 1122 -97 
Q 759 -97 503 117 
Q 247 331 247 684 
Q 247 888 303 1030 
Q 359 1172 463 1281 
Q 556 1381 679 1447 
Q 803 1513 950 1569 
Q 1231 1672 1625 1783 
Q 2019 1894 2200 1981 
L 2200 2281 
Q 2200 2359 2187 2487 
Q 2175 2616 2134 2703 
Q 2091 2803 1997 2872 
Q 1903 2941 1750 2941 
Q 1613 2941 1520 2902 
Q 1428 2863 1372 2822 
Q 1381 2759 1425 2631 
Q 1469 2503 1469 2384 
Q 1469 2331 1441 2251 
Q 1413 2172 1359 2125 
Q 1288 2063 1198 2028 
Q 1109 1994 925 1994 
Q 663 1994 528 2120 
Q 394 2247 394 2450 
Q 394 2625 533 2764 
Q 672 2903 872 2994 
Q 1069 3088 1325 3139 
Q 1581 3191 1800 3191 
Q 2103 3191 2356 3155 
Q 2609 3119 2813 3006 
Q 3006 2897 3120 2689 
Q 3234 2481 3234 2147 
Q 3234 1794 3220 1309 
Q 3206 825 3206 672 
Q 3206 531 3248 450 
Q 3291 369 3378 328 
Q 3431 303 3545 298 
Q 3659 294 3753 294 
L 3753 66 
z
M 2200 1694 
Q 2025 1634 1853 1557 
Q 1681 1481 1572 1397 
Q 1456 1309 1390 1173 
Q 1325 1038 1325 853 
Q 1325 609 1436 500 
Q 1547 391 1709 391 
Q 1881 391 1992 461 
Q 2103 531 2188 634 
L 2200 1694 
z
" transform="scale(0.015625)"/>
       <path id="Georgia-Bold-72" d="M 3294 2528 
Q 3294 2291 3147 2111 
Q 3000 1931 2759 1931 
Q 2531 1931 2373 2047 
Q 2216 2163 2216 2388 
Q 2216 2497 2231 2558 
Q 2247 2619 2259 2672 
Q 2116 2666 1956 2572 
Q 1797 2478 1675 2322 
L 1675 606 
Q 1675 497 1709 425 
Q 1744 353 1825 313 
Q 1894 278 2048 254 
Q 2203 231 2272 228 
L 2272 0 
L 181 0 
L 181 228 
Q 259 234 339 245 
Q 419 256 475 275 
Q 575 309 612 381 
Q 650 453 650 569 
L 650 2388 
Q 650 2500 597 2589 
Q 544 2678 469 2731 
Q 413 2769 327 2794 
Q 241 2819 138 2828 
L 138 3056 
L 1628 3138 
L 1675 3091 
L 1675 2638 
L 1688 2638 
Q 1903 2888 2145 3030 
Q 2388 3172 2650 3172 
Q 2941 3172 3117 2992 
Q 3294 2813 3294 2528 
z
" transform="scale(0.015625)"/>
       <path id="Georgia-Bold-6d" d="M 6391 0 
L 4528 0 
L 4528 228 
Q 4597 238 4672 244 
Q 4747 250 4797 275 
Q 4866 306 4884 379 
Q 4903 453 4903 569 
L 4903 2028 
Q 4903 2350 4789 2511 
Q 4675 2672 4463 2672 
Q 4328 2672 4223 2630 
Q 4119 2588 4031 2525 
Q 3941 2459 3891 2393 
Q 3841 2328 3806 2281 
L 3806 603 
Q 3806 491 3832 420 
Q 3859 350 3931 309 
Q 3981 281 4045 259 
Q 4109 238 4181 228 
L 4181 0 
L 2397 0 
L 2397 228 
Q 2456 234 2540 243 
Q 2625 253 2666 275 
Q 2731 309 2751 375 
Q 2772 441 2772 569 
L 2772 2028 
Q 2772 2350 2658 2511 
Q 2544 2672 2331 2672 
Q 2197 2672 2092 2630 
Q 1988 2588 1900 2525 
Q 1809 2459 1759 2393 
Q 1709 2328 1675 2281 
L 1675 603 
Q 1675 494 1703 422 
Q 1731 350 1803 309 
Q 1853 281 1917 259 
Q 1981 238 2053 228 
L 2053 0 
L 181 0 
L 181 228 
Q 263 234 341 243 
Q 419 253 475 275 
Q 575 313 612 383 
Q 650 453 650 569 
L 650 2388 
Q 650 2488 597 2583 
Q 544 2678 469 2731 
Q 413 2769 327 2794 
Q 241 2819 138 2828 
L 138 3056 
L 1628 3138 
L 1675 3091 
L 1675 2650 
L 1688 2650 
Q 1775 2728 1895 2836 
Q 2016 2944 2122 3009 
Q 2238 3084 2419 3134 
Q 2600 3184 2816 3184 
Q 3172 3184 3411 3029 
Q 3650 2875 3750 2619 
L 3778 2619 
Q 3869 2703 4000 2817 
Q 4131 2931 4241 3000 
Q 4363 3078 4552 3131 
Q 4741 3184 4956 3184 
Q 5428 3184 5683 2906 
Q 5938 2628 5938 2116 
L 5938 597 
Q 5938 481 5972 411 
Q 6006 341 6097 303 
Q 6147 281 6220 259 
Q 6294 238 6391 228 
L 6391 0 
z
" transform="scale(0.015625)"/>
       <path id="Georgia-Bold-74" d="M 2506 144 
Q 2306 56 2078 -14 
Q 1850 -84 1522 -84 
Q 1034 -84 798 153 
Q 563 391 563 831 
L 563 2750 
L 0 2750 
L 0 3088 
L 575 3088 
L 575 4034 
L 1591 4034 
L 1591 3088 
L 2466 3088 
L 2466 2750 
L 1597 2750 
L 1597 1038 
Q 1597 672 1698 519 
Q 1800 366 2063 366 
Q 2147 366 2297 378 
Q 2447 391 2506 406 
L 2506 144 
z
" transform="scale(0.015625)"/>
      </defs>
      <use xlink:href="#Georgia-Bold-54"/>
      <use xlink:href="#Georgia-Bold-68" x="68.408203"/>
      <use xlink:href="#Georgia-Bold-65" x="136.376953"/>
      <use xlink:href="#Georgia-Bold-20" x="193.554688"/>
      <use xlink:href="#Georgia-Bold-70" x="218.945312"/>
      <use xlink:href="#Georgia-Bold-61" x="284.716797"/>
      <use xlink:href="#Georgia-Bold-72" x="344.287109"/>
      <use xlink:href="#Georgia-Bold-61" x="396.289062"/>
      <use xlink:href="#Georgia-Bold-6d" x="455.859375"/>
      <use xlink:href="#Georgia-Bold-65" x="557.421875"/>
      <use xlink:href="#Georgia-Bold-74" x="614.599609"/>
      <use xlink:href="#Georgia-Bold-65" x="654.345703"/>
      <use xlink:href="#Georgia-Bold-72" x="711.523438"/>
      <use xlink:href="#Georgia-Bold-20" x="763.525391"/>
      <use xlink:href="#Georgia-Bold-61" x="788.916016"/>
     </g>
    </g>
   </g>
   <g id="matplotlib.axis_2">
    <g id="ytick_1">
     <g id="line2d_11">
      <path d="M 126 314.421723 
L 481.090909 314.421723 
" clip-path="url(#pe6a7b8ae28)" style="fill: none; stroke-dasharray: 2.96,1.28; stroke-dashoffset: 0; stroke: #b0b0b0; stroke-width: 0.8"/>
     </g>
     <g id="line2d_12">
      <defs>
       <path id="mc4e94ade2e" d="M 0 0 
L -3.5 0 
" style="stroke: #000000; stroke-width: 0.8"/>
      </defs>
      <g>
       <use xlink:href="#mc4e94ade2e" x="126" y="314.421723" style="stroke: #000000; stroke-width: 0.8"/>
      </g>
     </g>
     <g id="text_12">
      <!-- −2.0 -->
      <g transform="translate(98.15 318.20141) scale(0.1 -0.1)">
       <defs>
        <path id="Georgia-2212" d="M 3650 1553 
L 466 1553 
L 466 1944 
L 3650 1944 
L 3650 1553 
z
" transform="scale(0.015625)"/>
       </defs>
       <use xlink:href="#Georgia-2212"/>
       <use xlink:href="#Georgia-32" x="64.306641"/>
       <use xlink:href="#Georgia-2e" x="120.166016"/>
       <use xlink:href="#Georgia-30" x="147.119141"/>
      </g>
     </g>
    </g>
    <g id="ytick_2">
     <g id="line2d_13">
      <path d="M 126 271.318102 
L 481.090909 271.318102 
" clip-path="url(#pe6a7b8ae28)" style="fill: none; stroke-dasharray: 2.96,1.28; stroke-dashoffset: 0; stroke: #b0b0b0; stroke-width: 0.8"/>
     </g>
     <g id="line2d_14">
      <g>
       <use xlink:href="#mc4e94ade2e" x="126" y="271.318102" style="stroke: #000000; stroke-width: 0.8"/>
      </g>
     </g>
     <g id="text_13">
      <!-- −1.5 -->
      <g transform="translate(100.29375 275.09779) scale(0.1 -0.1)">
       <use xlink:href="#Georgia-2212"/>
       <use xlink:href="#Georgia-31" x="64.306641"/>
       <use xlink:href="#Georgia-2e" x="107.275391"/>
       <use xlink:href="#Georgia-35" x="134.228516"/>
      </g>
     </g>
    </g>
    <g id="ytick_3">
     <g id="line2d_15">
      <path d="M 126 228.214482 
L 481.090909 228.214482 
" clip-path="url(#pe6a7b8ae28)" style="fill: none; stroke-dasharray: 2.96,1.28; stroke-dashoffset: 0; stroke: #b0b0b0; stroke-width: 0.8"/>
     </g>
     <g id="line2d_16">
      <g>
       <use xlink:href="#mc4e94ade2e" x="126" y="228.214482" style="stroke: #000000; stroke-width: 0.8"/>
      </g>
     </g>
     <g id="text_14">
      <!-- −1.0 -->
      <g transform="translate(99.439063 231.994169) scale(0.1 -0.1)">
       <use xlink:href="#Georgia-2212"/>
       <use xlink:href="#Georgia-31" x="64.306641"/>
       <use xlink:href="#Georgia-2e" x="107.275391"/>
       <use xlink:href="#Georgia-30" x="134.228516"/>
      </g>
     </g>
    </g>
    <g id="ytick_4">
     <g id="line2d_17">
      <path d="M 126 185.110861 
L 481.090909 185.110861 
" clip-path="url(#pe6a7b8ae28)" style="fill: none; stroke-dasharray: 2.96,1.28; stroke-dashoffset: 0; stroke: #b0b0b0; stroke-width: 0.8"/>
     </g>
     <g id="line2d_18">
      <g>
       <use xlink:href="#mc4e94ade2e" x="126" y="185.110861" style="stroke: #000000; stroke-width: 0.8"/>
      </g>
     </g>
     <g id="text_15">
      <!-- −0.5 -->
      <g transform="translate(98.453125 188.890549) scale(0.1 -0.1)">
       <use xlink:href="#Georgia-2212"/>
       <use xlink:href="#Georgia-30" x="64.306641"/>
       <use xlink:href="#Georgia-2e" x="125.683594"/>
       <use xlink:href="#Georgia-35" x="152.636719"/>
      </g>
     </g>
    </g>
    <g id="ytick_5">
     <g id="line2d_19">
      <path d="M 126 142.007241 
L 481.090909 142.007241 
" clip-path="url(#pe6a7b8ae28)" style="fill: none; stroke-dasharray: 2.96,1.28; stroke-dashoffset: 0; stroke: #b0b0b0; stroke-width: 0.8"/>
     </g>
     <g id="line2d_20">
      <g>
       <use xlink:href="#mc4e94ade2e" x="126" y="142.007241" style="stroke: #000000; stroke-width: 0.8"/>
      </g>
     </g>
     <g id="text_16">
      <!-- 0.0 -->
      <g transform="translate(104.029687 145.786928) scale(0.1 -0.1)">
       <use xlink:href="#Georgia-30"/>
       <use xlink:href="#Georgia-2e" x="61.376953"/>
       <use xlink:href="#Georgia-30" x="88.330078"/>
      </g>
     </g>
    </g>
    <g id="ytick_6">
     <g id="line2d_21">
      <path d="M 126 98.90362 
L 481.090909 98.90362 
" clip-path="url(#pe6a7b8ae28)" style="fill: none; stroke-dasharray: 2.96,1.28; stroke-dashoffset: 0; stroke: #b0b0b0; stroke-width: 0.8"/>
     </g>
     <g id="line2d_22">
      <g>
       <use xlink:href="#mc4e94ade2e" x="126" y="98.90362" style="stroke: #000000; stroke-width: 0.8"/>
      </g>
     </g>
     <g id="text_17">
      <!-- 0.5 -->
      <g transform="translate(104.884375 102.683308) scale(0.1 -0.1)">
       <use xlink:href="#Georgia-30"/>
       <use xlink:href="#Georgia-2e" x="61.376953"/>
       <use xlink:href="#Georgia-35" x="88.330078"/>
      </g>
     </g>
    </g>
    <g id="ytick_7">
     <g id="line2d_23">
      <path d="M 126 55.8 
L 481.090909 55.8 
" clip-path="url(#pe6a7b8ae28)" style="fill: none; stroke-dasharray: 2.96,1.28; stroke-dashoffset: 0; stroke: #b0b0b0; stroke-width: 0.8"/>
     </g>
     <g id="line2d_24">
      <g>
       <use xlink:href="#mc4e94ade2e" x="126" y="55.8" style="stroke: #000000; stroke-width: 0.8"/>
      </g>
     </g>
     <g id="text_18">
      <!-- 1.0 -->
      <g transform="translate(105.870312 59.579687) scale(0.1 -0.1)">
       <use xlink:href="#Georgia-31"/>
       <use xlink:href="#Georgia-2e" x="42.96875"/>
       <use xlink:href="#Georgia-30" x="69.921875"/>
      </g>
     </g>
    </g>
    <g id="text_19">
     <!-- The ratio compared to baseline -->
     <g transform="translate(91.5475 277.57875) rotate(-90) scale(0.12 -0.12)">
      <defs>
       <path id="Georgia-Bold-69" d="M 2156 0 
L 181 0 
L 181 228 
Q 263 234 341 243 
Q 419 253 475 275 
Q 575 313 615 383 
Q 656 453 656 569 
L 656 2388 
Q 656 2497 606 2580 
Q 556 2663 481 2713 
Q 425 2750 311 2784 
Q 197 2819 103 2828 
L 103 3056 
L 1634 3138 
L 1681 3091 
L 1681 609 
Q 1681 500 1728 423 
Q 1775 347 1863 309 
Q 1925 281 2000 259 
Q 2075 238 2156 228 
L 2156 0 
z
M 1700 4263 
Q 1700 4025 1517 3858 
Q 1334 3691 1084 3691 
Q 831 3691 648 3858 
Q 466 4025 466 4263 
Q 466 4500 648 4669 
Q 831 4838 1084 4838 
Q 1338 4838 1519 4669 
Q 1700 4500 1700 4263 
z
" transform="scale(0.015625)"/>
       <path id="Georgia-Bold-6f" d="M 3372 2731 
Q 3603 2516 3725 2216 
Q 3847 1916 3847 1566 
Q 3847 1219 3726 911 
Q 3606 603 3375 384 
Q 3128 150 2786 25 
Q 2444 -100 2003 -100 
Q 1622 -100 1301 9 
Q 981 119 734 338 
Q 497 547 359 855 
Q 222 1163 222 1544 
Q 222 1919 342 2211 
Q 463 2503 703 2731 
Q 934 2950 1273 3070 
Q 1613 3191 2031 3191 
Q 2469 3191 2801 3070 
Q 3134 2950 3372 2731 
z
M 2572 566 
Q 2641 741 2673 991 
Q 2706 1241 2706 1572 
Q 2706 1791 2675 2072 
Q 2644 2353 2581 2516 
Q 2506 2713 2373 2825 
Q 2241 2938 2038 2938 
Q 1816 2938 1683 2816 
Q 1550 2694 1478 2500 
Q 1413 2322 1388 2083 
Q 1363 1844 1363 1584 
Q 1363 1244 1384 1020 
Q 1406 797 1491 572 
Q 1563 378 1697 265 
Q 1831 153 2038 153 
Q 2225 153 2359 258 
Q 2494 363 2572 566 
z
" transform="scale(0.015625)"/>
       <path id="Georgia-Bold-63" d="M 1966 -100 
Q 1531 -100 1198 26 
Q 866 153 650 372 
Q 434 594 328 897 
Q 222 1200 222 1556 
Q 222 1881 351 2175 
Q 481 2469 703 2691 
Q 931 2919 1270 3055 
Q 1609 3191 2019 3191 
Q 2594 3191 2928 2973 
Q 3263 2756 3263 2388 
Q 3263 2163 3144 2025 
Q 3025 1888 2734 1888 
Q 2500 1888 2342 2000 
Q 2184 2113 2184 2294 
Q 2184 2447 2234 2597 
Q 2284 2747 2294 2825 
Q 2259 2881 2206 2911 
Q 2153 2941 2041 2941 
Q 1900 2941 1784 2875 
Q 1669 2809 1569 2644 
Q 1472 2488 1414 2225 
Q 1356 1963 1356 1594 
Q 1356 1038 1617 697 
Q 1878 356 2241 356 
Q 2588 356 2792 511 
Q 2997 666 3156 950 
L 3391 788 
Q 3294 597 3159 439 
Q 3025 281 2838 159 
Q 2641 31 2437 -34 
Q 2234 -100 1966 -100 
z
" transform="scale(0.015625)"/>
       <path id="Georgia-Bold-64" d="M 4222 66 
L 2681 -25 
L 2634 19 
L 2634 306 
L 2613 313 
Q 2459 147 2198 23 
Q 1938 -100 1672 -100 
Q 1041 -100 631 369 
Q 222 838 222 1581 
Q 222 2241 680 2712 
Q 1138 3184 1788 3184 
Q 2044 3184 2269 3126 
Q 2494 3069 2628 2991 
L 2628 4013 
Q 2628 4128 2581 4229 
Q 2534 4331 2456 4388 
Q 2359 4456 2214 4486 
Q 2069 4516 1922 4528 
L 1922 4756 
L 3609 4838 
L 3656 4788 
L 3656 691 
Q 3656 572 3695 490 
Q 3734 409 3822 363 
Q 3888 328 4014 312 
Q 4141 297 4222 294 
L 4222 66 
z
M 2628 622 
L 2628 2388 
Q 2606 2459 2567 2546 
Q 2528 2634 2459 2713 
Q 2397 2778 2292 2828 
Q 2188 2878 2056 2878 
Q 1744 2878 1544 2525 
Q 1344 2172 1344 1528 
Q 1344 1275 1380 1073 
Q 1416 872 1506 706 
Q 1597 541 1739 447 
Q 1881 353 2081 353 
Q 2272 353 2397 426 
Q 2522 500 2628 622 
z
" transform="scale(0.015625)"/>
       <path id="Georgia-Bold-62" d="M 3909 1528 
Q 3909 825 3445 362 
Q 2981 -100 2269 -100 
Q 1994 -100 1795 -61 
Q 1597 -22 1459 34 
Q 1316 94 1230 151 
Q 1144 209 1094 247 
L 647 -159 
L 463 -88 
Q 478 141 489 408 
Q 500 675 500 1128 
L 500 4053 
Q 500 4172 451 4273 
Q 403 4375 322 4428 
Q 263 4466 148 4494 
Q 34 4522 -63 4528 
L -63 4756 
L 1481 4838 
L 1528 4788 
L 1528 2756 
L 1547 2756 
Q 1775 2978 2015 3081 
Q 2256 3184 2497 3184 
Q 3153 3184 3531 2737 
Q 3909 2291 3909 1528 
z
M 2788 1491 
Q 2788 1728 2752 1948 
Q 2716 2169 2631 2338 
Q 2547 2506 2409 2607 
Q 2272 2709 2069 2709 
Q 1878 2709 1753 2646 
Q 1628 2584 1528 2463 
L 1528 644 
Q 1547 581 1598 479 
Q 1650 378 1703 322 
Q 1778 241 1862 198 
Q 1947 156 2100 156 
Q 2419 156 2603 504 
Q 2788 853 2788 1491 
z
" transform="scale(0.015625)"/>
       <path id="Georgia-Bold-73" d="M 1628 -106 
Q 1325 -106 1036 -17 
Q 747 72 588 172 
L 494 -41 
L 250 -41 
L 209 1125 
L 438 1125 
Q 484 984 593 807 
Q 703 631 844 491 
Q 991 350 1180 253 
Q 1369 156 1584 156 
Q 1869 156 2008 267 
Q 2147 378 2147 609 
Q 2147 734 2084 815 
Q 2022 897 1913 956 
Q 1791 1019 1645 1062 
Q 1500 1106 1288 1169 
Q 1075 1231 923 1295 
Q 772 1359 609 1497 
Q 469 1619 384 1791 
Q 300 1963 300 2200 
Q 300 2641 670 2912 
Q 1041 3184 1641 3184 
Q 1925 3184 2164 3126 
Q 2403 3069 2566 3000 
L 2631 3184 
L 2869 3184 
L 2919 2119 
L 2697 2119 
Q 2588 2444 2322 2680 
Q 2056 2916 1750 2916 
Q 1509 2916 1371 2816 
Q 1234 2716 1234 2538 
Q 1234 2300 1436 2194 
Q 1638 2088 2000 1994 
Q 2559 1850 2818 1601 
Q 3078 1353 3078 969 
Q 3078 456 2676 175 
Q 2275 -106 1628 -106 
z
" transform="scale(0.015625)"/>
       <path id="Georgia-Bold-6c" d="M 2084 0 
L 125 0 
L 125 228 
Q 206 234 282 243 
Q 359 253 419 275 
Q 519 313 555 383 
Q 591 453 591 569 
L 591 4031 
Q 591 4150 542 4251 
Q 494 4353 413 4406 
Q 350 4447 223 4484 
Q 97 4522 0 4528 
L 0 4756 
L 1572 4838 
L 1619 4788 
L 1619 609 
Q 1619 494 1659 422 
Q 1700 350 1791 309 
Q 1853 281 1922 259 
Q 1991 238 2084 228 
L 2084 0 
z
" transform="scale(0.015625)"/>
       <path id="Georgia-Bold-6e" d="M 4306 0 
L 2425 0 
L 2425 228 
Q 2484 234 2568 243 
Q 2653 253 2697 275 
Q 2763 309 2791 375 
Q 2819 441 2819 569 
L 2819 2031 
Q 2819 2350 2701 2511 
Q 2584 2672 2356 2672 
Q 2231 2672 2123 2634 
Q 2016 2597 1913 2525 
Q 1822 2463 1767 2397 
Q 1713 2331 1675 2281 
L 1675 603 
Q 1675 494 1706 420 
Q 1738 347 1809 309 
Q 1859 281 1934 259 
Q 2009 238 2081 228 
L 2081 0 
L 181 0 
L 181 228 
Q 259 234 339 245 
Q 419 256 475 275 
Q 575 309 612 381 
Q 650 453 650 569 
L 650 2388 
Q 650 2484 600 2578 
Q 550 2672 469 2731 
Q 413 2769 327 2794 
Q 241 2819 138 2828 
L 138 3056 
L 1628 3138 
L 1675 3091 
L 1675 2638 
L 1688 2638 
Q 1775 2716 1900 2825 
Q 2025 2934 2131 3003 
Q 2247 3078 2434 3131 
Q 2622 3184 2834 3184 
Q 3344 3184 3598 2895 
Q 3853 2606 3853 2128 
L 3853 597 
Q 3853 481 3887 412 
Q 3922 344 4016 303 
Q 4066 281 4139 259 
Q 4213 238 4306 228 
L 4306 0 
z
" transform="scale(0.015625)"/>
      </defs>
      <use xlink:href="#Georgia-Bold-54"/>
      <use xlink:href="#Georgia-Bold-68" x="68.408203"/>
      <use xlink:href="#Georgia-Bold-65" x="136.376953"/>
      <use xlink:href="#Georgia-Bold-20" x="193.554688"/>
      <use xlink:href="#Georgia-Bold-72" x="218.945312"/>
      <use xlink:href="#Georgia-Bold-61" x="270.947266"/>
      <use xlink:href="#Georgia-Bold-74" x="330.517578"/>
      <use xlink:href="#Georgia-Bold-69" x="370.263672"/>
      <use xlink:href="#Georgia-Bold-6f" x="405.615234"/>
      <use xlink:href="#Georgia-Bold-20" x="469.189453"/>
      <use xlink:href="#Georgia-Bold-63" x="494.580078"/>
      <use xlink:href="#Georgia-Bold-6f" x="547.705078"/>
      <use xlink:href="#Georgia-Bold-6d" x="611.279297"/>
      <use xlink:href="#Georgia-Bold-70" x="712.841797"/>
      <use xlink:href="#Georgia-Bold-61" x="778.613281"/>
      <use xlink:href="#Georgia-Bold-72" x="838.183594"/>
      <use xlink:href="#Georgia-Bold-65" x="890.185547"/>
      <use xlink:href="#Georgia-Bold-64" x="947.363281"/>
      <use xlink:href="#Georgia-Bold-20" x="1013.671875"/>
      <use xlink:href="#Georgia-Bold-74" x="1039.0625"/>
      <use xlink:href="#Georgia-Bold-6f" x="1078.808594"/>
      <use xlink:href="#Georgia-Bold-20" x="1142.382812"/>
      <use xlink:href="#Georgia-Bold-62" x="1167.773438"/>
      <use xlink:href="#Georgia-Bold-61" x="1232.324219"/>
      <use xlink:href="#Georgia-Bold-73" x="1291.894531"/>
      <use xlink:href="#Georgia-Bold-65" x="1343.164062"/>
      <use xlink:href="#Georgia-Bold-6c" x="1400.341797"/>
      <use xlink:href="#Georgia-Bold-69" x="1434.765625"/>
      <use xlink:href="#Georgia-Bold-6e" x="1470.117188"/>
      <use xlink:href="#Georgia-Bold-65" x="1539.111328"/>
     </g>
    </g>
   </g>
   <g id="line2d_25">
    <path d="M 147.598635 55.8 
L 163.193317 55.8 
L 178.787999 55.8 
L 194.382681 55.8 
L 209.977363 55.8 
L 225.572045 55.8 
L 241.166727 55.8 
L 256.761409 55.8 
L 272.356091 55.8 
L 287.950773 55.8 
L 303.545455 55.8 
L 319.140137 55.8 
L 334.734819 55.8 
L 350.329501 55.8 
L 365.924183 55.8 
L 381.518865 55.8 
L 397.113547 55.8 
L 412.708229 55.8 
L 428.302911 55.8 
L 443.897593 55.8 
L 459.492275 55.8 
" clip-path="url(#pe6a7b8ae28)" style="fill: none; stroke: #1d3557; stroke-width: 1.5; stroke-linecap: square"/>
    <defs>
     <path id="md0eca0e1fa" d="M 0 2 
C 0.530406 2 1.03916 1.789267 1.414214 1.414214 
C 1.789267 1.03916 2 0.530406 2 0 
C 2 -0.530406 1.789267 -1.03916 1.414214 -1.414214 
C 1.03916 -1.789267 0.530406 -2 0 -2 
C -0.530406 -2 -1.03916 -1.789267 -1.414214 -1.414214 
C -1.789267 -1.03916 -2 -0.530406 -2 0 
C -2 0.530406 -1.789267 1.03916 -1.414214 1.414214 
C -1.03916 1.789267 -0.530406 2 0 2 
z
" style="stroke: #1d3557"/>
    </defs>
    <g clip-path="url(#pe6a7b8ae28)">
     <use xlink:href="#md0eca0e1fa" x="147.598635" y="55.8" style="fill: #1d3557; stroke: #1d3557"/>
     <use xlink:href="#md0eca0e1fa" x="163.193317" y="55.8" style="fill: #1d3557; stroke: #1d3557"/>
     <use xlink:href="#md0eca0e1fa" x="178.787999" y="55.8" style="fill: #1d3557; stroke: #1d3557"/>
     <use xlink:href="#md0eca0e1fa" x="194.382681" y="55.8" style="fill: #1d3557; stroke: #1d3557"/>
     <use xlink:href="#md0eca0e1fa" x="209.977363" y="55.8" style="fill: #1d3557; stroke: #1d3557"/>
     <use xlink:href="#md0eca0e1fa" x="225.572045" y="55.8" style="fill: #1d3557; stroke: #1d3557"/>
     <use xlink:href="#md0eca0e1fa" x="241.166727" y="55.8" style="fill: #1d3557; stroke: #1d3557"/>
     <use xlink:href="#md0eca0e1fa" x="256.761409" y="55.8" style="fill: #1d3557; stroke: #1d3557"/>
     <use xlink:href="#md0eca0e1fa" x="272.356091" y="55.8" style="fill: #1d3557; stroke: #1d3557"/>
     <use xlink:href="#md0eca0e1fa" x="287.950773" y="55.8" style="fill: #1d3557; stroke: #1d3557"/>
     <use xlink:href="#md0eca0e1fa" x="303.545455" y="55.8" style="fill: #1d3557; stroke: #1d3557"/>
     <use xlink:href="#md0eca0e1fa" x="319.140137" y="55.8" style="fill: #1d3557; stroke: #1d3557"/>
     <use xlink:href="#md0eca0e1fa" x="334.734819" y="55.8" style="fill: #1d3557; stroke: #1d3557"/>
     <use xlink:href="#md0eca0e1fa" x="350.329501" y="55.8" style="fill: #1d3557; stroke: #1d3557"/>
     <use xlink:href="#md0eca0e1fa" x="365.924183" y="55.8" style="fill: #1d3557; stroke: #1d3557"/>
     <use xlink:href="#md0eca0e1fa" x="381.518865" y="55.8" style="fill: #1d3557; stroke: #1d3557"/>
     <use xlink:href="#md0eca0e1fa" x="397.113547" y="55.8" style="fill: #1d3557; stroke: #1d3557"/>
     <use xlink:href="#md0eca0e1fa" x="412.708229" y="55.8" style="fill: #1d3557; stroke: #1d3557"/>
     <use xlink:href="#md0eca0e1fa" x="428.302911" y="55.8" style="fill: #1d3557; stroke: #1d3557"/>
     <use xlink:href="#md0eca0e1fa" x="443.897593" y="55.8" style="fill: #1d3557; stroke: #1d3557"/>
     <use xlink:href="#md0eca0e1fa" x="459.492275" y="55.8" style="fill: #1d3557; stroke: #1d3557"/>
    </g>
   </g>
   <g id="line2d_26">
    <path d="M 147.598635 228.214482 
L 163.193317 228.214482 
L 178.787999 228.214482 
L 194.382681 228.214482 
L 209.977363 228.214482 
L 225.572045 228.214482 
L 241.166727 228.214482 
L 256.761409 228.214482 
L 272.356091 228.214482 
L 287.950773 228.214482 
L 303.545455 228.214482 
L 319.140137 228.214482 
L 334.734819 228.214482 
L 350.329501 228.214482 
L 365.924183 228.214482 
L 381.518865 228.214482 
L 397.113547 228.214482 
L 412.708229 228.214482 
L 428.302911 228.214482 
L 443.897593 228.214482 
L 459.492275 228.214482 
" clip-path="url(#pe6a7b8ae28)" style="fill: none; stroke: #1d3557; stroke-width: 1.5; stroke-linecap: square"/>
    <g clip-path="url(#pe6a7b8ae28)">
     <use xlink:href="#md0eca0e1fa" x="147.598635" y="228.214482" style="fill: #1d3557; stroke: #1d3557"/>
     <use xlink:href="#md0eca0e1fa" x="163.193317" y="228.214482" style="fill: #1d3557; stroke: #1d3557"/>
     <use xlink:href="#md0eca0e1fa" x="178.787999" y="228.214482" style="fill: #1d3557; stroke: #1d3557"/>
     <use xlink:href="#md0eca0e1fa" x="194.382681" y="228.214482" style="fill: #1d3557; stroke: #1d3557"/>
     <use xlink:href="#md0eca0e1fa" x="209.977363" y="228.214482" style="fill: #1d3557; stroke: #1d3557"/>
     <use xlink:href="#md0eca0e1fa" x="225.572045" y="228.214482" style="fill: #1d3557; stroke: #1d3557"/>
     <use xlink:href="#md0eca0e1fa" x="241.166727" y="228.214482" style="fill: #1d3557; stroke: #1d3557"/>
     <use xlink:href="#md0eca0e1fa" x="256.761409" y="228.214482" style="fill: #1d3557; stroke: #1d3557"/>
     <use xlink:href="#md0eca0e1fa" x="272.356091" y="228.214482" style="fill: #1d3557; stroke: #1d3557"/>
     <use xlink:href="#md0eca0e1fa" x="287.950773" y="228.214482" style="fill: #1d3557; stroke: #1d3557"/>
     <use xlink:href="#md0eca0e1fa" x="303.545455" y="228.214482" style="fill: #1d3557; stroke: #1d3557"/>
     <use xlink:href="#md0eca0e1fa" x="319.140137" y="228.214482" style="fill: #1d3557; stroke: #1d3557"/>
     <use xlink:href="#md0eca0e1fa" x="334.734819" y="228.214482" style="fill: #1d3557; stroke: #1d3557"/>
     <use xlink:href="#md0eca0e1fa" x="350.329501" y="228.214482" style="fill: #1d3557; stroke: #1d3557"/>
     <use xlink:href="#md0eca0e1fa" x="365.924183" y="228.214482" style="fill: #1d3557; stroke: #1d3557"/>
     <use xlink:href="#md0eca0e1fa" x="381.518865" y="228.214482" style="fill: #1d3557; stroke: #1d3557"/>
     <use xlink:href="#md0eca0e1fa" x="397.113547" y="228.214482" style="fill: #1d3557; stroke: #1d3557"/>
     <use xlink:href="#md0eca0e1fa" x="412.708229" y="228.214482" style="fill: #1d3557; stroke: #1d3557"/>
     <use xlink:href="#md0eca0e1fa" x="428.302911" y="228.214482" style="fill: #1d3557; stroke: #1d3557"/>
     <use xlink:href="#md0eca0e1fa" x="443.897593" y="228.214482" style="fill: #1d3557; stroke: #1d3557"/>
     <use xlink:href="#md0eca0e1fa" x="459.492275" y="228.214482" style="fill: #1d3557; stroke: #1d3557"/>
    </g>
   </g>
   <g id="patch_45">
    <path d="M 126 320.4 
L 126 43.2 
" style="fill: none; stroke: #000000; stroke-width: 0.8; stroke-linejoin: miter; stroke-linecap: square"/>
   </g>
   <g id="patch_46">
    <path d="M 481.090909 320.4 
L 481.090909 43.2 
" style="fill: none"/>
   </g>
   <g id="patch_47">
    <path d="M 126 320.4 
L 481.090909 320.4 
" style="fill: none; stroke: #000000; stroke-width: 0.8; stroke-linejoin: miter; stroke-linecap: square"/>
   </g>
   <g id="patch_48">
    <path d="M 126 43.2 
L 481.090909 43.2 
" style="fill: none"/>
   </g>
   <g id="text_20">
    <!-- Avg. vs GitHub caliber -->
    <g transform="translate(234.984205 37.2) scale(0.12 -0.12)">
     <defs>
      <path id="Georgia-Bold-41" d="M 5028 0 
L 2613 0 
L 2613 244 
Q 2781 256 3009 304 
Q 3238 353 3238 425 
Q 3238 450 3233 481 
Q 3228 513 3206 566 
L 2828 1484 
L 1297 1484 
Q 1244 1356 1180 1184 
Q 1116 1013 1069 878 
Q 1009 703 998 625 
Q 988 547 988 516 
Q 988 416 1139 345 
Q 1291 275 1644 244 
L 1644 0 
L -175 0 
L -175 244 
Q -72 250 58 276 
Q 188 303 263 350 
Q 391 425 480 534 
Q 569 644 628 794 
Q 991 1672 1355 2553 
Q 1719 3434 2159 4497 
L 2784 4497 
Q 3397 2991 3744 2116 
Q 4091 1241 4334 666 
Q 4375 572 4437 495 
Q 4500 419 4616 350 
Q 4703 300 4818 275 
Q 4934 250 5028 244 
L 5028 0 
z
M 2700 1794 
L 2056 3400 
L 1422 1794 
L 2700 1794 
z
" transform="scale(0.015625)"/>
      <path id="Georgia-Bold-76" d="M 3744 2872 
Q 3603 2850 3470 2765 
Q 3338 2681 3250 2503 
Q 3031 2047 2820 1583 
Q 2609 1119 2406 684 
Q 2344 553 2264 347 
Q 2184 141 2131 -28 
L 1556 -28 
Q 1197 806 942 1356 
Q 688 1906 403 2538 
Q 338 2684 198 2768 
Q 59 2853 -84 2872 
L -84 3100 
L 1841 3100 
L 1841 2872 
Q 1734 2869 1590 2825 
Q 1447 2781 1447 2713 
Q 1447 2694 1459 2656 
Q 1472 2619 1491 2572 
Q 1591 2334 1792 1887 
Q 1994 1441 2219 947 
Q 2375 1288 2517 1614 
Q 2659 1941 2869 2447 
Q 2897 2522 2901 2569 
Q 2906 2616 2906 2631 
Q 2906 2688 2851 2730 
Q 2797 2772 2722 2803 
Q 2644 2834 2572 2850 
Q 2500 2866 2453 2872 
L 2453 3100 
L 3744 3100 
L 3744 2872 
z
" transform="scale(0.015625)"/>
      <path id="Georgia-Bold-67" d="M 3681 2750 
L 2994 2750 
Q 3116 2613 3177 2459 
Q 3238 2306 3238 2141 
Q 3238 1925 3122 1736 
Q 3006 1547 2819 1428 
Q 2628 1306 2372 1237 
Q 2116 1169 1816 1169 
L 1306 1169 
Q 1269 1141 1223 1080 
Q 1178 1019 1178 963 
Q 1178 825 1287 772 
Q 1397 719 1684 713 
Q 1969 706 2259 689 
Q 2550 672 2675 669 
Q 2856 659 3034 595 
Q 3213 531 3344 428 
Q 3488 319 3581 148 
Q 3675 -22 3675 -244 
Q 3675 -481 3561 -690 
Q 3447 -900 3213 -1053 
Q 2966 -1213 2620 -1300 
Q 2275 -1388 1766 -1388 
Q 944 -1388 516 -1188 
Q 88 -988 88 -588 
Q 88 -341 319 -181 
Q 550 -22 1038 -6 
L 1038 31 
Q 750 128 589 289 
Q 428 450 428 663 
Q 428 794 492 884 
Q 556 975 656 1044 
Q 744 1103 869 1145 
Q 994 1188 1078 1213 
L 1078 1247 
Q 656 1403 457 1628 
Q 259 1853 259 2178 
Q 259 2638 682 2913 
Q 1106 3188 1756 3188 
Q 1969 3188 2167 3152 
Q 2366 3116 2469 3088 
L 3681 3088 
L 3681 2750 
z
M 2216 2153 
Q 2216 2519 2100 2731 
Q 1984 2944 1744 2944 
Q 1622 2944 1531 2886 
Q 1441 2828 1384 2719 
Q 1331 2613 1312 2470 
Q 1294 2328 1294 2178 
Q 1294 1838 1412 1619 
Q 1531 1400 1750 1400 
Q 1975 1400 2095 1597 
Q 2216 1794 2216 2153 
z
M 2741 -472 
Q 2741 -366 2681 -261 
Q 2622 -156 2416 -91 
Q 2303 -72 2045 -65 
Q 1788 -59 1338 -59 
Q 1228 -153 1154 -281 
Q 1081 -409 1081 -591 
Q 1081 -669 1125 -762 
Q 1169 -856 1263 -938 
Q 1372 -1028 1506 -1079 
Q 1641 -1131 1913 -1131 
Q 2316 -1131 2528 -975 
Q 2741 -819 2741 -472 
z
" transform="scale(0.015625)"/>
      <path id="Georgia-Bold-2e" d="M 1669 519 
Q 1669 272 1486 90 
Q 1303 -91 1053 -91 
Q 800 -91 617 89 
Q 434 269 434 519 
Q 434 769 617 951 
Q 800 1134 1053 1134 
Q 1303 1134 1486 950 
Q 1669 766 1669 519 
z
" transform="scale(0.015625)"/>
      <path id="Georgia-Bold-47" d="M 5153 1803 
Q 5056 1794 4981 1781 
Q 4906 1769 4794 1731 
Q 4666 1691 4625 1597 
Q 4584 1503 4584 1400 
L 4584 884 
Q 4584 728 4587 633 
Q 4591 538 4597 397 
Q 4284 209 3673 43 
Q 3063 -122 2550 -122 
Q 2069 -122 1647 25 
Q 1225 172 906 466 
Q 588 756 405 1187 
Q 222 1619 222 2175 
Q 222 2694 394 3134 
Q 566 3575 891 3894 
Q 1209 4209 1667 4381 
Q 2125 4553 2681 4553 
Q 3059 4553 3381 4461 
Q 3703 4369 3913 4263 
L 4106 4434 
L 4378 4434 
L 4406 2816 
L 4131 2816 
Q 3894 3544 3562 3897 
Q 3231 4250 2725 4250 
Q 2125 4250 1798 3725 
Q 1472 3200 1472 2278 
Q 1472 1300 1792 747 
Q 2113 194 2700 194 
Q 2975 194 3189 276 
Q 3403 359 3522 469 
L 3522 1369 
Q 3522 1481 3481 1557 
Q 3441 1634 3319 1691 
Q 3225 1734 3084 1762 
Q 2944 1791 2850 1803 
L 2850 2047 
L 5153 2047 
L 5153 1803 
z
" transform="scale(0.015625)"/>
      <path id="Georgia-Bold-48" d="M 5628 0 
L 3231 0 
L 3231 244 
Q 3309 250 3459 262 
Q 3609 275 3666 300 
Q 3781 347 3825 423 
Q 3869 500 3869 619 
L 3869 2147 
L 1975 2147 
L 1975 653 
Q 1975 547 2020 462 
Q 2066 378 2175 331 
Q 2234 306 2378 278 
Q 2522 250 2613 244 
L 2613 0 
L 216 0 
L 216 244 
Q 294 247 445 264 
Q 597 281 666 306 
Q 778 347 822 430 
Q 866 513 866 625 
L 866 3763 
Q 866 3872 827 3947 
Q 788 4022 666 4078 
Q 575 4119 428 4151 
Q 281 4184 216 4191 
L 216 4434 
L 2613 4434 
L 2613 4191 
Q 2516 4184 2381 4159 
Q 2247 4134 2175 4113 
Q 2053 4072 2014 3983 
Q 1975 3894 1975 3794 
L 1975 2469 
L 3869 2469 
L 3869 3763 
Q 3869 3872 3828 3947 
Q 3788 4022 3666 4078 
Q 3584 4116 3448 4148 
Q 3313 4181 3231 4191 
L 3231 4434 
L 5628 4434 
L 5628 4191 
Q 5528 4184 5403 4164 
Q 5278 4144 5178 4113 
Q 5059 4072 5018 3984 
Q 4978 3897 4978 3794 
L 4978 653 
Q 4978 541 5018 462 
Q 5059 384 5178 331 
Q 5253 300 5395 275 
Q 5538 250 5628 244 
L 5628 0 
z
" transform="scale(0.015625)"/>
      <path id="Georgia-Bold-75" d="M 4259 66 
L 2769 -25 
L 2722 19 
L 2722 428 
L 2703 428 
Q 2597 331 2495 239 
Q 2394 147 2253 72 
Q 2094 -13 1951 -53 
Q 1809 -94 1538 -94 
Q 1066 -94 814 190 
Q 563 475 563 994 
L 563 2400 
Q 563 2522 516 2598 
Q 469 2675 391 2734 
Q 328 2781 228 2801 
Q 128 2822 47 2828 
L 47 3056 
L 1563 3138 
L 1597 3091 
L 1597 1013 
Q 1597 691 1720 537 
Q 1844 384 2059 384 
Q 2281 384 2457 500 
Q 2634 616 2716 747 
L 2716 2431 
Q 2716 2538 2675 2622 
Q 2634 2706 2556 2759 
Q 2500 2797 2395 2809 
Q 2291 2822 2181 2828 
L 2181 3056 
L 3697 3138 
L 3744 3091 
L 3744 678 
Q 3744 569 3787 492 
Q 3831 416 3916 363 
Q 3975 325 4070 311 
Q 4166 297 4259 294 
L 4259 66 
z
" transform="scale(0.015625)"/>
     </defs>
     <use xlink:href="#Georgia-Bold-41"/>
     <use xlink:href="#Georgia-Bold-76" x="75.830078"/>
     <use xlink:href="#Georgia-Bold-67" x="132.519531"/>
     <use xlink:href="#Georgia-Bold-2e" x="190.185547"/>
     <use xlink:href="#Georgia-Bold-20" x="222.998047"/>
     <use xlink:href="#Georgia-Bold-76" x="248.388672"/>
     <use xlink:href="#Georgia-Bold-73" x="305.078125"/>
     <use xlink:href="#Georgia-Bold-20" x="356.347656"/>
     <use xlink:href="#Georgia-Bold-47" x="381.738281"/>
     <use xlink:href="#Georgia-Bold-69" x="462.451172"/>
     <use xlink:href="#Georgia-Bold-74" x="497.802734"/>
     <use xlink:href="#Georgia-Bold-48" x="537.548828"/>
     <use xlink:href="#Georgia-Bold-75" x="628.857422"/>
     <use xlink:href="#Georgia-Bold-62" x="696.533203"/>
     <use xlink:href="#Georgia-Bold-20" x="761.083984"/>
     <use xlink:href="#Georgia-Bold-63" x="786.474609"/>
     <use xlink:href="#Georgia-Bold-61" x="839.599609"/>
     <use xlink:href="#Georgia-Bold-6c" x="899.169922"/>
     <use xlink:href="#Georgia-Bold-69" x="933.59375"/>
     <use xlink:href="#Georgia-Bold-62" x="968.945312"/>
     <use xlink:href="#Georgia-Bold-65" x="1033.496094"/>
     <use xlink:href="#Georgia-Bold-72" x="1090.673828"/>
    </g>
   </g>
   <g id="legend_1">
    <g id="patch_49">
     <path d="M 30.543892 66.79625 
L 101.245455 66.79625 
Q 103.245455 66.79625 103.245455 64.79625 
L 103.245455 36.34 
Q 103.245455 34.34 101.245455 34.34 
L 30.543892 34.34 
Q 28.543892 34.34 28.543892 36.34 
L 28.543892 64.79625 
Q 28.543892 66.79625 30.543892 66.79625 
z
" style="fill: #ffffff; opacity: 0.8"/>
    </g>
    <g id="patch_50">
     <path d="M 32.543892 45.899375 
L 52.543892 45.899375 
L 52.543892 38.899375 
L 32.543892 38.899375 
z
" style="fill: #507dbc; stroke: #04080f; stroke-linejoin: miter"/>
    </g>
    <g id="text_21">
     <!-- Runtime -->
     <g transform="translate(60.543892 45.899375) scale(0.1 -0.1)">
      <defs>
       <path id="Georgia-52" d="M 4625 0 
L 3431 0 
Q 3034 622 2714 1075 
Q 2394 1528 2019 2009 
L 1566 2009 
L 1566 603 
Q 1566 494 1600 411 
Q 1634 328 1747 284 
Q 1803 263 1943 244 
Q 2084 225 2181 222 
L 2181 0 
L 306 0 
L 306 222 
Q 381 228 523 243 
Q 666 259 722 284 
Q 816 325 858 403 
Q 900 481 900 603 
L 900 3809 
Q 900 3919 869 4003 
Q 838 4088 722 4131 
Q 644 4159 519 4182 
Q 394 4206 306 4213 
L 306 4434 
L 2353 4434 
Q 2634 4434 2881 4376 
Q 3128 4319 3328 4191 
Q 3522 4066 3637 3864 
Q 3753 3663 3753 3378 
Q 3753 3122 3675 2925 
Q 3597 2728 3444 2584 
Q 3303 2450 3106 2351 
Q 2909 2253 2672 2184 
Q 3000 1750 3217 1453 
Q 3434 1156 3750 731 
Q 3888 544 3998 455 
Q 4109 366 4219 309 
Q 4300 269 4422 247 
Q 4544 225 4625 222 
L 4625 0 
z
M 2981 3306 
Q 2981 3709 2750 3945 
Q 2519 4181 2097 4181 
L 1566 4181 
L 1566 2278 
L 1975 2278 
Q 2406 2278 2693 2554 
Q 2981 2831 2981 3306 
z
" transform="scale(0.015625)"/>
       <path id="Georgia-75" d="M 3528 56 
L 2525 -13 
L 2478 31 
L 2478 422 
L 2459 422 
Q 2384 344 2290 255 
Q 2197 166 2075 94 
Q 1934 9 1803 -34 
Q 1672 -78 1431 -78 
Q 1022 -78 808 189 
Q 594 456 594 966 
L 594 2441 
Q 594 2553 551 2629 
Q 509 2706 428 2763 
Q 372 2800 287 2817 
Q 203 2834 109 2841 
L 109 3044 
L 1138 3119 
L 1184 3075 
L 1184 934 
Q 1184 600 1334 431 
Q 1484 263 1694 263 
Q 1866 263 2000 316 
Q 2134 369 2225 441 
Q 2309 506 2373 579 
Q 2438 653 2472 716 
L 2472 2463 
Q 2472 2566 2428 2645 
Q 2384 2725 2306 2781 
Q 2250 2819 2139 2826 
Q 2028 2834 1891 2841 
L 1891 3044 
L 3009 3119 
L 3056 3075 
L 3056 628 
Q 3056 522 3100 447 
Q 3144 372 3222 319 
Q 3278 284 3356 273 
Q 3434 263 3528 259 
L 3528 56 
z
" transform="scale(0.015625)"/>
       <path id="Georgia-6e" d="M 3628 0 
L 2119 0 
L 2119 206 
Q 2191 213 2277 219 
Q 2363 225 2419 244 
Q 2506 272 2548 342 
Q 2591 413 2591 525 
L 2591 2109 
Q 2591 2438 2436 2616 
Q 2281 2794 2059 2794 
Q 1894 2794 1756 2742 
Q 1619 2691 1513 2616 
Q 1409 2544 1348 2461 
Q 1288 2378 1259 2328 
L 1259 556 
Q 1259 450 1303 381 
Q 1347 313 1434 275 
Q 1500 244 1576 228 
Q 1653 213 1734 206 
L 1734 0 
L 225 0 
L 225 206 
Q 297 213 373 219 
Q 450 225 506 244 
Q 594 272 636 342 
Q 678 413 678 525 
L 678 2428 
Q 678 2534 633 2623 
Q 588 2713 506 2769 
Q 447 2806 365 2823 
Q 284 2841 191 2847 
L 191 3050 
L 1216 3119 
L 1259 3075 
L 1259 2641 
L 1275 2641 
Q 1350 2716 1462 2820 
Q 1575 2925 1675 2991 
Q 1791 3066 1950 3116 
Q 2109 3166 2309 3166 
Q 2753 3166 2967 2889 
Q 3181 2613 3181 2153 
L 3181 550 
Q 3181 441 3218 373 
Q 3256 306 3347 269 
Q 3422 238 3476 225 
Q 3531 213 3628 206 
L 3628 0 
z
" transform="scale(0.015625)"/>
       <path id="Georgia-74" d="M 2128 134 
Q 1925 50 1744 -8 
Q 1563 -66 1300 -66 
Q 913 -66 755 129 
Q 597 325 597 681 
L 597 2769 
L 41 2769 
L 41 3069 
L 609 3069 
L 609 4028 
L 1178 4028 
L 1178 3069 
L 2063 3069 
L 2063 2769 
L 1184 2769 
L 1184 1047 
Q 1184 853 1198 723 
Q 1213 594 1266 497 
Q 1316 406 1416 359 
Q 1516 313 1684 313 
Q 1763 313 1914 327 
Q 2066 341 2128 363 
L 2128 134 
z
" transform="scale(0.015625)"/>
       <path id="Georgia-69" d="M 1722 0 
L 231 0 
L 231 206 
Q 303 213 379 219 
Q 456 225 513 244 
Q 600 272 642 342 
Q 684 413 684 525 
L 684 2428 
Q 684 2528 639 2611 
Q 594 2694 513 2750 
Q 453 2788 340 2814 
Q 228 2841 134 2847 
L 134 3050 
L 1222 3119 
L 1266 3075 
L 1266 563 
Q 1266 453 1308 381 
Q 1350 309 1441 275 
Q 1509 247 1575 230 
Q 1641 213 1722 206 
L 1722 0 
z
M 1328 4334 
Q 1328 4156 1211 4023 
Q 1094 3891 922 3891 
Q 763 3891 645 4017 
Q 528 4144 528 4306 
Q 528 4478 645 4606 
Q 763 4734 922 4734 
Q 1100 4734 1214 4614 
Q 1328 4494 1328 4334 
z
" transform="scale(0.015625)"/>
       <path id="Georgia-6d" d="M 5503 0 
L 4000 0 
L 4000 206 
Q 4072 213 4145 219 
Q 4219 225 4275 244 
Q 4363 272 4405 342 
Q 4447 413 4447 525 
L 4447 2116 
Q 4447 2441 4298 2617 
Q 4150 2794 3928 2794 
Q 3775 2794 3640 2747 
Q 3506 2700 3394 2616 
Q 3303 2547 3242 2467 
Q 3181 2388 3150 2334 
L 3150 556 
Q 3150 447 3187 376 
Q 3225 306 3316 269 
Q 3388 241 3445 227 
Q 3503 213 3597 206 
L 3597 0 
L 2125 0 
L 2125 206 
Q 2197 213 2264 219 
Q 2331 225 2388 244 
Q 2475 272 2517 342 
Q 2559 413 2559 525 
L 2559 2116 
Q 2559 2441 2411 2617 
Q 2263 2794 2041 2794 
Q 1888 2794 1753 2745 
Q 1619 2697 1506 2613 
Q 1416 2544 1353 2458 
Q 1291 2372 1259 2328 
L 1259 563 
Q 1259 456 1303 384 
Q 1347 313 1434 275 
Q 1500 244 1569 228 
Q 1638 213 1722 206 
L 1722 0 
L 225 0 
L 225 206 
Q 297 213 373 219 
Q 450 225 506 244 
Q 594 272 636 342 
Q 678 413 678 525 
L 678 2441 
Q 678 2541 633 2620 
Q 588 2700 506 2756 
Q 447 2794 359 2817 
Q 272 2841 178 2847 
L 178 3050 
L 1209 3119 
L 1253 3075 
L 1253 2634 
L 1275 2634 
Q 1353 2713 1465 2819 
Q 1578 2925 1675 2991 
Q 1784 3066 1948 3116 
Q 2113 3166 2303 3166 
Q 2603 3166 2818 3005 
Q 3034 2844 3128 2616 
Q 3241 2725 3327 2808 
Q 3413 2891 3553 2984 
Q 3672 3066 3833 3116 
Q 3994 3166 4191 3166 
Q 4581 3166 4809 2909 
Q 5038 2653 5038 2122 
L 5038 556 
Q 5038 447 5075 376 
Q 5113 306 5203 269 
Q 5275 241 5345 227 
Q 5416 213 5503 206 
L 5503 0 
z
" transform="scale(0.015625)"/>
       <path id="Georgia-65" d="M 2963 725 
Q 2769 356 2444 137 
Q 2119 -81 1697 -81 
Q 1325 -81 1045 50 
Q 766 181 584 406 
Q 403 631 314 931 
Q 225 1231 225 1566 
Q 225 1866 320 2155 
Q 416 2444 600 2675 
Q 778 2897 1042 3033 
Q 1306 3169 1634 3169 
Q 1972 3169 2212 3062 
Q 2453 2956 2603 2772 
Q 2747 2597 2817 2359 
Q 2888 2122 2888 1844 
L 2888 1638 
L 847 1638 
Q 847 1334 905 1087 
Q 963 841 1088 653 
Q 1209 472 1406 367 
Q 1603 263 1875 263 
Q 2153 263 2354 392 
Q 2556 522 2744 859 
L 2963 725 
z
M 2272 1900 
Q 2272 2075 2242 2275 
Q 2213 2475 2147 2609 
Q 2075 2753 1950 2843 
Q 1825 2934 1628 2934 
Q 1300 2934 1083 2661 
Q 866 2388 847 1900 
L 2272 1900 
z
" transform="scale(0.015625)"/>
      </defs>
      <use xlink:href="#Georgia-52"/>
      <use xlink:href="#Georgia-75" x="70.166016"/>
      <use xlink:href="#Georgia-6e" x="127.685547"/>
      <use xlink:href="#Georgia-74" x="186.767578"/>
      <use xlink:href="#Georgia-69" x="221.289062"/>
      <use xlink:href="#Georgia-6d" x="250.585938"/>
      <use xlink:href="#Georgia-65" x="338.671875"/>
     </g>
    </g>
    <g id="patch_51">
     <path d="M 32.543892 60.6275 
L 52.543892 60.6275 
L 52.543892 53.6275 
L 32.543892 53.6275 
z
" style="fill: #bbd1ea; stroke: #04080f; stroke-linejoin: miter"/>
    </g>
    <g id="text_22">
     <!-- Price -->
     <g transform="translate(60.543892 60.6275) scale(0.1 -0.1)">
      <defs>
       <path id="Georgia-50" d="M 3700 3341 
Q 3700 2994 3564 2726 
Q 3428 2459 3188 2284 
Q 2950 2109 2665 2028 
Q 2381 1947 2063 1947 
L 1566 1947 
L 1566 603 
Q 1566 494 1602 411 
Q 1638 328 1750 284 
Q 1806 263 1948 244 
Q 2091 225 2209 222 
L 2209 0 
L 306 0 
L 306 222 
Q 381 228 523 243 
Q 666 259 722 284 
Q 816 325 858 403 
Q 900 481 900 603 
L 900 3803 
Q 900 3913 869 4000 
Q 838 4088 722 4131 
Q 603 4172 486 4189 
Q 369 4206 284 4213 
L 284 4434 
L 2309 4434 
Q 2928 4434 3314 4136 
Q 3700 3838 3700 3341 
z
M 2750 2584 
Q 2856 2734 2890 2895 
Q 2925 3056 2925 3184 
Q 2925 3363 2883 3547 
Q 2841 3731 2738 3869 
Q 2628 4016 2450 4097 
Q 2272 4178 2006 4178 
L 1566 4178 
L 1566 2219 
L 1884 2219 
Q 2222 2219 2433 2323 
Q 2644 2428 2750 2584 
z
" transform="scale(0.015625)"/>
       <path id="Georgia-72" d="M 2584 2684 
Q 2584 2525 2506 2401 
Q 2428 2278 2266 2278 
Q 2091 2278 1998 2368 
Q 1906 2459 1906 2569 
Q 1906 2638 1917 2694 
Q 1928 2750 1938 2806 
Q 1791 2806 1594 2687 
Q 1397 2569 1259 2350 
L 1259 556 
Q 1259 447 1301 378 
Q 1344 309 1434 275 
Q 1513 244 1636 228 
Q 1759 213 1850 206 
L 1850 0 
L 225 0 
L 225 206 
Q 297 213 373 219 
Q 450 225 506 244 
Q 594 272 636 342 
Q 678 413 678 525 
L 678 2428 
Q 678 2525 633 2619 
Q 588 2713 506 2769 
Q 447 2806 365 2823 
Q 284 2841 191 2847 
L 191 3050 
L 1216 3119 
L 1259 3075 
L 1259 2641 
L 1275 2641 
Q 1469 2894 1706 3025 
Q 1944 3156 2141 3156 
Q 2338 3156 2461 3028 
Q 2584 2900 2584 2684 
z
" transform="scale(0.015625)"/>
       <path id="Georgia-63" d="M 1650 -81 
Q 981 -81 603 362 
Q 225 806 225 1553 
Q 225 1878 326 2161 
Q 428 2444 622 2675 
Q 806 2897 1084 3033 
Q 1363 3169 1691 3169 
Q 2144 3169 2428 2951 
Q 2713 2734 2713 2359 
Q 2713 2203 2638 2083 
Q 2563 1963 2391 1963 
Q 2206 1963 2104 2056 
Q 2003 2150 2003 2266 
Q 2003 2406 2040 2554 
Q 2078 2703 2084 2772 
Q 2028 2869 1917 2901 
Q 1806 2934 1678 2934 
Q 1528 2934 1392 2870 
Q 1256 2806 1128 2634 
Q 1013 2478 941 2212 
Q 869 1947 869 1578 
Q 869 997 1126 630 
Q 1384 263 1803 263 
Q 2106 263 2311 409 
Q 2516 556 2691 850 
L 2891 719 
Q 2684 350 2346 134 
Q 2009 -81 1650 -81 
z
" transform="scale(0.015625)"/>
      </defs>
      <use xlink:href="#Georgia-50"/>
      <use xlink:href="#Georgia-72" x="60.986328"/>
      <use xlink:href="#Georgia-69" x="101.953125"/>
      <use xlink:href="#Georgia-63" x="131.25"/>
      <use xlink:href="#Georgia-65" x="176.660156"/>
     </g>
    </g>
   </g>
  </g>
  <g id="axes_2">
   <g id="patch_52">
    <path d="M 552.109091 320.4 
L 907.2 320.4 
L 907.2 43.2 
L 552.109091 43.2 
z
" style="fill: #ffffff"/>
   </g>
   <g id="patch_53">
    <path d="M 568.249587 142.007241 
L 579.165864 142.007241 
L 579.165864 92.279861 
L 568.249587 92.279861 
z
" clip-path="url(#p57fcc4fa58)" style="fill: #507dbc; stroke: #04080f; stroke-linejoin: miter"/>
   </g>
   <g id="patch_54">
    <path d="M 583.844269 142.007241 
L 594.760546 142.007241 
L 594.760546 101.481162 
L 583.844269 101.481162 
z
" clip-path="url(#p57fcc4fa58)" style="fill: #507dbc; stroke: #04080f; stroke-linejoin: miter"/>
   </g>
   <g id="patch_55">
    <path d="M 599.438951 142.007241 
L 610.355228 142.007241 
L 610.355228 101.467062 
L 599.438951 101.467062 
z
" clip-path="url(#p57fcc4fa58)" style="fill: #507dbc; stroke: #04080f; stroke-linejoin: miter"/>
   </g>
   <g id="patch_56">
    <path d="M 615.033633 142.007241 
L 625.94991 142.007241 
L 625.94991 101.454961 
L 615.033633 101.454961 
z
" clip-path="url(#p57fcc4fa58)" style="fill: #507dbc; stroke: #04080f; stroke-linejoin: miter"/>
   </g>
   <g id="patch_57">
    <path d="M 630.628315 142.007241 
L 641.544592 142.007241 
L 641.544592 101.458553 
L 630.628315 101.458553 
z
" clip-path="url(#p57fcc4fa58)" style="fill: #507dbc; stroke: #04080f; stroke-linejoin: miter"/>
   </g>
   <g id="patch_58">
    <path d="M 646.222997 142.007241 
L 657.139274 142.007241 
L 657.139274 101.458831 
L 646.222997 101.458831 
z
" clip-path="url(#p57fcc4fa58)" style="fill: #507dbc; stroke: #04080f; stroke-linejoin: miter"/>
   </g>
   <g id="patch_59">
    <path d="M 661.817679 142.007241 
L 672.733956 142.007241 
L 672.733956 101.457411 
L 661.817679 101.457411 
z
" clip-path="url(#p57fcc4fa58)" style="fill: #507dbc; stroke: #04080f; stroke-linejoin: miter"/>
   </g>
   <g id="patch_60">
    <path d="M 677.412361 142.007241 
L 688.328638 142.007241 
L 688.328638 101.458637 
L 677.412361 101.458637 
z
" clip-path="url(#p57fcc4fa58)" style="fill: #507dbc; stroke: #04080f; stroke-linejoin: miter"/>
   </g>
   <g id="patch_61">
    <path d="M 693.007043 142.007241 
L 703.92332 142.007241 
L 703.92332 101.456288 
L 693.007043 101.456288 
z
" clip-path="url(#p57fcc4fa58)" style="fill: #507dbc; stroke: #04080f; stroke-linejoin: miter"/>
   </g>
   <g id="patch_62">
    <path d="M 708.601725 142.007241 
L 719.518002 142.007241 
L 719.518002 101.459666 
L 708.601725 101.459666 
z
" clip-path="url(#p57fcc4fa58)" style="fill: #507dbc; stroke: #04080f; stroke-linejoin: miter"/>
   </g>
   <g id="patch_63">
    <path d="M 724.196407 142.007241 
L 735.112684 142.007241 
L 735.112684 101.458969 
L 724.196407 101.458969 
z
" clip-path="url(#p57fcc4fa58)" style="fill: #507dbc; stroke: #04080f; stroke-linejoin: miter"/>
   </g>
   <g id="patch_64">
    <path d="M 739.791089 142.007241 
L 750.707366 142.007241 
L 750.707366 101.458968 
L 739.791089 101.458968 
z
" clip-path="url(#p57fcc4fa58)" style="fill: #507dbc; stroke: #04080f; stroke-linejoin: miter"/>
   </g>
   <g id="patch_65">
    <path d="M 755.385771 142.007241 
L 766.302048 142.007241 
L 766.302048 101.458332 
L 755.385771 101.458332 
z
" clip-path="url(#p57fcc4fa58)" style="fill: #507dbc; stroke: #04080f; stroke-linejoin: miter"/>
   </g>
   <g id="patch_66">
    <path d="M 770.980453 142.007241 
L 781.89673 142.007241 
L 781.89673 101.458332 
L 770.980453 101.458332 
z
" clip-path="url(#p57fcc4fa58)" style="fill: #507dbc; stroke: #04080f; stroke-linejoin: miter"/>
   </g>
   <g id="patch_67">
    <path d="M 786.575135 142.007241 
L 797.491412 142.007241 
L 797.491412 101.458332 
L 786.575135 101.458332 
z
" clip-path="url(#p57fcc4fa58)" style="fill: #507dbc; stroke: #04080f; stroke-linejoin: miter"/>
   </g>
   <g id="patch_68">
    <path d="M 802.169817 142.007241 
L 813.086094 142.007241 
L 813.086094 101.459185 
L 802.169817 101.459185 
z
" clip-path="url(#p57fcc4fa58)" style="fill: #507dbc; stroke: #04080f; stroke-linejoin: miter"/>
   </g>
   <g id="patch_69">
    <path d="M 817.764499 142.007241 
L 828.680776 142.007241 
L 828.680776 101.459096 
L 817.764499 101.459096 
z
" clip-path="url(#p57fcc4fa58)" style="fill: #507dbc; stroke: #04080f; stroke-linejoin: miter"/>
   </g>
   <g id="patch_70">
    <path d="M 833.359181 142.007241 
L 844.275458 142.007241 
L 844.275458 101.457778 
L 833.359181 101.457778 
z
" clip-path="url(#p57fcc4fa58)" style="fill: #507dbc; stroke: #04080f; stroke-linejoin: miter"/>
   </g>
   <g id="patch_71">
    <path d="M 848.953863 142.007241 
L 859.87014 142.007241 
L 859.87014 101.457778 
L 848.953863 101.457778 
z
" clip-path="url(#p57fcc4fa58)" style="fill: #507dbc; stroke: #04080f; stroke-linejoin: miter"/>
   </g>
   <g id="patch_72">
    <path d="M 864.548545 142.007241 
L 875.464822 142.007241 
L 875.464822 101.605962 
L 864.548545 101.605962 
z
" clip-path="url(#p57fcc4fa58)" style="fill: #507dbc; stroke: #04080f; stroke-linejoin: miter"/>
   </g>
   <g id="patch_73">
    <path d="M 880.143227 142.007241 
L 891.059504 142.007241 
L 891.059504 101.694286 
L 880.143227 101.694286 
z
" clip-path="url(#p57fcc4fa58)" style="fill: #507dbc; stroke: #04080f; stroke-linejoin: miter"/>
   </g>
   <g id="patch_74">
    <path d="M 568.249587 142.007241 
L 579.165864 142.007241 
L 579.165864 207.56108 
L 568.249587 207.56108 
z
" clip-path="url(#p57fcc4fa58)" style="fill: #bbd1ea; stroke: #04080f; stroke-linejoin: miter"/>
   </g>
   <g id="patch_75">
    <path d="M 583.844269 142.007241 
L 594.760546 142.007241 
L 594.760546 280.172003 
L 583.844269 280.172003 
z
" clip-path="url(#p57fcc4fa58)" style="fill: #bbd1ea; stroke: #04080f; stroke-linejoin: miter"/>
   </g>
   <g id="patch_76">
    <path d="M 599.438951 142.007241 
L 610.355228 142.007241 
L 610.355228 281.67145 
L 599.438951 281.67145 
z
" clip-path="url(#p57fcc4fa58)" style="fill: #bbd1ea; stroke: #04080f; stroke-linejoin: miter"/>
   </g>
   <g id="patch_77">
    <path d="M 615.033633 142.007241 
L 625.94991 142.007241 
L 625.94991 287.286143 
L 615.033633 287.286143 
z
" clip-path="url(#p57fcc4fa58)" style="fill: #bbd1ea; stroke: #04080f; stroke-linejoin: miter"/>
   </g>
   <g id="patch_78">
    <path d="M 630.628315 142.007241 
L 641.544592 142.007241 
L 641.544592 290.853542 
L 630.628315 290.853542 
z
" clip-path="url(#p57fcc4fa58)" style="fill: #bbd1ea; stroke: #04080f; stroke-linejoin: miter"/>
   </g>
   <g id="patch_79">
    <path d="M 646.222997 142.007241 
L 657.139274 142.007241 
L 657.139274 292.008096 
L 646.222997 292.008096 
z
" clip-path="url(#p57fcc4fa58)" style="fill: #bbd1ea; stroke: #04080f; stroke-linejoin: miter"/>
   </g>
   <g id="patch_80">
    <path d="M 661.817679 142.007241 
L 672.733956 142.007241 
L 672.733956 290.726902 
L 661.817679 290.726902 
z
" clip-path="url(#p57fcc4fa58)" style="fill: #bbd1ea; stroke: #04080f; stroke-linejoin: miter"/>
   </g>
   <g id="patch_81">
    <path d="M 677.412361 142.007241 
L 688.328638 142.007241 
L 688.328638 293.351122 
L 677.412361 293.351122 
z
" clip-path="url(#p57fcc4fa58)" style="fill: #bbd1ea; stroke: #04080f; stroke-linejoin: miter"/>
   </g>
   <g id="patch_82">
    <path d="M 693.007043 142.007241 
L 703.92332 142.007241 
L 703.92332 292.86925 
L 693.007043 292.86925 
z
" clip-path="url(#p57fcc4fa58)" style="fill: #bbd1ea; stroke: #04080f; stroke-linejoin: miter"/>
   </g>
   <g id="patch_83">
    <path d="M 708.601725 142.007241 
L 719.518002 142.007241 
L 719.518002 293.135963 
L 708.601725 293.135963 
z
" clip-path="url(#p57fcc4fa58)" style="fill: #bbd1ea; stroke: #04080f; stroke-linejoin: miter"/>
   </g>
   <g id="patch_84">
    <path d="M 724.196407 142.007241 
L 735.112684 142.007241 
L 735.112684 292.844879 
L 724.196407 292.844879 
z
" clip-path="url(#p57fcc4fa58)" style="fill: #bbd1ea; stroke: #04080f; stroke-linejoin: miter"/>
   </g>
   <g id="patch_85">
    <path d="M 739.791089 142.007241 
L 750.707366 142.007241 
L 750.707366 292.84399 
L 739.791089 292.84399 
z
" clip-path="url(#p57fcc4fa58)" style="fill: #bbd1ea; stroke: #04080f; stroke-linejoin: miter"/>
   </g>
   <g id="patch_86">
    <path d="M 755.385771 142.007241 
L 766.302048 142.007241 
L 766.302048 292.847949 
L 755.385771 292.847949 
z
" clip-path="url(#p57fcc4fa58)" style="fill: #bbd1ea; stroke: #04080f; stroke-linejoin: miter"/>
   </g>
   <g id="patch_87">
    <path d="M 770.980453 142.007241 
L 781.89673 142.007241 
L 781.89673 292.847949 
L 770.980453 292.847949 
z
" clip-path="url(#p57fcc4fa58)" style="fill: #bbd1ea; stroke: #04080f; stroke-linejoin: miter"/>
   </g>
   <g id="patch_88">
    <path d="M 786.575135 142.007241 
L 797.491412 142.007241 
L 797.491412 292.847949 
L 786.575135 292.847949 
z
" clip-path="url(#p57fcc4fa58)" style="fill: #bbd1ea; stroke: #04080f; stroke-linejoin: miter"/>
   </g>
   <g id="patch_89">
    <path d="M 802.169817 142.007241 
L 813.086094 142.007241 
L 813.086094 292.475073 
L 802.169817 292.475073 
z
" clip-path="url(#p57fcc4fa58)" style="fill: #bbd1ea; stroke: #04080f; stroke-linejoin: miter"/>
   </g>
   <g id="patch_90">
    <path d="M 817.764499 142.007241 
L 828.680776 142.007241 
L 828.680776 292.477737 
L 817.764499 292.477737 
z
" clip-path="url(#p57fcc4fa58)" style="fill: #bbd1ea; stroke: #04080f; stroke-linejoin: miter"/>
   </g>
   <g id="patch_91">
    <path d="M 833.359181 142.007241 
L 844.275458 142.007241 
L 844.275458 295.359621 
L 833.359181 295.359621 
z
" clip-path="url(#p57fcc4fa58)" style="fill: #bbd1ea; stroke: #04080f; stroke-linejoin: miter"/>
   </g>
   <g id="patch_92">
    <path d="M 848.953863 142.007241 
L 859.87014 142.007241 
L 859.87014 295.359621 
L 848.953863 295.359621 
z
" clip-path="url(#p57fcc4fa58)" style="fill: #bbd1ea; stroke: #04080f; stroke-linejoin: miter"/>
   </g>
   <g id="patch_93">
    <path d="M 864.548545 142.007241 
L 875.464822 142.007241 
L 875.464822 296.474322 
L 864.548545 296.474322 
z
" clip-path="url(#p57fcc4fa58)" style="fill: #bbd1ea; stroke: #04080f; stroke-linejoin: miter"/>
   </g>
   <g id="patch_94">
    <path d="M 880.143227 142.007241 
L 891.059504 142.007241 
L 891.059504 307.8 
L 880.143227 307.8 
z
" clip-path="url(#p57fcc4fa58)" style="fill: #bbd1ea; stroke: #04080f; stroke-linejoin: miter"/>
   </g>
   <g id="matplotlib.axis_3">
    <g id="xtick_11">
     <g id="line2d_27">
      <g>
       <use xlink:href="#m1075835384" x="604.897089" y="320.4" style="stroke: #000000; stroke-width: 0.8"/>
      </g>
     </g>
     <g id="text_23">
      <!-- 0.1 -->
      <g transform="translate(598.332246 334.959375) scale(0.1 -0.1)">
       <use xlink:href="#Georgia-30"/>
       <use xlink:href="#Georgia-2e" x="61.376953"/>
       <use xlink:href="#Georgia-31" x="88.330078"/>
      </g>
     </g>
    </g>
    <g id="xtick_12">
     <g id="line2d_28">
      <g>
       <use xlink:href="#m1075835384" x="636.086453" y="320.4" style="stroke: #000000; stroke-width: 0.8"/>
      </g>
     </g>
     <g id="text_24">
      <!-- 0.2 -->
      <g transform="translate(628.877078 334.959375) scale(0.1 -0.1)">
       <use xlink:href="#Georgia-30"/>
       <use xlink:href="#Georgia-2e" x="61.376953"/>
       <use xlink:href="#Georgia-32" x="88.330078"/>
      </g>
     </g>
    </g>
    <g id="xtick_13">
     <g id="line2d_29">
      <g>
       <use xlink:href="#m1075835384" x="667.275817" y="320.4" style="stroke: #000000; stroke-width: 0.8"/>
      </g>
     </g>
     <g id="text_25">
      <!-- 0.3 -->
      <g transform="translate(660.100817 334.959375) scale(0.1 -0.1)">
       <use xlink:href="#Georgia-30"/>
       <use xlink:href="#Georgia-2e" x="61.376953"/>
       <use xlink:href="#Georgia-33" x="88.330078"/>
      </g>
     </g>
    </g>
    <g id="xtick_14">
     <g id="line2d_30">
      <g>
       <use xlink:href="#m1075835384" x="698.465181" y="320.4" style="stroke: #000000; stroke-width: 0.8"/>
      </g>
     </g>
     <g id="text_26">
      <!-- 0.4 -->
      <g transform="translate(691.223775 334.959375) scale(0.1 -0.1)">
       <use xlink:href="#Georgia-30"/>
       <use xlink:href="#Georgia-2e" x="61.376953"/>
       <use xlink:href="#Georgia-34" x="88.330078"/>
      </g>
     </g>
    </g>
    <g id="xtick_15">
     <g id="line2d_31">
      <g>
       <use xlink:href="#m1075835384" x="729.654545" y="320.4" style="stroke: #000000; stroke-width: 0.8"/>
      </g>
     </g>
     <g id="text_27">
      <!-- 0.5 -->
      <g transform="translate(722.596733 334.959375) scale(0.1 -0.1)">
       <use xlink:href="#Georgia-30"/>
       <use xlink:href="#Georgia-2e" x="61.376953"/>
       <use xlink:href="#Georgia-35" x="88.330078"/>
      </g>
     </g>
    </g>
    <g id="xtick_16">
     <g id="line2d_32">
      <g>
       <use xlink:href="#m1075835384" x="760.843909" y="320.4" style="stroke: #000000; stroke-width: 0.8"/>
      </g>
     </g>
     <g id="text_28">
      <!-- 0.6 -->
      <g transform="translate(753.597816 334.959375) scale(0.1 -0.1)">
       <use xlink:href="#Georgia-30"/>
       <use xlink:href="#Georgia-2e" x="61.376953"/>
       <use xlink:href="#Georgia-36" x="88.330078"/>
      </g>
     </g>
    </g>
    <g id="xtick_17">
     <g id="line2d_33">
      <g>
       <use xlink:href="#m1075835384" x="792.033273" y="320.4" style="stroke: #000000; stroke-width: 0.8"/>
      </g>
     </g>
     <g id="text_29">
      <!-- 0.7 -->
      <g transform="translate(785.104367 334.959375) scale(0.1 -0.1)">
       <use xlink:href="#Georgia-30"/>
       <use xlink:href="#Georgia-2e" x="61.376953"/>
       <use xlink:href="#Georgia-37" x="88.330078"/>
      </g>
     </g>
    </g>
    <g id="xtick_18">
     <g id="line2d_34">
      <g>
       <use xlink:href="#m1075835384" x="823.222637" y="320.4" style="stroke: #000000; stroke-width: 0.8"/>
      </g>
     </g>
     <g id="text_30">
      <!-- 0.8 -->
      <g transform="translate(815.824981 334.959375) scale(0.1 -0.1)">
       <use xlink:href="#Georgia-30"/>
       <use xlink:href="#Georgia-2e" x="61.376953"/>
       <use xlink:href="#Georgia-38" x="88.330078"/>
      </g>
     </g>
    </g>
    <g id="xtick_19">
     <g id="line2d_35">
      <g>
       <use xlink:href="#m1075835384" x="854.412001" y="320.4" style="stroke: #000000; stroke-width: 0.8"/>
      </g>
     </g>
     <g id="text_31">
      <!-- 0.9 -->
      <g transform="translate(847.165908 334.959375) scale(0.1 -0.1)">
       <use xlink:href="#Georgia-30"/>
       <use xlink:href="#Georgia-2e" x="61.376953"/>
       <use xlink:href="#Georgia-39" x="88.330078"/>
      </g>
     </g>
    </g>
    <g id="xtick_20">
     <g id="line2d_36">
      <g>
       <use xlink:href="#m1075835384" x="885.601365" y="320.4" style="stroke: #000000; stroke-width: 0.8"/>
      </g>
     </g>
     <g id="text_32">
      <!-- 1.0 -->
      <g transform="translate(879.036522 334.959375) scale(0.1 -0.1)">
       <use xlink:href="#Georgia-31"/>
       <use xlink:href="#Georgia-2e" x="42.96875"/>
       <use xlink:href="#Georgia-30" x="69.921875"/>
      </g>
     </g>
    </g>
   </g>
   <g id="matplotlib.axis_4">
    <g id="ytick_8">
     <g id="line2d_37">
      <path d="M 552.109091 314.421723 
L 907.2 314.421723 
" clip-path="url(#p57fcc4fa58)" style="fill: none; stroke-dasharray: 2.96,1.28; stroke-dashoffset: 0; stroke: #b0b0b0; stroke-width: 0.8"/>
     </g>
     <g id="line2d_38">
      <g>
       <use xlink:href="#mc4e94ade2e" x="552.109091" y="314.421723" style="stroke: #000000; stroke-width: 0.8"/>
      </g>
     </g>
    </g>
    <g id="ytick_9">
     <g id="line2d_39">
      <path d="M 552.109091 271.318102 
L 907.2 271.318102 
" clip-path="url(#p57fcc4fa58)" style="fill: none; stroke-dasharray: 2.96,1.28; stroke-dashoffset: 0; stroke: #b0b0b0; stroke-width: 0.8"/>
     </g>
     <g id="line2d_40">
      <g>
       <use xlink:href="#mc4e94ade2e" x="552.109091" y="271.318102" style="stroke: #000000; stroke-width: 0.8"/>
      </g>
     </g>
    </g>
    <g id="ytick_10">
     <g id="line2d_41">
      <path d="M 552.109091 228.214482 
L 907.2 228.214482 
" clip-path="url(#p57fcc4fa58)" style="fill: none; stroke-dasharray: 2.96,1.28; stroke-dashoffset: 0; stroke: #b0b0b0; stroke-width: 0.8"/>
     </g>
     <g id="line2d_42">
      <g>
       <use xlink:href="#mc4e94ade2e" x="552.109091" y="228.214482" style="stroke: #000000; stroke-width: 0.8"/>
      </g>
     </g>
    </g>
    <g id="ytick_11">
     <g id="line2d_43">
      <path d="M 552.109091 185.110861 
L 907.2 185.110861 
" clip-path="url(#p57fcc4fa58)" style="fill: none; stroke-dasharray: 2.96,1.28; stroke-dashoffset: 0; stroke: #b0b0b0; stroke-width: 0.8"/>
     </g>
     <g id="line2d_44">
      <g>
       <use xlink:href="#mc4e94ade2e" x="552.109091" y="185.110861" style="stroke: #000000; stroke-width: 0.8"/>
      </g>
     </g>
    </g>
    <g id="ytick_12">
     <g id="line2d_45">
      <path d="M 552.109091 142.007241 
L 907.2 142.007241 
" clip-path="url(#p57fcc4fa58)" style="fill: none; stroke-dasharray: 2.96,1.28; stroke-dashoffset: 0; stroke: #b0b0b0; stroke-width: 0.8"/>
     </g>
     <g id="line2d_46">
      <g>
       <use xlink:href="#mc4e94ade2e" x="552.109091" y="142.007241" style="stroke: #000000; stroke-width: 0.8"/>
      </g>
     </g>
    </g>
    <g id="ytick_13">
     <g id="line2d_47">
      <path d="M 552.109091 98.90362 
L 907.2 98.90362 
" clip-path="url(#p57fcc4fa58)" style="fill: none; stroke-dasharray: 2.96,1.28; stroke-dashoffset: 0; stroke: #b0b0b0; stroke-width: 0.8"/>
     </g>
     <g id="line2d_48">
      <g>
       <use xlink:href="#mc4e94ade2e" x="552.109091" y="98.90362" style="stroke: #000000; stroke-width: 0.8"/>
      </g>
     </g>
    </g>
    <g id="ytick_14">
     <g id="line2d_49">
      <path d="M 552.109091 55.8 
L 907.2 55.8 
" clip-path="url(#p57fcc4fa58)" style="fill: none; stroke-dasharray: 2.96,1.28; stroke-dashoffset: 0; stroke: #b0b0b0; stroke-width: 0.8"/>
     </g>
     <g id="line2d_50">
      <g>
       <use xlink:href="#mc4e94ade2e" x="552.109091" y="55.8" style="stroke: #000000; stroke-width: 0.8"/>
      </g>
     </g>
    </g>
   </g>
   <g id="line2d_51">
    <path d="M 573.707725 55.8 
L 589.302407 55.8 
L 604.897089 55.8 
L 620.491771 55.8 
L 636.086453 55.8 
L 651.681135 55.8 
L 667.275817 55.8 
L 682.870499 55.8 
L 698.465181 55.8 
L 714.059863 55.8 
L 729.654545 55.8 
L 745.249227 55.8 
L 760.843909 55.8 
L 776.438591 55.8 
L 792.033273 55.8 
L 807.627955 55.8 
L 823.222637 55.8 
L 838.817319 55.8 
L 854.412001 55.8 
L 870.006683 55.8 
L 885.601365 55.8 
" clip-path="url(#p57fcc4fa58)" style="fill: none; stroke: #1d3557; stroke-width: 1.5; stroke-linecap: square"/>
    <g clip-path="url(#p57fcc4fa58)">
     <use xlink:href="#md0eca0e1fa" x="573.707725" y="55.8" style="fill: #1d3557; stroke: #1d3557"/>
     <use xlink:href="#md0eca0e1fa" x="589.302407" y="55.8" style="fill: #1d3557; stroke: #1d3557"/>
     <use xlink:href="#md0eca0e1fa" x="604.897089" y="55.8" style="fill: #1d3557; stroke: #1d3557"/>
     <use xlink:href="#md0eca0e1fa" x="620.491771" y="55.8" style="fill: #1d3557; stroke: #1d3557"/>
     <use xlink:href="#md0eca0e1fa" x="636.086453" y="55.8" style="fill: #1d3557; stroke: #1d3557"/>
     <use xlink:href="#md0eca0e1fa" x="651.681135" y="55.8" style="fill: #1d3557; stroke: #1d3557"/>
     <use xlink:href="#md0eca0e1fa" x="667.275817" y="55.8" style="fill: #1d3557; stroke: #1d3557"/>
     <use xlink:href="#md0eca0e1fa" x="682.870499" y="55.8" style="fill: #1d3557; stroke: #1d3557"/>
     <use xlink:href="#md0eca0e1fa" x="698.465181" y="55.8" style="fill: #1d3557; stroke: #1d3557"/>
     <use xlink:href="#md0eca0e1fa" x="714.059863" y="55.8" style="fill: #1d3557; stroke: #1d3557"/>
     <use xlink:href="#md0eca0e1fa" x="729.654545" y="55.8" style="fill: #1d3557; stroke: #1d3557"/>
     <use xlink:href="#md0eca0e1fa" x="745.249227" y="55.8" style="fill: #1d3557; stroke: #1d3557"/>
     <use xlink:href="#md0eca0e1fa" x="760.843909" y="55.8" style="fill: #1d3557; stroke: #1d3557"/>
     <use xlink:href="#md0eca0e1fa" x="776.438591" y="55.8" style="fill: #1d3557; stroke: #1d3557"/>
     <use xlink:href="#md0eca0e1fa" x="792.033273" y="55.8" style="fill: #1d3557; stroke: #1d3557"/>
     <use xlink:href="#md0eca0e1fa" x="807.627955" y="55.8" style="fill: #1d3557; stroke: #1d3557"/>
     <use xlink:href="#md0eca0e1fa" x="823.222637" y="55.8" style="fill: #1d3557; stroke: #1d3557"/>
     <use xlink:href="#md0eca0e1fa" x="838.817319" y="55.8" style="fill: #1d3557; stroke: #1d3557"/>
     <use xlink:href="#md0eca0e1fa" x="854.412001" y="55.8" style="fill: #1d3557; stroke: #1d3557"/>
     <use xlink:href="#md0eca0e1fa" x="870.006683" y="55.8" style="fill: #1d3557; stroke: #1d3557"/>
     <use xlink:href="#md0eca0e1fa" x="885.601365" y="55.8" style="fill: #1d3557; stroke: #1d3557"/>
    </g>
   </g>
   <g id="line2d_52">
    <path d="M 573.707725 228.214482 
L 589.302407 228.214482 
L 604.897089 228.214482 
L 620.491771 228.214482 
L 636.086453 228.214482 
L 651.681135 228.214482 
L 667.275817 228.214482 
L 682.870499 228.214482 
L 698.465181 228.214482 
L 714.059863 228.214482 
L 729.654545 228.214482 
L 745.249227 228.214482 
L 760.843909 228.214482 
L 776.438591 228.214482 
L 792.033273 228.214482 
L 807.627955 228.214482 
L 823.222637 228.214482 
L 838.817319 228.214482 
L 854.412001 228.214482 
L 870.006683 228.214482 
L 885.601365 228.214482 
" clip-path="url(#p57fcc4fa58)" style="fill: none; stroke: #1d3557; stroke-width: 1.5; stroke-linecap: square"/>
    <g clip-path="url(#p57fcc4fa58)">
     <use xlink:href="#md0eca0e1fa" x="573.707725" y="228.214482" style="fill: #1d3557; stroke: #1d3557"/>
     <use xlink:href="#md0eca0e1fa" x="589.302407" y="228.214482" style="fill: #1d3557; stroke: #1d3557"/>
     <use xlink:href="#md0eca0e1fa" x="604.897089" y="228.214482" style="fill: #1d3557; stroke: #1d3557"/>
     <use xlink:href="#md0eca0e1fa" x="620.491771" y="228.214482" style="fill: #1d3557; stroke: #1d3557"/>
     <use xlink:href="#md0eca0e1fa" x="636.086453" y="228.214482" style="fill: #1d3557; stroke: #1d3557"/>
     <use xlink:href="#md0eca0e1fa" x="651.681135" y="228.214482" style="fill: #1d3557; stroke: #1d3557"/>
     <use xlink:href="#md0eca0e1fa" x="667.275817" y="228.214482" style="fill: #1d3557; stroke: #1d3557"/>
     <use xlink:href="#md0eca0e1fa" x="682.870499" y="228.214482" style="fill: #1d3557; stroke: #1d3557"/>
     <use xlink:href="#md0eca0e1fa" x="698.465181" y="228.214482" style="fill: #1d3557; stroke: #1d3557"/>
     <use xlink:href="#md0eca0e1fa" x="714.059863" y="228.214482" style="fill: #1d3557; stroke: #1d3557"/>
     <use xlink:href="#md0eca0e1fa" x="729.654545" y="228.214482" style="fill: #1d3557; stroke: #1d3557"/>
     <use xlink:href="#md0eca0e1fa" x="745.249227" y="228.214482" style="fill: #1d3557; stroke: #1d3557"/>
     <use xlink:href="#md0eca0e1fa" x="760.843909" y="228.214482" style="fill: #1d3557; stroke: #1d3557"/>
     <use xlink:href="#md0eca0e1fa" x="776.438591" y="228.214482" style="fill: #1d3557; stroke: #1d3557"/>
     <use xlink:href="#md0eca0e1fa" x="792.033273" y="228.214482" style="fill: #1d3557; stroke: #1d3557"/>
     <use xlink:href="#md0eca0e1fa" x="807.627955" y="228.214482" style="fill: #1d3557; stroke: #1d3557"/>
     <use xlink:href="#md0eca0e1fa" x="823.222637" y="228.214482" style="fill: #1d3557; stroke: #1d3557"/>
     <use xlink:href="#md0eca0e1fa" x="838.817319" y="228.214482" style="fill: #1d3557; stroke: #1d3557"/>
     <use xlink:href="#md0eca0e1fa" x="854.412001" y="228.214482" style="fill: #1d3557; stroke: #1d3557"/>
     <use xlink:href="#md0eca0e1fa" x="870.006683" y="228.214482" style="fill: #1d3557; stroke: #1d3557"/>
     <use xlink:href="#md0eca0e1fa" x="885.601365" y="228.214482" style="fill: #1d3557; stroke: #1d3557"/>
    </g>
   </g>
   <g id="patch_95">
    <path d="M 552.109091 320.4 
L 552.109091 43.2 
" style="fill: none; stroke: #000000; stroke-width: 0.8; stroke-linejoin: miter; stroke-linecap: square"/>
   </g>
   <g id="patch_96">
    <path d="M 907.2 320.4 
L 907.2 43.2 
" style="fill: none"/>
   </g>
   <g id="patch_97">
    <path d="M 552.109091 320.4 
L 907.2 320.4 
" style="fill: none; stroke: #000000; stroke-width: 0.8; stroke-linejoin: miter; stroke-linecap: square"/>
   </g>
   <g id="patch_98">
    <path d="M 552.109091 43.2 
L 907.2 43.2 
" style="fill: none"/>
   </g>
   <g id="text_33">
    <!-- Avg. vs smart baseline -->
    <g transform="translate(661.266733 37.2) scale(0.12 -0.12)">
     <use xlink:href="#Georgia-Bold-41"/>
     <use xlink:href="#Georgia-Bold-76" x="75.830078"/>
     <use xlink:href="#Georgia-Bold-67" x="132.519531"/>
     <use xlink:href="#Georgia-Bold-2e" x="190.185547"/>
     <use xlink:href="#Georgia-Bold-20" x="222.998047"/>
     <use xlink:href="#Georgia-Bold-76" x="248.388672"/>
     <use xlink:href="#Georgia-Bold-73" x="305.078125"/>
     <use xlink:href="#Georgia-Bold-20" x="356.347656"/>
     <use xlink:href="#Georgia-Bold-73" x="381.738281"/>
     <use xlink:href="#Georgia-Bold-6d" x="433.007812"/>
     <use xlink:href="#Georgia-Bold-61" x="534.570312"/>
     <use xlink:href="#Georgia-Bold-72" x="594.140625"/>
     <use xlink:href="#Georgia-Bold-74" x="646.142578"/>
     <use xlink:href="#Georgia-Bold-20" x="685.888672"/>
     <use xlink:href="#Georgia-Bold-62" x="711.279297"/>
     <use xlink:href="#Georgia-Bold-61" x="775.830078"/>
     <use xlink:href="#Georgia-Bold-73" x="835.400391"/>
     <use xlink:href="#Georgia-Bold-65" x="886.669922"/>
     <use xlink:href="#Georgia-Bold-6c" x="943.847656"/>
     <use xlink:href="#Georgia-Bold-69" x="978.271484"/>
     <use xlink:href="#Georgia-Bold-6e" x="1013.623047"/>
     <use xlink:href="#Georgia-Bold-65" x="1082.617188"/>
    </g>
   </g>
  </g>
  <g id="text_34">
   <!-- Average rate -->
   <g transform="translate(470.75625 16.27125) scale(0.12 -0.12)">
    <defs>
     <path id="Georgia-41" d="M 4441 0 
L 2594 0 
L 2594 222 
Q 2838 238 2998 284 
Q 3159 331 3159 400 
Q 3159 428 3153 468 
Q 3147 509 3134 541 
L 2766 1534 
L 1213 1534 
Q 1125 1316 1070 1153 
Q 1016 991 972 853 
Q 931 719 915 634 
Q 900 550 900 497 
Q 900 372 1097 303 
Q 1294 234 1541 222 
L 1541 0 
L -128 0 
L -128 222 
Q -47 228 75 258 
Q 197 288 275 338 
Q 400 422 469 514 
Q 538 606 603 769 
Q 938 1603 1341 2643 
Q 1744 3684 2059 4497 
L 2309 4497 
L 3788 672 
Q 3834 550 3893 475 
Q 3953 400 4059 328 
Q 4131 284 4247 254 
Q 4363 225 4441 222 
L 4441 0 
z
M 2653 1813 
L 1981 3531 
L 1322 1813 
L 2653 1813 
z
" transform="scale(0.015625)"/>
     <path id="Georgia-76" d="M 3269 2891 
Q 3128 2866 3001 2789 
Q 2875 2713 2784 2519 
Q 2600 2100 2403 1645 
Q 2206 1191 1994 691 
Q 1931 547 1861 350 
Q 1791 153 1731 -28 
L 1488 -28 
Q 1191 706 941 1311 
Q 691 1916 422 2550 
Q 359 2694 220 2773 
Q 81 2853 -59 2875 
L -59 3081 
L 1366 3081 
L 1366 2863 
Q 1272 2859 1131 2823 
Q 991 2788 991 2725 
Q 991 2716 1006 2677 
Q 1022 2638 1038 2588 
Q 1166 2269 1400 1697 
Q 1634 1125 1781 775 
Q 1894 1044 2064 1444 
Q 2234 1844 2431 2338 
Q 2463 2422 2491 2495 
Q 2519 2569 2519 2644 
Q 2519 2697 2467 2739 
Q 2416 2781 2344 2813 
Q 2272 2844 2203 2859 
Q 2134 2875 2091 2881 
L 2091 3081 
L 3269 3081 
L 3269 2891 
z
" transform="scale(0.015625)"/>
     <path id="Georgia-61" d="M 3144 56 
Q 2997 3 2886 -30 
Q 2775 -63 2634 -63 
Q 2391 -63 2245 51 
Q 2100 166 2059 384 
L 2041 384 
Q 1838 159 1605 40 
Q 1372 -78 1044 -78 
Q 697 -78 473 134 
Q 250 347 250 691 
Q 250 869 300 1009 
Q 350 1150 450 1263 
Q 528 1356 656 1429 
Q 784 1503 897 1547 
Q 1038 1600 1467 1744 
Q 1897 1888 2047 1969 
L 2047 2278 
Q 2047 2319 2030 2434 
Q 2013 2550 1956 2653 
Q 1894 2769 1780 2855 
Q 1666 2941 1456 2941 
Q 1313 2941 1189 2892 
Q 1066 2844 1016 2791 
Q 1016 2728 1045 2606 
Q 1075 2484 1075 2381 
Q 1075 2272 976 2181 
Q 878 2091 703 2091 
Q 547 2091 473 2202 
Q 400 2313 400 2450 
Q 400 2594 501 2725 
Q 603 2856 766 2959 
Q 906 3047 1106 3108 
Q 1306 3169 1497 3169 
Q 1759 3169 1954 3133 
Q 2150 3097 2309 2978 
Q 2469 2863 2551 2664 
Q 2634 2466 2634 2153 
Q 2634 1706 2625 1361 
Q 2616 1016 2616 606 
Q 2616 484 2658 412 
Q 2700 341 2788 291 
Q 2834 263 2936 259 
Q 3038 256 3144 256 
L 3144 56 
z
M 2053 1706 
Q 1788 1628 1588 1553 
Q 1388 1478 1216 1366 
Q 1059 1259 968 1114 
Q 878 969 878 769 
Q 878 509 1014 387 
Q 1150 266 1359 266 
Q 1581 266 1750 373 
Q 1919 481 2034 628 
L 2053 1706 
z
" transform="scale(0.015625)"/>
     <path id="Georgia-67" d="M 2866 319 
Q 2991 200 3062 50 
Q 3134 -100 3134 -322 
Q 3134 -544 3037 -739 
Q 2941 -934 2744 -1078 
Q 2534 -1225 2243 -1306 
Q 1953 -1388 1525 -1388 
Q 825 -1388 478 -1183 
Q 131 -978 131 -584 
Q 131 -266 381 -81 
Q 631 103 1019 119 
L 1019 163 
Q 925 191 825 233 
Q 725 275 653 331 
Q 572 397 522 486 
Q 472 575 472 706 
Q 472 872 589 1011 
Q 706 1150 944 1250 
L 944 1297 
Q 644 1438 478 1658 
Q 313 1878 313 2169 
Q 313 2606 639 2887 
Q 966 3169 1475 3169 
Q 1616 3169 1755 3141 
Q 1894 3113 2038 3069 
L 3113 3069 
L 3113 2769 
L 2388 2769 
L 2388 2750 
Q 2503 2616 2559 2453 
Q 2616 2291 2616 2134 
Q 2616 1728 2286 1447 
Q 1956 1166 1519 1166 
L 1141 1166 
Q 1069 1141 991 1075 
Q 913 1009 913 897 
Q 913 781 978 720 
Q 1044 659 1138 638 
Q 1228 613 1348 606 
Q 1469 600 1597 597 
Q 1734 594 1973 578 
Q 2213 563 2313 559 
Q 2456 553 2601 490 
Q 2747 428 2866 319 
z
M 2022 2147 
Q 2022 2513 1873 2730 
Q 1725 2947 1456 2947 
Q 1309 2947 1204 2886 
Q 1100 2825 1034 2713 
Q 972 2609 945 2464 
Q 919 2319 919 2166 
Q 919 1819 1070 1600 
Q 1222 1381 1463 1381 
Q 1731 1381 1876 1598 
Q 2022 1816 2022 2147 
z
M 2622 -438 
Q 2622 -263 2540 -150 
Q 2459 -38 2294 3 
Q 2206 16 1934 31 
Q 1663 47 1303 47 
Q 966 -19 823 -173 
Q 681 -328 681 -572 
Q 681 -681 728 -781 
Q 775 -881 891 -966 
Q 1000 -1047 1184 -1098 
Q 1369 -1150 1634 -1150 
Q 2094 -1150 2358 -973 
Q 2622 -797 2622 -438 
z
" transform="scale(0.015625)"/>
     <path id="Georgia-20" transform="scale(0.015625)"/>
    </defs>
    <use xlink:href="#Georgia-41"/>
    <use xlink:href="#Georgia-76" x="67.089844"/>
    <use xlink:href="#Georgia-65" x="116.748047"/>
    <use xlink:href="#Georgia-72" x="165.087891"/>
    <use xlink:href="#Georgia-61" x="206.054688"/>
    <use xlink:href="#Georgia-67" x="256.445312"/>
    <use xlink:href="#Georgia-65" x="307.373047"/>
    <use xlink:href="#Georgia-20" x="355.712891"/>
    <use xlink:href="#Georgia-72" x="379.833984"/>
    <use xlink:href="#Georgia-61" x="420.800781"/>
    <use xlink:href="#Georgia-74" x="471.191406"/>
    <use xlink:href="#Georgia-65" x="505.712891"/>
   </g>
  </g>
 </g>
 <defs>
  <clipPath id="pe6a7b8ae28">
   <rect x="126" y="43.2" width="355.090909" height="277.2"/>
  </clipPath>
  <clipPath id="p57fcc4fa58">
   <rect x="552.109091" y="43.2" width="355.090909" height="277.2"/>
  </clipPath>
 </defs>
</svg>
