<?xml version="1.0" encoding="utf-8" standalone="no"?>
<!DOCTYPE svg PUBLIC "-//W3C//DTD SVG 1.1//EN"
  "http://www.w3.org/Graphics/SVG/1.1/DTD/svg11.dtd">
<svg xmlns:xlink="http://www.w3.org/1999/xlink" width="1008pt" height="360pt" viewBox="0 0 1008 360" xmlns="http://www.w3.org/2000/svg" version="1.1">
 <metadata>
  <rdf:RDF xmlns:dc="http://purl.org/dc/elements/1.1/" xmlns:cc="http://creativecommons.org/ns#" xmlns:rdf="http://www.w3.org/1999/02/22-rdf-syntax-ns#">
   <cc:Work>
    <dc:type rdf:resource="http://purl.org/dc/dcmitype/StillImage"/>
    <dc:date>2023-09-20T22:44:29.722914</dc:date>
    <dc:format>image/svg+xml</dc:format>
    <dc:creator>
     <cc:Agent>
      <dc:title>Matplotlib v3.7.1, https://matplotlib.org/</dc:title>
     </cc:Agent>
    </dc:creator>
   </cc:Work>
  </rdf:RDF>
 </metadata>
 <defs>
  <style type="text/css">*{stroke-linejoin: round; stroke-linecap: butt}</style>
 </defs>
 <g id="figure_1">
  <g id="patch_1">
   <path d="M 0 360 
L 1008 360 
L 1008 0 
L 0 0 
z
" style="fill: #ffffff"/>
  </g>
  <g id="axes_1">
   <g id="patch_2">
    <path d="M 126 320.4 
L 498 320.4 
L 498 43.2 
L 126 43.2 
z
" style="fill: #ffffff"/>
   </g>
   <g id="patch_3">
    <path d="M 142.909091 179.234114 
L 154.345191 179.234114 
L 154.345191 55.8 
L 142.909091 55.8 
z
" clip-path="url(#pbf1e93a36c)" style="fill: #507dbc; stroke: #04080f; stroke-linejoin: miter"/>
   </g>
   <g id="patch_4">
    <path d="M 159.246377 179.234114 
L 170.682477 179.234114 
L 170.682477 112.847455 
L 159.246377 112.847455 
z
" clip-path="url(#pbf1e93a36c)" style="fill: #507dbc; stroke: #04080f; stroke-linejoin: miter"/>
   </g>
   <g id="patch_5">
    <path d="M 175.583663 179.234114 
L 187.019763 179.234114 
L 187.019763 112.768424 
L 175.583663 112.768424 
z
" clip-path="url(#pbf1e93a36c)" style="fill: #507dbc; stroke: #04080f; stroke-linejoin: miter"/>
   </g>
   <g id="patch_6">
    <path d="M 191.920949 179.234114 
L 203.357049 179.234114 
L 203.357049 112.785691 
L 191.920949 112.785691 
z
" clip-path="url(#pbf1e93a36c)" style="fill: #507dbc; stroke: #04080f; stroke-linejoin: miter"/>
   </g>
   <g id="patch_7">
    <path d="M 208.258235 179.234114 
L 219.694335 179.234114 
L 219.694335 112.785691 
L 208.258235 112.785691 
z
" clip-path="url(#pbf1e93a36c)" style="fill: #507dbc; stroke: #04080f; stroke-linejoin: miter"/>
   </g>
   <g id="patch_8">
    <path d="M 224.59552 179.234114 
L 236.031621 179.234114 
L 236.031621 112.785691 
L 224.59552 112.785691 
z
" clip-path="url(#pbf1e93a36c)" style="fill: #507dbc; stroke: #04080f; stroke-linejoin: miter"/>
   </g>
   <g id="patch_9">
    <path d="M 240.932806 179.234114 
L 252.368906 179.234114 
L 252.368906 112.785691 
L 240.932806 112.785691 
z
" clip-path="url(#pbf1e93a36c)" style="fill: #507dbc; stroke: #04080f; stroke-linejoin: miter"/>
   </g>
   <g id="patch_10">
    <path d="M 257.270092 179.234114 
L 268.706192 179.234114 
L 268.706192 112.785691 
L 257.270092 112.785691 
z
" clip-path="url(#pbf1e93a36c)" style="fill: #507dbc; stroke: #04080f; stroke-linejoin: miter"/>
   </g>
   <g id="patch_11">
    <path d="M 273.607378 179.234114 
L 285.043478 179.234114 
L 285.043478 112.785691 
L 273.607378 112.785691 
z
" clip-path="url(#pbf1e93a36c)" style="fill: #507dbc; stroke: #04080f; stroke-linejoin: miter"/>
   </g>
   <g id="patch_12">
    <path d="M 289.944664 179.234114 
L 301.380764 179.234114 
L 301.380764 112.785691 
L 289.944664 112.785691 
z
" clip-path="url(#pbf1e93a36c)" style="fill: #507dbc; stroke: #04080f; stroke-linejoin: miter"/>
   </g>
   <g id="patch_13">
    <path d="M 306.28195 179.234114 
L 317.71805 179.234114 
L 317.71805 112.785691 
L 306.28195 112.785691 
z
" clip-path="url(#pbf1e93a36c)" style="fill: #507dbc; stroke: #04080f; stroke-linejoin: miter"/>
   </g>
   <g id="patch_14">
    <path d="M 322.619236 179.234114 
L 334.055336 179.234114 
L 334.055336 112.785691 
L 322.619236 112.785691 
z
" clip-path="url(#pbf1e93a36c)" style="fill: #507dbc; stroke: #04080f; stroke-linejoin: miter"/>
   </g>
   <g id="patch_15">
    <path d="M 338.956522 179.234114 
L 350.392622 179.234114 
L 350.392622 112.785691 
L 338.956522 112.785691 
z
" clip-path="url(#pbf1e93a36c)" style="fill: #507dbc; stroke: #04080f; stroke-linejoin: miter"/>
   </g>
   <g id="patch_16">
    <path d="M 355.293808 179.234114 
L 366.729908 179.234114 
L 366.729908 112.785691 
L 355.293808 112.785691 
z
" clip-path="url(#pbf1e93a36c)" style="fill: #507dbc; stroke: #04080f; stroke-linejoin: miter"/>
   </g>
   <g id="patch_17">
    <path d="M 371.631094 179.234114 
L 383.067194 179.234114 
L 383.067194 112.785691 
L 371.631094 112.785691 
z
" clip-path="url(#pbf1e93a36c)" style="fill: #507dbc; stroke: #04080f; stroke-linejoin: miter"/>
   </g>
   <g id="patch_18">
    <path d="M 387.968379 179.234114 
L 399.40448 179.234114 
L 399.40448 112.785691 
L 387.968379 112.785691 
z
" clip-path="url(#pbf1e93a36c)" style="fill: #507dbc; stroke: #04080f; stroke-linejoin: miter"/>
   </g>
   <g id="patch_19">
    <path d="M 404.305665 179.234114 
L 415.741765 179.234114 
L 415.741765 112.785691 
L 404.305665 112.785691 
z
" clip-path="url(#pbf1e93a36c)" style="fill: #507dbc; stroke: #04080f; stroke-linejoin: miter"/>
   </g>
   <g id="patch_20">
    <path d="M 420.642951 179.234114 
L 432.079051 179.234114 
L 432.079051 112.785691 
L 420.642951 112.785691 
z
" clip-path="url(#pbf1e93a36c)" style="fill: #507dbc; stroke: #04080f; stroke-linejoin: miter"/>
   </g>
   <g id="patch_21">
    <path d="M 436.980237 179.234114 
L 448.416337 179.234114 
L 448.416337 112.785691 
L 436.980237 112.785691 
z
" clip-path="url(#pbf1e93a36c)" style="fill: #507dbc; stroke: #04080f; stroke-linejoin: miter"/>
   </g>
   <g id="patch_22">
    <path d="M 453.317523 179.234114 
L 464.753623 179.234114 
L 464.753623 112.785691 
L 453.317523 112.785691 
z
" clip-path="url(#pbf1e93a36c)" style="fill: #507dbc; stroke: #04080f; stroke-linejoin: miter"/>
   </g>
   <g id="patch_23">
    <path d="M 469.654809 179.234114 
L 481.090909 179.234114 
L 481.090909 112.785691 
L 469.654809 112.785691 
z
" clip-path="url(#pbf1e93a36c)" style="fill: #507dbc; stroke: #04080f; stroke-linejoin: miter"/>
   </g>
   <g id="patch_24">
    <path d="M 142.909091 179.234114 
L 154.345191 179.234114 
L 154.345191 210.092642 
L 142.909091 210.092642 
z
" clip-path="url(#pbf1e93a36c)" style="fill: #bbd1ea; stroke: #04080f; stroke-linejoin: miter"/>
   </g>
   <g id="patch_25">
    <path d="M 159.246377 179.234114 
L 170.682477 179.234114 
L 170.682477 303.333991 
L 159.246377 303.333991 
z
" clip-path="url(#pbf1e93a36c)" style="fill: #bbd1ea; stroke: #04080f; stroke-linejoin: miter"/>
   </g>
   <g id="patch_26">
    <path d="M 175.583663 179.234114 
L 187.019763 179.234114 
L 187.019763 307.8 
L 175.583663 307.8 
z
" clip-path="url(#pbf1e93a36c)" style="fill: #bbd1ea; stroke: #04080f; stroke-linejoin: miter"/>
   </g>
   <g id="patch_27">
    <path d="M 191.920949 179.234114 
L 203.357049 179.234114 
L 203.357049 306.00589 
L 191.920949 306.00589 
z
" clip-path="url(#pbf1e93a36c)" style="fill: #bbd1ea; stroke: #04080f; stroke-linejoin: miter"/>
   </g>
   <g id="patch_28">
    <path d="M 208.258235 179.234114 
L 219.694335 179.234114 
L 219.694335 306.00589 
L 208.258235 306.00589 
z
" clip-path="url(#pbf1e93a36c)" style="fill: #bbd1ea; stroke: #04080f; stroke-linejoin: miter"/>
   </g>
   <g id="patch_29">
    <path d="M 224.59552 179.234114 
L 236.031621 179.234114 
L 236.031621 306.00589 
L 224.59552 306.00589 
z
" clip-path="url(#pbf1e93a36c)" style="fill: #bbd1ea; stroke: #04080f; stroke-linejoin: miter"/>
   </g>
   <g id="patch_30">
    <path d="M 240.932806 179.234114 
L 252.368906 179.234114 
L 252.368906 306.00589 
L 240.932806 306.00589 
z
" clip-path="url(#pbf1e93a36c)" style="fill: #bbd1ea; stroke: #04080f; stroke-linejoin: miter"/>
   </g>
   <g id="patch_31">
    <path d="M 257.270092 179.234114 
L 268.706192 179.234114 
L 268.706192 306.00589 
L 257.270092 306.00589 
z
" clip-path="url(#pbf1e93a36c)" style="fill: #bbd1ea; stroke: #04080f; stroke-linejoin: miter"/>
   </g>
   <g id="patch_32">
    <path d="M 273.607378 179.234114 
L 285.043478 179.234114 
L 285.043478 306.00589 
L 273.607378 306.00589 
z
" clip-path="url(#pbf1e93a36c)" style="fill: #bbd1ea; stroke: #04080f; stroke-linejoin: miter"/>
   </g>
   <g id="patch_33">
    <path d="M 289.944664 179.234114 
L 301.380764 179.234114 
L 301.380764 306.00589 
L 289.944664 306.00589 
z
" clip-path="url(#pbf1e93a36c)" style="fill: #bbd1ea; stroke: #04080f; stroke-linejoin: miter"/>
   </g>
   <g id="patch_34">
    <path d="M 306.28195 179.234114 
L 317.71805 179.234114 
L 317.71805 306.00589 
L 306.28195 306.00589 
z
" clip-path="url(#pbf1e93a36c)" style="fill: #bbd1ea; stroke: #04080f; stroke-linejoin: miter"/>
   </g>
   <g id="patch_35">
    <path d="M 322.619236 179.234114 
L 334.055336 179.234114 
L 334.055336 306.00589 
L 322.619236 306.00589 
z
" clip-path="url(#pbf1e93a36c)" style="fill: #bbd1ea; stroke: #04080f; stroke-linejoin: miter"/>
   </g>
   <g id="patch_36">
    <path d="M 338.956522 179.234114 
L 350.392622 179.234114 
L 350.392622 306.00589 
L 338.956522 306.00589 
z
" clip-path="url(#pbf1e93a36c)" style="fill: #bbd1ea; stroke: #04080f; stroke-linejoin: miter"/>
   </g>
   <g id="patch_37">
    <path d="M 355.293808 179.234114 
L 366.729908 179.234114 
L 366.729908 306.00589 
L 355.293808 306.00589 
z
" clip-path="url(#pbf1e93a36c)" style="fill: #bbd1ea; stroke: #04080f; stroke-linejoin: miter"/>
   </g>
   <g id="patch_38">
    <path d="M 371.631094 179.234114 
L 383.067194 179.234114 
L 383.067194 306.00589 
L 371.631094 306.00589 
z
" clip-path="url(#pbf1e93a36c)" style="fill: #bbd1ea; stroke: #04080f; stroke-linejoin: miter"/>
   </g>
   <g id="patch_39">
    <path d="M 387.968379 179.234114 
L 399.40448 179.234114 
L 399.40448 306.00589 
L 387.968379 306.00589 
z
" clip-path="url(#pbf1e93a36c)" style="fill: #bbd1ea; stroke: #04080f; stroke-linejoin: miter"/>
   </g>
   <g id="patch_40">
    <path d="M 404.305665 179.234114 
L 415.741765 179.234114 
L 415.741765 306.00589 
L 404.305665 306.00589 
z
" clip-path="url(#pbf1e93a36c)" style="fill: #bbd1ea; stroke: #04080f; stroke-linejoin: miter"/>
   </g>
   <g id="patch_41">
    <path d="M 420.642951 179.234114 
L 432.079051 179.234114 
L 432.079051 306.00589 
L 420.642951 306.00589 
z
" clip-path="url(#pbf1e93a36c)" style="fill: #bbd1ea; stroke: #04080f; stroke-linejoin: miter"/>
   </g>
   <g id="patch_42">
    <path d="M 436.980237 179.234114 
L 448.416337 179.234114 
L 448.416337 306.00589 
L 436.980237 306.00589 
z
" clip-path="url(#pbf1e93a36c)" style="fill: #bbd1ea; stroke: #04080f; stroke-linejoin: miter"/>
   </g>
   <g id="patch_43">
    <path d="M 453.317523 179.234114 
L 464.753623 179.234114 
L 464.753623 306.00589 
L 453.317523 306.00589 
z
" clip-path="url(#pbf1e93a36c)" style="fill: #bbd1ea; stroke: #04080f; stroke-linejoin: miter"/>
   </g>
   <g id="patch_44">
    <path d="M 469.654809 179.234114 
L 481.090909 179.234114 
L 481.090909 306.00589 
L 469.654809 306.00589 
z
" clip-path="url(#pbf1e93a36c)" style="fill: #bbd1ea; stroke: #04080f; stroke-linejoin: miter"/>
   </g>
   <g id="matplotlib.axis_1">
    <g id="xtick_1">
     <g id="line2d_1">
      <defs>
       <path id="m76eee94fe3" d="M 0 0 
L 0 3.5 
" style="stroke: #000000; stroke-width: 0.8"/>
      </defs>
      <g>
       <use xlink:href="#m76eee94fe3" x="181.301713" y="320.4" style="stroke: #000000; stroke-width: 0.8"/>
      </g>
     </g>
     <g id="text_1">
      <!-- 0.1 -->
      <g transform="translate(174.736869 334.959375) scale(0.1 -0.1)">
       <defs>
        <path id="Georgia-30" d="M 3209 2919 
Q 3409 2678 3507 2354 
Q 3606 2031 3606 1678 
Q 3606 1253 3484 917 
Q 3363 581 3150 359 
Q 2931 131 2631 15 
Q 2331 -100 1963 -100 
Q 1559 -100 1243 34 
Q 928 169 731 403 
Q 525 647 423 973 
Q 322 1300 322 1678 
Q 322 2050 420 2362 
Q 519 2675 728 2928 
Q 928 3172 1243 3312 
Q 1559 3453 1966 3453 
Q 2394 3453 2700 3309 
Q 3006 3166 3209 2919 
z
M 2916 1678 
Q 2916 2422 2661 2831 
Q 2406 3241 1969 3241 
Q 1525 3241 1269 2831 
Q 1013 2422 1013 1678 
Q 1013 972 1258 542 
Q 1503 113 1963 113 
Q 2422 113 2669 542 
Q 2916 972 2916 1678 
z
" transform="scale(0.015625)"/>
        <path id="Georgia-2e" d="M 1297 359 
Q 1297 184 1170 60 
Q 1044 -63 869 -63 
Q 694 -63 567 60 
Q 441 184 441 359 
Q 441 534 567 661 
Q 694 788 869 788 
Q 1044 788 1170 661 
Q 1297 534 1297 359 
z
" transform="scale(0.015625)"/>
        <path id="Georgia-31" d="M 2528 0 
L 422 0 
L 422 222 
Q 516 228 714 248 
Q 913 269 988 291 
Q 1084 322 1136 392 
Q 1188 463 1188 603 
L 1188 2797 
L 409 2797 
L 409 3059 
L 581 3059 
Q 919 3059 1186 3184 
Q 1453 3309 1569 3453 
L 1828 3453 
Q 1819 3250 1809 2978 
Q 1800 2706 1800 2491 
L 1800 638 
Q 1800 528 1848 442 
Q 1897 356 1988 316 
Q 2069 281 2253 253 
Q 2438 225 2528 222 
L 2528 0 
z
" transform="scale(0.015625)"/>
       </defs>
       <use xlink:href="#Georgia-30"/>
       <use xlink:href="#Georgia-2e" x="61.376953"/>
       <use xlink:href="#Georgia-31" x="88.330078"/>
      </g>
     </g>
    </g>
    <g id="xtick_2">
     <g id="line2d_2">
      <g>
       <use xlink:href="#m76eee94fe3" x="213.976285" y="320.4" style="stroke: #000000; stroke-width: 0.8"/>
      </g>
     </g>
     <g id="text_2">
      <!-- 0.2 -->
      <g transform="translate(206.76691 334.959375) scale(0.1 -0.1)">
       <defs>
        <path id="Georgia-32" d="M 3272 0 
L 344 0 
L 344 425 
Q 428 522 578 642 
Q 728 763 934 903 
Q 1059 988 1234 1088 
Q 1409 1188 1631 1306 
Q 1878 1438 2011 1538 
Q 2144 1638 2253 1784 
Q 2325 1881 2369 2026 
Q 2413 2172 2413 2441 
Q 2413 2831 2203 3014 
Q 1994 3197 1666 3197 
Q 1463 3197 1281 3117 
Q 1100 3038 1009 2897 
Q 1031 2797 1064 2659 
Q 1097 2522 1097 2391 
Q 1097 2272 998 2180 
Q 900 2088 706 2088 
Q 550 2088 465 2195 
Q 381 2303 381 2484 
Q 381 2653 475 2823 
Q 569 2994 744 3138 
Q 916 3278 1169 3365 
Q 1422 3453 1716 3453 
Q 2356 3453 2732 3167 
Q 3109 2881 3109 2403 
Q 3109 2175 3042 1987 
Q 2975 1800 2825 1656 
Q 2659 1497 2437 1383 
Q 2216 1269 1759 1066 
Q 1488 944 1253 811 
Q 1019 678 869 553 
L 3272 553 
L 3272 0 
z
" transform="scale(0.015625)"/>
       </defs>
       <use xlink:href="#Georgia-30"/>
       <use xlink:href="#Georgia-2e" x="61.376953"/>
       <use xlink:href="#Georgia-32" x="88.330078"/>
      </g>
     </g>
    </g>
    <g id="xtick_3">
     <g id="line2d_3">
      <g>
       <use xlink:href="#m76eee94fe3" x="246.650856" y="320.4" style="stroke: #000000; stroke-width: 0.8"/>
      </g>
     </g>
     <g id="text_3">
      <!-- 0.3 -->
      <g transform="translate(239.475856 334.959375) scale(0.1 -0.1)">
       <defs>
        <path id="Georgia-33" d="M 1522 -1141 
Q 1228 -1141 984 -1067 
Q 741 -994 566 -869 
Q 391 -744 295 -581 
Q 200 -419 200 -247 
Q 200 -94 275 29 
Q 350 153 516 153 
Q 703 153 801 61 
Q 900 -31 900 -150 
Q 900 -250 867 -403 
Q 834 -556 816 -622 
Q 838 -650 895 -697 
Q 953 -744 1038 -781 
Q 1138 -828 1247 -856 
Q 1356 -884 1556 -884 
Q 1744 -884 1917 -821 
Q 2091 -759 2222 -622 
Q 2359 -478 2436 -286 
Q 2513 -94 2513 219 
Q 2513 388 2477 553 
Q 2441 719 2344 841 
Q 2247 963 2080 1030 
Q 1913 1097 1656 1097 
L 1247 1097 
L 1247 1456 
L 1519 1456 
Q 1950 1456 2140 1693 
Q 2331 1931 2331 2409 
Q 2331 2800 2147 2998 
Q 1963 3197 1625 3197 
Q 1463 3197 1358 3158 
Q 1253 3119 1188 3081 
Q 1109 3038 1059 2984 
Q 1009 2931 984 2906 
Q 1006 2806 1037 2661 
Q 1069 2516 1069 2384 
Q 1069 2269 970 2176 
Q 872 2084 681 2084 
Q 516 2084 439 2203 
Q 363 2322 363 2478 
Q 363 2641 453 2809 
Q 544 2978 722 3125 
Q 900 3272 1156 3362 
Q 1413 3453 1747 3453 
Q 2131 3453 2382 3339 
Q 2634 3225 2778 3063 
Q 2919 2903 2972 2728 
Q 3025 2553 3025 2428 
Q 3025 2272 2981 2114 
Q 2938 1956 2838 1822 
Q 2728 1675 2548 1554 
Q 2369 1434 2097 1359 
L 2097 1309 
Q 2272 1294 2470 1231 
Q 2669 1169 2828 1047 
Q 2994 919 3100 717 
Q 3206 516 3206 206 
Q 3206 -394 2725 -767 
Q 2244 -1141 1522 -1141 
z
" transform="scale(0.015625)"/>
       </defs>
       <use xlink:href="#Georgia-30"/>
       <use xlink:href="#Georgia-2e" x="61.376953"/>
       <use xlink:href="#Georgia-33" x="88.330078"/>
      </g>
     </g>
    </g>
    <g id="xtick_4">
     <g id="line2d_4">
      <g>
       <use xlink:href="#m76eee94fe3" x="279.325428" y="320.4" style="stroke: #000000; stroke-width: 0.8"/>
      </g>
     </g>
     <g id="text_4">
      <!-- 0.4 -->
      <g transform="translate(272.084022 334.959375) scale(0.1 -0.1)">
       <defs>
        <path id="Georgia-34" d="M 3388 281 
L 2753 281 
L 2753 -1141 
L 2153 -1141 
L 2153 281 
L 153 281 
L 153 763 
L 2344 3434 
L 2753 3434 
L 2753 691 
L 3388 691 
L 3388 281 
z
M 2153 691 
L 2153 2738 
L 466 691 
L 2153 691 
z
" transform="scale(0.015625)"/>
       </defs>
       <use xlink:href="#Georgia-30"/>
       <use xlink:href="#Georgia-2e" x="61.376953"/>
       <use xlink:href="#Georgia-34" x="88.330078"/>
      </g>
     </g>
    </g>
    <g id="xtick_5">
     <g id="line2d_5">
      <g>
       <use xlink:href="#m76eee94fe3" x="312" y="320.4" style="stroke: #000000; stroke-width: 0.8"/>
      </g>
     </g>
     <g id="text_5">
      <!-- 0.5 -->
      <g transform="translate(304.942187 334.959375) scale(0.1 -0.1)">
       <defs>
        <path id="Georgia-35" d="M 2634 1466 
Q 2841 1303 2977 1047 
Q 3113 791 3113 406 
Q 3113 -266 2653 -703 
Q 2194 -1141 1488 -1141 
Q 941 -1141 562 -881 
Q 184 -622 184 -278 
Q 184 -119 262 0 
Q 341 119 503 119 
Q 691 119 789 20 
Q 888 -78 888 -194 
Q 888 -294 853 -444 
Q 819 -594 800 -666 
Q 825 -688 881 -725 
Q 938 -763 1016 -797 
Q 1097 -831 1214 -857 
Q 1331 -884 1488 -884 
Q 1688 -884 1866 -803 
Q 2044 -722 2166 -563 
Q 2300 -388 2367 -164 
Q 2434 59 2434 403 
Q 2434 844 2189 1133 
Q 1944 1422 1544 1422 
Q 1294 1422 1076 1328 
Q 859 1234 688 1016 
L 478 1097 
L 744 3353 
L 2981 3353 
L 2981 2797 
L 997 2797 
L 834 1472 
Q 975 1572 1204 1670 
Q 1434 1769 1709 1769 
Q 1938 1769 2183 1698 
Q 2428 1628 2634 1466 
z
" transform="scale(0.015625)"/>
       </defs>
       <use xlink:href="#Georgia-30"/>
       <use xlink:href="#Georgia-2e" x="61.376953"/>
       <use xlink:href="#Georgia-35" x="88.330078"/>
      </g>
     </g>
    </g>
    <g id="xtick_6">
     <g id="line2d_6">
      <g>
       <use xlink:href="#m76eee94fe3" x="344.674572" y="320.4" style="stroke: #000000; stroke-width: 0.8"/>
      </g>
     </g>
     <g id="text_6">
      <!-- 0.6 -->
      <g transform="translate(337.428478 334.959375) scale(0.1 -0.1)">
       <defs>
        <path id="Georgia-36" d="M 3359 1441 
Q 3359 1116 3242 831 
Q 3125 547 2928 347 
Q 2700 119 2423 9 
Q 2147 -100 1847 -100 
Q 1500 -100 1219 28 
Q 938 156 741 391 
Q 541 628 431 972 
Q 322 1316 322 1744 
Q 322 2859 986 3625 
Q 1650 4391 2766 4544 
L 2822 4263 
L 2541 4213 
Q 1863 3994 1492 3531 
Q 1122 3069 1013 2409 
Q 1281 2644 1543 2741 
Q 1806 2838 2097 2838 
Q 2619 2838 2989 2438 
Q 3359 2038 3359 1441 
z
M 2681 1356 
Q 2681 1863 2448 2169 
Q 2216 2475 1825 2475 
Q 1591 2475 1389 2387 
Q 1188 2300 1000 2094 
Q 997 2056 990 1920 
Q 984 1784 984 1706 
Q 984 975 1223 561 
Q 1463 147 1853 147 
Q 2225 147 2453 470 
Q 2681 794 2681 1356 
z
" transform="scale(0.015625)"/>
       </defs>
       <use xlink:href="#Georgia-30"/>
       <use xlink:href="#Georgia-2e" x="61.376953"/>
       <use xlink:href="#Georgia-36" x="88.330078"/>
      </g>
     </g>
    </g>
    <g id="xtick_7">
     <g id="line2d_7">
      <g>
       <use xlink:href="#m76eee94fe3" x="377.349144" y="320.4" style="stroke: #000000; stroke-width: 0.8"/>
      </g>
     </g>
     <g id="text_7">
      <!-- 0.7 -->
      <g transform="translate(370.420237 334.959375) scale(0.1 -0.1)">
       <defs>
        <path id="Georgia-37" d="M 3216 3150 
L 988 -1141 
L 597 -1141 
L 2694 2828 
L 1466 2828 
Q 1194 2828 1041 2822 
Q 888 2816 759 2763 
Q 663 2722 586 2555 
Q 509 2388 469 2128 
L 278 2128 
L 278 3353 
L 3216 3353 
L 3216 3150 
z
" transform="scale(0.015625)"/>
       </defs>
       <use xlink:href="#Georgia-30"/>
       <use xlink:href="#Georgia-2e" x="61.376953"/>
       <use xlink:href="#Georgia-37" x="88.330078"/>
      </g>
     </g>
    </g>
    <g id="xtick_8">
     <g id="line2d_8">
      <g>
       <use xlink:href="#m76eee94fe3" x="410.023715" y="320.4" style="stroke: #000000; stroke-width: 0.8"/>
      </g>
     </g>
     <g id="text_8">
      <!-- 0.8 -->
      <g transform="translate(402.626059 334.959375) scale(0.1 -0.1)">
       <defs>
        <path id="Georgia-38" d="M 3491 1175 
Q 3491 650 3037 272 
Q 2584 -106 1847 -106 
Q 1156 -106 740 241 
Q 325 588 325 1134 
Q 325 1538 570 1808 
Q 816 2078 1297 2266 
Q 900 2488 703 2753 
Q 506 3019 506 3353 
Q 506 3863 939 4206 
Q 1372 4550 1975 4550 
Q 2578 4550 2951 4225 
Q 3325 3900 3325 3409 
Q 3325 3094 3119 2811 
Q 2913 2528 2513 2347 
Q 3031 2125 3261 1856 
Q 3491 1588 3491 1175 
z
M 2734 3444 
Q 2734 3825 2507 4064 
Q 2281 4303 1928 4303 
Q 1575 4303 1350 4073 
Q 1125 3844 1125 3503 
Q 1125 3175 1381 2947 
Q 1638 2719 2294 2459 
Q 2528 2609 2631 2856 
Q 2734 3103 2734 3444 
z
M 2866 1028 
Q 2866 1225 2781 1373 
Q 2697 1522 2538 1644 
Q 2384 1763 2111 1892 
Q 1838 2022 1519 2156 
Q 1219 1994 1078 1742 
Q 938 1491 938 1169 
Q 938 709 1208 426 
Q 1478 144 1928 144 
Q 2359 144 2612 394 
Q 2866 644 2866 1028 
z
" transform="scale(0.015625)"/>
       </defs>
       <use xlink:href="#Georgia-30"/>
       <use xlink:href="#Georgia-2e" x="61.376953"/>
       <use xlink:href="#Georgia-38" x="88.330078"/>
      </g>
     </g>
    </g>
    <g id="xtick_9">
     <g id="line2d_9">
      <g>
       <use xlink:href="#m76eee94fe3" x="442.698287" y="320.4" style="stroke: #000000; stroke-width: 0.8"/>
      </g>
     </g>
     <g id="text_9">
      <!-- 0.9 -->
      <g transform="translate(435.452193 334.959375) scale(0.1 -0.1)">
       <defs>
        <path id="Georgia-39" d="M 3300 1613 
Q 3300 1069 3128 589 
Q 2956 109 2634 -253 
Q 2319 -609 1864 -845 
Q 1409 -1081 847 -1156 
L 791 -875 
L 1072 -825 
Q 1744 -613 2122 -172 
Q 2500 269 2609 947 
Q 2353 728 2098 626 
Q 1844 525 1525 525 
Q 1016 525 639 922 
Q 263 1319 263 1922 
Q 263 2569 698 3012 
Q 1134 3456 1775 3456 
Q 2472 3456 2886 2959 
Q 3300 2463 3300 1613 
z
M 2638 1650 
Q 2638 2381 2398 2795 
Q 2159 3209 1769 3209 
Q 1397 3209 1169 2889 
Q 941 2569 941 2006 
Q 941 1500 1173 1194 
Q 1406 888 1797 888 
Q 2041 888 2244 977 
Q 2447 1066 2622 1263 
Q 2622 1275 2626 1312 
Q 2631 1350 2631 1419 
Q 2631 1463 2634 1525 
Q 2638 1588 2638 1650 
z
" transform="scale(0.015625)"/>
       </defs>
       <use xlink:href="#Georgia-30"/>
       <use xlink:href="#Georgia-2e" x="61.376953"/>
       <use xlink:href="#Georgia-39" x="88.330078"/>
      </g>
     </g>
    </g>
    <g id="xtick_10">
     <g id="line2d_10">
      <g>
       <use xlink:href="#m76eee94fe3" x="475.372859" y="320.4" style="stroke: #000000; stroke-width: 0.8"/>
      </g>
     </g>
     <g id="text_10">
      <!-- 1.0 -->
      <g transform="translate(468.808015 334.959375) scale(0.1 -0.1)">
       <use xlink:href="#Georgia-31"/>
       <use xlink:href="#Georgia-2e" x="42.96875"/>
       <use xlink:href="#Georgia-30" x="69.921875"/>
      </g>
     </g>
    </g>
    <g id="text_11">
     <!-- The parameter a -->
     <g transform="translate(447.090937 350.26125) scale(0.12 -0.12)">
      <defs>
       <path id="Georgia-Bold-54" d="M 4338 3166 
L 4097 3166 
Q 4000 3450 3786 3775 
Q 3572 4100 3391 4125 
Q 3291 4138 3144 4147 
Q 2997 4156 2891 4156 
L 2744 4156 
L 2744 678 
Q 2744 566 2784 480 
Q 2825 394 2944 344 
Q 3016 316 3167 286 
Q 3319 256 3425 244 
L 3425 0 
L 953 0 
L 953 244 
Q 1044 253 1208 270 
Q 1372 288 1431 313 
Q 1553 363 1593 447 
Q 1634 531 1634 647 
L 1634 4156 
L 1488 4156 
Q 1381 4156 1234 4147 
Q 1088 4138 988 4125 
Q 806 4100 592 3775 
Q 378 3450 281 3166 
L 41 3166 
L 41 4434 
L 4338 4434 
L 4338 3166 
z
" transform="scale(0.015625)"/>
       <path id="Georgia-Bold-68" d="M 4244 0 
L 2363 0 
L 2363 228 
Q 2425 234 2509 243 
Q 2594 253 2634 275 
Q 2700 309 2726 375 
Q 2753 441 2753 569 
L 2753 2031 
Q 2753 2353 2633 2512 
Q 2513 2672 2291 2672 
Q 2166 2672 2058 2634 
Q 1950 2597 1847 2525 
Q 1756 2463 1701 2397 
Q 1647 2331 1609 2281 
L 1609 603 
Q 1609 488 1637 420 
Q 1666 353 1744 309 
Q 1791 281 1867 259 
Q 1944 238 2016 228 
L 2016 0 
L 116 0 
L 116 228 
Q 197 234 273 243 
Q 350 253 409 275 
Q 509 313 545 383 
Q 581 453 581 569 
L 581 4053 
Q 581 4153 534 4265 
Q 488 4378 403 4434 
Q 341 4475 222 4498 
Q 103 4522 9 4528 
L 9 4756 
L 1563 4838 
L 1609 4788 
L 1609 2638 
L 1622 2638 
Q 1741 2744 1836 2830 
Q 1931 2916 2069 3003 
Q 2184 3078 2370 3131 
Q 2556 3184 2772 3184 
Q 3278 3184 3533 2893 
Q 3788 2603 3788 2128 
L 3788 597 
Q 3788 481 3822 412 
Q 3856 344 3950 303 
Q 4006 278 4075 259 
Q 4144 241 4244 228 
L 4244 0 
z
" transform="scale(0.015625)"/>
       <path id="Georgia-Bold-65" d="M 3541 747 
Q 3431 569 3276 411 
Q 3122 253 2925 141 
Q 2716 22 2502 -39 
Q 2288 -100 2009 -100 
Q 1547 -100 1211 31 
Q 875 163 656 384 
Q 438 606 330 907 
Q 222 1209 222 1563 
Q 222 1881 339 2173 
Q 456 2466 672 2694 
Q 884 2916 1207 3053 
Q 1531 3191 1931 3191 
Q 2369 3191 2650 3084 
Q 2931 2978 3116 2791 
Q 3294 2613 3375 2370 
Q 3456 2128 3456 1863 
L 3456 1659 
L 1344 1659 
Q 1344 1019 1591 684 
Q 1838 350 2375 350 
Q 2669 350 2903 511 
Q 3138 672 3303 919 
L 3541 747 
z
M 2347 1934 
Q 2347 2122 2328 2319 
Q 2309 2516 2263 2641 
Q 2209 2788 2117 2863 
Q 2025 2938 1884 2938 
Q 1644 2938 1500 2694 
Q 1356 2450 1344 1922 
L 2347 1934 
z
" transform="scale(0.015625)"/>
       <path id="Georgia-Bold-20" transform="scale(0.015625)"/>
       <path id="Georgia-Bold-70" d="M 3988 1522 
Q 3988 863 3547 391 
Q 3106 -81 2431 -81 
Q 2131 -81 1943 -20 
Q 1756 41 1634 128 
L 1609 128 
L 1609 -750 
Q 1609 -859 1657 -940 
Q 1706 -1022 1794 -1059 
Q 1878 -1094 2033 -1122 
Q 2188 -1150 2291 -1156 
L 2291 -1388 
L 34 -1388 
L 34 -1156 
Q 113 -1150 231 -1133 
Q 350 -1116 409 -1097 
Q 509 -1063 545 -980 
Q 581 -897 581 -791 
L 581 2406 
Q 572 2509 533 2587 
Q 494 2666 409 2725 
Q 347 2766 244 2792 
Q 141 2819 41 2828 
L 41 3056 
L 1563 3138 
L 1609 3097 
L 1609 2750 
L 1634 2744 
Q 1841 2953 2092 3068 
Q 2344 3184 2591 3184 
Q 3238 3184 3613 2726 
Q 3988 2269 3988 1522 
z
M 2866 1509 
Q 2866 1744 2831 1958 
Q 2797 2172 2709 2341 
Q 2625 2509 2486 2609 
Q 2347 2709 2147 2709 
Q 1944 2709 1822 2639 
Q 1700 2569 1609 2456 
L 1609 684 
Q 1628 622 1681 523 
Q 1734 425 1788 366 
Q 1866 281 1966 240 
Q 2066 200 2184 200 
Q 2494 200 2680 533 
Q 2866 866 2866 1509 
z
" transform="scale(0.015625)"/>
       <path id="Georgia-Bold-61" d="M 3753 66 
Q 3616 6 3428 -44 
Q 3241 -94 3031 -94 
Q 2647 -94 2465 20 
Q 2284 134 2219 347 
L 2200 347 
Q 2094 241 1995 166 
Q 1897 91 1784 38 
Q 1638 -31 1502 -64 
Q 1366 -97 1122 -97 
Q 759 -97 503 117 
Q 247 331 247 684 
Q 247 888 303 1030 
Q 359 1172 463 1281 
Q 556 1381 679 1447 
Q 803 1513 950 1569 
Q 1231 1672 1625 1783 
Q 2019 1894 2200 1981 
L 2200 2281 
Q 2200 2359 2187 2487 
Q 2175 2616 2134 2703 
Q 2091 2803 1997 2872 
Q 1903 2941 1750 2941 
Q 1613 2941 1520 2902 
Q 1428 2863 1372 2822 
Q 1381 2759 1425 2631 
Q 1469 2503 1469 2384 
Q 1469 2331 1441 2251 
Q 1413 2172 1359 2125 
Q 1288 2063 1198 2028 
Q 1109 1994 925 1994 
Q 663 1994 528 2120 
Q 394 2247 394 2450 
Q 394 2625 533 2764 
Q 672 2903 872 2994 
Q 1069 3088 1325 3139 
Q 1581 3191 1800 3191 
Q 2103 3191 2356 3155 
Q 2609 3119 2813 3006 
Q 3006 2897 3120 2689 
Q 3234 2481 3234 2147 
Q 3234 1794 3220 1309 
Q 3206 825 3206 672 
Q 3206 531 3248 450 
Q 3291 369 3378 328 
Q 3431 303 3545 298 
Q 3659 294 3753 294 
L 3753 66 
z
M 2200 1694 
Q 2025 1634 1853 1557 
Q 1681 1481 1572 1397 
Q 1456 1309 1390 1173 
Q 1325 1038 1325 853 
Q 1325 609 1436 500 
Q 1547 391 1709 391 
Q 1881 391 1992 461 
Q 2103 531 2188 634 
L 2200 1694 
z
" transform="scale(0.015625)"/>
       <path id="Georgia-Bold-72" d="M 3294 2528 
Q 3294 2291 3147 2111 
Q 3000 1931 2759 1931 
Q 2531 1931 2373 2047 
Q 2216 2163 2216 2388 
Q 2216 2497 2231 2558 
Q 2247 2619 2259 2672 
Q 2116 2666 1956 2572 
Q 1797 2478 1675 2322 
L 1675 606 
Q 1675 497 1709 425 
Q 1744 353 1825 313 
Q 1894 278 2048 254 
Q 2203 231 2272 228 
L 2272 0 
L 181 0 
L 181 228 
Q 259 234 339 245 
Q 419 256 475 275 
Q 575 309 612 381 
Q 650 453 650 569 
L 650 2388 
Q 650 2500 597 2589 
Q 544 2678 469 2731 
Q 413 2769 327 2794 
Q 241 2819 138 2828 
L 138 3056 
L 1628 3138 
L 1675 3091 
L 1675 2638 
L 1688 2638 
Q 1903 2888 2145 3030 
Q 2388 3172 2650 3172 
Q 2941 3172 3117 2992 
Q 3294 2813 3294 2528 
z
" transform="scale(0.015625)"/>
       <path id="Georgia-Bold-6d" d="M 6391 0 
L 4528 0 
L 4528 228 
Q 4597 238 4672 244 
Q 4747 250 4797 275 
Q 4866 306 4884 379 
Q 4903 453 4903 569 
L 4903 2028 
Q 4903 2350 4789 2511 
Q 4675 2672 4463 2672 
Q 4328 2672 4223 2630 
Q 4119 2588 4031 2525 
Q 3941 2459 3891 2393 
Q 3841 2328 3806 2281 
L 3806 603 
Q 3806 491 3832 420 
Q 3859 350 3931 309 
Q 3981 281 4045 259 
Q 4109 238 4181 228 
L 4181 0 
L 2397 0 
L 2397 228 
Q 2456 234 2540 243 
Q 2625 253 2666 275 
Q 2731 309 2751 375 
Q 2772 441 2772 569 
L 2772 2028 
Q 2772 2350 2658 2511 
Q 2544 2672 2331 2672 
Q 2197 2672 2092 2630 
Q 1988 2588 1900 2525 
Q 1809 2459 1759 2393 
Q 1709 2328 1675 2281 
L 1675 603 
Q 1675 494 1703 422 
Q 1731 350 1803 309 
Q 1853 281 1917 259 
Q 1981 238 2053 228 
L 2053 0 
L 181 0 
L 181 228 
Q 263 234 341 243 
Q 419 253 475 275 
Q 575 313 612 383 
Q 650 453 650 569 
L 650 2388 
Q 650 2488 597 2583 
Q 544 2678 469 2731 
Q 413 2769 327 2794 
Q 241 2819 138 2828 
L 138 3056 
L 1628 3138 
L 1675 3091 
L 1675 2650 
L 1688 2650 
Q 1775 2728 1895 2836 
Q 2016 2944 2122 3009 
Q 2238 3084 2419 3134 
Q 2600 3184 2816 3184 
Q 3172 3184 3411 3029 
Q 3650 2875 3750 2619 
L 3778 2619 
Q 3869 2703 4000 2817 
Q 4131 2931 4241 3000 
Q 4363 3078 4552 3131 
Q 4741 3184 4956 3184 
Q 5428 3184 5683 2906 
Q 5938 2628 5938 2116 
L 5938 597 
Q 5938 481 5972 411 
Q 6006 341 6097 303 
Q 6147 281 6220 259 
Q 6294 238 6391 228 
L 6391 0 
z
" transform="scale(0.015625)"/>
       <path id="Georgia-Bold-74" d="M 2506 144 
Q 2306 56 2078 -14 
Q 1850 -84 1522 -84 
Q 1034 -84 798 153 
Q 563 391 563 831 
L 563 2750 
L 0 2750 
L 0 3088 
L 575 3088 
L 575 4034 
L 1591 4034 
L 1591 3088 
L 2466 3088 
L 2466 2750 
L 1597 2750 
L 1597 1038 
Q 1597 672 1698 519 
Q 1800 366 2063 366 
Q 2147 366 2297 378 
Q 2447 391 2506 406 
L 2506 144 
z
" transform="scale(0.015625)"/>
      </defs>
      <use xlink:href="#Georgia-Bold-54"/>
      <use xlink:href="#Georgia-Bold-68" x="68.408203"/>
      <use xlink:href="#Georgia-Bold-65" x="136.376953"/>
      <use xlink:href="#Georgia-Bold-20" x="193.554688"/>
      <use xlink:href="#Georgia-Bold-70" x="218.945312"/>
      <use xlink:href="#Georgia-Bold-61" x="284.716797"/>
      <use xlink:href="#Georgia-Bold-72" x="344.287109"/>
      <use xlink:href="#Georgia-Bold-61" x="396.289062"/>
      <use xlink:href="#Georgia-Bold-6d" x="455.859375"/>
      <use xlink:href="#Georgia-Bold-65" x="557.421875"/>
      <use xlink:href="#Georgia-Bold-74" x="614.599609"/>
      <use xlink:href="#Georgia-Bold-65" x="654.345703"/>
      <use xlink:href="#Georgia-Bold-72" x="711.523438"/>
      <use xlink:href="#Georgia-Bold-20" x="763.525391"/>
      <use xlink:href="#Georgia-Bold-61" x="788.916016"/>
     </g>
    </g>
   </g>
   <g id="matplotlib.axis_2">
    <g id="ytick_1">
     <g id="line2d_11">
      <path d="M 126 314.63651 
L 498 314.63651 
" clip-path="url(#pbf1e93a36c)" style="fill: none; stroke-dasharray: 2.96,1.28; stroke-dashoffset: 0; stroke: #b0b0b0; stroke-width: 0.8"/>
     </g>
     <g id="line2d_12">
      <defs>
       <path id="m5b221c9fc7" d="M 0 0 
L -3.5 0 
" style="stroke: #000000; stroke-width: 0.8"/>
      </defs>
      <g>
       <use xlink:href="#m5b221c9fc7" x="126" y="314.63651" style="stroke: #000000; stroke-width: 0.8"/>
      </g>
     </g>
     <g id="text_12">
      <!-- −2.0 -->
      <g transform="translate(98.15 318.416198) scale(0.1 -0.1)">
       <defs>
        <path id="Georgia-2212" d="M 3650 1553 
L 466 1553 
L 466 1944 
L 3650 1944 
L 3650 1553 
z
" transform="scale(0.015625)"/>
       </defs>
       <use xlink:href="#Georgia-2212"/>
       <use xlink:href="#Georgia-32" x="64.306641"/>
       <use xlink:href="#Georgia-2e" x="120.166016"/>
       <use xlink:href="#Georgia-30" x="147.119141"/>
      </g>
     </g>
    </g>
    <g id="ytick_2">
     <g id="line2d_13">
      <path d="M 126 280.785911 
L 498 280.785911 
" clip-path="url(#pbf1e93a36c)" style="fill: none; stroke-dasharray: 2.96,1.28; stroke-dashoffset: 0; stroke: #b0b0b0; stroke-width: 0.8"/>
     </g>
     <g id="line2d_14">
      <g>
       <use xlink:href="#m5b221c9fc7" x="126" y="280.785911" style="stroke: #000000; stroke-width: 0.8"/>
      </g>
     </g>
     <g id="text_13">
      <!-- −1.5 -->
      <g transform="translate(100.29375 284.565599) scale(0.1 -0.1)">
       <use xlink:href="#Georgia-2212"/>
       <use xlink:href="#Georgia-31" x="64.306641"/>
       <use xlink:href="#Georgia-2e" x="107.275391"/>
       <use xlink:href="#Georgia-35" x="134.228516"/>
      </g>
     </g>
    </g>
    <g id="ytick_3">
     <g id="line2d_15">
      <path d="M 126 246.935312 
L 498 246.935312 
" clip-path="url(#pbf1e93a36c)" style="fill: none; stroke-dasharray: 2.96,1.28; stroke-dashoffset: 0; stroke: #b0b0b0; stroke-width: 0.8"/>
     </g>
     <g id="line2d_16">
      <g>
       <use xlink:href="#m5b221c9fc7" x="126" y="246.935312" style="stroke: #000000; stroke-width: 0.8"/>
      </g>
     </g>
     <g id="text_14">
      <!-- −1.0 -->
      <g transform="translate(99.439063 250.714999) scale(0.1 -0.1)">
       <use xlink:href="#Georgia-2212"/>
       <use xlink:href="#Georgia-31" x="64.306641"/>
       <use xlink:href="#Georgia-2e" x="107.275391"/>
       <use xlink:href="#Georgia-30" x="134.228516"/>
      </g>
     </g>
    </g>
    <g id="ytick_4">
     <g id="line2d_17">
      <path d="M 126 213.084713 
L 498 213.084713 
" clip-path="url(#pbf1e93a36c)" style="fill: none; stroke-dasharray: 2.96,1.28; stroke-dashoffset: 0; stroke: #b0b0b0; stroke-width: 0.8"/>
     </g>
     <g id="line2d_18">
      <g>
       <use xlink:href="#m5b221c9fc7" x="126" y="213.084713" style="stroke: #000000; stroke-width: 0.8"/>
      </g>
     </g>
     <g id="text_15">
      <!-- −0.5 -->
      <g transform="translate(98.453125 216.8644) scale(0.1 -0.1)">
       <use xlink:href="#Georgia-2212"/>
       <use xlink:href="#Georgia-30" x="64.306641"/>
       <use xlink:href="#Georgia-2e" x="125.683594"/>
       <use xlink:href="#Georgia-35" x="152.636719"/>
      </g>
     </g>
    </g>
    <g id="ytick_5">
     <g id="line2d_19">
      <path d="M 126 179.234114 
L 498 179.234114 
" clip-path="url(#pbf1e93a36c)" style="fill: none; stroke-dasharray: 2.96,1.28; stroke-dashoffset: 0; stroke: #b0b0b0; stroke-width: 0.8"/>
     </g>
     <g id="line2d_20">
      <g>
       <use xlink:href="#m5b221c9fc7" x="126" y="179.234114" style="stroke: #000000; stroke-width: 0.8"/>
      </g>
     </g>
     <g id="text_16">
      <!-- 0.0 -->
      <g transform="translate(104.029687 183.013801) scale(0.1 -0.1)">
       <use xlink:href="#Georgia-30"/>
       <use xlink:href="#Georgia-2e" x="61.376953"/>
       <use xlink:href="#Georgia-30" x="88.330078"/>
      </g>
     </g>
    </g>
    <g id="ytick_6">
     <g id="line2d_21">
      <path d="M 126 145.383515 
L 498 145.383515 
" clip-path="url(#pbf1e93a36c)" style="fill: none; stroke-dasharray: 2.96,1.28; stroke-dashoffset: 0; stroke: #b0b0b0; stroke-width: 0.8"/>
     </g>
     <g id="line2d_22">
      <g>
       <use xlink:href="#m5b221c9fc7" x="126" y="145.383515" style="stroke: #000000; stroke-width: 0.8"/>
      </g>
     </g>
     <g id="text_17">
      <!-- 0.5 -->
      <g transform="translate(104.884375 149.163202) scale(0.1 -0.1)">
       <use xlink:href="#Georgia-30"/>
       <use xlink:href="#Georgia-2e" x="61.376953"/>
       <use xlink:href="#Georgia-35" x="88.330078"/>
      </g>
     </g>
    </g>
    <g id="ytick_7">
     <g id="line2d_23">
      <path d="M 126 111.532915 
L 498 111.532915 
" clip-path="url(#pbf1e93a36c)" style="fill: none; stroke-dasharray: 2.96,1.28; stroke-dashoffset: 0; stroke: #b0b0b0; stroke-width: 0.8"/>
     </g>
     <g id="line2d_24">
      <g>
       <use xlink:href="#m5b221c9fc7" x="126" y="111.532915" style="stroke: #000000; stroke-width: 0.8"/>
      </g>
     </g>
     <g id="text_18">
      <!-- 1.0 -->
      <g transform="translate(105.870312 115.312603) scale(0.1 -0.1)">
       <use xlink:href="#Georgia-31"/>
       <use xlink:href="#Georgia-2e" x="42.96875"/>
       <use xlink:href="#Georgia-30" x="69.921875"/>
      </g>
     </g>
    </g>
    <g id="ytick_8">
     <g id="line2d_25">
      <path d="M 126 77.682316 
L 498 77.682316 
" clip-path="url(#pbf1e93a36c)" style="fill: none; stroke-dasharray: 2.96,1.28; stroke-dashoffset: 0; stroke: #b0b0b0; stroke-width: 0.8"/>
     </g>
     <g id="line2d_26">
      <g>
       <use xlink:href="#m5b221c9fc7" x="126" y="77.682316" style="stroke: #000000; stroke-width: 0.8"/>
      </g>
     </g>
     <g id="text_19">
      <!-- 1.5 -->
      <g transform="translate(106.725 81.462004) scale(0.1 -0.1)">
       <use xlink:href="#Georgia-31"/>
       <use xlink:href="#Georgia-2e" x="42.96875"/>
       <use xlink:href="#Georgia-35" x="69.921875"/>
      </g>
     </g>
    </g>
    <g id="ytick_9">
     <g id="line2d_27">
      <path d="M 126 43.831717 
L 498 43.831717 
" clip-path="url(#pbf1e93a36c)" style="fill: none; stroke-dasharray: 2.96,1.28; stroke-dashoffset: 0; stroke: #b0b0b0; stroke-width: 0.8"/>
     </g>
     <g id="line2d_28">
      <g>
       <use xlink:href="#m5b221c9fc7" x="126" y="43.831717" style="stroke: #000000; stroke-width: 0.8"/>
      </g>
     </g>
     <g id="text_20">
      <!-- 2.0 -->
      <g transform="translate(104.58125 47.611405) scale(0.1 -0.1)">
       <use xlink:href="#Georgia-32"/>
       <use xlink:href="#Georgia-2e" x="55.859375"/>
       <use xlink:href="#Georgia-30" x="82.8125"/>
      </g>
     </g>
    </g>
    <g id="text_21">
     <!-- The ratio compared to baseline -->
     <g transform="translate(91.5475 277.57875) rotate(-90) scale(0.12 -0.12)">
      <defs>
       <path id="Georgia-Bold-69" d="M 2156 0 
L 181 0 
L 181 228 
Q 263 234 341 243 
Q 419 253 475 275 
Q 575 313 615 383 
Q 656 453 656 569 
L 656 2388 
Q 656 2497 606 2580 
Q 556 2663 481 2713 
Q 425 2750 311 2784 
Q 197 2819 103 2828 
L 103 3056 
L 1634 3138 
L 1681 3091 
L 1681 609 
Q 1681 500 1728 423 
Q 1775 347 1863 309 
Q 1925 281 2000 259 
Q 2075 238 2156 228 
L 2156 0 
z
M 1700 4263 
Q 1700 4025 1517 3858 
Q 1334 3691 1084 3691 
Q 831 3691 648 3858 
Q 466 4025 466 4263 
Q 466 4500 648 4669 
Q 831 4838 1084 4838 
Q 1338 4838 1519 4669 
Q 1700 4500 1700 4263 
z
" transform="scale(0.015625)"/>
       <path id="Georgia-Bold-6f" d="M 3372 2731 
Q 3603 2516 3725 2216 
Q 3847 1916 3847 1566 
Q 3847 1219 3726 911 
Q 3606 603 3375 384 
Q 3128 150 2786 25 
Q 2444 -100 2003 -100 
Q 1622 -100 1301 9 
Q 981 119 734 338 
Q 497 547 359 855 
Q 222 1163 222 1544 
Q 222 1919 342 2211 
Q 463 2503 703 2731 
Q 934 2950 1273 3070 
Q 1613 3191 2031 3191 
Q 2469 3191 2801 3070 
Q 3134 2950 3372 2731 
z
M 2572 566 
Q 2641 741 2673 991 
Q 2706 1241 2706 1572 
Q 2706 1791 2675 2072 
Q 2644 2353 2581 2516 
Q 2506 2713 2373 2825 
Q 2241 2938 2038 2938 
Q 1816 2938 1683 2816 
Q 1550 2694 1478 2500 
Q 1413 2322 1388 2083 
Q 1363 1844 1363 1584 
Q 1363 1244 1384 1020 
Q 1406 797 1491 572 
Q 1563 378 1697 265 
Q 1831 153 2038 153 
Q 2225 153 2359 258 
Q 2494 363 2572 566 
z
" transform="scale(0.015625)"/>
       <path id="Georgia-Bold-63" d="M 1966 -100 
Q 1531 -100 1198 26 
Q 866 153 650 372 
Q 434 594 328 897 
Q 222 1200 222 1556 
Q 222 1881 351 2175 
Q 481 2469 703 2691 
Q 931 2919 1270 3055 
Q 1609 3191 2019 3191 
Q 2594 3191 2928 2973 
Q 3263 2756 3263 2388 
Q 3263 2163 3144 2025 
Q 3025 1888 2734 1888 
Q 2500 1888 2342 2000 
Q 2184 2113 2184 2294 
Q 2184 2447 2234 2597 
Q 2284 2747 2294 2825 
Q 2259 2881 2206 2911 
Q 2153 2941 2041 2941 
Q 1900 2941 1784 2875 
Q 1669 2809 1569 2644 
Q 1472 2488 1414 2225 
Q 1356 1963 1356 1594 
Q 1356 1038 1617 697 
Q 1878 356 2241 356 
Q 2588 356 2792 511 
Q 2997 666 3156 950 
L 3391 788 
Q 3294 597 3159 439 
Q 3025 281 2838 159 
Q 2641 31 2437 -34 
Q 2234 -100 1966 -100 
z
" transform="scale(0.015625)"/>
       <path id="Georgia-Bold-64" d="M 4222 66 
L 2681 -25 
L 2634 19 
L 2634 306 
L 2613 313 
Q 2459 147 2198 23 
Q 1938 -100 1672 -100 
Q 1041 -100 631 369 
Q 222 838 222 1581 
Q 222 2241 680 2712 
Q 1138 3184 1788 3184 
Q 2044 3184 2269 3126 
Q 2494 3069 2628 2991 
L 2628 4013 
Q 2628 4128 2581 4229 
Q 2534 4331 2456 4388 
Q 2359 4456 2214 4486 
Q 2069 4516 1922 4528 
L 1922 4756 
L 3609 4838 
L 3656 4788 
L 3656 691 
Q 3656 572 3695 490 
Q 3734 409 3822 363 
Q 3888 328 4014 312 
Q 4141 297 4222 294 
L 4222 66 
z
M 2628 622 
L 2628 2388 
Q 2606 2459 2567 2546 
Q 2528 2634 2459 2713 
Q 2397 2778 2292 2828 
Q 2188 2878 2056 2878 
Q 1744 2878 1544 2525 
Q 1344 2172 1344 1528 
Q 1344 1275 1380 1073 
Q 1416 872 1506 706 
Q 1597 541 1739 447 
Q 1881 353 2081 353 
Q 2272 353 2397 426 
Q 2522 500 2628 622 
z
" transform="scale(0.015625)"/>
       <path id="Georgia-Bold-62" d="M 3909 1528 
Q 3909 825 3445 362 
Q 2981 -100 2269 -100 
Q 1994 -100 1795 -61 
Q 1597 -22 1459 34 
Q 1316 94 1230 151 
Q 1144 209 1094 247 
L 647 -159 
L 463 -88 
Q 478 141 489 408 
Q 500 675 500 1128 
L 500 4053 
Q 500 4172 451 4273 
Q 403 4375 322 4428 
Q 263 4466 148 4494 
Q 34 4522 -63 4528 
L -63 4756 
L 1481 4838 
L 1528 4788 
L 1528 2756 
L 1547 2756 
Q 1775 2978 2015 3081 
Q 2256 3184 2497 3184 
Q 3153 3184 3531 2737 
Q 3909 2291 3909 1528 
z
M 2788 1491 
Q 2788 1728 2752 1948 
Q 2716 2169 2631 2338 
Q 2547 2506 2409 2607 
Q 2272 2709 2069 2709 
Q 1878 2709 1753 2646 
Q 1628 2584 1528 2463 
L 1528 644 
Q 1547 581 1598 479 
Q 1650 378 1703 322 
Q 1778 241 1862 198 
Q 1947 156 2100 156 
Q 2419 156 2603 504 
Q 2788 853 2788 1491 
z
" transform="scale(0.015625)"/>
       <path id="Georgia-Bold-73" d="M 1628 -106 
Q 1325 -106 1036 -17 
Q 747 72 588 172 
L 494 -41 
L 250 -41 
L 209 1125 
L 438 1125 
Q 484 984 593 807 
Q 703 631 844 491 
Q 991 350 1180 253 
Q 1369 156 1584 156 
Q 1869 156 2008 267 
Q 2147 378 2147 609 
Q 2147 734 2084 815 
Q 2022 897 1913 956 
Q 1791 1019 1645 1062 
Q 1500 1106 1288 1169 
Q 1075 1231 923 1295 
Q 772 1359 609 1497 
Q 469 1619 384 1791 
Q 300 1963 300 2200 
Q 300 2641 670 2912 
Q 1041 3184 1641 3184 
Q 1925 3184 2164 3126 
Q 2403 3069 2566 3000 
L 2631 3184 
L 2869 3184 
L 2919 2119 
L 2697 2119 
Q 2588 2444 2322 2680 
Q 2056 2916 1750 2916 
Q 1509 2916 1371 2816 
Q 1234 2716 1234 2538 
Q 1234 2300 1436 2194 
Q 1638 2088 2000 1994 
Q 2559 1850 2818 1601 
Q 3078 1353 3078 969 
Q 3078 456 2676 175 
Q 2275 -106 1628 -106 
z
" transform="scale(0.015625)"/>
       <path id="Georgia-Bold-6c" d="M 2084 0 
L 125 0 
L 125 228 
Q 206 234 282 243 
Q 359 253 419 275 
Q 519 313 555 383 
Q 591 453 591 569 
L 591 4031 
Q 591 4150 542 4251 
Q 494 4353 413 4406 
Q 350 4447 223 4484 
Q 97 4522 0 4528 
L 0 4756 
L 1572 4838 
L 1619 4788 
L 1619 609 
Q 1619 494 1659 422 
Q 1700 350 1791 309 
Q 1853 281 1922 259 
Q 1991 238 2084 228 
L 2084 0 
z
" transform="scale(0.015625)"/>
       <path id="Georgia-Bold-6e" d="M 4306 0 
L 2425 0 
L 2425 228 
Q 2484 234 2568 243 
Q 2653 253 2697 275 
Q 2763 309 2791 375 
Q 2819 441 2819 569 
L 2819 2031 
Q 2819 2350 2701 2511 
Q 2584 2672 2356 2672 
Q 2231 2672 2123 2634 
Q 2016 2597 1913 2525 
Q 1822 2463 1767 2397 
Q 1713 2331 1675 2281 
L 1675 603 
Q 1675 494 1706 420 
Q 1738 347 1809 309 
Q 1859 281 1934 259 
Q 2009 238 2081 228 
L 2081 0 
L 181 0 
L 181 228 
Q 259 234 339 245 
Q 419 256 475 275 
Q 575 309 612 381 
Q 650 453 650 569 
L 650 2388 
Q 650 2484 600 2578 
Q 550 2672 469 2731 
Q 413 2769 327 2794 
Q 241 2819 138 2828 
L 138 3056 
L 1628 3138 
L 1675 3091 
L 1675 2638 
L 1688 2638 
Q 1775 2716 1900 2825 
Q 2025 2934 2131 3003 
Q 2247 3078 2434 3131 
Q 2622 3184 2834 3184 
Q 3344 3184 3598 2895 
Q 3853 2606 3853 2128 
L 3853 597 
Q 3853 481 3887 412 
Q 3922 344 4016 303 
Q 4066 281 4139 259 
Q 4213 238 4306 228 
L 4306 0 
z
" transform="scale(0.015625)"/>
      </defs>
      <use xlink:href="#Georgia-Bold-54"/>
      <use xlink:href="#Georgia-Bold-68" x="68.408203"/>
      <use xlink:href="#Georgia-Bold-65" x="136.376953"/>
      <use xlink:href="#Georgia-Bold-20" x="193.554688"/>
      <use xlink:href="#Georgia-Bold-72" x="218.945312"/>
      <use xlink:href="#Georgia-Bold-61" x="270.947266"/>
      <use xlink:href="#Georgia-Bold-74" x="330.517578"/>
      <use xlink:href="#Georgia-Bold-69" x="370.263672"/>
      <use xlink:href="#Georgia-Bold-6f" x="405.615234"/>
      <use xlink:href="#Georgia-Bold-20" x="469.189453"/>
      <use xlink:href="#Georgia-Bold-63" x="494.580078"/>
      <use xlink:href="#Georgia-Bold-6f" x="547.705078"/>
      <use xlink:href="#Georgia-Bold-6d" x="611.279297"/>
      <use xlink:href="#Georgia-Bold-70" x="712.841797"/>
      <use xlink:href="#Georgia-Bold-61" x="778.613281"/>
      <use xlink:href="#Georgia-Bold-72" x="838.183594"/>
      <use xlink:href="#Georgia-Bold-65" x="890.185547"/>
      <use xlink:href="#Georgia-Bold-64" x="947.363281"/>
      <use xlink:href="#Georgia-Bold-20" x="1013.671875"/>
      <use xlink:href="#Georgia-Bold-74" x="1039.0625"/>
      <use xlink:href="#Georgia-Bold-6f" x="1078.808594"/>
      <use xlink:href="#Georgia-Bold-20" x="1142.382812"/>
      <use xlink:href="#Georgia-Bold-62" x="1167.773438"/>
      <use xlink:href="#Georgia-Bold-61" x="1232.324219"/>
      <use xlink:href="#Georgia-Bold-73" x="1291.894531"/>
      <use xlink:href="#Georgia-Bold-65" x="1343.164062"/>
      <use xlink:href="#Georgia-Bold-6c" x="1400.341797"/>
      <use xlink:href="#Georgia-Bold-69" x="1434.765625"/>
      <use xlink:href="#Georgia-Bold-6e" x="1470.117188"/>
      <use xlink:href="#Georgia-Bold-65" x="1539.111328"/>
     </g>
    </g>
   </g>
   <g id="line2d_29">
    <path d="M 148.627141 111.532915 
L 164.964427 111.532915 
L 181.301713 111.532915 
L 197.638999 111.532915 
L 213.976285 111.532915 
L 230.31357 111.532915 
L 246.650856 111.532915 
L 262.988142 111.532915 
L 279.325428 111.532915 
L 295.662714 111.532915 
L 312 111.532915 
L 328.337286 111.532915 
L 344.674572 111.532915 
L 361.011858 111.532915 
L 377.349144 111.532915 
L 393.68643 111.532915 
L 410.023715 111.532915 
L 426.361001 111.532915 
L 442.698287 111.532915 
L 459.035573 111.532915 
L 475.372859 111.532915 
" clip-path="url(#pbf1e93a36c)" style="fill: none; stroke: #1d3557; stroke-width: 1.5; stroke-linecap: square"/>
    <defs>
     <path id="mefe3d34c78" d="M 0 2 
C 0.530406 2 1.03916 1.789267 1.414214 1.414214 
C 1.789267 1.03916 2 0.530406 2 0 
C 2 -0.530406 1.789267 -1.03916 1.414214 -1.414214 
C 1.03916 -1.789267 0.530406 -2 0 -2 
C -0.530406 -2 -1.03916 -1.789267 -1.414214 -1.414214 
C -1.789267 -1.03916 -2 -0.530406 -2 0 
C -2 0.530406 -1.789267 1.03916 -1.414214 1.414214 
C -1.03916 1.789267 -0.530406 2 0 2 
z
" style="stroke: #1d3557"/>
    </defs>
    <g clip-path="url(#pbf1e93a36c)">
     <use xlink:href="#mefe3d34c78" x="148.627141" y="111.532915" style="fill: #1d3557; stroke: #1d3557"/>
     <use xlink:href="#mefe3d34c78" x="164.964427" y="111.532915" style="fill: #1d3557; stroke: #1d3557"/>
     <use xlink:href="#mefe3d34c78" x="181.301713" y="111.532915" style="fill: #1d3557; stroke: #1d3557"/>
     <use xlink:href="#mefe3d34c78" x="197.638999" y="111.532915" style="fill: #1d3557; stroke: #1d3557"/>
     <use xlink:href="#mefe3d34c78" x="213.976285" y="111.532915" style="fill: #1d3557; stroke: #1d3557"/>
     <use xlink:href="#mefe3d34c78" x="230.31357" y="111.532915" style="fill: #1d3557; stroke: #1d3557"/>
     <use xlink:href="#mefe3d34c78" x="246.650856" y="111.532915" style="fill: #1d3557; stroke: #1d3557"/>
     <use xlink:href="#mefe3d34c78" x="262.988142" y="111.532915" style="fill: #1d3557; stroke: #1d3557"/>
     <use xlink:href="#mefe3d34c78" x="279.325428" y="111.532915" style="fill: #1d3557; stroke: #1d3557"/>
     <use xlink:href="#mefe3d34c78" x="295.662714" y="111.532915" style="fill: #1d3557; stroke: #1d3557"/>
     <use xlink:href="#mefe3d34c78" x="312" y="111.532915" style="fill: #1d3557; stroke: #1d3557"/>
     <use xlink:href="#mefe3d34c78" x="328.337286" y="111.532915" style="fill: #1d3557; stroke: #1d3557"/>
     <use xlink:href="#mefe3d34c78" x="344.674572" y="111.532915" style="fill: #1d3557; stroke: #1d3557"/>
     <use xlink:href="#mefe3d34c78" x="361.011858" y="111.532915" style="fill: #1d3557; stroke: #1d3557"/>
     <use xlink:href="#mefe3d34c78" x="377.349144" y="111.532915" style="fill: #1d3557; stroke: #1d3557"/>
     <use xlink:href="#mefe3d34c78" x="393.68643" y="111.532915" style="fill: #1d3557; stroke: #1d3557"/>
     <use xlink:href="#mefe3d34c78" x="410.023715" y="111.532915" style="fill: #1d3557; stroke: #1d3557"/>
     <use xlink:href="#mefe3d34c78" x="426.361001" y="111.532915" style="fill: #1d3557; stroke: #1d3557"/>
     <use xlink:href="#mefe3d34c78" x="442.698287" y="111.532915" style="fill: #1d3557; stroke: #1d3557"/>
     <use xlink:href="#mefe3d34c78" x="459.035573" y="111.532915" style="fill: #1d3557; stroke: #1d3557"/>
     <use xlink:href="#mefe3d34c78" x="475.372859" y="111.532915" style="fill: #1d3557; stroke: #1d3557"/>
    </g>
   </g>
   <g id="line2d_30">
    <path d="M 148.627141 246.935312 
L 164.964427 246.935312 
L 181.301713 246.935312 
L 197.638999 246.935312 
L 213.976285 246.935312 
L 230.31357 246.935312 
L 246.650856 246.935312 
L 262.988142 246.935312 
L 279.325428 246.935312 
L 295.662714 246.935312 
L 312 246.935312 
L 328.337286 246.935312 
L 344.674572 246.935312 
L 361.011858 246.935312 
L 377.349144 246.935312 
L 393.68643 246.935312 
L 410.023715 246.935312 
L 426.361001 246.935312 
L 442.698287 246.935312 
L 459.035573 246.935312 
L 475.372859 246.935312 
" clip-path="url(#pbf1e93a36c)" style="fill: none; stroke: #1d3557; stroke-width: 1.5; stroke-linecap: square"/>
    <g clip-path="url(#pbf1e93a36c)">
     <use xlink:href="#mefe3d34c78" x="148.627141" y="246.935312" style="fill: #1d3557; stroke: #1d3557"/>
     <use xlink:href="#mefe3d34c78" x="164.964427" y="246.935312" style="fill: #1d3557; stroke: #1d3557"/>
     <use xlink:href="#mefe3d34c78" x="181.301713" y="246.935312" style="fill: #1d3557; stroke: #1d3557"/>
     <use xlink:href="#mefe3d34c78" x="197.638999" y="246.935312" style="fill: #1d3557; stroke: #1d3557"/>
     <use xlink:href="#mefe3d34c78" x="213.976285" y="246.935312" style="fill: #1d3557; stroke: #1d3557"/>
     <use xlink:href="#mefe3d34c78" x="230.31357" y="246.935312" style="fill: #1d3557; stroke: #1d3557"/>
     <use xlink:href="#mefe3d34c78" x="246.650856" y="246.935312" style="fill: #1d3557; stroke: #1d3557"/>
     <use xlink:href="#mefe3d34c78" x="262.988142" y="246.935312" style="fill: #1d3557; stroke: #1d3557"/>
     <use xlink:href="#mefe3d34c78" x="279.325428" y="246.935312" style="fill: #1d3557; stroke: #1d3557"/>
     <use xlink:href="#mefe3d34c78" x="295.662714" y="246.935312" style="fill: #1d3557; stroke: #1d3557"/>
     <use xlink:href="#mefe3d34c78" x="312" y="246.935312" style="fill: #1d3557; stroke: #1d3557"/>
     <use xlink:href="#mefe3d34c78" x="328.337286" y="246.935312" style="fill: #1d3557; stroke: #1d3557"/>
     <use xlink:href="#mefe3d34c78" x="344.674572" y="246.935312" style="fill: #1d3557; stroke: #1d3557"/>
     <use xlink:href="#mefe3d34c78" x="361.011858" y="246.935312" style="fill: #1d3557; stroke: #1d3557"/>
     <use xlink:href="#mefe3d34c78" x="377.349144" y="246.935312" style="fill: #1d3557; stroke: #1d3557"/>
     <use xlink:href="#mefe3d34c78" x="393.68643" y="246.935312" style="fill: #1d3557; stroke: #1d3557"/>
     <use xlink:href="#mefe3d34c78" x="410.023715" y="246.935312" style="fill: #1d3557; stroke: #1d3557"/>
     <use xlink:href="#mefe3d34c78" x="426.361001" y="246.935312" style="fill: #1d3557; stroke: #1d3557"/>
     <use xlink:href="#mefe3d34c78" x="442.698287" y="246.935312" style="fill: #1d3557; stroke: #1d3557"/>
     <use xlink:href="#mefe3d34c78" x="459.035573" y="246.935312" style="fill: #1d3557; stroke: #1d3557"/>
     <use xlink:href="#mefe3d34c78" x="475.372859" y="246.935312" style="fill: #1d3557; stroke: #1d3557"/>
    </g>
   </g>
   <g id="patch_45">
    <path d="M 126 320.4 
L 126 43.2 
" style="fill: none; stroke: #000000; stroke-width: 0.8; stroke-linejoin: miter; stroke-linecap: square"/>
   </g>
   <g id="patch_46">
    <path d="M 498 320.4 
L 498 43.2 
" style="fill: none"/>
   </g>
   <g id="patch_47">
    <path d="M 126 320.4 
L 498 320.4 
" style="fill: none; stroke: #000000; stroke-width: 0.8; stroke-linejoin: miter; stroke-linecap: square"/>
   </g>
   <g id="patch_48">
    <path d="M 126 43.2 
L 498 43.2 
" style="fill: none"/>
   </g>
   <g id="text_22">
    <!-- GitHub Caliber Baseline -->
    <g transform="translate(237.332812 37.2) scale(0.12 -0.12)">
     <defs>
      <path id="Georgia-Bold-47" d="M 5153 1803 
Q 5056 1794 4981 1781 
Q 4906 1769 4794 1731 
Q 4666 1691 4625 1597 
Q 4584 1503 4584 1400 
L 4584 884 
Q 4584 728 4587 633 
Q 4591 538 4597 397 
Q 4284 209 3673 43 
Q 3063 -122 2550 -122 
Q 2069 -122 1647 25 
Q 1225 172 906 466 
Q 588 756 405 1187 
Q 222 1619 222 2175 
Q 222 2694 394 3134 
Q 566 3575 891 3894 
Q 1209 4209 1667 4381 
Q 2125 4553 2681 4553 
Q 3059 4553 3381 4461 
Q 3703 4369 3913 4263 
L 4106 4434 
L 4378 4434 
L 4406 2816 
L 4131 2816 
Q 3894 3544 3562 3897 
Q 3231 4250 2725 4250 
Q 2125 4250 1798 3725 
Q 1472 3200 1472 2278 
Q 1472 1300 1792 747 
Q 2113 194 2700 194 
Q 2975 194 3189 276 
Q 3403 359 3522 469 
L 3522 1369 
Q 3522 1481 3481 1557 
Q 3441 1634 3319 1691 
Q 3225 1734 3084 1762 
Q 2944 1791 2850 1803 
L 2850 2047 
L 5153 2047 
L 5153 1803 
z
" transform="scale(0.015625)"/>
      <path id="Georgia-Bold-48" d="M 5628 0 
L 3231 0 
L 3231 244 
Q 3309 250 3459 262 
Q 3609 275 3666 300 
Q 3781 347 3825 423 
Q 3869 500 3869 619 
L 3869 2147 
L 1975 2147 
L 1975 653 
Q 1975 547 2020 462 
Q 2066 378 2175 331 
Q 2234 306 2378 278 
Q 2522 250 2613 244 
L 2613 0 
L 216 0 
L 216 244 
Q 294 247 445 264 
Q 597 281 666 306 
Q 778 347 822 430 
Q 866 513 866 625 
L 866 3763 
Q 866 3872 827 3947 
Q 788 4022 666 4078 
Q 575 4119 428 4151 
Q 281 4184 216 4191 
L 216 4434 
L 2613 4434 
L 2613 4191 
Q 2516 4184 2381 4159 
Q 2247 4134 2175 4113 
Q 2053 4072 2014 3983 
Q 1975 3894 1975 3794 
L 1975 2469 
L 3869 2469 
L 3869 3763 
Q 3869 3872 3828 3947 
Q 3788 4022 3666 4078 
Q 3584 4116 3448 4148 
Q 3313 4181 3231 4191 
L 3231 4434 
L 5628 4434 
L 5628 4191 
Q 5528 4184 5403 4164 
Q 5278 4144 5178 4113 
Q 5059 4072 5018 3984 
Q 4978 3897 4978 3794 
L 4978 653 
Q 4978 541 5018 462 
Q 5059 384 5178 331 
Q 5253 300 5395 275 
Q 5538 250 5628 244 
L 5628 0 
z
" transform="scale(0.015625)"/>
      <path id="Georgia-Bold-75" d="M 4259 66 
L 2769 -25 
L 2722 19 
L 2722 428 
L 2703 428 
Q 2597 331 2495 239 
Q 2394 147 2253 72 
Q 2094 -13 1951 -53 
Q 1809 -94 1538 -94 
Q 1066 -94 814 190 
Q 563 475 563 994 
L 563 2400 
Q 563 2522 516 2598 
Q 469 2675 391 2734 
Q 328 2781 228 2801 
Q 128 2822 47 2828 
L 47 3056 
L 1563 3138 
L 1597 3091 
L 1597 1013 
Q 1597 691 1720 537 
Q 1844 384 2059 384 
Q 2281 384 2457 500 
Q 2634 616 2716 747 
L 2716 2431 
Q 2716 2538 2675 2622 
Q 2634 2706 2556 2759 
Q 2500 2797 2395 2809 
Q 2291 2822 2181 2828 
L 2181 3056 
L 3697 3138 
L 3744 3091 
L 3744 678 
Q 3744 569 3787 492 
Q 3831 416 3916 363 
Q 3975 325 4070 311 
Q 4166 297 4259 294 
L 4259 66 
z
" transform="scale(0.015625)"/>
      <path id="Georgia-Bold-43" d="M 2541 -119 
Q 2053 -119 1628 39 
Q 1203 197 888 497 
Q 578 791 400 1223 
Q 222 1656 222 2175 
Q 222 2691 401 3130 
Q 581 3569 906 3891 
Q 1225 4206 1672 4379 
Q 2119 4553 2628 4553 
Q 2997 4553 3300 4464 
Q 3603 4375 3813 4263 
L 4006 4434 
L 4278 4434 
L 4306 2816 
L 4031 2816 
Q 3797 3556 3469 3903 
Q 3141 4250 2669 4250 
Q 2081 4250 1775 3733 
Q 1469 3216 1469 2281 
Q 1469 1753 1573 1379 
Q 1678 1006 1847 778 
Q 2028 541 2275 430 
Q 2522 319 2822 319 
Q 3259 319 3601 556 
Q 3944 794 4225 1275 
L 4494 1113 
Q 4359 838 4187 620 
Q 4016 403 3791 247 
Q 3544 75 3245 -22 
Q 2947 -119 2541 -119 
z
" transform="scale(0.015625)"/>
      <path id="Georgia-Bold-42" d="M 4131 2034 
Q 4331 1897 4456 1689 
Q 4581 1481 4581 1200 
Q 4581 863 4439 630 
Q 4297 397 4031 263 
Q 3750 119 3383 59 
Q 3016 0 2519 0 
L 216 0 
L 216 244 
Q 313 253 459 272 
Q 606 291 666 316 
Q 781 363 823 439 
Q 866 516 866 638 
L 866 3763 
Q 866 3875 831 3950 
Q 797 4025 666 4081 
Q 569 4122 441 4148 
Q 313 4175 216 4191 
L 216 4434 
L 2625 4434 
Q 3534 4434 3937 4184 
Q 4341 3934 4341 3447 
Q 4341 3222 4250 3051 
Q 4159 2881 3991 2756 
Q 3838 2641 3625 2556 
Q 3413 2472 3169 2416 
L 3169 2356 
Q 3413 2331 3675 2248 
Q 3938 2166 4131 2034 
z
M 3125 3369 
Q 3125 3738 2917 3944 
Q 2709 4150 2294 4150 
Q 2234 4150 2139 4145 
Q 2044 4141 1975 4138 
L 1975 2494 
L 2138 2494 
Q 2644 2494 2884 2730 
Q 3125 2966 3125 3369 
z
M 3344 1241 
Q 3344 1703 3069 1950 
Q 2794 2197 2278 2197 
Q 2219 2197 2120 2192 
Q 2022 2188 1975 2184 
L 1975 563 
Q 2003 447 2150 367 
Q 2297 288 2506 288 
Q 2878 288 3111 538 
Q 3344 788 3344 1241 
z
" transform="scale(0.015625)"/>
     </defs>
     <use xlink:href="#Georgia-Bold-47"/>
     <use xlink:href="#Georgia-Bold-69" x="80.712891"/>
     <use xlink:href="#Georgia-Bold-74" x="116.064453"/>
     <use xlink:href="#Georgia-Bold-48" x="155.810547"/>
     <use xlink:href="#Georgia-Bold-75" x="247.119141"/>
     <use xlink:href="#Georgia-Bold-62" x="314.794922"/>
     <use xlink:href="#Georgia-Bold-20" x="379.345703"/>
     <use xlink:href="#Georgia-Bold-43" x="404.736328"/>
     <use xlink:href="#Georgia-Bold-61" x="476.269531"/>
     <use xlink:href="#Georgia-Bold-6c" x="535.839844"/>
     <use xlink:href="#Georgia-Bold-69" x="570.263672"/>
     <use xlink:href="#Georgia-Bold-62" x="605.615234"/>
     <use xlink:href="#Georgia-Bold-65" x="670.166016"/>
     <use xlink:href="#Georgia-Bold-72" x="727.34375"/>
     <use xlink:href="#Georgia-Bold-20" x="779.345703"/>
     <use xlink:href="#Georgia-Bold-42" x="804.736328"/>
     <use xlink:href="#Georgia-Bold-61" x="880.46875"/>
     <use xlink:href="#Georgia-Bold-73" x="940.039062"/>
     <use xlink:href="#Georgia-Bold-65" x="991.308594"/>
     <use xlink:href="#Georgia-Bold-6c" x="1048.486328"/>
     <use xlink:href="#Georgia-Bold-69" x="1082.910156"/>
     <use xlink:href="#Georgia-Bold-6e" x="1118.261719"/>
     <use xlink:href="#Georgia-Bold-65" x="1187.255859"/>
    </g>
   </g>
   <g id="legend_1">
    <g id="patch_49">
     <path d="M 29.698438 66.79625 
L 100.4 66.79625 
Q 102.4 66.79625 102.4 64.79625 
L 102.4 36.34 
Q 102.4 34.34 100.4 34.34 
L 29.698438 34.34 
Q 27.698438 34.34 27.698438 36.34 
L 27.698438 64.79625 
Q 27.698438 66.79625 29.698438 66.79625 
z
" style="fill: #ffffff; opacity: 0.8"/>
    </g>
    <g id="patch_50">
     <path d="M 31.698438 45.899375 
L 51.698438 45.899375 
L 51.698438 38.899375 
L 31.698438 38.899375 
z
" style="fill: #507dbc; stroke: #04080f; stroke-linejoin: miter"/>
    </g>
    <g id="text_23">
     <!-- Runtime -->
     <g transform="translate(59.698438 45.899375) scale(0.1 -0.1)">
      <defs>
       <path id="Georgia-52" d="M 4625 0 
L 3431 0 
Q 3034 622 2714 1075 
Q 2394 1528 2019 2009 
L 1566 2009 
L 1566 603 
Q 1566 494 1600 411 
Q 1634 328 1747 284 
Q 1803 263 1943 244 
Q 2084 225 2181 222 
L 2181 0 
L 306 0 
L 306 222 
Q 381 228 523 243 
Q 666 259 722 284 
Q 816 325 858 403 
Q 900 481 900 603 
L 900 3809 
Q 900 3919 869 4003 
Q 838 4088 722 4131 
Q 644 4159 519 4182 
Q 394 4206 306 4213 
L 306 4434 
L 2353 4434 
Q 2634 4434 2881 4376 
Q 3128 4319 3328 4191 
Q 3522 4066 3637 3864 
Q 3753 3663 3753 3378 
Q 3753 3122 3675 2925 
Q 3597 2728 3444 2584 
Q 3303 2450 3106 2351 
Q 2909 2253 2672 2184 
Q 3000 1750 3217 1453 
Q 3434 1156 3750 731 
Q 3888 544 3998 455 
Q 4109 366 4219 309 
Q 4300 269 4422 247 
Q 4544 225 4625 222 
L 4625 0 
z
M 2981 3306 
Q 2981 3709 2750 3945 
Q 2519 4181 2097 4181 
L 1566 4181 
L 1566 2278 
L 1975 2278 
Q 2406 2278 2693 2554 
Q 2981 2831 2981 3306 
z
" transform="scale(0.015625)"/>
       <path id="Georgia-75" d="M 3528 56 
L 2525 -13 
L 2478 31 
L 2478 422 
L 2459 422 
Q 2384 344 2290 255 
Q 2197 166 2075 94 
Q 1934 9 1803 -34 
Q 1672 -78 1431 -78 
Q 1022 -78 808 189 
Q 594 456 594 966 
L 594 2441 
Q 594 2553 551 2629 
Q 509 2706 428 2763 
Q 372 2800 287 2817 
Q 203 2834 109 2841 
L 109 3044 
L 1138 3119 
L 1184 3075 
L 1184 934 
Q 1184 600 1334 431 
Q 1484 263 1694 263 
Q 1866 263 2000 316 
Q 2134 369 2225 441 
Q 2309 506 2373 579 
Q 2438 653 2472 716 
L 2472 2463 
Q 2472 2566 2428 2645 
Q 2384 2725 2306 2781 
Q 2250 2819 2139 2826 
Q 2028 2834 1891 2841 
L 1891 3044 
L 3009 3119 
L 3056 3075 
L 3056 628 
Q 3056 522 3100 447 
Q 3144 372 3222 319 
Q 3278 284 3356 273 
Q 3434 263 3528 259 
L 3528 56 
z
" transform="scale(0.015625)"/>
       <path id="Georgia-6e" d="M 3628 0 
L 2119 0 
L 2119 206 
Q 2191 213 2277 219 
Q 2363 225 2419 244 
Q 2506 272 2548 342 
Q 2591 413 2591 525 
L 2591 2109 
Q 2591 2438 2436 2616 
Q 2281 2794 2059 2794 
Q 1894 2794 1756 2742 
Q 1619 2691 1513 2616 
Q 1409 2544 1348 2461 
Q 1288 2378 1259 2328 
L 1259 556 
Q 1259 450 1303 381 
Q 1347 313 1434 275 
Q 1500 244 1576 228 
Q 1653 213 1734 206 
L 1734 0 
L 225 0 
L 225 206 
Q 297 213 373 219 
Q 450 225 506 244 
Q 594 272 636 342 
Q 678 413 678 525 
L 678 2428 
Q 678 2534 633 2623 
Q 588 2713 506 2769 
Q 447 2806 365 2823 
Q 284 2841 191 2847 
L 191 3050 
L 1216 3119 
L 1259 3075 
L 1259 2641 
L 1275 2641 
Q 1350 2716 1462 2820 
Q 1575 2925 1675 2991 
Q 1791 3066 1950 3116 
Q 2109 3166 2309 3166 
Q 2753 3166 2967 2889 
Q 3181 2613 3181 2153 
L 3181 550 
Q 3181 441 3218 373 
Q 3256 306 3347 269 
Q 3422 238 3476 225 
Q 3531 213 3628 206 
L 3628 0 
z
" transform="scale(0.015625)"/>
       <path id="Georgia-74" d="M 2128 134 
Q 1925 50 1744 -8 
Q 1563 -66 1300 -66 
Q 913 -66 755 129 
Q 597 325 597 681 
L 597 2769 
L 41 2769 
L 41 3069 
L 609 3069 
L 609 4028 
L 1178 4028 
L 1178 3069 
L 2063 3069 
L 2063 2769 
L 1184 2769 
L 1184 1047 
Q 1184 853 1198 723 
Q 1213 594 1266 497 
Q 1316 406 1416 359 
Q 1516 313 1684 313 
Q 1763 313 1914 327 
Q 2066 341 2128 363 
L 2128 134 
z
" transform="scale(0.015625)"/>
       <path id="Georgia-69" d="M 1722 0 
L 231 0 
L 231 206 
Q 303 213 379 219 
Q 456 225 513 244 
Q 600 272 642 342 
Q 684 413 684 525 
L 684 2428 
Q 684 2528 639 2611 
Q 594 2694 513 2750 
Q 453 2788 340 2814 
Q 228 2841 134 2847 
L 134 3050 
L 1222 3119 
L 1266 3075 
L 1266 563 
Q 1266 453 1308 381 
Q 1350 309 1441 275 
Q 1509 247 1575 230 
Q 1641 213 1722 206 
L 1722 0 
z
M 1328 4334 
Q 1328 4156 1211 4023 
Q 1094 3891 922 3891 
Q 763 3891 645 4017 
Q 528 4144 528 4306 
Q 528 4478 645 4606 
Q 763 4734 922 4734 
Q 1100 4734 1214 4614 
Q 1328 4494 1328 4334 
z
" transform="scale(0.015625)"/>
       <path id="Georgia-6d" d="M 5503 0 
L 4000 0 
L 4000 206 
Q 4072 213 4145 219 
Q 4219 225 4275 244 
Q 4363 272 4405 342 
Q 4447 413 4447 525 
L 4447 2116 
Q 4447 2441 4298 2617 
Q 4150 2794 3928 2794 
Q 3775 2794 3640 2747 
Q 3506 2700 3394 2616 
Q 3303 2547 3242 2467 
Q 3181 2388 3150 2334 
L 3150 556 
Q 3150 447 3187 376 
Q 3225 306 3316 269 
Q 3388 241 3445 227 
Q 3503 213 3597 206 
L 3597 0 
L 2125 0 
L 2125 206 
Q 2197 213 2264 219 
Q 2331 225 2388 244 
Q 2475 272 2517 342 
Q 2559 413 2559 525 
L 2559 2116 
Q 2559 2441 2411 2617 
Q 2263 2794 2041 2794 
Q 1888 2794 1753 2745 
Q 1619 2697 1506 2613 
Q 1416 2544 1353 2458 
Q 1291 2372 1259 2328 
L 1259 563 
Q 1259 456 1303 384 
Q 1347 313 1434 275 
Q 1500 244 1569 228 
Q 1638 213 1722 206 
L 1722 0 
L 225 0 
L 225 206 
Q 297 213 373 219 
Q 450 225 506 244 
Q 594 272 636 342 
Q 678 413 678 525 
L 678 2441 
Q 678 2541 633 2620 
Q 588 2700 506 2756 
Q 447 2794 359 2817 
Q 272 2841 178 2847 
L 178 3050 
L 1209 3119 
L 1253 3075 
L 1253 2634 
L 1275 2634 
Q 1353 2713 1465 2819 
Q 1578 2925 1675 2991 
Q 1784 3066 1948 3116 
Q 2113 3166 2303 3166 
Q 2603 3166 2818 3005 
Q 3034 2844 3128 2616 
Q 3241 2725 3327 2808 
Q 3413 2891 3553 2984 
Q 3672 3066 3833 3116 
Q 3994 3166 4191 3166 
Q 4581 3166 4809 2909 
Q 5038 2653 5038 2122 
L 5038 556 
Q 5038 447 5075 376 
Q 5113 306 5203 269 
Q 5275 241 5345 227 
Q 5416 213 5503 206 
L 5503 0 
z
" transform="scale(0.015625)"/>
       <path id="Georgia-65" d="M 2963 725 
Q 2769 356 2444 137 
Q 2119 -81 1697 -81 
Q 1325 -81 1045 50 
Q 766 181 584 406 
Q 403 631 314 931 
Q 225 1231 225 1566 
Q 225 1866 320 2155 
Q 416 2444 600 2675 
Q 778 2897 1042 3033 
Q 1306 3169 1634 3169 
Q 1972 3169 2212 3062 
Q 2453 2956 2603 2772 
Q 2747 2597 2817 2359 
Q 2888 2122 2888 1844 
L 2888 1638 
L 847 1638 
Q 847 1334 905 1087 
Q 963 841 1088 653 
Q 1209 472 1406 367 
Q 1603 263 1875 263 
Q 2153 263 2354 392 
Q 2556 522 2744 859 
L 2963 725 
z
M 2272 1900 
Q 2272 2075 2242 2275 
Q 2213 2475 2147 2609 
Q 2075 2753 1950 2843 
Q 1825 2934 1628 2934 
Q 1300 2934 1083 2661 
Q 866 2388 847 1900 
L 2272 1900 
z
" transform="scale(0.015625)"/>
      </defs>
      <use xlink:href="#Georgia-52"/>
      <use xlink:href="#Georgia-75" x="70.166016"/>
      <use xlink:href="#Georgia-6e" x="127.685547"/>
      <use xlink:href="#Georgia-74" x="186.767578"/>
      <use xlink:href="#Georgia-69" x="221.289062"/>
      <use xlink:href="#Georgia-6d" x="250.585938"/>
      <use xlink:href="#Georgia-65" x="338.671875"/>
     </g>
    </g>
    <g id="patch_51">
     <path d="M 31.698438 60.6275 
L 51.698438 60.6275 
L 51.698438 53.6275 
L 31.698438 53.6275 
z
" style="fill: #bbd1ea; stroke: #04080f; stroke-linejoin: miter"/>
    </g>
    <g id="text_24">
     <!-- Price -->
     <g transform="translate(59.698438 60.6275) scale(0.1 -0.1)">
      <defs>
       <path id="Georgia-50" d="M 3700 3341 
Q 3700 2994 3564 2726 
Q 3428 2459 3188 2284 
Q 2950 2109 2665 2028 
Q 2381 1947 2063 1947 
L 1566 1947 
L 1566 603 
Q 1566 494 1602 411 
Q 1638 328 1750 284 
Q 1806 263 1948 244 
Q 2091 225 2209 222 
L 2209 0 
L 306 0 
L 306 222 
Q 381 228 523 243 
Q 666 259 722 284 
Q 816 325 858 403 
Q 900 481 900 603 
L 900 3803 
Q 900 3913 869 4000 
Q 838 4088 722 4131 
Q 603 4172 486 4189 
Q 369 4206 284 4213 
L 284 4434 
L 2309 4434 
Q 2928 4434 3314 4136 
Q 3700 3838 3700 3341 
z
M 2750 2584 
Q 2856 2734 2890 2895 
Q 2925 3056 2925 3184 
Q 2925 3363 2883 3547 
Q 2841 3731 2738 3869 
Q 2628 4016 2450 4097 
Q 2272 4178 2006 4178 
L 1566 4178 
L 1566 2219 
L 1884 2219 
Q 2222 2219 2433 2323 
Q 2644 2428 2750 2584 
z
" transform="scale(0.015625)"/>
       <path id="Georgia-72" d="M 2584 2684 
Q 2584 2525 2506 2401 
Q 2428 2278 2266 2278 
Q 2091 2278 1998 2368 
Q 1906 2459 1906 2569 
Q 1906 2638 1917 2694 
Q 1928 2750 1938 2806 
Q 1791 2806 1594 2687 
Q 1397 2569 1259 2350 
L 1259 556 
Q 1259 447 1301 378 
Q 1344 309 1434 275 
Q 1513 244 1636 228 
Q 1759 213 1850 206 
L 1850 0 
L 225 0 
L 225 206 
Q 297 213 373 219 
Q 450 225 506 244 
Q 594 272 636 342 
Q 678 413 678 525 
L 678 2428 
Q 678 2525 633 2619 
Q 588 2713 506 2769 
Q 447 2806 365 2823 
Q 284 2841 191 2847 
L 191 3050 
L 1216 3119 
L 1259 3075 
L 1259 2641 
L 1275 2641 
Q 1469 2894 1706 3025 
Q 1944 3156 2141 3156 
Q 2338 3156 2461 3028 
Q 2584 2900 2584 2684 
z
" transform="scale(0.015625)"/>
       <path id="Georgia-63" d="M 1650 -81 
Q 981 -81 603 362 
Q 225 806 225 1553 
Q 225 1878 326 2161 
Q 428 2444 622 2675 
Q 806 2897 1084 3033 
Q 1363 3169 1691 3169 
Q 2144 3169 2428 2951 
Q 2713 2734 2713 2359 
Q 2713 2203 2638 2083 
Q 2563 1963 2391 1963 
Q 2206 1963 2104 2056 
Q 2003 2150 2003 2266 
Q 2003 2406 2040 2554 
Q 2078 2703 2084 2772 
Q 2028 2869 1917 2901 
Q 1806 2934 1678 2934 
Q 1528 2934 1392 2870 
Q 1256 2806 1128 2634 
Q 1013 2478 941 2212 
Q 869 1947 869 1578 
Q 869 997 1126 630 
Q 1384 263 1803 263 
Q 2106 263 2311 409 
Q 2516 556 2691 850 
L 2891 719 
Q 2684 350 2346 134 
Q 2009 -81 1650 -81 
z
" transform="scale(0.015625)"/>
      </defs>
      <use xlink:href="#Georgia-50"/>
      <use xlink:href="#Georgia-72" x="60.986328"/>
      <use xlink:href="#Georgia-69" x="101.953125"/>
      <use xlink:href="#Georgia-63" x="131.25"/>
      <use xlink:href="#Georgia-65" x="176.660156"/>
     </g>
    </g>
   </g>
  </g>
  <g id="axes_2">
   <g id="patch_52">
    <path d="M 535.2 320.4 
L 907.2 320.4 
L 907.2 43.2 
L 535.2 43.2 
z
" style="fill: #ffffff"/>
   </g>
   <g id="patch_53">
    <path d="M 552.109091 179.234114 
L 563.545191 179.234114 
L 563.545191 162.773705 
L 552.109091 162.773705 
z
" clip-path="url(#p88c06c5794)" style="fill: #507dbc; stroke: #04080f; stroke-linejoin: miter"/>
   </g>
   <g id="patch_54">
    <path d="M 568.446377 179.234114 
L 579.882477 179.234114 
L 579.882477 166.820015 
L 568.446377 166.820015 
z
" clip-path="url(#p88c06c5794)" style="fill: #507dbc; stroke: #04080f; stroke-linejoin: miter"/>
   </g>
   <g id="patch_55">
    <path d="M 584.783663 179.234114 
L 596.219763 179.234114 
L 596.219763 166.707051 
L 584.783663 166.707051 
z
" clip-path="url(#p88c06c5794)" style="fill: #507dbc; stroke: #04080f; stroke-linejoin: miter"/>
   </g>
   <g id="patch_56">
    <path d="M 601.120949 179.234114 
L 612.557049 179.234114 
L 612.557049 166.608128 
L 601.120949 166.608128 
z
" clip-path="url(#p88c06c5794)" style="fill: #507dbc; stroke: #04080f; stroke-linejoin: miter"/>
   </g>
   <g id="patch_57">
    <path d="M 617.458235 179.234114 
L 628.894335 179.234114 
L 628.894335 166.608128 
L 617.458235 166.608128 
z
" clip-path="url(#p88c06c5794)" style="fill: #507dbc; stroke: #04080f; stroke-linejoin: miter"/>
   </g>
   <g id="patch_58">
    <path d="M 633.79552 179.234114 
L 645.231621 179.234114 
L 645.231621 166.608128 
L 633.79552 166.608128 
z
" clip-path="url(#p88c06c5794)" style="fill: #507dbc; stroke: #04080f; stroke-linejoin: miter"/>
   </g>
   <g id="patch_59">
    <path d="M 650.132806 179.234114 
L 661.568906 179.234114 
L 661.568906 166.608128 
L 650.132806 166.608128 
z
" clip-path="url(#p88c06c5794)" style="fill: #507dbc; stroke: #04080f; stroke-linejoin: miter"/>
   </g>
   <g id="patch_60">
    <path d="M 666.470092 179.234114 
L 677.906192 179.234114 
L 677.906192 166.608128 
L 666.470092 166.608128 
z
" clip-path="url(#p88c06c5794)" style="fill: #507dbc; stroke: #04080f; stroke-linejoin: miter"/>
   </g>
   <g id="patch_61">
    <path d="M 682.807378 179.234114 
L 694.243478 179.234114 
L 694.243478 166.608128 
L 682.807378 166.608128 
z
" clip-path="url(#p88c06c5794)" style="fill: #507dbc; stroke: #04080f; stroke-linejoin: miter"/>
   </g>
   <g id="patch_62">
    <path d="M 699.144664 179.234114 
L 710.580764 179.234114 
L 710.580764 166.608128 
L 699.144664 166.608128 
z
" clip-path="url(#p88c06c5794)" style="fill: #507dbc; stroke: #04080f; stroke-linejoin: miter"/>
   </g>
   <g id="patch_63">
    <path d="M 715.48195 179.234114 
L 726.91805 179.234114 
L 726.91805 166.608128 
L 715.48195 166.608128 
z
" clip-path="url(#p88c06c5794)" style="fill: #507dbc; stroke: #04080f; stroke-linejoin: miter"/>
   </g>
   <g id="patch_64">
    <path d="M 731.819236 179.234114 
L 743.255336 179.234114 
L 743.255336 166.608128 
L 731.819236 166.608128 
z
" clip-path="url(#p88c06c5794)" style="fill: #507dbc; stroke: #04080f; stroke-linejoin: miter"/>
   </g>
   <g id="patch_65">
    <path d="M 748.156522 179.234114 
L 759.592622 179.234114 
L 759.592622 166.608128 
L 748.156522 166.608128 
z
" clip-path="url(#p88c06c5794)" style="fill: #507dbc; stroke: #04080f; stroke-linejoin: miter"/>
   </g>
   <g id="patch_66">
    <path d="M 764.493808 179.234114 
L 775.929908 179.234114 
L 775.929908 166.608128 
L 764.493808 166.608128 
z
" clip-path="url(#p88c06c5794)" style="fill: #507dbc; stroke: #04080f; stroke-linejoin: miter"/>
   </g>
   <g id="patch_67">
    <path d="M 780.831094 179.234114 
L 792.267194 179.234114 
L 792.267194 166.608128 
L 780.831094 166.608128 
z
" clip-path="url(#p88c06c5794)" style="fill: #507dbc; stroke: #04080f; stroke-linejoin: miter"/>
   </g>
   <g id="patch_68">
    <path d="M 797.168379 179.234114 
L 808.60448 179.234114 
L 808.60448 166.608128 
L 797.168379 166.608128 
z
" clip-path="url(#p88c06c5794)" style="fill: #507dbc; stroke: #04080f; stroke-linejoin: miter"/>
   </g>
   <g id="patch_69">
    <path d="M 813.505665 179.234114 
L 824.941765 179.234114 
L 824.941765 166.608128 
L 813.505665 166.608128 
z
" clip-path="url(#p88c06c5794)" style="fill: #507dbc; stroke: #04080f; stroke-linejoin: miter"/>
   </g>
   <g id="patch_70">
    <path d="M 829.842951 179.234114 
L 841.279051 179.234114 
L 841.279051 166.608128 
L 829.842951 166.608128 
z
" clip-path="url(#p88c06c5794)" style="fill: #507dbc; stroke: #04080f; stroke-linejoin: miter"/>
   </g>
   <g id="patch_71">
    <path d="M 846.180237 179.234114 
L 857.616337 179.234114 
L 857.616337 166.608128 
L 846.180237 166.608128 
z
" clip-path="url(#p88c06c5794)" style="fill: #507dbc; stroke: #04080f; stroke-linejoin: miter"/>
   </g>
   <g id="patch_72">
    <path d="M 862.517523 179.234114 
L 873.953623 179.234114 
L 873.953623 166.608128 
L 862.517523 166.608128 
z
" clip-path="url(#p88c06c5794)" style="fill: #507dbc; stroke: #04080f; stroke-linejoin: miter"/>
   </g>
   <g id="patch_73">
    <path d="M 878.854809 179.234114 
L 890.290909 179.234114 
L 890.290909 166.608128 
L 878.854809 166.608128 
z
" clip-path="url(#p88c06c5794)" style="fill: #507dbc; stroke: #04080f; stroke-linejoin: miter"/>
   </g>
   <g id="patch_74">
    <path d="M 552.109091 179.234114 
L 563.545191 179.234114 
L 563.545191 216.294843 
L 552.109091 216.294843 
z
" clip-path="url(#p88c06c5794)" style="fill: #bbd1ea; stroke: #04080f; stroke-linejoin: miter"/>
   </g>
   <g id="patch_75">
    <path d="M 568.446377 179.234114 
L 579.882477 179.234114 
L 579.882477 296.229726 
L 568.446377 296.229726 
z
" clip-path="url(#p88c06c5794)" style="fill: #bbd1ea; stroke: #04080f; stroke-linejoin: miter"/>
   </g>
   <g id="patch_76">
    <path d="M 584.783663 179.234114 
L 596.219763 179.234114 
L 596.219763 298.560894 
L 584.783663 298.560894 
z
" clip-path="url(#p88c06c5794)" style="fill: #bbd1ea; stroke: #04080f; stroke-linejoin: miter"/>
   </g>
   <g id="patch_77">
    <path d="M 601.120949 179.234114 
L 612.557049 179.234114 
L 612.557049 295.603267 
L 601.120949 295.603267 
z
" clip-path="url(#p88c06c5794)" style="fill: #bbd1ea; stroke: #04080f; stroke-linejoin: miter"/>
   </g>
   <g id="patch_78">
    <path d="M 617.458235 179.234114 
L 628.894335 179.234114 
L 628.894335 295.603267 
L 617.458235 295.603267 
z
" clip-path="url(#p88c06c5794)" style="fill: #bbd1ea; stroke: #04080f; stroke-linejoin: miter"/>
   </g>
   <g id="patch_79">
    <path d="M 633.79552 179.234114 
L 645.231621 179.234114 
L 645.231621 295.603267 
L 633.79552 295.603267 
z
" clip-path="url(#p88c06c5794)" style="fill: #bbd1ea; stroke: #04080f; stroke-linejoin: miter"/>
   </g>
   <g id="patch_80">
    <path d="M 650.132806 179.234114 
L 661.568906 179.234114 
L 661.568906 295.603267 
L 650.132806 295.603267 
z
" clip-path="url(#p88c06c5794)" style="fill: #bbd1ea; stroke: #04080f; stroke-linejoin: miter"/>
   </g>
   <g id="patch_81">
    <path d="M 666.470092 179.234114 
L 677.906192 179.234114 
L 677.906192 295.603267 
L 666.470092 295.603267 
z
" clip-path="url(#p88c06c5794)" style="fill: #bbd1ea; stroke: #04080f; stroke-linejoin: miter"/>
   </g>
   <g id="patch_82">
    <path d="M 682.807378 179.234114 
L 694.243478 179.234114 
L 694.243478 295.603267 
L 682.807378 295.603267 
z
" clip-path="url(#p88c06c5794)" style="fill: #bbd1ea; stroke: #04080f; stroke-linejoin: miter"/>
   </g>
   <g id="patch_83">
    <path d="M 699.144664 179.234114 
L 710.580764 179.234114 
L 710.580764 295.603267 
L 699.144664 295.603267 
z
" clip-path="url(#p88c06c5794)" style="fill: #bbd1ea; stroke: #04080f; stroke-linejoin: miter"/>
   </g>
   <g id="patch_84">
    <path d="M 715.48195 179.234114 
L 726.91805 179.234114 
L 726.91805 295.603267 
L 715.48195 295.603267 
z
" clip-path="url(#p88c06c5794)" style="fill: #bbd1ea; stroke: #04080f; stroke-linejoin: miter"/>
   </g>
   <g id="patch_85">
    <path d="M 731.819236 179.234114 
L 743.255336 179.234114 
L 743.255336 295.603267 
L 731.819236 295.603267 
z
" clip-path="url(#p88c06c5794)" style="fill: #bbd1ea; stroke: #04080f; stroke-linejoin: miter"/>
   </g>
   <g id="patch_86">
    <path d="M 748.156522 179.234114 
L 759.592622 179.234114 
L 759.592622 295.603267 
L 748.156522 295.603267 
z
" clip-path="url(#p88c06c5794)" style="fill: #bbd1ea; stroke: #04080f; stroke-linejoin: miter"/>
   </g>
   <g id="patch_87">
    <path d="M 764.493808 179.234114 
L 775.929908 179.234114 
L 775.929908 295.603267 
L 764.493808 295.603267 
z
" clip-path="url(#p88c06c5794)" style="fill: #bbd1ea; stroke: #04080f; stroke-linejoin: miter"/>
   </g>
   <g id="patch_88">
    <path d="M 780.831094 179.234114 
L 792.267194 179.234114 
L 792.267194 295.603267 
L 780.831094 295.603267 
z
" clip-path="url(#p88c06c5794)" style="fill: #bbd1ea; stroke: #04080f; stroke-linejoin: miter"/>
   </g>
   <g id="patch_89">
    <path d="M 797.168379 179.234114 
L 808.60448 179.234114 
L 808.60448 295.603267 
L 797.168379 295.603267 
z
" clip-path="url(#p88c06c5794)" style="fill: #bbd1ea; stroke: #04080f; stroke-linejoin: miter"/>
   </g>
   <g id="patch_90">
    <path d="M 813.505665 179.234114 
L 824.941765 179.234114 
L 824.941765 295.603267 
L 813.505665 295.603267 
z
" clip-path="url(#p88c06c5794)" style="fill: #bbd1ea; stroke: #04080f; stroke-linejoin: miter"/>
   </g>
   <g id="patch_91">
    <path d="M 829.842951 179.234114 
L 841.279051 179.234114 
L 841.279051 295.603267 
L 829.842951 295.603267 
z
" clip-path="url(#p88c06c5794)" style="fill: #bbd1ea; stroke: #04080f; stroke-linejoin: miter"/>
   </g>
   <g id="patch_92">
    <path d="M 846.180237 179.234114 
L 857.616337 179.234114 
L 857.616337 295.603267 
L 846.180237 295.603267 
z
" clip-path="url(#p88c06c5794)" style="fill: #bbd1ea; stroke: #04080f; stroke-linejoin: miter"/>
   </g>
   <g id="patch_93">
    <path d="M 862.517523 179.234114 
L 873.953623 179.234114 
L 873.953623 295.603267 
L 862.517523 295.603267 
z
" clip-path="url(#p88c06c5794)" style="fill: #bbd1ea; stroke: #04080f; stroke-linejoin: miter"/>
   </g>
   <g id="patch_94">
    <path d="M 878.854809 179.234114 
L 890.290909 179.234114 
L 890.290909 295.603267 
L 878.854809 295.603267 
z
" clip-path="url(#p88c06c5794)" style="fill: #bbd1ea; stroke: #04080f; stroke-linejoin: miter"/>
   </g>
   <g id="matplotlib.axis_3">
    <g id="xtick_11">
     <g id="line2d_31">
      <g>
       <use xlink:href="#m76eee94fe3" x="590.501713" y="320.4" style="stroke: #000000; stroke-width: 0.8"/>
      </g>
     </g>
     <g id="text_25">
      <!-- 0.1 -->
      <g transform="translate(583.936869 334.959375) scale(0.1 -0.1)">
       <use xlink:href="#Georgia-30"/>
       <use xlink:href="#Georgia-2e" x="61.376953"/>
       <use xlink:href="#Georgia-31" x="88.330078"/>
      </g>
     </g>
    </g>
    <g id="xtick_12">
     <g id="line2d_32">
      <g>
       <use xlink:href="#m76eee94fe3" x="623.176285" y="320.4" style="stroke: #000000; stroke-width: 0.8"/>
      </g>
     </g>
     <g id="text_26">
      <!-- 0.2 -->
      <g transform="translate(615.96691 334.959375) scale(0.1 -0.1)">
       <use xlink:href="#Georgia-30"/>
       <use xlink:href="#Georgia-2e" x="61.376953"/>
       <use xlink:href="#Georgia-32" x="88.330078"/>
      </g>
     </g>
    </g>
    <g id="xtick_13">
     <g id="line2d_33">
      <g>
       <use xlink:href="#m76eee94fe3" x="655.850856" y="320.4" style="stroke: #000000; stroke-width: 0.8"/>
      </g>
     </g>
     <g id="text_27">
      <!-- 0.3 -->
      <g transform="translate(648.675856 334.959375) scale(0.1 -0.1)">
       <use xlink:href="#Georgia-30"/>
       <use xlink:href="#Georgia-2e" x="61.376953"/>
       <use xlink:href="#Georgia-33" x="88.330078"/>
      </g>
     </g>
    </g>
    <g id="xtick_14">
     <g id="line2d_34">
      <g>
       <use xlink:href="#m76eee94fe3" x="688.525428" y="320.4" style="stroke: #000000; stroke-width: 0.8"/>
      </g>
     </g>
     <g id="text_28">
      <!-- 0.4 -->
      <g transform="translate(681.284022 334.959375) scale(0.1 -0.1)">
       <use xlink:href="#Georgia-30"/>
       <use xlink:href="#Georgia-2e" x="61.376953"/>
       <use xlink:href="#Georgia-34" x="88.330078"/>
      </g>
     </g>
    </g>
    <g id="xtick_15">
     <g id="line2d_35">
      <g>
       <use xlink:href="#m76eee94fe3" x="721.2" y="320.4" style="stroke: #000000; stroke-width: 0.8"/>
      </g>
     </g>
     <g id="text_29">
      <!-- 0.5 -->
      <g transform="translate(714.142188 334.959375) scale(0.1 -0.1)">
       <use xlink:href="#Georgia-30"/>
       <use xlink:href="#Georgia-2e" x="61.376953"/>
       <use xlink:href="#Georgia-35" x="88.330078"/>
      </g>
     </g>
    </g>
    <g id="xtick_16">
     <g id="line2d_36">
      <g>
       <use xlink:href="#m76eee94fe3" x="753.874572" y="320.4" style="stroke: #000000; stroke-width: 0.8"/>
      </g>
     </g>
     <g id="text_30">
      <!-- 0.6 -->
      <g transform="translate(746.628478 334.959375) scale(0.1 -0.1)">
       <use xlink:href="#Georgia-30"/>
       <use xlink:href="#Georgia-2e" x="61.376953"/>
       <use xlink:href="#Georgia-36" x="88.330078"/>
      </g>
     </g>
    </g>
    <g id="xtick_17">
     <g id="line2d_37">
      <g>
       <use xlink:href="#m76eee94fe3" x="786.549144" y="320.4" style="stroke: #000000; stroke-width: 0.8"/>
      </g>
     </g>
     <g id="text_31">
      <!-- 0.7 -->
      <g transform="translate(779.620237 334.959375) scale(0.1 -0.1)">
       <use xlink:href="#Georgia-30"/>
       <use xlink:href="#Georgia-2e" x="61.376953"/>
       <use xlink:href="#Georgia-37" x="88.330078"/>
      </g>
     </g>
    </g>
    <g id="xtick_18">
     <g id="line2d_38">
      <g>
       <use xlink:href="#m76eee94fe3" x="819.223715" y="320.4" style="stroke: #000000; stroke-width: 0.8"/>
      </g>
     </g>
     <g id="text_32">
      <!-- 0.8 -->
      <g transform="translate(811.826059 334.959375) scale(0.1 -0.1)">
       <use xlink:href="#Georgia-30"/>
       <use xlink:href="#Georgia-2e" x="61.376953"/>
       <use xlink:href="#Georgia-38" x="88.330078"/>
      </g>
     </g>
    </g>
    <g id="xtick_19">
     <g id="line2d_39">
      <g>
       <use xlink:href="#m76eee94fe3" x="851.898287" y="320.4" style="stroke: #000000; stroke-width: 0.8"/>
      </g>
     </g>
     <g id="text_33">
      <!-- 0.9 -->
      <g transform="translate(844.652193 334.959375) scale(0.1 -0.1)">
       <use xlink:href="#Georgia-30"/>
       <use xlink:href="#Georgia-2e" x="61.376953"/>
       <use xlink:href="#Georgia-39" x="88.330078"/>
      </g>
     </g>
    </g>
    <g id="xtick_20">
     <g id="line2d_40">
      <g>
       <use xlink:href="#m76eee94fe3" x="884.572859" y="320.4" style="stroke: #000000; stroke-width: 0.8"/>
      </g>
     </g>
     <g id="text_34">
      <!-- 1.0 -->
      <g transform="translate(878.008015 334.959375) scale(0.1 -0.1)">
       <use xlink:href="#Georgia-31"/>
       <use xlink:href="#Georgia-2e" x="42.96875"/>
       <use xlink:href="#Georgia-30" x="69.921875"/>
      </g>
     </g>
    </g>
   </g>
   <g id="matplotlib.axis_4">
    <g id="ytick_10">
     <g id="line2d_41">
      <path d="M 535.2 314.63651 
L 907.2 314.63651 
" clip-path="url(#p88c06c5794)" style="fill: none; stroke-dasharray: 2.96,1.28; stroke-dashoffset: 0; stroke: #b0b0b0; stroke-width: 0.8"/>
     </g>
     <g id="line2d_42">
      <g>
       <use xlink:href="#m5b221c9fc7" x="535.2" y="314.63651" style="stroke: #000000; stroke-width: 0.8"/>
      </g>
     </g>
    </g>
    <g id="ytick_11">
     <g id="line2d_43">
      <path d="M 535.2 280.785911 
L 907.2 280.785911 
" clip-path="url(#p88c06c5794)" style="fill: none; stroke-dasharray: 2.96,1.28; stroke-dashoffset: 0; stroke: #b0b0b0; stroke-width: 0.8"/>
     </g>
     <g id="line2d_44">
      <g>
       <use xlink:href="#m5b221c9fc7" x="535.2" y="280.785911" style="stroke: #000000; stroke-width: 0.8"/>
      </g>
     </g>
    </g>
    <g id="ytick_12">
     <g id="line2d_45">
      <path d="M 535.2 246.935312 
L 907.2 246.935312 
" clip-path="url(#p88c06c5794)" style="fill: none; stroke-dasharray: 2.96,1.28; stroke-dashoffset: 0; stroke: #b0b0b0; stroke-width: 0.8"/>
     </g>
     <g id="line2d_46">
      <g>
       <use xlink:href="#m5b221c9fc7" x="535.2" y="246.935312" style="stroke: #000000; stroke-width: 0.8"/>
      </g>
     </g>
    </g>
    <g id="ytick_13">
     <g id="line2d_47">
      <path d="M 535.2 213.084713 
L 907.2 213.084713 
" clip-path="url(#p88c06c5794)" style="fill: none; stroke-dasharray: 2.96,1.28; stroke-dashoffset: 0; stroke: #b0b0b0; stroke-width: 0.8"/>
     </g>
     <g id="line2d_48">
      <g>
       <use xlink:href="#m5b221c9fc7" x="535.2" y="213.084713" style="stroke: #000000; stroke-width: 0.8"/>
      </g>
     </g>
    </g>
    <g id="ytick_14">
     <g id="line2d_49">
      <path d="M 535.2 179.234114 
L 907.2 179.234114 
" clip-path="url(#p88c06c5794)" style="fill: none; stroke-dasharray: 2.96,1.28; stroke-dashoffset: 0; stroke: #b0b0b0; stroke-width: 0.8"/>
     </g>
     <g id="line2d_50">
      <g>
       <use xlink:href="#m5b221c9fc7" x="535.2" y="179.234114" style="stroke: #000000; stroke-width: 0.8"/>
      </g>
     </g>
    </g>
    <g id="ytick_15">
     <g id="line2d_51">
      <path d="M 535.2 145.383515 
L 907.2 145.383515 
" clip-path="url(#p88c06c5794)" style="fill: none; stroke-dasharray: 2.96,1.28; stroke-dashoffset: 0; stroke: #b0b0b0; stroke-width: 0.8"/>
     </g>
     <g id="line2d_52">
      <g>
       <use xlink:href="#m5b221c9fc7" x="535.2" y="145.383515" style="stroke: #000000; stroke-width: 0.8"/>
      </g>
     </g>
    </g>
    <g id="ytick_16">
     <g id="line2d_53">
      <path d="M 535.2 111.532915 
L 907.2 111.532915 
" clip-path="url(#p88c06c5794)" style="fill: none; stroke-dasharray: 2.96,1.28; stroke-dashoffset: 0; stroke: #b0b0b0; stroke-width: 0.8"/>
     </g>
     <g id="line2d_54">
      <g>
       <use xlink:href="#m5b221c9fc7" x="535.2" y="111.532915" style="stroke: #000000; stroke-width: 0.8"/>
      </g>
     </g>
    </g>
    <g id="ytick_17">
     <g id="line2d_55">
      <path d="M 535.2 77.682316 
L 907.2 77.682316 
" clip-path="url(#p88c06c5794)" style="fill: none; stroke-dasharray: 2.96,1.28; stroke-dashoffset: 0; stroke: #b0b0b0; stroke-width: 0.8"/>
     </g>
     <g id="line2d_56">
      <g>
       <use xlink:href="#m5b221c9fc7" x="535.2" y="77.682316" style="stroke: #000000; stroke-width: 0.8"/>
      </g>
     </g>
    </g>
    <g id="ytick_18">
     <g id="line2d_57">
      <path d="M 535.2 43.831717 
L 907.2 43.831717 
" clip-path="url(#p88c06c5794)" style="fill: none; stroke-dasharray: 2.96,1.28; stroke-dashoffset: 0; stroke: #b0b0b0; stroke-width: 0.8"/>
     </g>
     <g id="line2d_58">
      <g>
       <use xlink:href="#m5b221c9fc7" x="535.2" y="43.831717" style="stroke: #000000; stroke-width: 0.8"/>
      </g>
     </g>
    </g>
   </g>
   <g id="line2d_59">
    <path d="M 557.827141 111.532915 
L 574.164427 111.532915 
L 590.501713 111.532915 
L 606.838999 111.532915 
L 623.176285 111.532915 
L 639.51357 111.532915 
L 655.850856 111.532915 
L 672.188142 111.532915 
L 688.525428 111.532915 
L 704.862714 111.532915 
L 721.2 111.532915 
L 737.537286 111.532915 
L 753.874572 111.532915 
L 770.211858 111.532915 
L 786.549144 111.532915 
L 802.88643 111.532915 
L 819.223715 111.532915 
L 835.561001 111.532915 
L 851.898287 111.532915 
L 868.235573 111.532915 
L 884.572859 111.532915 
" clip-path="url(#p88c06c5794)" style="fill: none; stroke: #1d3557; stroke-width: 1.5; stroke-linecap: square"/>
    <g clip-path="url(#p88c06c5794)">
     <use xlink:href="#mefe3d34c78" x="557.827141" y="111.532915" style="fill: #1d3557; stroke: #1d3557"/>
     <use xlink:href="#mefe3d34c78" x="574.164427" y="111.532915" style="fill: #1d3557; stroke: #1d3557"/>
     <use xlink:href="#mefe3d34c78" x="590.501713" y="111.532915" style="fill: #1d3557; stroke: #1d3557"/>
     <use xlink:href="#mefe3d34c78" x="606.838999" y="111.532915" style="fill: #1d3557; stroke: #1d3557"/>
     <use xlink:href="#mefe3d34c78" x="623.176285" y="111.532915" style="fill: #1d3557; stroke: #1d3557"/>
     <use xlink:href="#mefe3d34c78" x="639.51357" y="111.532915" style="fill: #1d3557; stroke: #1d3557"/>
     <use xlink:href="#mefe3d34c78" x="655.850856" y="111.532915" style="fill: #1d3557; stroke: #1d3557"/>
     <use xlink:href="#mefe3d34c78" x="672.188142" y="111.532915" style="fill: #1d3557; stroke: #1d3557"/>
     <use xlink:href="#mefe3d34c78" x="688.525428" y="111.532915" style="fill: #1d3557; stroke: #1d3557"/>
     <use xlink:href="#mefe3d34c78" x="704.862714" y="111.532915" style="fill: #1d3557; stroke: #1d3557"/>
     <use xlink:href="#mefe3d34c78" x="721.2" y="111.532915" style="fill: #1d3557; stroke: #1d3557"/>
     <use xlink:href="#mefe3d34c78" x="737.537286" y="111.532915" style="fill: #1d3557; stroke: #1d3557"/>
     <use xlink:href="#mefe3d34c78" x="753.874572" y="111.532915" style="fill: #1d3557; stroke: #1d3557"/>
     <use xlink:href="#mefe3d34c78" x="770.211858" y="111.532915" style="fill: #1d3557; stroke: #1d3557"/>
     <use xlink:href="#mefe3d34c78" x="786.549144" y="111.532915" style="fill: #1d3557; stroke: #1d3557"/>
     <use xlink:href="#mefe3d34c78" x="802.88643" y="111.532915" style="fill: #1d3557; stroke: #1d3557"/>
     <use xlink:href="#mefe3d34c78" x="819.223715" y="111.532915" style="fill: #1d3557; stroke: #1d3557"/>
     <use xlink:href="#mefe3d34c78" x="835.561001" y="111.532915" style="fill: #1d3557; stroke: #1d3557"/>
     <use xlink:href="#mefe3d34c78" x="851.898287" y="111.532915" style="fill: #1d3557; stroke: #1d3557"/>
     <use xlink:href="#mefe3d34c78" x="868.235573" y="111.532915" style="fill: #1d3557; stroke: #1d3557"/>
     <use xlink:href="#mefe3d34c78" x="884.572859" y="111.532915" style="fill: #1d3557; stroke: #1d3557"/>
    </g>
   </g>
   <g id="line2d_60">
    <path d="M 557.827141 246.935312 
L 574.164427 246.935312 
L 590.501713 246.935312 
L 606.838999 246.935312 
L 623.176285 246.935312 
L 639.51357 246.935312 
L 655.850856 246.935312 
L 672.188142 246.935312 
L 688.525428 246.935312 
L 704.862714 246.935312 
L 721.2 246.935312 
L 737.537286 246.935312 
L 753.874572 246.935312 
L 770.211858 246.935312 
L 786.549144 246.935312 
L 802.88643 246.935312 
L 819.223715 246.935312 
L 835.561001 246.935312 
L 851.898287 246.935312 
L 868.235573 246.935312 
L 884.572859 246.935312 
" clip-path="url(#p88c06c5794)" style="fill: none; stroke: #1d3557; stroke-width: 1.5; stroke-linecap: square"/>
    <g clip-path="url(#p88c06c5794)">
     <use xlink:href="#mefe3d34c78" x="557.827141" y="246.935312" style="fill: #1d3557; stroke: #1d3557"/>
     <use xlink:href="#mefe3d34c78" x="574.164427" y="246.935312" style="fill: #1d3557; stroke: #1d3557"/>
     <use xlink:href="#mefe3d34c78" x="590.501713" y="246.935312" style="fill: #1d3557; stroke: #1d3557"/>
     <use xlink:href="#mefe3d34c78" x="606.838999" y="246.935312" style="fill: #1d3557; stroke: #1d3557"/>
     <use xlink:href="#mefe3d34c78" x="623.176285" y="246.935312" style="fill: #1d3557; stroke: #1d3557"/>
     <use xlink:href="#mefe3d34c78" x="639.51357" y="246.935312" style="fill: #1d3557; stroke: #1d3557"/>
     <use xlink:href="#mefe3d34c78" x="655.850856" y="246.935312" style="fill: #1d3557; stroke: #1d3557"/>
     <use xlink:href="#mefe3d34c78" x="672.188142" y="246.935312" style="fill: #1d3557; stroke: #1d3557"/>
     <use xlink:href="#mefe3d34c78" x="688.525428" y="246.935312" style="fill: #1d3557; stroke: #1d3557"/>
     <use xlink:href="#mefe3d34c78" x="704.862714" y="246.935312" style="fill: #1d3557; stroke: #1d3557"/>
     <use xlink:href="#mefe3d34c78" x="721.2" y="246.935312" style="fill: #1d3557; stroke: #1d3557"/>
     <use xlink:href="#mefe3d34c78" x="737.537286" y="246.935312" style="fill: #1d3557; stroke: #1d3557"/>
     <use xlink:href="#mefe3d34c78" x="753.874572" y="246.935312" style="fill: #1d3557; stroke: #1d3557"/>
     <use xlink:href="#mefe3d34c78" x="770.211858" y="246.935312" style="fill: #1d3557; stroke: #1d3557"/>
     <use xlink:href="#mefe3d34c78" x="786.549144" y="246.935312" style="fill: #1d3557; stroke: #1d3557"/>
     <use xlink:href="#mefe3d34c78" x="802.88643" y="246.935312" style="fill: #1d3557; stroke: #1d3557"/>
     <use xlink:href="#mefe3d34c78" x="819.223715" y="246.935312" style="fill: #1d3557; stroke: #1d3557"/>
     <use xlink:href="#mefe3d34c78" x="835.561001" y="246.935312" style="fill: #1d3557; stroke: #1d3557"/>
     <use xlink:href="#mefe3d34c78" x="851.898287" y="246.935312" style="fill: #1d3557; stroke: #1d3557"/>
     <use xlink:href="#mefe3d34c78" x="868.235573" y="246.935312" style="fill: #1d3557; stroke: #1d3557"/>
     <use xlink:href="#mefe3d34c78" x="884.572859" y="246.935312" style="fill: #1d3557; stroke: #1d3557"/>
    </g>
   </g>
   <g id="patch_95">
    <path d="M 535.2 320.4 
L 535.2 43.2 
" style="fill: none; stroke: #000000; stroke-width: 0.8; stroke-linejoin: miter; stroke-linecap: square"/>
   </g>
   <g id="patch_96">
    <path d="M 907.2 320.4 
L 907.2 43.2 
" style="fill: none"/>
   </g>
   <g id="patch_97">
    <path d="M 535.2 320.4 
L 907.2 320.4 
" style="fill: none; stroke: #000000; stroke-width: 0.8; stroke-linejoin: miter; stroke-linecap: square"/>
   </g>
   <g id="patch_98">
    <path d="M 535.2 43.2 
L 907.2 43.2 
" style="fill: none"/>
   </g>
   <g id="text_35">
    <!-- Smart Baseline -->
    <g transform="translate(674.2275 37.2) scale(0.12 -0.12)">
     <defs>
      <path id="Georgia-Bold-53" d="M 2075 -119 
Q 1669 -119 1317 -19 
Q 966 81 722 219 
L 506 0 
L 241 0 
L 200 1603 
L 469 1603 
Q 559 1375 700 1122 
Q 841 869 1025 669 
Q 1216 459 1452 328 
Q 1688 197 2003 197 
Q 2428 197 2654 405 
Q 2881 613 2881 928 
Q 2881 1188 2689 1364 
Q 2497 1541 2094 1669 
Q 1831 1753 1611 1825 
Q 1391 1897 1197 1972 
Q 750 2150 533 2481 
Q 316 2813 316 3222 
Q 316 3481 428 3720 
Q 541 3959 756 4150 
Q 963 4328 1284 4440 
Q 1606 4553 1984 4553 
Q 2353 4553 2675 4451 
Q 2997 4350 3181 4247 
L 3372 4434 
L 3644 4434 
L 3669 2922 
L 3400 2922 
Q 3306 3166 3179 3420 
Q 3053 3675 2913 3844 
Q 2759 4025 2559 4133 
Q 2359 4241 2091 4241 
Q 1753 4241 1539 4050 
Q 1325 3859 1325 3578 
Q 1325 3313 1511 3144 
Q 1697 2975 2091 2847 
Q 2322 2769 2562 2691 
Q 2803 2613 2991 2541 
Q 3444 2366 3680 2058 
Q 3916 1750 3916 1294 
Q 3916 1006 3781 737 
Q 3647 469 3419 291 
Q 3169 94 2841 -12 
Q 2513 -119 2075 -119 
z
" transform="scale(0.015625)"/>
     </defs>
     <use xlink:href="#Georgia-Bold-53"/>
     <use xlink:href="#Georgia-Bold-6d" x="64.892578"/>
     <use xlink:href="#Georgia-Bold-61" x="166.455078"/>
     <use xlink:href="#Georgia-Bold-72" x="226.025391"/>
     <use xlink:href="#Georgia-Bold-74" x="278.027344"/>
     <use xlink:href="#Georgia-Bold-20" x="317.773438"/>
     <use xlink:href="#Georgia-Bold-42" x="343.164062"/>
     <use xlink:href="#Georgia-Bold-61" x="418.896484"/>
     <use xlink:href="#Georgia-Bold-73" x="478.466797"/>
     <use xlink:href="#Georgia-Bold-65" x="529.736328"/>
     <use xlink:href="#Georgia-Bold-6c" x="586.914062"/>
     <use xlink:href="#Georgia-Bold-69" x="621.337891"/>
     <use xlink:href="#Georgia-Bold-6e" x="656.689453"/>
     <use xlink:href="#Georgia-Bold-65" x="725.683594"/>
    </g>
   </g>
  </g>
  <g id="text_36">
   <!-- elastic-job-lite_elastic-job-lite-core -->
   <g transform="translate(395.646563 16.27125) scale(0.12 -0.12)">
    <defs>
     <path id="Georgia-Bold-2d" d="M 2159 1359 
L 266 1359 
L 266 2050 
L 2159 2050 
L 2159 1359 
z
" transform="scale(0.015625)"/>
     <path id="Georgia-Bold-6a" d="M 1722 369 
Q 1722 47 1612 -281 
Q 1503 -609 1300 -844 
Q 1078 -1100 762 -1244 
Q 447 -1388 41 -1388 
Q -338 -1388 -542 -1242 
Q -747 -1097 -747 -850 
Q -747 -763 -726 -688 
Q -706 -613 -641 -531 
Q -591 -463 -486 -414 
Q -381 -366 -250 -366 
Q 9 -366 150 -552 
Q 291 -738 438 -1109 
Q 566 -1038 627 -803 
Q 688 -569 688 216 
L 688 2375 
Q 688 2484 641 2567 
Q 594 2650 513 2706 
Q 453 2747 323 2783 
Q 194 2819 94 2828 
L 94 3056 
L 1675 3138 
L 1722 3091 
L 1722 369 
z
M 1734 4263 
Q 1734 4025 1551 3858 
Q 1369 3691 1119 3691 
Q 866 3691 683 3858 
Q 500 4025 500 4263 
Q 500 4500 683 4669 
Q 866 4838 1119 4838 
Q 1372 4838 1553 4669 
Q 1734 4500 1734 4263 
z
" transform="scale(0.015625)"/>
     <path id="Georgia-Bold-5f" d="M 4516 -944 
L -16 -944 
L -16 -563 
L 4516 -563 
L 4516 -944 
z
" transform="scale(0.015625)"/>
    </defs>
    <use xlink:href="#Georgia-Bold-65"/>
    <use xlink:href="#Georgia-Bold-6c" x="57.177734"/>
    <use xlink:href="#Georgia-Bold-61" x="91.601562"/>
    <use xlink:href="#Georgia-Bold-73" x="151.171875"/>
    <use xlink:href="#Georgia-Bold-74" x="202.441406"/>
    <use xlink:href="#Georgia-Bold-69" x="242.1875"/>
    <use xlink:href="#Georgia-Bold-63" x="277.539062"/>
    <use xlink:href="#Georgia-Bold-2d" x="330.664062"/>
    <use xlink:href="#Georgia-Bold-6a" x="368.554688"/>
    <use xlink:href="#Georgia-Bold-6f" x="403.173828"/>
    <use xlink:href="#Georgia-Bold-62" x="466.748047"/>
    <use xlink:href="#Georgia-Bold-2d" x="531.298828"/>
    <use xlink:href="#Georgia-Bold-6c" x="569.189453"/>
    <use xlink:href="#Georgia-Bold-69" x="603.613281"/>
    <use xlink:href="#Georgia-Bold-74" x="638.964844"/>
    <use xlink:href="#Georgia-Bold-65" x="678.710938"/>
    <use xlink:href="#Georgia-Bold-5f" x="735.888672"/>
    <use xlink:href="#Georgia-Bold-65" x="806.201172"/>
    <use xlink:href="#Georgia-Bold-6c" x="863.378906"/>
    <use xlink:href="#Georgia-Bold-61" x="897.802734"/>
    <use xlink:href="#Georgia-Bold-73" x="957.373047"/>
    <use xlink:href="#Georgia-Bold-74" x="1008.642578"/>
    <use xlink:href="#Georgia-Bold-69" x="1048.388672"/>
    <use xlink:href="#Georgia-Bold-63" x="1083.740234"/>
    <use xlink:href="#Georgia-Bold-2d" x="1136.865234"/>
    <use xlink:href="#Georgia-Bold-6a" x="1174.755859"/>
    <use xlink:href="#Georgia-Bold-6f" x="1209.375"/>
    <use xlink:href="#Georgia-Bold-62" x="1272.949219"/>
    <use xlink:href="#Georgia-Bold-2d" x="1337.5"/>
    <use xlink:href="#Georgia-Bold-6c" x="1375.390625"/>
    <use xlink:href="#Georgia-Bold-69" x="1409.814453"/>
    <use xlink:href="#Georgia-Bold-74" x="1445.166016"/>
    <use xlink:href="#Georgia-Bold-65" x="1484.912109"/>
    <use xlink:href="#Georgia-Bold-2d" x="1542.089844"/>
    <use xlink:href="#Georgia-Bold-63" x="1579.980469"/>
    <use xlink:href="#Georgia-Bold-6f" x="1633.105469"/>
    <use xlink:href="#Georgia-Bold-72" x="1696.679688"/>
    <use xlink:href="#Georgia-Bold-65" x="1748.681641"/>
   </g>
  </g>
 </g>
 <defs>
  <clipPath id="pbf1e93a36c">
   <rect x="126" y="43.2" width="372" height="277.2"/>
  </clipPath>
  <clipPath id="p88c06c5794">
   <rect x="535.2" y="43.2" width="372" height="277.2"/>
  </clipPath>
 </defs>
</svg>
