<?xml version="1.0" encoding="utf-8" standalone="no"?>
<!DOCTYPE svg PUBLIC "-//W3C//DTD SVG 1.1//EN"
  "http://www.w3.org/Graphics/SVG/1.1/DTD/svg11.dtd">
<svg xmlns:xlink="http://www.w3.org/1999/xlink" width="360pt" height="288pt" viewBox="0 0 360 288" xmlns="http://www.w3.org/2000/svg" version="1.1">
 <metadata>
  <rdf:RDF xmlns:dc="http://purl.org/dc/elements/1.1/" xmlns:cc="http://creativecommons.org/ns#" xmlns:rdf="http://www.w3.org/1999/02/22-rdf-syntax-ns#">
   <cc:Work>
    <dc:type rdf:resource="http://purl.org/dc/dcmitype/StillImage"/>
    <dc:date>2023-09-20T22:44:32.638164</dc:date>
    <dc:format>image/svg+xml</dc:format>
    <dc:creator>
     <cc:Agent>
      <dc:title>Matplotlib v3.7.1, https://matplotlib.org/</dc:title>
     </cc:Agent>
    </dc:creator>
   </cc:Work>
  </rdf:RDF>
 </metadata>
 <defs>
  <style type="text/css">*{stroke-linejoin: round; stroke-linecap: butt}</style>
 </defs>
 <g id="figure_1">
  <g id="patch_1">
   <path d="M 0 288 
L 360 288 
L 360 0 
L 0 0 
z
" style="fill: #ffffff"/>
  </g>
  <g id="axes_1">
   <g id="patch_2">
    <path d="M 45 256.32 
L 324 256.32 
L 324 34.56 
L 45 34.56 
z
" style="fill: #ffffff"/>
   </g>
   <g id="PathCollection_1">
    <defs>
     <path id="m09c472675e" d="M 0 3 
C 0.795609 3 1.55874 2.683901 2.12132 2.12132 
C 2.683901 1.55874 3 0.795609 3 0 
C 3 -0.795609 2.683901 -1.55874 2.12132 -2.12132 
C 1.55874 -2.683901 0.795609 -3 0 -3 
C -0.795609 -3 -1.55874 -2.683901 -2.12132 -2.12132 
C -2.683901 -1.55874 -3 -0.795609 -3 0 
C -3 0.795609 -2.683901 1.55874 -2.12132 2.12132 
C -1.55874 2.683901 -0.795609 3 0 3 
z
" style="stroke: #8ea604"/>
    </defs>
    <g clip-path="url(#p6039d331d4)">
     <use xlink:href="#m09c472675e" x="57.681818" y="44.64" style="fill: #8ea604; stroke: #8ea604"/>
     <use xlink:href="#m09c472675e" x="70.363636" y="132.047335" style="fill: #8ea604; stroke: #8ea604"/>
     <use xlink:href="#m09c472675e" x="83.045455" y="133.184131" style="fill: #8ea604; stroke: #8ea604"/>
     <use xlink:href="#m09c472675e" x="95.727273" y="132.890519" style="fill: #8ea604; stroke: #8ea604"/>
     <use xlink:href="#m09c472675e" x="108.409091" y="136.76966" style="fill: #8ea604; stroke: #8ea604"/>
     <use xlink:href="#m09c472675e" x="121.090909" y="137.480724" style="fill: #8ea604; stroke: #8ea604"/>
     <use xlink:href="#m09c472675e" x="133.772727" y="137.263809" style="fill: #8ea604; stroke: #8ea604"/>
     <use xlink:href="#m09c472675e" x="146.454545" y="138.623486" style="fill: #8ea604; stroke: #8ea604"/>
     <use xlink:href="#m09c472675e" x="159.136364" y="138.338417" style="fill: #8ea604; stroke: #8ea604"/>
     <use xlink:href="#m09c472675e" x="171.818182" y="138.663065" style="fill: #8ea604; stroke: #8ea604"/>
     <use xlink:href="#m09c472675e" x="184.5" y="138.421549" style="fill: #8ea604; stroke: #8ea604"/>
     <use xlink:href="#m09c472675e" x="197.181818" y="138.421549" style="fill: #8ea604; stroke: #8ea604"/>
     <use xlink:href="#m09c472675e" x="209.863636" y="138.421962" style="fill: #8ea604; stroke: #8ea604"/>
     <use xlink:href="#m09c472675e" x="222.545455" y="138.421962" style="fill: #8ea604; stroke: #8ea604"/>
     <use xlink:href="#m09c472675e" x="235.227273" y="138.421962" style="fill: #8ea604; stroke: #8ea604"/>
     <use xlink:href="#m09c472675e" x="247.909091" y="138.037838" style="fill: #8ea604; stroke: #8ea604"/>
     <use xlink:href="#m09c472675e" x="260.590909" y="138.039183" style="fill: #8ea604; stroke: #8ea604"/>
     <use xlink:href="#m09c472675e" x="273.272727" y="138.039183" style="fill: #8ea604; stroke: #8ea604"/>
     <use xlink:href="#m09c472675e" x="285.954545" y="138.039183" style="fill: #8ea604; stroke: #8ea604"/>
     <use xlink:href="#m09c472675e" x="298.636364" y="138.333768" style="fill: #8ea604; stroke: #8ea604"/>
     <use xlink:href="#m09c472675e" x="311.318182" y="139.235934" style="fill: #8ea604; stroke: #8ea604"/>
    </g>
   </g>
   <g id="PathCollection_2">
    <defs>
     <path id="mb038e563da" d="M 0 3 
C 0.795609 3 1.55874 2.683901 2.12132 2.12132 
C 2.683901 1.55874 3 0.795609 3 0 
C 3 -0.795609 2.683901 -1.55874 2.12132 -2.12132 
C 1.55874 -2.683901 0.795609 -3 0 -3 
C -0.795609 -3 -1.55874 -2.683901 -2.12132 -2.12132 
C -2.683901 -1.55874 -3 -0.795609 -3 0 
C -3 0.795609 -2.683901 1.55874 -2.12132 2.12132 
C -1.55874 2.683901 -0.795609 3 0 3 
z
" style="stroke: #d76a03"/>
    </defs>
    <g clip-path="url(#p6039d331d4)">
     <use xlink:href="#mb038e563da" x="57.681818" y="112.962838" style="fill: #d76a03; stroke: #d76a03"/>
     <use xlink:href="#mb038e563da" x="70.363636" y="212.400763" style="fill: #d76a03; stroke: #d76a03"/>
     <use xlink:href="#mb038e563da" x="83.045455" y="214.206114" style="fill: #d76a03; stroke: #d76a03"/>
     <use xlink:href="#mb038e563da" x="95.727273" y="221.015734" style="fill: #d76a03; stroke: #d76a03"/>
     <use xlink:href="#mb038e563da" x="108.409091" y="225.356063" style="fill: #d76a03; stroke: #d76a03"/>
     <use xlink:href="#mb038e563da" x="121.090909" y="226.759692" style="fill: #d76a03; stroke: #d76a03"/>
     <use xlink:href="#mb038e563da" x="133.772727" y="225.200751" style="fill: #d76a03; stroke: #d76a03"/>
     <use xlink:href="#mb038e563da" x="146.454545" y="228.391825" style="fill: #d76a03; stroke: #d76a03"/>
     <use xlink:href="#mb038e563da" x="159.136364" y="227.803284" style="fill: #d76a03; stroke: #d76a03"/>
     <use xlink:href="#mb038e563da" x="171.818182" y="228.131563" style="fill: #d76a03; stroke: #d76a03"/>
     <use xlink:href="#mb038e563da" x="184.5" y="227.776921" style="fill: #d76a03; stroke: #d76a03"/>
     <use xlink:href="#mb038e563da" x="197.181818" y="227.775839" style="fill: #d76a03; stroke: #d76a03"/>
     <use xlink:href="#mb038e563da" x="209.863636" y="227.779877" style="fill: #d76a03; stroke: #d76a03"/>
     <use xlink:href="#mb038e563da" x="222.545455" y="227.779877" style="fill: #d76a03; stroke: #d76a03"/>
     <use xlink:href="#mb038e563da" x="235.227273" y="227.779877" style="fill: #d76a03; stroke: #d76a03"/>
     <use xlink:href="#mb038e563da" x="247.909091" y="227.327705" style="fill: #d76a03; stroke: #d76a03"/>
     <use xlink:href="#mb038e563da" x="260.590909" y="227.330834" style="fill: #d76a03; stroke: #d76a03"/>
     <use xlink:href="#mb038e563da" x="273.272727" y="230.831992" style="fill: #d76a03; stroke: #d76a03"/>
     <use xlink:href="#mb038e563da" x="285.954545" y="230.831992" style="fill: #d76a03; stroke: #d76a03"/>
     <use xlink:href="#mb038e563da" x="298.636364" y="232.366955" style="fill: #d76a03; stroke: #d76a03"/>
     <use xlink:href="#mb038e563da" x="311.318182" y="246.24" style="fill: #d76a03; stroke: #d76a03"/>
    </g>
   </g>
   <g id="matplotlib.axis_1">
    <g id="xtick_1">
     <g id="line2d_1">
      <defs>
       <path id="m748f45d2bd" d="M 0 0 
L 0 3.5 
" style="stroke: #000000; stroke-width: 0.8"/>
      </defs>
      <g>
       <use xlink:href="#m748f45d2bd" x="57.681818" y="256.32" style="stroke: #000000; stroke-width: 0.8"/>
      </g>
     </g>
     <g id="text_1">
      <!-- 0.0 -->
      <g transform="translate(50.196662 270.879375) scale(0.1 -0.1)">
       <defs>
        <path id="Georgia-30" d="M 3209 2919 
Q 3409 2678 3507 2354 
Q 3606 2031 3606 1678 
Q 3606 1253 3484 917 
Q 3363 581 3150 359 
Q 2931 131 2631 15 
Q 2331 -100 1963 -100 
Q 1559 -100 1243 34 
Q 928 169 731 403 
Q 525 647 423 973 
Q 322 1300 322 1678 
Q 322 2050 420 2362 
Q 519 2675 728 2928 
Q 928 3172 1243 3312 
Q 1559 3453 1966 3453 
Q 2394 3453 2700 3309 
Q 3006 3166 3209 2919 
z
M 2916 1678 
Q 2916 2422 2661 2831 
Q 2406 3241 1969 3241 
Q 1525 3241 1269 2831 
Q 1013 2422 1013 1678 
Q 1013 972 1258 542 
Q 1503 113 1963 113 
Q 2422 113 2669 542 
Q 2916 972 2916 1678 
z
" transform="scale(0.015625)"/>
        <path id="Georgia-2e" d="M 1297 359 
Q 1297 184 1170 60 
Q 1044 -63 869 -63 
Q 694 -63 567 60 
Q 441 184 441 359 
Q 441 534 567 661 
Q 694 788 869 788 
Q 1044 788 1170 661 
Q 1297 534 1297 359 
z
" transform="scale(0.015625)"/>
       </defs>
       <use xlink:href="#Georgia-30"/>
       <use xlink:href="#Georgia-2e" x="61.376953"/>
       <use xlink:href="#Georgia-30" x="88.330078"/>
      </g>
     </g>
    </g>
    <g id="xtick_2">
     <g id="line2d_2">
      <g>
       <use xlink:href="#m748f45d2bd" x="108.409091" y="256.32" style="stroke: #000000; stroke-width: 0.8"/>
      </g>
     </g>
     <g id="text_2">
      <!-- 0.2 -->
      <g transform="translate(101.199716 270.879375) scale(0.1 -0.1)">
       <defs>
        <path id="Georgia-32" d="M 3272 0 
L 344 0 
L 344 425 
Q 428 522 578 642 
Q 728 763 934 903 
Q 1059 988 1234 1088 
Q 1409 1188 1631 1306 
Q 1878 1438 2011 1538 
Q 2144 1638 2253 1784 
Q 2325 1881 2369 2026 
Q 2413 2172 2413 2441 
Q 2413 2831 2203 3014 
Q 1994 3197 1666 3197 
Q 1463 3197 1281 3117 
Q 1100 3038 1009 2897 
Q 1031 2797 1064 2659 
Q 1097 2522 1097 2391 
Q 1097 2272 998 2180 
Q 900 2088 706 2088 
Q 550 2088 465 2195 
Q 381 2303 381 2484 
Q 381 2653 475 2823 
Q 569 2994 744 3138 
Q 916 3278 1169 3365 
Q 1422 3453 1716 3453 
Q 2356 3453 2732 3167 
Q 3109 2881 3109 2403 
Q 3109 2175 3042 1987 
Q 2975 1800 2825 1656 
Q 2659 1497 2437 1383 
Q 2216 1269 1759 1066 
Q 1488 944 1253 811 
Q 1019 678 869 553 
L 3272 553 
L 3272 0 
z
" transform="scale(0.015625)"/>
       </defs>
       <use xlink:href="#Georgia-30"/>
       <use xlink:href="#Georgia-2e" x="61.376953"/>
       <use xlink:href="#Georgia-32" x="88.330078"/>
      </g>
     </g>
    </g>
    <g id="xtick_3">
     <g id="line2d_3">
      <g>
       <use xlink:href="#m748f45d2bd" x="159.136364" y="256.32" style="stroke: #000000; stroke-width: 0.8"/>
      </g>
     </g>
     <g id="text_3">
      <!-- 0.4 -->
      <g transform="translate(151.894957 270.879375) scale(0.1 -0.1)">
       <defs>
        <path id="Georgia-34" d="M 3388 281 
L 2753 281 
L 2753 -1141 
L 2153 -1141 
L 2153 281 
L 153 281 
L 153 763 
L 2344 3434 
L 2753 3434 
L 2753 691 
L 3388 691 
L 3388 281 
z
M 2153 691 
L 2153 2738 
L 466 691 
L 2153 691 
z
" transform="scale(0.015625)"/>
       </defs>
       <use xlink:href="#Georgia-30"/>
       <use xlink:href="#Georgia-2e" x="61.376953"/>
       <use xlink:href="#Georgia-34" x="88.330078"/>
      </g>
     </g>
    </g>
    <g id="xtick_4">
     <g id="line2d_4">
      <g>
       <use xlink:href="#m748f45d2bd" x="209.863636" y="256.32" style="stroke: #000000; stroke-width: 0.8"/>
      </g>
     </g>
     <g id="text_4">
      <!-- 0.6 -->
      <g transform="translate(202.617543 270.879375) scale(0.1 -0.1)">
       <defs>
        <path id="Georgia-36" d="M 3359 1441 
Q 3359 1116 3242 831 
Q 3125 547 2928 347 
Q 2700 119 2423 9 
Q 2147 -100 1847 -100 
Q 1500 -100 1219 28 
Q 938 156 741 391 
Q 541 628 431 972 
Q 322 1316 322 1744 
Q 322 2859 986 3625 
Q 1650 4391 2766 4544 
L 2822 4263 
L 2541 4213 
Q 1863 3994 1492 3531 
Q 1122 3069 1013 2409 
Q 1281 2644 1543 2741 
Q 1806 2838 2097 2838 
Q 2619 2838 2989 2438 
Q 3359 2038 3359 1441 
z
M 2681 1356 
Q 2681 1863 2448 2169 
Q 2216 2475 1825 2475 
Q 1591 2475 1389 2387 
Q 1188 2300 1000 2094 
Q 997 2056 990 1920 
Q 984 1784 984 1706 
Q 984 975 1223 561 
Q 1463 147 1853 147 
Q 2225 147 2453 470 
Q 2681 794 2681 1356 
z
" transform="scale(0.015625)"/>
       </defs>
       <use xlink:href="#Georgia-30"/>
       <use xlink:href="#Georgia-2e" x="61.376953"/>
       <use xlink:href="#Georgia-36" x="88.330078"/>
      </g>
     </g>
    </g>
    <g id="xtick_5">
     <g id="line2d_5">
      <g>
       <use xlink:href="#m748f45d2bd" x="260.590909" y="256.32" style="stroke: #000000; stroke-width: 0.8"/>
      </g>
     </g>
     <g id="text_5">
      <!-- 0.8 -->
      <g transform="translate(253.193253 270.879375) scale(0.1 -0.1)">
       <defs>
        <path id="Georgia-38" d="M 3491 1175 
Q 3491 650 3037 272 
Q 2584 -106 1847 -106 
Q 1156 -106 740 241 
Q 325 588 325 1134 
Q 325 1538 570 1808 
Q 816 2078 1297 2266 
Q 900 2488 703 2753 
Q 506 3019 506 3353 
Q 506 3863 939 4206 
Q 1372 4550 1975 4550 
Q 2578 4550 2951 4225 
Q 3325 3900 3325 3409 
Q 3325 3094 3119 2811 
Q 2913 2528 2513 2347 
Q 3031 2125 3261 1856 
Q 3491 1588 3491 1175 
z
M 2734 3444 
Q 2734 3825 2507 4064 
Q 2281 4303 1928 4303 
Q 1575 4303 1350 4073 
Q 1125 3844 1125 3503 
Q 1125 3175 1381 2947 
Q 1638 2719 2294 2459 
Q 2528 2609 2631 2856 
Q 2734 3103 2734 3444 
z
M 2866 1028 
Q 2866 1225 2781 1373 
Q 2697 1522 2538 1644 
Q 2384 1763 2111 1892 
Q 1838 2022 1519 2156 
Q 1219 1994 1078 1742 
Q 938 1491 938 1169 
Q 938 709 1208 426 
Q 1478 144 1928 144 
Q 2359 144 2612 394 
Q 2866 644 2866 1028 
z
" transform="scale(0.015625)"/>
       </defs>
       <use xlink:href="#Georgia-30"/>
       <use xlink:href="#Georgia-2e" x="61.376953"/>
       <use xlink:href="#Georgia-38" x="88.330078"/>
      </g>
     </g>
    </g>
    <g id="xtick_6">
     <g id="line2d_6">
      <g>
       <use xlink:href="#m748f45d2bd" x="311.318182" y="256.32" style="stroke: #000000; stroke-width: 0.8"/>
      </g>
     </g>
     <g id="text_6">
      <!-- 1.0 -->
      <g transform="translate(304.753338 270.879375) scale(0.1 -0.1)">
       <defs>
        <path id="Georgia-31" d="M 2528 0 
L 422 0 
L 422 222 
Q 516 228 714 248 
Q 913 269 988 291 
Q 1084 322 1136 392 
Q 1188 463 1188 603 
L 1188 2797 
L 409 2797 
L 409 3059 
L 581 3059 
Q 919 3059 1186 3184 
Q 1453 3309 1569 3453 
L 1828 3453 
Q 1819 3250 1809 2978 
Q 1800 2706 1800 2491 
L 1800 638 
Q 1800 528 1848 442 
Q 1897 356 1988 316 
Q 2069 281 2253 253 
Q 2438 225 2528 222 
L 2528 0 
z
" transform="scale(0.015625)"/>
       </defs>
       <use xlink:href="#Georgia-31"/>
       <use xlink:href="#Georgia-2e" x="42.96875"/>
       <use xlink:href="#Georgia-30" x="69.921875"/>
      </g>
     </g>
    </g>
   </g>
   <g id="matplotlib.axis_2">
    <g id="ytick_1">
     <g id="line2d_7">
      <path d="M 45 250.896424 
L 324 250.896424 
" clip-path="url(#p6039d331d4)" style="fill: none; stroke-dasharray: 2.96,1.28; stroke-dashoffset: 0; stroke: #b0b0b0; stroke-width: 0.8"/>
     </g>
     <g id="line2d_8">
      <defs>
       <path id="m23022c668d" d="M 0 0 
L -3.5 0 
" style="stroke: #000000; stroke-width: 0.8"/>
      </defs>
      <g>
       <use xlink:href="#m23022c668d" x="45" y="250.896424" style="stroke: #000000; stroke-width: 0.8"/>
      </g>
     </g>
     <g id="text_7">
      <!-- −1.50 -->
      <g transform="translate(13.15625 254.676111) scale(0.1 -0.1)">
       <defs>
        <path id="Georgia-2212" d="M 3650 1553 
L 466 1553 
L 466 1944 
L 3650 1944 
L 3650 1553 
z
" transform="scale(0.015625)"/>
        <path id="Georgia-35" d="M 2634 1466 
Q 2841 1303 2977 1047 
Q 3113 791 3113 406 
Q 3113 -266 2653 -703 
Q 2194 -1141 1488 -1141 
Q 941 -1141 562 -881 
Q 184 -622 184 -278 
Q 184 -119 262 0 
Q 341 119 503 119 
Q 691 119 789 20 
Q 888 -78 888 -194 
Q 888 -294 853 -444 
Q 819 -594 800 -666 
Q 825 -688 881 -725 
Q 938 -763 1016 -797 
Q 1097 -831 1214 -857 
Q 1331 -884 1488 -884 
Q 1688 -884 1866 -803 
Q 2044 -722 2166 -563 
Q 2300 -388 2367 -164 
Q 2434 59 2434 403 
Q 2434 844 2189 1133 
Q 1944 1422 1544 1422 
Q 1294 1422 1076 1328 
Q 859 1234 688 1016 
L 478 1097 
L 744 3353 
L 2981 3353 
L 2981 2797 
L 997 2797 
L 834 1472 
Q 975 1572 1204 1670 
Q 1434 1769 1709 1769 
Q 1938 1769 2183 1698 
Q 2428 1628 2634 1466 
z
" transform="scale(0.015625)"/>
       </defs>
       <use xlink:href="#Georgia-2212"/>
       <use xlink:href="#Georgia-31" x="64.306641"/>
       <use xlink:href="#Georgia-2e" x="107.275391"/>
       <use xlink:href="#Georgia-35" x="134.228516"/>
       <use xlink:href="#Georgia-30" x="187.060547"/>
      </g>
     </g>
    </g>
    <g id="ytick_2">
     <g id="line2d_9">
      <path d="M 45 224.701472 
L 324 224.701472 
" clip-path="url(#p6039d331d4)" style="fill: none; stroke-dasharray: 2.96,1.28; stroke-dashoffset: 0; stroke: #b0b0b0; stroke-width: 0.8"/>
     </g>
     <g id="line2d_10">
      <g>
       <use xlink:href="#m23022c668d" x="45" y="224.701472" style="stroke: #000000; stroke-width: 0.8"/>
      </g>
     </g>
     <g id="text_8">
      <!-- −1.25 -->
      <g transform="translate(13.707812 228.481159) scale(0.1 -0.1)">
       <use xlink:href="#Georgia-2212"/>
       <use xlink:href="#Georgia-31" x="64.306641"/>
       <use xlink:href="#Georgia-2e" x="107.275391"/>
       <use xlink:href="#Georgia-32" x="134.228516"/>
       <use xlink:href="#Georgia-35" x="190.087891"/>
      </g>
     </g>
    </g>
    <g id="ytick_3">
     <g id="line2d_11">
      <path d="M 45 198.50652 
L 324 198.50652 
" clip-path="url(#p6039d331d4)" style="fill: none; stroke-dasharray: 2.96,1.28; stroke-dashoffset: 0; stroke: #b0b0b0; stroke-width: 0.8"/>
     </g>
     <g id="line2d_12">
      <g>
       <use xlink:href="#m23022c668d" x="45" y="198.50652" style="stroke: #000000; stroke-width: 0.8"/>
      </g>
     </g>
     <g id="text_9">
      <!-- −1.00 -->
      <g transform="translate(12.301562 202.286207) scale(0.1 -0.1)">
       <use xlink:href="#Georgia-2212"/>
       <use xlink:href="#Georgia-31" x="64.306641"/>
       <use xlink:href="#Georgia-2e" x="107.275391"/>
       <use xlink:href="#Georgia-30" x="134.228516"/>
       <use xlink:href="#Georgia-30" x="195.605469"/>
      </g>
     </g>
    </g>
    <g id="ytick_4">
     <g id="line2d_13">
      <path d="M 45 172.311568 
L 324 172.311568 
" clip-path="url(#p6039d331d4)" style="fill: none; stroke-dasharray: 2.96,1.28; stroke-dashoffset: 0; stroke: #b0b0b0; stroke-width: 0.8"/>
     </g>
     <g id="line2d_14">
      <g>
       <use xlink:href="#m23022c668d" x="45" y="172.311568" style="stroke: #000000; stroke-width: 0.8"/>
      </g>
     </g>
     <g id="text_10">
      <!-- −0.75 -->
      <g transform="translate(12.428125 176.091255) scale(0.1 -0.1)">
       <defs>
        <path id="Georgia-37" d="M 3216 3150 
L 988 -1141 
L 597 -1141 
L 2694 2828 
L 1466 2828 
Q 1194 2828 1041 2822 
Q 888 2816 759 2763 
Q 663 2722 586 2555 
Q 509 2388 469 2128 
L 278 2128 
L 278 3353 
L 3216 3353 
L 3216 3150 
z
" transform="scale(0.015625)"/>
       </defs>
       <use xlink:href="#Georgia-2212"/>
       <use xlink:href="#Georgia-30" x="64.306641"/>
       <use xlink:href="#Georgia-2e" x="125.683594"/>
       <use xlink:href="#Georgia-37" x="152.636719"/>
       <use xlink:href="#Georgia-35" x="202.880859"/>
      </g>
     </g>
    </g>
    <g id="ytick_5">
     <g id="line2d_15">
      <path d="M 45 146.116616 
L 324 146.116616 
" clip-path="url(#p6039d331d4)" style="fill: none; stroke-dasharray: 2.96,1.28; stroke-dashoffset: 0; stroke: #b0b0b0; stroke-width: 0.8"/>
     </g>
     <g id="line2d_16">
      <g>
       <use xlink:href="#m23022c668d" x="45" y="146.116616" style="stroke: #000000; stroke-width: 0.8"/>
      </g>
     </g>
     <g id="text_11">
      <!-- −0.50 -->
      <g transform="translate(11.315625 149.896303) scale(0.1 -0.1)">
       <use xlink:href="#Georgia-2212"/>
       <use xlink:href="#Georgia-30" x="64.306641"/>
       <use xlink:href="#Georgia-2e" x="125.683594"/>
       <use xlink:href="#Georgia-35" x="152.636719"/>
       <use xlink:href="#Georgia-30" x="205.46875"/>
      </g>
     </g>
    </g>
    <g id="ytick_6">
     <g id="line2d_17">
      <path d="M 45 119.921664 
L 324 119.921664 
" clip-path="url(#p6039d331d4)" style="fill: none; stroke-dasharray: 2.96,1.28; stroke-dashoffset: 0; stroke: #b0b0b0; stroke-width: 0.8"/>
     </g>
     <g id="line2d_18">
      <g>
       <use xlink:href="#m23022c668d" x="45" y="119.921664" style="stroke: #000000; stroke-width: 0.8"/>
      </g>
     </g>
     <g id="text_12">
      <!-- −0.25 -->
      <g transform="translate(11.867188 123.701351) scale(0.1 -0.1)">
       <use xlink:href="#Georgia-2212"/>
       <use xlink:href="#Georgia-30" x="64.306641"/>
       <use xlink:href="#Georgia-2e" x="125.683594"/>
       <use xlink:href="#Georgia-32" x="152.636719"/>
       <use xlink:href="#Georgia-35" x="208.496094"/>
      </g>
     </g>
    </g>
    <g id="ytick_7">
     <g id="line2d_19">
      <path d="M 45 93.726712 
L 324 93.726712 
" clip-path="url(#p6039d331d4)" style="fill: none; stroke-dasharray: 2.96,1.28; stroke-dashoffset: 0; stroke: #b0b0b0; stroke-width: 0.8"/>
     </g>
     <g id="line2d_20">
      <g>
       <use xlink:href="#m23022c668d" x="45" y="93.726712" style="stroke: #000000; stroke-width: 0.8"/>
      </g>
     </g>
     <g id="text_13">
      <!-- 0.00 -->
      <g transform="translate(16.892187 97.5064) scale(0.1 -0.1)">
       <use xlink:href="#Georgia-30"/>
       <use xlink:href="#Georgia-2e" x="61.376953"/>
       <use xlink:href="#Georgia-30" x="88.330078"/>
       <use xlink:href="#Georgia-30" x="149.707031"/>
      </g>
     </g>
    </g>
    <g id="ytick_8">
     <g id="line2d_21">
      <path d="M 45 67.53176 
L 324 67.53176 
" clip-path="url(#p6039d331d4)" style="fill: none; stroke-dasharray: 2.96,1.28; stroke-dashoffset: 0; stroke: #b0b0b0; stroke-width: 0.8"/>
     </g>
     <g id="line2d_22">
      <g>
       <use xlink:href="#m23022c668d" x="45" y="67.53176" style="stroke: #000000; stroke-width: 0.8"/>
      </g>
     </g>
     <g id="text_14">
      <!-- 0.25 -->
      <g transform="translate(18.298437 71.311448) scale(0.1 -0.1)">
       <use xlink:href="#Georgia-30"/>
       <use xlink:href="#Georgia-2e" x="61.376953"/>
       <use xlink:href="#Georgia-32" x="88.330078"/>
       <use xlink:href="#Georgia-35" x="144.189453"/>
      </g>
     </g>
    </g>
    <g id="ytick_9">
     <g id="line2d_23">
      <path d="M 45 41.336808 
L 324 41.336808 
" clip-path="url(#p6039d331d4)" style="fill: none; stroke-dasharray: 2.96,1.28; stroke-dashoffset: 0; stroke: #b0b0b0; stroke-width: 0.8"/>
     </g>
     <g id="line2d_24">
      <g>
       <use xlink:href="#m23022c668d" x="45" y="41.336808" style="stroke: #000000; stroke-width: 0.8"/>
      </g>
     </g>
     <g id="text_15">
      <!-- 0.50 -->
      <g transform="translate(17.746875 45.116496) scale(0.1 -0.1)">
       <use xlink:href="#Georgia-30"/>
       <use xlink:href="#Georgia-2e" x="61.376953"/>
       <use xlink:href="#Georgia-35" x="88.330078"/>
       <use xlink:href="#Georgia-30" x="141.162109"/>
      </g>
     </g>
    </g>
   </g>
   <g id="line2d_25">
    <path d="M 57.681818 44.64 
L 59.378382 65.115399 
L 61.074947 82.419515 
L 62.771511 96.803669 
L 64.468075 108.519184 
L 66.16464 117.817381 
L 67.861204 124.949582 
L 68.709486 127.781973 
L 69.557768 130.167109 
L 70.40605 132.136408 
L 71.254333 133.721284 
L 72.102615 134.953153 
L 72.950897 135.863429 
L 73.799179 136.483527 
L 74.647461 136.844864 
L 75.495743 136.978854 
L 76.344026 136.916913 
L 77.192308 136.690455 
L 78.888872 135.869652 
L 83.978565 132.718017 
L 85.675129 132.109362 
L 87.371694 131.7767 
L 89.068258 131.682186 
L 90.764822 131.787971 
L 93.309669 132.23942 
L 96.702797 133.189748 
L 107.730465 136.622284 
L 110.275312 137.100563 
L 113.66844 137.456207 
L 117.061569 137.563548 
L 121.30298 137.472423 
L 130.634083 137.159939 
L 134.027212 137.280938 
L 138.268623 137.72383 
L 145.05488 138.530008 
L 148.448009 138.680151 
L 152.689419 138.587675 
L 160.323959 138.331812 
L 165.413652 138.456 
L 173.048191 138.671815 
L 178.986166 138.569793 
L 189.165552 138.380425 
L 239.214199 138.312345 
L 251.090149 138.000271 
L 266.359228 138.053698 
L 292.655974 138.138218 
L 301.138796 138.453809 
L 307.925053 138.917362 
L 311.318182 139.235934 
L 311.318182 139.235934 
" clip-path="url(#p6039d331d4)" style="fill: none; stroke: #8ea604; stroke-width: 1.5; stroke-linecap: square"/>
   </g>
   <g id="line2d_26">
    <path d="M 57.681818 112.962838 
L 59.378382 136.705633 
L 61.074947 156.643854 
L 62.771511 173.095225 
L 64.468075 186.377467 
L 66.16464 196.808304 
L 67.012922 201.053733 
L 67.861204 204.705457 
L 68.709486 207.803191 
L 69.557768 210.386651 
L 70.40605 212.495551 
L 71.254333 214.169606 
L 72.102615 215.448533 
L 72.950897 216.372047 
L 73.799179 216.979862 
L 74.647461 217.311694 
L 75.495743 217.407259 
L 76.344026 217.306272 
L 77.192308 217.048448 
L 78.888872 216.22115 
L 81.433718 214.79681 
L 82.282001 214.431987 
L 83.130283 214.188324 
L 83.978565 214.093589 
L 84.826847 214.140067 
L 86.523411 214.599562 
L 88.219976 215.452617 
L 89.91654 216.585037 
L 96.702797 221.629119 
L 98.399362 222.535833 
L 100.944208 223.575757 
L 103.489054 224.326581 
L 106.882183 225.062837 
L 114.516722 226.452317 
L 117.909851 226.791446 
L 120.454697 226.799445 
L 122.999544 226.539232 
L 128.089237 225.615248 
L 130.634083 225.25528 
L 132.330648 225.156424 
L 134.027212 225.223019 
L 135.723776 225.476141 
L 138.268623 226.113874 
L 145.05488 228.129939 
L 146.751444 228.433352 
L 149.296291 228.599127 
L 151.841137 228.504114 
L 162.020523 227.737478 
L 166.261934 227.884354 
L 173.048191 228.14507 
L 178.137884 228.030756 
L 188.31727 227.718333 
L 201.041502 227.793326 
L 238.365917 227.732413 
L 245.152174 227.493988 
L 257.028124 226.94977 
L 259.572971 227.170933 
L 262.117817 227.654067 
L 265.510946 228.624351 
L 271.448921 230.436113 
L 273.993767 230.949699 
L 276.538614 231.197931 
L 279.08346 231.237298 
L 283.324871 231.023301 
L 289.262846 230.673468 
L 291.807692 230.726235 
L 294.352539 231.031204 
L 296.049103 231.41965 
L 297.745667 231.987715 
L 299.442232 232.762413 
L 301.138796 233.770755 
L 302.83536 235.039752 
L 304.531925 236.596418 
L 306.228489 238.467763 
L 307.925053 240.680801 
L 309.621618 243.262542 
L 311.318182 246.24 
L 311.318182 246.24 
" clip-path="url(#p6039d331d4)" style="fill: none; stroke: #d76a03; stroke-width: 1.5; stroke-linecap: square"/>
   </g>
   <g id="line2d_27">
    <path d="M 57.681818 93.726712 
L 70.363636 93.726712 
L 83.045455 93.726712 
L 95.727273 93.726712 
L 108.409091 93.726712 
L 121.090909 93.726712 
L 133.772727 93.726712 
L 146.454545 93.726712 
L 159.136364 93.726712 
L 171.818182 93.726712 
L 184.5 93.726712 
L 197.181818 93.726712 
L 209.863636 93.726712 
L 222.545455 93.726712 
L 235.227273 93.726712 
L 247.909091 93.726712 
L 260.590909 93.726712 
L 273.272727 93.726712 
L 285.954545 93.726712 
L 298.636364 93.726712 
L 311.318182 93.726712 
" clip-path="url(#p6039d331d4)" style="fill: none; stroke: #354f52; stroke-width: 1.5; stroke-linecap: square"/>
    <defs>
     <path id="ma7ab9f179b" d="M 0 3 
C 0.795609 3 1.55874 2.683901 2.12132 2.12132 
C 2.683901 1.55874 3 0.795609 3 0 
C 3 -0.795609 2.683901 -1.55874 2.12132 -2.12132 
C 1.55874 -2.683901 0.795609 -3 0 -3 
C -0.795609 -3 -1.55874 -2.683901 -2.12132 -2.12132 
C -2.683901 -1.55874 -3 -0.795609 -3 0 
C -3 0.795609 -2.683901 1.55874 -2.12132 2.12132 
C -1.55874 2.683901 -0.795609 3 0 3 
z
" style="stroke: #354f52"/>
    </defs>
    <g clip-path="url(#p6039d331d4)">
     <use xlink:href="#ma7ab9f179b" x="57.681818" y="93.726712" style="fill: #354f52; stroke: #354f52"/>
     <use xlink:href="#ma7ab9f179b" x="70.363636" y="93.726712" style="fill: #354f52; stroke: #354f52"/>
     <use xlink:href="#ma7ab9f179b" x="83.045455" y="93.726712" style="fill: #354f52; stroke: #354f52"/>
     <use xlink:href="#ma7ab9f179b" x="95.727273" y="93.726712" style="fill: #354f52; stroke: #354f52"/>
     <use xlink:href="#ma7ab9f179b" x="108.409091" y="93.726712" style="fill: #354f52; stroke: #354f52"/>
     <use xlink:href="#ma7ab9f179b" x="121.090909" y="93.726712" style="fill: #354f52; stroke: #354f52"/>
     <use xlink:href="#ma7ab9f179b" x="133.772727" y="93.726712" style="fill: #354f52; stroke: #354f52"/>
     <use xlink:href="#ma7ab9f179b" x="146.454545" y="93.726712" style="fill: #354f52; stroke: #354f52"/>
     <use xlink:href="#ma7ab9f179b" x="159.136364" y="93.726712" style="fill: #354f52; stroke: #354f52"/>
     <use xlink:href="#ma7ab9f179b" x="171.818182" y="93.726712" style="fill: #354f52; stroke: #354f52"/>
     <use xlink:href="#ma7ab9f179b" x="184.5" y="93.726712" style="fill: #354f52; stroke: #354f52"/>
     <use xlink:href="#ma7ab9f179b" x="197.181818" y="93.726712" style="fill: #354f52; stroke: #354f52"/>
     <use xlink:href="#ma7ab9f179b" x="209.863636" y="93.726712" style="fill: #354f52; stroke: #354f52"/>
     <use xlink:href="#ma7ab9f179b" x="222.545455" y="93.726712" style="fill: #354f52; stroke: #354f52"/>
     <use xlink:href="#ma7ab9f179b" x="235.227273" y="93.726712" style="fill: #354f52; stroke: #354f52"/>
     <use xlink:href="#ma7ab9f179b" x="247.909091" y="93.726712" style="fill: #354f52; stroke: #354f52"/>
     <use xlink:href="#ma7ab9f179b" x="260.590909" y="93.726712" style="fill: #354f52; stroke: #354f52"/>
     <use xlink:href="#ma7ab9f179b" x="273.272727" y="93.726712" style="fill: #354f52; stroke: #354f52"/>
     <use xlink:href="#ma7ab9f179b" x="285.954545" y="93.726712" style="fill: #354f52; stroke: #354f52"/>
     <use xlink:href="#ma7ab9f179b" x="298.636364" y="93.726712" style="fill: #354f52; stroke: #354f52"/>
     <use xlink:href="#ma7ab9f179b" x="311.318182" y="93.726712" style="fill: #354f52; stroke: #354f52"/>
    </g>
   </g>
   <g id="patch_3">
    <path d="M 45 256.32 
L 45 34.56 
" style="fill: none; stroke: #000000; stroke-width: 0.8; stroke-linejoin: miter; stroke-linecap: square"/>
   </g>
   <g id="patch_4">
    <path d="M 324 256.32 
L 324 34.56 
" style="fill: none"/>
   </g>
   <g id="patch_5">
    <path d="M 45 256.32 
L 324 256.32 
" style="fill: none; stroke: #000000; stroke-width: 0.8; stroke-linejoin: miter; stroke-linecap: square"/>
   </g>
   <g id="patch_6">
    <path d="M 45 34.56 
L 324 34.56 
" style="fill: none"/>
   </g>
   <g id="text_16">
    <!-- Average tradeoff -->
    <g transform="translate(140.674688 28.56) scale(0.12 -0.12)">
     <defs>
      <path id="Georgia-41" d="M 4441 0 
L 2594 0 
L 2594 222 
Q 2838 238 2998 284 
Q 3159 331 3159 400 
Q 3159 428 3153 468 
Q 3147 509 3134 541 
L 2766 1534 
L 1213 1534 
Q 1125 1316 1070 1153 
Q 1016 991 972 853 
Q 931 719 915 634 
Q 900 550 900 497 
Q 900 372 1097 303 
Q 1294 234 1541 222 
L 1541 0 
L -128 0 
L -128 222 
Q -47 228 75 258 
Q 197 288 275 338 
Q 400 422 469 514 
Q 538 606 603 769 
Q 938 1603 1341 2643 
Q 1744 3684 2059 4497 
L 2309 4497 
L 3788 672 
Q 3834 550 3893 475 
Q 3953 400 4059 328 
Q 4131 284 4247 254 
Q 4363 225 4441 222 
L 4441 0 
z
M 2653 1813 
L 1981 3531 
L 1322 1813 
L 2653 1813 
z
" transform="scale(0.015625)"/>
      <path id="Georgia-76" d="M 3269 2891 
Q 3128 2866 3001 2789 
Q 2875 2713 2784 2519 
Q 2600 2100 2403 1645 
Q 2206 1191 1994 691 
Q 1931 547 1861 350 
Q 1791 153 1731 -28 
L 1488 -28 
Q 1191 706 941 1311 
Q 691 1916 422 2550 
Q 359 2694 220 2773 
Q 81 2853 -59 2875 
L -59 3081 
L 1366 3081 
L 1366 2863 
Q 1272 2859 1131 2823 
Q 991 2788 991 2725 
Q 991 2716 1006 2677 
Q 1022 2638 1038 2588 
Q 1166 2269 1400 1697 
Q 1634 1125 1781 775 
Q 1894 1044 2064 1444 
Q 2234 1844 2431 2338 
Q 2463 2422 2491 2495 
Q 2519 2569 2519 2644 
Q 2519 2697 2467 2739 
Q 2416 2781 2344 2813 
Q 2272 2844 2203 2859 
Q 2134 2875 2091 2881 
L 2091 3081 
L 3269 3081 
L 3269 2891 
z
" transform="scale(0.015625)"/>
      <path id="Georgia-65" d="M 2963 725 
Q 2769 356 2444 137 
Q 2119 -81 1697 -81 
Q 1325 -81 1045 50 
Q 766 181 584 406 
Q 403 631 314 931 
Q 225 1231 225 1566 
Q 225 1866 320 2155 
Q 416 2444 600 2675 
Q 778 2897 1042 3033 
Q 1306 3169 1634 3169 
Q 1972 3169 2212 3062 
Q 2453 2956 2603 2772 
Q 2747 2597 2817 2359 
Q 2888 2122 2888 1844 
L 2888 1638 
L 847 1638 
Q 847 1334 905 1087 
Q 963 841 1088 653 
Q 1209 472 1406 367 
Q 1603 263 1875 263 
Q 2153 263 2354 392 
Q 2556 522 2744 859 
L 2963 725 
z
M 2272 1900 
Q 2272 2075 2242 2275 
Q 2213 2475 2147 2609 
Q 2075 2753 1950 2843 
Q 1825 2934 1628 2934 
Q 1300 2934 1083 2661 
Q 866 2388 847 1900 
L 2272 1900 
z
" transform="scale(0.015625)"/>
      <path id="Georgia-72" d="M 2584 2684 
Q 2584 2525 2506 2401 
Q 2428 2278 2266 2278 
Q 2091 2278 1998 2368 
Q 1906 2459 1906 2569 
Q 1906 2638 1917 2694 
Q 1928 2750 1938 2806 
Q 1791 2806 1594 2687 
Q 1397 2569 1259 2350 
L 1259 556 
Q 1259 447 1301 378 
Q 1344 309 1434 275 
Q 1513 244 1636 228 
Q 1759 213 1850 206 
L 1850 0 
L 225 0 
L 225 206 
Q 297 213 373 219 
Q 450 225 506 244 
Q 594 272 636 342 
Q 678 413 678 525 
L 678 2428 
Q 678 2525 633 2619 
Q 588 2713 506 2769 
Q 447 2806 365 2823 
Q 284 2841 191 2847 
L 191 3050 
L 1216 3119 
L 1259 3075 
L 1259 2641 
L 1275 2641 
Q 1469 2894 1706 3025 
Q 1944 3156 2141 3156 
Q 2338 3156 2461 3028 
Q 2584 2900 2584 2684 
z
" transform="scale(0.015625)"/>
      <path id="Georgia-61" d="M 3144 56 
Q 2997 3 2886 -30 
Q 2775 -63 2634 -63 
Q 2391 -63 2245 51 
Q 2100 166 2059 384 
L 2041 384 
Q 1838 159 1605 40 
Q 1372 -78 1044 -78 
Q 697 -78 473 134 
Q 250 347 250 691 
Q 250 869 300 1009 
Q 350 1150 450 1263 
Q 528 1356 656 1429 
Q 784 1503 897 1547 
Q 1038 1600 1467 1744 
Q 1897 1888 2047 1969 
L 2047 2278 
Q 2047 2319 2030 2434 
Q 2013 2550 1956 2653 
Q 1894 2769 1780 2855 
Q 1666 2941 1456 2941 
Q 1313 2941 1189 2892 
Q 1066 2844 1016 2791 
Q 1016 2728 1045 2606 
Q 1075 2484 1075 2381 
Q 1075 2272 976 2181 
Q 878 2091 703 2091 
Q 547 2091 473 2202 
Q 400 2313 400 2450 
Q 400 2594 501 2725 
Q 603 2856 766 2959 
Q 906 3047 1106 3108 
Q 1306 3169 1497 3169 
Q 1759 3169 1954 3133 
Q 2150 3097 2309 2978 
Q 2469 2863 2551 2664 
Q 2634 2466 2634 2153 
Q 2634 1706 2625 1361 
Q 2616 1016 2616 606 
Q 2616 484 2658 412 
Q 2700 341 2788 291 
Q 2834 263 2936 259 
Q 3038 256 3144 256 
L 3144 56 
z
M 2053 1706 
Q 1788 1628 1588 1553 
Q 1388 1478 1216 1366 
Q 1059 1259 968 1114 
Q 878 969 878 769 
Q 878 509 1014 387 
Q 1150 266 1359 266 
Q 1581 266 1750 373 
Q 1919 481 2034 628 
L 2053 1706 
z
" transform="scale(0.015625)"/>
      <path id="Georgia-67" d="M 2866 319 
Q 2991 200 3062 50 
Q 3134 -100 3134 -322 
Q 3134 -544 3037 -739 
Q 2941 -934 2744 -1078 
Q 2534 -1225 2243 -1306 
Q 1953 -1388 1525 -1388 
Q 825 -1388 478 -1183 
Q 131 -978 131 -584 
Q 131 -266 381 -81 
Q 631 103 1019 119 
L 1019 163 
Q 925 191 825 233 
Q 725 275 653 331 
Q 572 397 522 486 
Q 472 575 472 706 
Q 472 872 589 1011 
Q 706 1150 944 1250 
L 944 1297 
Q 644 1438 478 1658 
Q 313 1878 313 2169 
Q 313 2606 639 2887 
Q 966 3169 1475 3169 
Q 1616 3169 1755 3141 
Q 1894 3113 2038 3069 
L 3113 3069 
L 3113 2769 
L 2388 2769 
L 2388 2750 
Q 2503 2616 2559 2453 
Q 2616 2291 2616 2134 
Q 2616 1728 2286 1447 
Q 1956 1166 1519 1166 
L 1141 1166 
Q 1069 1141 991 1075 
Q 913 1009 913 897 
Q 913 781 978 720 
Q 1044 659 1138 638 
Q 1228 613 1348 606 
Q 1469 600 1597 597 
Q 1734 594 1973 578 
Q 2213 563 2313 559 
Q 2456 553 2601 490 
Q 2747 428 2866 319 
z
M 2022 2147 
Q 2022 2513 1873 2730 
Q 1725 2947 1456 2947 
Q 1309 2947 1204 2886 
Q 1100 2825 1034 2713 
Q 972 2609 945 2464 
Q 919 2319 919 2166 
Q 919 1819 1070 1600 
Q 1222 1381 1463 1381 
Q 1731 1381 1876 1598 
Q 2022 1816 2022 2147 
z
M 2622 -438 
Q 2622 -263 2540 -150 
Q 2459 -38 2294 3 
Q 2206 16 1934 31 
Q 1663 47 1303 47 
Q 966 -19 823 -173 
Q 681 -328 681 -572 
Q 681 -681 728 -781 
Q 775 -881 891 -966 
Q 1000 -1047 1184 -1098 
Q 1369 -1150 1634 -1150 
Q 2094 -1150 2358 -973 
Q 2622 -797 2622 -438 
z
" transform="scale(0.015625)"/>
      <path id="Georgia-20" transform="scale(0.015625)"/>
      <path id="Georgia-74" d="M 2128 134 
Q 1925 50 1744 -8 
Q 1563 -66 1300 -66 
Q 913 -66 755 129 
Q 597 325 597 681 
L 597 2769 
L 41 2769 
L 41 3069 
L 609 3069 
L 609 4028 
L 1178 4028 
L 1178 3069 
L 2063 3069 
L 2063 2769 
L 1184 2769 
L 1184 1047 
Q 1184 853 1198 723 
Q 1213 594 1266 497 
Q 1316 406 1416 359 
Q 1516 313 1684 313 
Q 1763 313 1914 327 
Q 2066 341 2128 363 
L 2128 134 
z
" transform="scale(0.015625)"/>
      <path id="Georgia-64" d="M 3600 56 
L 2525 -13 
L 2478 31 
L 2478 319 
L 2453 325 
Q 2291 144 2052 28 
Q 1813 -88 1559 -88 
Q 1297 -88 1051 29 
Q 806 147 625 359 
Q 441 575 333 878 
Q 225 1181 225 1547 
Q 225 1881 340 2181 
Q 456 2481 659 2706 
Q 850 2916 1126 3041 
Q 1403 3166 1691 3166 
Q 1906 3166 2114 3111 
Q 2322 3056 2472 2972 
L 2472 4044 
Q 2472 4175 2428 4283 
Q 2384 4391 2306 4447 
Q 2219 4506 2070 4532 
Q 1922 4559 1750 4572 
L 1750 4766 
L 3009 4838 
L 3056 4791 
L 3056 634 
Q 3056 525 3098 448 
Q 3141 372 3222 319 
Q 3281 281 3393 272 
Q 3506 263 3600 259 
L 3600 56 
z
M 2472 597 
L 2472 2400 
Q 2447 2481 2390 2575 
Q 2334 2669 2250 2747 
Q 2159 2825 2037 2876 
Q 1916 2928 1753 2928 
Q 1566 2928 1408 2831 
Q 1250 2734 1128 2553 
Q 1013 2378 945 2108 
Q 878 1838 878 1509 
Q 878 1247 928 1033 
Q 978 819 1097 634 
Q 1206 459 1376 353 
Q 1547 247 1781 247 
Q 2031 247 2195 356 
Q 2359 466 2472 597 
z
" transform="scale(0.015625)"/>
      <path id="Georgia-6f" d="M 3228 1572 
Q 3228 1247 3125 933 
Q 3022 619 2831 400 
Q 2616 150 2331 28 
Q 2047 -94 1694 -94 
Q 1400 -94 1134 17 
Q 869 128 663 341 
Q 459 550 339 851 
Q 219 1153 219 1528 
Q 219 2250 639 2709 
Q 1059 3169 1741 3169 
Q 2388 3169 2808 2733 
Q 3228 2297 3228 1572 
z
M 2581 1566 
Q 2581 1800 2534 2061 
Q 2488 2322 2394 2503 
Q 2294 2697 2131 2814 
Q 1969 2931 1734 2931 
Q 1494 2931 1323 2812 
Q 1153 2694 1047 2488 
Q 947 2297 906 2053 
Q 866 1809 866 1581 
Q 866 1281 914 1026 
Q 963 772 1069 572 
Q 1175 372 1336 258 
Q 1497 144 1734 144 
Q 2125 144 2353 522 
Q 2581 900 2581 1566 
z
" transform="scale(0.015625)"/>
      <path id="Georgia-66" d="M 2519 4466 
Q 2519 4325 2444 4228 
Q 2369 4131 2216 4131 
Q 2119 4131 2045 4172 
Q 1972 4213 1909 4281 
Q 1847 4350 1794 4437 
Q 1741 4525 1703 4578 
Q 1494 4569 1380 4286 
Q 1266 4003 1266 3384 
L 1266 3069 
L 2059 3069 
L 2059 2769 
L 1266 2769 
L 1266 556 
Q 1266 447 1308 378 
Q 1350 309 1441 275 
Q 1516 247 1641 230 
Q 1766 213 1856 206 
L 1856 0 
L 231 0 
L 231 206 
Q 303 213 379 219 
Q 456 225 513 244 
Q 600 272 642 342 
Q 684 413 684 525 
L 684 2769 
L 75 2769 
L 75 3069 
L 684 3069 
L 684 3266 
Q 684 3969 1048 4405 
Q 1413 4841 1959 4841 
Q 2238 4841 2378 4731 
Q 2519 4622 2519 4466 
z
" transform="scale(0.015625)"/>
     </defs>
     <use xlink:href="#Georgia-41"/>
     <use xlink:href="#Georgia-76" x="67.089844"/>
     <use xlink:href="#Georgia-65" x="116.748047"/>
     <use xlink:href="#Georgia-72" x="165.087891"/>
     <use xlink:href="#Georgia-61" x="206.054688"/>
     <use xlink:href="#Georgia-67" x="256.445312"/>
     <use xlink:href="#Georgia-65" x="307.373047"/>
     <use xlink:href="#Georgia-20" x="355.712891"/>
     <use xlink:href="#Georgia-74" x="379.833984"/>
     <use xlink:href="#Georgia-72" x="414.355469"/>
     <use xlink:href="#Georgia-61" x="455.322266"/>
     <use xlink:href="#Georgia-64" x="505.712891"/>
     <use xlink:href="#Georgia-65" x="563.134766"/>
     <use xlink:href="#Georgia-6f" x="611.474609"/>
     <use xlink:href="#Georgia-66" x="665.380859"/>
     <use xlink:href="#Georgia-66" x="697.900391"/>
    </g>
   </g>
   <g id="legend_1">
    <g id="patch_7">
     <path d="M 207.851562 72.01625 
L 317 72.01625 
Q 319 72.01625 319 70.01625 
L 319 41.56 
Q 319 39.56 317 39.56 
L 207.851562 39.56 
Q 205.851562 39.56 205.851562 41.56 
L 205.851562 70.01625 
Q 205.851562 72.01625 207.851562 72.01625 
z
" style="fill: #ffffff; opacity: 0.8; stroke: #cccccc; stroke-linejoin: miter"/>
    </g>
    <g id="PathCollection_3">
     <g>
      <use xlink:href="#m09c472675e" x="219.851562" y="48.494375" style="fill: #8ea604; stroke: #8ea604"/>
     </g>
    </g>
    <g id="text_17">
     <!-- vs GitHub caliber -->
     <g transform="translate(237.851562 51.119375) scale(0.1 -0.1)">
      <defs>
       <path id="Georgia-73" d="M 2259 1509 
Q 2388 1397 2456 1250 
Q 2525 1103 2525 891 
Q 2525 463 2204 191 
Q 1884 -81 1375 -81 
Q 1106 -81 879 16 
Q 653 113 556 194 
L 494 -9 
L 259 -9 
L 228 1063 
L 444 1063 
Q 469 941 550 778 
Q 631 616 747 484 
Q 869 347 1039 253 
Q 1209 159 1422 159 
Q 1722 159 1884 295 
Q 2047 431 2047 684 
Q 2047 816 1995 911 
Q 1944 1006 1844 1078 
Q 1741 1150 1591 1208 
Q 1441 1266 1256 1322 
Q 1109 1366 929 1442 
Q 750 1519 622 1622 
Q 484 1731 396 1890 
Q 309 2050 309 2266 
Q 309 2644 590 2906 
Q 872 3169 1344 3169 
Q 1525 3169 1714 3122 
Q 1903 3075 2022 3009 
L 2094 3172 
L 2319 3172 
L 2366 2181 
L 2150 2181 
Q 2084 2513 1867 2720 
Q 1650 2928 1338 2928 
Q 1081 2928 934 2800 
Q 788 2672 788 2491 
Q 788 2350 836 2256 
Q 884 2163 981 2097 
Q 1075 2034 1217 1979 
Q 1359 1925 1569 1856 
Q 1775 1791 1958 1703 
Q 2141 1616 2259 1509 
z
" transform="scale(0.015625)"/>
       <path id="Georgia-47" d="M 4597 1772 
Q 4522 1763 4395 1742 
Q 4269 1722 4191 1684 
Q 4097 1638 4058 1552 
Q 4019 1466 4019 1350 
L 4019 1006 
Q 4019 631 4023 500 
Q 4028 369 4034 284 
Q 3619 97 3206 -3 
Q 2794 -103 2397 -103 
Q 1972 -103 1578 56 
Q 1184 216 891 509 
Q 594 806 419 1231 
Q 244 1656 244 2181 
Q 244 2688 411 3120 
Q 578 3553 884 3872 
Q 1181 4184 1592 4357 
Q 2003 4531 2472 4531 
Q 2847 4531 3125 4440 
Q 3403 4350 3616 4222 
L 3744 4434 
L 3994 4434 
L 4022 2884 
L 3766 2884 
Q 3700 3141 3603 3389 
Q 3506 3638 3353 3834 
Q 3200 4031 2979 4148 
Q 2759 4266 2453 4266 
Q 2119 4266 1856 4130 
Q 1594 3994 1400 3725 
Q 1209 3466 1106 3078 
Q 1003 2691 1003 2213 
Q 1003 1791 1104 1417 
Q 1206 1044 1400 772 
Q 1594 494 1884 334 
Q 2175 175 2544 175 
Q 2819 175 3045 259 
Q 3272 344 3366 438 
Q 3391 600 3392 765 
Q 3394 931 3394 1047 
L 3394 1291 
Q 3394 1422 3358 1523 
Q 3322 1625 3209 1672 
Q 3106 1719 2929 1742 
Q 2753 1766 2653 1772 
L 2653 2000 
L 4597 2000 
L 4597 1772 
z
" transform="scale(0.015625)"/>
       <path id="Georgia-69" d="M 1722 0 
L 231 0 
L 231 206 
Q 303 213 379 219 
Q 456 225 513 244 
Q 600 272 642 342 
Q 684 413 684 525 
L 684 2428 
Q 684 2528 639 2611 
Q 594 2694 513 2750 
Q 453 2788 340 2814 
Q 228 2841 134 2847 
L 134 3050 
L 1222 3119 
L 1266 3075 
L 1266 563 
Q 1266 453 1308 381 
Q 1350 309 1441 275 
Q 1509 247 1575 230 
Q 1641 213 1722 206 
L 1722 0 
z
M 1328 4334 
Q 1328 4156 1211 4023 
Q 1094 3891 922 3891 
Q 763 3891 645 4017 
Q 528 4144 528 4306 
Q 528 4478 645 4606 
Q 763 4734 922 4734 
Q 1100 4734 1214 4614 
Q 1328 4494 1328 4334 
z
" transform="scale(0.015625)"/>
       <path id="Georgia-48" d="M 4897 0 
L 3056 0 
L 3056 222 
Q 3131 228 3273 240 
Q 3416 253 3469 278 
Q 3563 316 3606 392 
Q 3650 469 3650 591 
L 3650 2169 
L 1566 2169 
L 1566 625 
Q 1566 516 1602 441 
Q 1638 366 1744 309 
Q 1797 281 1933 253 
Q 2069 225 2147 222 
L 2147 0 
L 306 0 
L 306 222 
Q 381 228 523 240 
Q 666 253 719 278 
Q 813 316 856 392 
Q 900 469 900 591 
L 900 3791 
Q 900 3891 859 3973 
Q 819 4056 719 4103 
Q 634 4144 514 4175 
Q 394 4206 306 4213 
L 306 4434 
L 2147 4434 
L 2147 4213 
Q 2059 4209 1932 4184 
Q 1806 4159 1744 4138 
Q 1638 4100 1602 4012 
Q 1566 3925 1566 3822 
L 1566 2447 
L 3650 2447 
L 3650 3791 
Q 3650 3891 3609 3973 
Q 3569 4056 3469 4103 
Q 3384 4144 3264 4175 
Q 3144 4206 3056 4213 
L 3056 4434 
L 4897 4434 
L 4897 4213 
Q 4809 4209 4682 4184 
Q 4556 4159 4494 4138 
Q 4388 4100 4352 4012 
Q 4316 3925 4316 3822 
L 4316 625 
Q 4316 516 4352 441 
Q 4388 366 4494 309 
Q 4547 281 4683 253 
Q 4819 225 4897 222 
L 4897 0 
z
" transform="scale(0.015625)"/>
       <path id="Georgia-75" d="M 3528 56 
L 2525 -13 
L 2478 31 
L 2478 422 
L 2459 422 
Q 2384 344 2290 255 
Q 2197 166 2075 94 
Q 1934 9 1803 -34 
Q 1672 -78 1431 -78 
Q 1022 -78 808 189 
Q 594 456 594 966 
L 594 2441 
Q 594 2553 551 2629 
Q 509 2706 428 2763 
Q 372 2800 287 2817 
Q 203 2834 109 2841 
L 109 3044 
L 1138 3119 
L 1184 3075 
L 1184 934 
Q 1184 600 1334 431 
Q 1484 263 1694 263 
Q 1866 263 2000 316 
Q 2134 369 2225 441 
Q 2309 506 2373 579 
Q 2438 653 2472 716 
L 2472 2463 
Q 2472 2566 2428 2645 
Q 2384 2725 2306 2781 
Q 2250 2819 2139 2826 
Q 2028 2834 1891 2841 
L 1891 3044 
L 3009 3119 
L 3056 3075 
L 3056 628 
Q 3056 522 3100 447 
Q 3144 372 3222 319 
Q 3278 284 3356 273 
Q 3434 263 3528 259 
L 3528 56 
z
" transform="scale(0.015625)"/>
       <path id="Georgia-62" d="M 3353 1544 
Q 3353 850 2915 378 
Q 2478 -94 1900 -94 
Q 1647 -94 1401 -15 
Q 1156 63 941 194 
L 709 -166 
L 516 -122 
Q 531 109 537 434 
Q 544 759 544 1063 
L 544 4113 
Q 544 4219 495 4325 
Q 447 4431 372 4478 
Q 313 4519 173 4539 
Q 34 4559 -50 4566 
L -50 4766 
L 1081 4838 
L 1125 4791 
L 1125 2759 
L 1147 2753 
Q 1341 2959 1570 3062 
Q 1800 3166 2022 3166 
Q 2591 3166 2972 2716 
Q 3353 2266 3353 1544 
z
M 2700 1522 
Q 2700 1753 2650 1993 
Q 2600 2234 2494 2413 
Q 2388 2594 2216 2706 
Q 2044 2819 1803 2819 
Q 1584 2819 1420 2733 
Q 1256 2647 1125 2500 
L 1125 706 
Q 1144 631 1198 531 
Q 1253 431 1347 341 
Q 1441 253 1559 198 
Q 1678 144 1850 144 
Q 2231 144 2465 512 
Q 2700 881 2700 1522 
z
" transform="scale(0.015625)"/>
       <path id="Georgia-63" d="M 1650 -81 
Q 981 -81 603 362 
Q 225 806 225 1553 
Q 225 1878 326 2161 
Q 428 2444 622 2675 
Q 806 2897 1084 3033 
Q 1363 3169 1691 3169 
Q 2144 3169 2428 2951 
Q 2713 2734 2713 2359 
Q 2713 2203 2638 2083 
Q 2563 1963 2391 1963 
Q 2206 1963 2104 2056 
Q 2003 2150 2003 2266 
Q 2003 2406 2040 2554 
Q 2078 2703 2084 2772 
Q 2028 2869 1917 2901 
Q 1806 2934 1678 2934 
Q 1528 2934 1392 2870 
Q 1256 2806 1128 2634 
Q 1013 2478 941 2212 
Q 869 1947 869 1578 
Q 869 997 1126 630 
Q 1384 263 1803 263 
Q 2106 263 2311 409 
Q 2516 556 2691 850 
L 2891 719 
Q 2684 350 2346 134 
Q 2009 -81 1650 -81 
z
" transform="scale(0.015625)"/>
       <path id="Georgia-6c" d="M 1669 0 
L 166 0 
L 166 206 
Q 238 213 319 220 
Q 400 228 453 244 
Q 541 272 584 342 
Q 628 413 628 525 
L 628 4094 
Q 628 4206 579 4304 
Q 531 4403 453 4459 
Q 397 4497 247 4528 
Q 97 4559 6 4566 
L 6 4766 
L 1166 4838 
L 1209 4791 
L 1209 563 
Q 1209 453 1250 383 
Q 1291 313 1381 275 
Q 1450 244 1517 228 
Q 1584 213 1669 206 
L 1669 0 
z
" transform="scale(0.015625)"/>
      </defs>
      <use xlink:href="#Georgia-76"/>
      <use xlink:href="#Georgia-73" x="49.658203"/>
      <use xlink:href="#Georgia-20" x="92.871094"/>
      <use xlink:href="#Georgia-47" x="116.992188"/>
      <use xlink:href="#Georgia-69" x="189.501953"/>
      <use xlink:href="#Georgia-74" x="218.798828"/>
      <use xlink:href="#Georgia-48" x="253.320312"/>
      <use xlink:href="#Georgia-75" x="334.814453"/>
      <use xlink:href="#Georgia-62" x="392.333984"/>
      <use xlink:href="#Georgia-20" x="448.339844"/>
      <use xlink:href="#Georgia-63" x="472.460938"/>
      <use xlink:href="#Georgia-61" x="517.871094"/>
      <use xlink:href="#Georgia-6c" x="568.261719"/>
      <use xlink:href="#Georgia-69" x="596.875"/>
      <use xlink:href="#Georgia-62" x="626.171875"/>
      <use xlink:href="#Georgia-65" x="682.177734"/>
      <use xlink:href="#Georgia-72" x="730.517578"/>
     </g>
    </g>
    <g id="PathCollection_4">
     <g>
      <use xlink:href="#mb038e563da" x="219.851562" y="63.2225" style="fill: #d76a03; stroke: #d76a03"/>
     </g>
    </g>
    <g id="text_18">
     <!-- vs smart baseline -->
     <g transform="translate(237.851562 65.8475) scale(0.1 -0.1)">
      <defs>
       <path id="Georgia-6d" d="M 5503 0 
L 4000 0 
L 4000 206 
Q 4072 213 4145 219 
Q 4219 225 4275 244 
Q 4363 272 4405 342 
Q 4447 413 4447 525 
L 4447 2116 
Q 4447 2441 4298 2617 
Q 4150 2794 3928 2794 
Q 3775 2794 3640 2747 
Q 3506 2700 3394 2616 
Q 3303 2547 3242 2467 
Q 3181 2388 3150 2334 
L 3150 556 
Q 3150 447 3187 376 
Q 3225 306 3316 269 
Q 3388 241 3445 227 
Q 3503 213 3597 206 
L 3597 0 
L 2125 0 
L 2125 206 
Q 2197 213 2264 219 
Q 2331 225 2388 244 
Q 2475 272 2517 342 
Q 2559 413 2559 525 
L 2559 2116 
Q 2559 2441 2411 2617 
Q 2263 2794 2041 2794 
Q 1888 2794 1753 2745 
Q 1619 2697 1506 2613 
Q 1416 2544 1353 2458 
Q 1291 2372 1259 2328 
L 1259 563 
Q 1259 456 1303 384 
Q 1347 313 1434 275 
Q 1500 244 1569 228 
Q 1638 213 1722 206 
L 1722 0 
L 225 0 
L 225 206 
Q 297 213 373 219 
Q 450 225 506 244 
Q 594 272 636 342 
Q 678 413 678 525 
L 678 2441 
Q 678 2541 633 2620 
Q 588 2700 506 2756 
Q 447 2794 359 2817 
Q 272 2841 178 2847 
L 178 3050 
L 1209 3119 
L 1253 3075 
L 1253 2634 
L 1275 2634 
Q 1353 2713 1465 2819 
Q 1578 2925 1675 2991 
Q 1784 3066 1948 3116 
Q 2113 3166 2303 3166 
Q 2603 3166 2818 3005 
Q 3034 2844 3128 2616 
Q 3241 2725 3327 2808 
Q 3413 2891 3553 2984 
Q 3672 3066 3833 3116 
Q 3994 3166 4191 3166 
Q 4581 3166 4809 2909 
Q 5038 2653 5038 2122 
L 5038 556 
Q 5038 447 5075 376 
Q 5113 306 5203 269 
Q 5275 241 5345 227 
Q 5416 213 5503 206 
L 5503 0 
z
" transform="scale(0.015625)"/>
       <path id="Georgia-6e" d="M 3628 0 
L 2119 0 
L 2119 206 
Q 2191 213 2277 219 
Q 2363 225 2419 244 
Q 2506 272 2548 342 
Q 2591 413 2591 525 
L 2591 2109 
Q 2591 2438 2436 2616 
Q 2281 2794 2059 2794 
Q 1894 2794 1756 2742 
Q 1619 2691 1513 2616 
Q 1409 2544 1348 2461 
Q 1288 2378 1259 2328 
L 1259 556 
Q 1259 450 1303 381 
Q 1347 313 1434 275 
Q 1500 244 1576 228 
Q 1653 213 1734 206 
L 1734 0 
L 225 0 
L 225 206 
Q 297 213 373 219 
Q 450 225 506 244 
Q 594 272 636 342 
Q 678 413 678 525 
L 678 2428 
Q 678 2534 633 2623 
Q 588 2713 506 2769 
Q 447 2806 365 2823 
Q 284 2841 191 2847 
L 191 3050 
L 1216 3119 
L 1259 3075 
L 1259 2641 
L 1275 2641 
Q 1350 2716 1462 2820 
Q 1575 2925 1675 2991 
Q 1791 3066 1950 3116 
Q 2109 3166 2309 3166 
Q 2753 3166 2967 2889 
Q 3181 2613 3181 2153 
L 3181 550 
Q 3181 441 3218 373 
Q 3256 306 3347 269 
Q 3422 238 3476 225 
Q 3531 213 3628 206 
L 3628 0 
z
" transform="scale(0.015625)"/>
      </defs>
      <use xlink:href="#Georgia-76"/>
      <use xlink:href="#Georgia-73" x="49.658203"/>
      <use xlink:href="#Georgia-20" x="92.871094"/>
      <use xlink:href="#Georgia-73" x="116.992188"/>
      <use xlink:href="#Georgia-6d" x="160.205078"/>
      <use xlink:href="#Georgia-61" x="248.291016"/>
      <use xlink:href="#Georgia-72" x="298.681641"/>
      <use xlink:href="#Georgia-74" x="339.648438"/>
      <use xlink:href="#Georgia-20" x="374.169922"/>
      <use xlink:href="#Georgia-62" x="398.291016"/>
      <use xlink:href="#Georgia-61" x="454.296875"/>
      <use xlink:href="#Georgia-73" x="504.6875"/>
      <use xlink:href="#Georgia-65" x="547.900391"/>
      <use xlink:href="#Georgia-6c" x="596.240234"/>
      <use xlink:href="#Georgia-69" x="624.853516"/>
      <use xlink:href="#Georgia-6e" x="654.150391"/>
      <use xlink:href="#Georgia-65" x="713.232422"/>
     </g>
    </g>
   </g>
  </g>
 </g>
 <defs>
  <clipPath id="p6039d331d4">
   <rect x="45" y="34.56" width="279" height="221.76"/>
  </clipPath>
 </defs>
</svg>
