<?xml version="1.0" encoding="utf-8" standalone="no"?>
<!DOCTYPE svg PUBLIC "-//W3C//DTD SVG 1.1//EN"
  "http://www.w3.org/Graphics/SVG/1.1/DTD/svg11.dtd">
<svg xmlns:xlink="http://www.w3.org/1999/xlink" width="720pt" height="288pt" viewBox="0 0 720 288" xmlns="http://www.w3.org/2000/svg" version="1.1">
 <metadata>
  <rdf:RDF xmlns:dc="http://purl.org/dc/elements/1.1/" xmlns:cc="http://creativecommons.org/ns#" xmlns:rdf="http://www.w3.org/1999/02/22-rdf-syntax-ns#">
   <cc:Work>
    <dc:type rdf:resource="http://purl.org/dc/dcmitype/StillImage"/>
    <dc:date>2023-09-19T23:14:17.849679</dc:date>
    <dc:format>image/svg+xml</dc:format>
    <dc:creator>
     <cc:Agent>
      <dc:title>Matplotlib v3.5.2, https://matplotlib.org/</dc:title>
     </cc:Agent>
    </dc:creator>
   </cc:Work>
  </rdf:RDF>
 </metadata>
 <defs>
  <style type="text/css">*{stroke-linejoin: round; stroke-linecap: butt}</style>
 </defs>
 <g id="figure_1">
  <g id="patch_1">
   <path d="M 0 288 
L 720 288 
L 720 0 
L 0 0 
z
" style="fill: #ffffff"/>
  </g>
  <g id="axes_1">
   <g id="patch_2">
    <path d="M 90 256.32 
L 343.636364 256.32 
L 343.636364 34.56 
L 90 34.56 
z
" style="fill: #ffffff"/>
   </g>
   <g id="matplotlib.axis_1">
    <g id="xtick_1">
     <g id="line2d_1">
      <defs>
       <path id="m8fbb12ad71" d="M 0 0 
L 0 3.5 
" style="stroke: #000000; stroke-width: 0.8"/>
      </defs>
      <g>
       <use xlink:href="#m8fbb12ad71" x="101.528926" y="256.32" style="stroke: #000000; stroke-width: 0.8"/>
      </g>
     </g>
     <g id="text_1">
      <!-- 0.0 -->
      <g transform="translate(95.278926 269.941875)scale(0.1 -0.1)">
       <defs>
        <path id="TimesNewRomanPS-BoldMT-30" d="M 2966 2119 
Q 2966 1484 2788 934 
Q 2681 597 2501 381 
Q 2322 166 2094 39 
Q 1866 -88 1597 -88 
Q 1291 -88 1044 68 
Q 797 225 606 516 
Q 469 728 366 1081 
Q 231 1559 231 2069 
Q 231 2759 425 3338 
Q 584 3816 909 4070 
Q 1234 4325 1597 4325 
Q 1966 4325 2286 4073 
Q 2606 3822 2756 3397 
Q 2966 2813 2966 2119 
z
M 2003 2125 
Q 2003 3238 1991 3422 
Q 1959 3856 1841 4009 
Q 1763 4109 1588 4109 
Q 1453 4109 1375 4034 
Q 1259 3925 1218 3648 
Q 1178 3372 1178 1719 
Q 1178 819 1241 513 
Q 1288 291 1375 216 
Q 1463 141 1606 141 
Q 1763 141 1841 241 
Q 1972 416 1991 781 
L 2003 2125 
z
" transform="scale(0.015625)"/>
        <path id="TimesNewRomanPS-BoldMT-2e" d="M 800 963 
Q 1019 963 1170 809 
Q 1322 656 1322 441 
Q 1322 225 1169 73 
Q 1016 -78 800 -78 
Q 584 -78 432 73 
Q 281 225 281 441 
Q 281 656 432 809 
Q 584 963 800 963 
z
" transform="scale(0.015625)"/>
       </defs>
       <use xlink:href="#TimesNewRomanPS-BoldMT-30"/>
       <use xlink:href="#TimesNewRomanPS-BoldMT-2e" x="50"/>
       <use xlink:href="#TimesNewRomanPS-BoldMT-30" x="75"/>
      </g>
     </g>
    </g>
    <g id="xtick_2">
     <g id="line2d_2">
      <g>
       <use xlink:href="#m8fbb12ad71" x="147.644628" y="256.32" style="stroke: #000000; stroke-width: 0.8"/>
      </g>
     </g>
     <g id="text_2">
      <!-- 0.2 -->
      <g transform="translate(141.394628 269.941875)scale(0.1 -0.1)">
       <defs>
        <path id="TimesNewRomanPS-BoldMT-32" d="M 2650 0 
L 156 0 
L 156 69 
Q 1303 1434 1548 1906 
Q 1794 2378 1794 2828 
Q 1794 3156 1591 3373 
Q 1388 3591 1094 3591 
Q 613 3591 347 3109 
L 231 3150 
Q 400 3750 744 4037 
Q 1088 4325 1538 4325 
Q 1859 4325 2125 4175 
Q 2391 4025 2541 3764 
Q 2691 3503 2691 3275 
Q 2691 2859 2459 2431 
Q 2144 1853 1081 819 
L 1997 819 
Q 2334 819 2436 847 
Q 2538 875 2603 942 
Q 2669 1009 2775 1225 
L 2888 1225 
L 2650 0 
z
" transform="scale(0.015625)"/>
       </defs>
       <use xlink:href="#TimesNewRomanPS-BoldMT-30"/>
       <use xlink:href="#TimesNewRomanPS-BoldMT-2e" x="50"/>
       <use xlink:href="#TimesNewRomanPS-BoldMT-32" x="75"/>
      </g>
     </g>
    </g>
    <g id="xtick_3">
     <g id="line2d_3">
      <g>
       <use xlink:href="#m8fbb12ad71" x="193.760331" y="256.32" style="stroke: #000000; stroke-width: 0.8"/>
      </g>
     </g>
     <g id="text_3">
      <!-- 0.4 -->
      <g transform="translate(187.510331 269.941875)scale(0.1 -0.1)">
       <defs>
        <path id="TimesNewRomanPS-BoldMT-34" d="M 159 1597 
L 2172 4325 
L 2553 4325 
L 2553 1597 
L 2941 1597 
L 2941 950 
L 2553 950 
L 2553 0 
L 1694 0 
L 1694 950 
L 159 950 
L 159 1597 
z
M 463 1597 
L 1694 1597 
L 1694 3269 
L 463 1597 
z
" transform="scale(0.015625)"/>
       </defs>
       <use xlink:href="#TimesNewRomanPS-BoldMT-30"/>
       <use xlink:href="#TimesNewRomanPS-BoldMT-2e" x="50"/>
       <use xlink:href="#TimesNewRomanPS-BoldMT-34" x="75"/>
      </g>
     </g>
    </g>
    <g id="xtick_4">
     <g id="line2d_4">
      <g>
       <use xlink:href="#m8fbb12ad71" x="239.876033" y="256.32" style="stroke: #000000; stroke-width: 0.8"/>
      </g>
     </g>
     <g id="text_4">
      <!-- 0.6 -->
      <g transform="translate(233.626033 269.941875)scale(0.1 -0.1)">
       <defs>
        <path id="TimesNewRomanPS-BoldMT-36" d="M 3006 4325 
L 3006 4238 
Q 2441 4094 2098 3867 
Q 1756 3641 1557 3317 
Q 1359 2994 1250 2516 
Q 1388 2609 1478 2638 
Q 1681 2700 1888 2700 
Q 2363 2700 2680 2354 
Q 2997 2009 2997 1413 
Q 2997 994 2825 644 
Q 2653 294 2337 103 
Q 2022 -88 1663 -88 
Q 1272 -88 940 126 
Q 609 341 423 753 
Q 238 1166 238 1650 
Q 238 2363 580 2977 
Q 922 3591 1551 3955 
Q 2181 4319 3006 4325 
z
M 1209 2263 
Q 1184 1831 1184 1631 
Q 1184 1200 1267 797 
Q 1350 394 1494 231 
Q 1597 116 1738 116 
Q 1881 116 1993 283 
Q 2106 450 2106 963 
Q 2106 1825 1897 2153 
Q 1763 2366 1534 2366 
Q 1409 2366 1209 2263 
z
" transform="scale(0.015625)"/>
       </defs>
       <use xlink:href="#TimesNewRomanPS-BoldMT-30"/>
       <use xlink:href="#TimesNewRomanPS-BoldMT-2e" x="50"/>
       <use xlink:href="#TimesNewRomanPS-BoldMT-36" x="75"/>
      </g>
     </g>
    </g>
    <g id="xtick_5">
     <g id="line2d_5">
      <g>
       <use xlink:href="#m8fbb12ad71" x="285.991736" y="256.32" style="stroke: #000000; stroke-width: 0.8"/>
      </g>
     </g>
     <g id="text_5">
      <!-- 0.8 -->
      <g transform="translate(279.741736 269.941875)scale(0.1 -0.1)">
       <defs>
        <path id="TimesNewRomanPS-BoldMT-38" d="M 2181 2394 
Q 2628 2066 2801 1783 
Q 2975 1500 2975 1134 
Q 2975 622 2589 267 
Q 2203 -88 1541 -88 
Q 913 -88 569 221 
Q 225 531 225 978 
Q 225 1319 423 1575 
Q 622 1831 1084 2044 
Q 581 2428 439 2672 
Q 297 2916 297 3238 
Q 297 3663 658 3986 
Q 1019 4309 1647 4309 
Q 2253 4309 2579 4023 
Q 2906 3738 2906 3338 
Q 2906 3038 2729 2808 
Q 2553 2578 2181 2394 
z
M 1944 2553 
Q 2059 2709 2115 2903 
Q 2172 3097 2172 3328 
Q 2172 3734 1997 3950 
Q 1866 4116 1634 4116 
Q 1425 4116 1278 3964 
Q 1131 3813 1131 3588 
Q 1131 3359 1295 3114 
Q 1459 2869 1944 2553 
z
M 1319 1894 
Q 1222 1806 1181 1734 
Q 1119 1625 1069 1415 
Q 1019 1206 1019 978 
Q 1019 684 1094 486 
Q 1169 288 1308 200 
Q 1447 113 1594 113 
Q 1822 113 1978 280 
Q 2134 447 2134 738 
Q 2134 1344 1319 1894 
z
" transform="scale(0.015625)"/>
       </defs>
       <use xlink:href="#TimesNewRomanPS-BoldMT-30"/>
       <use xlink:href="#TimesNewRomanPS-BoldMT-2e" x="50"/>
       <use xlink:href="#TimesNewRomanPS-BoldMT-38" x="75"/>
      </g>
     </g>
    </g>
    <g id="xtick_6">
     <g id="line2d_6">
      <g>
       <use xlink:href="#m8fbb12ad71" x="332.107438" y="256.32" style="stroke: #000000; stroke-width: 0.8"/>
      </g>
     </g>
     <g id="text_6">
      <!-- 1.0 -->
      <g transform="translate(325.857438 269.941875)scale(0.1 -0.1)">
       <defs>
        <path id="TimesNewRomanPS-BoldMT-31" d="M 2084 4325 
L 2084 859 
Q 2084 469 2118 361 
Q 2153 253 2262 184 
Q 2372 116 2613 116 
L 2709 116 
L 2709 0 
L 478 0 
L 478 116 
L 591 116 
Q 863 116 978 178 
Q 1094 241 1134 350 
Q 1175 459 1175 859 
L 1175 3056 
Q 1175 3350 1147 3423 
Q 1119 3497 1042 3548 
Q 966 3600 866 3600 
Q 706 3600 478 3500 
L 422 3613 
L 1981 4325 
L 2084 4325 
z
" transform="scale(0.015625)"/>
       </defs>
       <use xlink:href="#TimesNewRomanPS-BoldMT-31"/>
       <use xlink:href="#TimesNewRomanPS-BoldMT-2e" x="50"/>
       <use xlink:href="#TimesNewRomanPS-BoldMT-30" x="75"/>
      </g>
     </g>
    </g>
    <g id="text_7">
     <!-- Failure rate -->
     <g transform="translate(186.436619 284.027188)scale(0.12 -0.12)">
      <defs>
       <path id="TimesNewRomanPS-BoldMT-46" d="M 1759 3994 
L 1759 2253 
L 1881 2253 
Q 2163 2253 2341 2337 
Q 2519 2422 2642 2622 
Q 2766 2822 2803 3163 
L 2913 3163 
L 2913 1034 
L 2803 1034 
Q 2744 1638 2480 1830 
Q 2216 2022 1881 2022 
L 1759 2022 
L 1759 725 
Q 1759 400 1795 319 
Q 1831 238 1936 177 
Q 2041 116 2219 116 
L 2359 116 
L 2359 0 
L 144 0 
L 144 116 
L 284 116 
Q 469 116 581 181 
Q 663 225 706 331 
Q 741 406 741 725 
L 741 3513 
Q 741 3838 706 3919 
Q 672 4000 567 4061 
Q 463 4122 284 4122 
L 144 4122 
L 144 4238 
L 3719 4238 
L 3719 3022 
L 3591 3022 
Q 3547 3450 3367 3656 
Q 3188 3863 2847 3947 
Q 2659 3994 2153 3994 
L 1759 3994 
z
" transform="scale(0.015625)"/>
       <path id="TimesNewRomanPS-BoldMT-61" d="M 1828 431 
Q 1294 -41 869 -41 
Q 619 -41 453 123 
Q 288 288 288 534 
Q 288 869 575 1136 
Q 863 1403 1828 1847 
L 1828 2141 
Q 1828 2472 1792 2558 
Q 1756 2644 1656 2708 
Q 1556 2772 1431 2772 
Q 1228 2772 1097 2681 
Q 1016 2625 1016 2550 
Q 1016 2484 1103 2388 
Q 1222 2253 1222 2128 
Q 1222 1975 1108 1867 
Q 994 1759 809 1759 
Q 613 1759 480 1878 
Q 347 1997 347 2156 
Q 347 2381 525 2586 
Q 703 2791 1022 2900 
Q 1341 3009 1684 3009 
Q 2100 3009 2342 2832 
Q 2584 2656 2656 2450 
Q 2700 2319 2700 1847 
L 2700 713 
Q 2700 513 2715 461 
Q 2731 409 2762 384 
Q 2794 359 2834 359 
Q 2916 359 3000 475 
L 3094 400 
Q 2938 169 2770 64 
Q 2603 -41 2391 -41 
Q 2141 -41 2000 76 
Q 1859 194 1828 431 
z
M 1828 659 
L 1828 1638 
Q 1450 1416 1266 1163 
Q 1144 994 1144 822 
Q 1144 678 1247 569 
Q 1325 484 1466 484 
Q 1622 484 1828 659 
z
" transform="scale(0.015625)"/>
       <path id="TimesNewRomanPS-BoldMT-69" d="M 919 4338 
Q 1122 4338 1262 4195 
Q 1403 4053 1403 3853 
Q 1403 3653 1261 3512 
Q 1119 3372 919 3372 
Q 719 3372 578 3512 
Q 438 3653 438 3853 
Q 438 4053 578 4195 
Q 719 4338 919 4338 
z
M 1356 2922 
L 1356 606 
Q 1356 297 1428 211 
Q 1500 125 1709 113 
L 1709 0 
L 131 0 
L 131 113 
Q 325 119 419 225 
Q 481 297 481 606 
L 481 2313 
Q 481 2622 409 2708 
Q 338 2794 131 2806 
L 131 2922 
L 1356 2922 
z
" transform="scale(0.015625)"/>
       <path id="TimesNewRomanPS-BoldMT-6c" d="M 1359 4238 
L 1359 606 
Q 1359 297 1431 211 
Q 1503 125 1713 113 
L 1713 0 
L 134 0 
L 134 113 
Q 328 119 422 225 
Q 484 297 484 606 
L 484 3631 
Q 484 3938 412 4023 
Q 341 4109 134 4122 
L 134 4238 
L 1359 4238 
z
" transform="scale(0.015625)"/>
       <path id="TimesNewRomanPS-BoldMT-75" d="M 3038 2922 
L 3038 634 
Q 3038 300 3100 217 
Q 3163 134 3353 113 
L 3353 0 
L 2163 0 
L 2163 391 
Q 1953 141 1743 26 
Q 1534 -88 1275 -88 
Q 1028 -88 836 64 
Q 644 216 578 419 
Q 513 622 513 1128 
L 513 2288 
Q 513 2619 452 2700 
Q 391 2781 197 2806 
L 197 2922 
L 1388 2922 
L 1388 925 
Q 1388 613 1417 522 
Q 1447 431 1511 384 
Q 1575 338 1659 338 
Q 1772 338 1863 397 
Q 1988 478 2163 725 
L 2163 2288 
Q 2163 2619 2102 2700 
Q 2041 2781 1847 2806 
L 1847 2922 
L 3038 2922 
z
" transform="scale(0.015625)"/>
       <path id="TimesNewRomanPS-BoldMT-72" d="M 1428 2922 
L 1428 2259 
Q 1719 2713 1937 2861 
Q 2156 3009 2359 3009 
Q 2534 3009 2639 2901 
Q 2744 2794 2744 2597 
Q 2744 2388 2642 2272 
Q 2541 2156 2397 2156 
Q 2231 2156 2109 2262 
Q 1988 2369 1966 2381 
Q 1934 2400 1894 2400 
Q 1803 2400 1722 2331 
Q 1594 2225 1528 2028 
Q 1428 1725 1428 1359 
L 1428 688 
L 1431 513 
Q 1431 334 1453 284 
Q 1491 200 1564 161 
Q 1638 122 1813 113 
L 1813 0 
L 234 0 
L 234 113 
Q 425 128 492 217 
Q 559 306 559 688 
L 559 2303 
Q 559 2553 534 2622 
Q 503 2709 443 2750 
Q 384 2791 234 2806 
L 234 2922 
L 1428 2922 
z
" transform="scale(0.015625)"/>
       <path id="TimesNewRomanPS-BoldMT-65" d="M 2691 1566 
L 1088 1566 
Q 1116 984 1397 647 
Q 1613 388 1916 388 
Q 2103 388 2256 492 
Q 2409 597 2584 869 
L 2691 800 
Q 2453 316 2165 114 
Q 1878 -88 1500 -88 
Q 850 -88 516 413 
Q 247 816 247 1413 
Q 247 2144 642 2576 
Q 1038 3009 1569 3009 
Q 2013 3009 2339 2645 
Q 2666 2281 2691 1566 
z
M 1922 1775 
Q 1922 2278 1867 2465 
Q 1813 2653 1697 2750 
Q 1631 2806 1522 2806 
Q 1359 2806 1256 2647 
Q 1072 2369 1072 1884 
L 1072 1775 
L 1922 1775 
z
" transform="scale(0.015625)"/>
       <path id="TimesNewRomanPS-BoldMT-20" transform="scale(0.015625)"/>
       <path id="TimesNewRomanPS-BoldMT-74" d="M 1375 3991 
L 1375 2922 
L 2069 2922 
L 2069 2613 
L 1375 2613 
L 1375 809 
Q 1375 556 1398 482 
Q 1422 409 1481 364 
Q 1541 319 1591 319 
Q 1794 319 1975 628 
L 2069 559 
Q 1816 -41 1247 -41 
Q 969 -41 776 114 
Q 584 269 531 459 
Q 500 566 500 1034 
L 500 2613 
L 119 2613 
L 119 2722 
Q 513 3000 789 3306 
Q 1066 3613 1272 3991 
L 1375 3991 
z
" transform="scale(0.015625)"/>
      </defs>
      <use xlink:href="#TimesNewRomanPS-BoldMT-46"/>
      <use xlink:href="#TimesNewRomanPS-BoldMT-61" x="61.083984"/>
      <use xlink:href="#TimesNewRomanPS-BoldMT-69" x="111.083984"/>
      <use xlink:href="#TimesNewRomanPS-BoldMT-6c" x="138.867188"/>
      <use xlink:href="#TimesNewRomanPS-BoldMT-75" x="166.650391"/>
      <use xlink:href="#TimesNewRomanPS-BoldMT-72" x="222.265625"/>
      <use xlink:href="#TimesNewRomanPS-BoldMT-65" x="264.900391"/>
      <use xlink:href="#TimesNewRomanPS-BoldMT-20" x="309.285156"/>
      <use xlink:href="#TimesNewRomanPS-BoldMT-72" x="334.285156"/>
      <use xlink:href="#TimesNewRomanPS-BoldMT-61" x="378.669922"/>
      <use xlink:href="#TimesNewRomanPS-BoldMT-74" x="428.669922"/>
      <use xlink:href="#TimesNewRomanPS-BoldMT-65" x="461.970703"/>
     </g>
    </g>
   </g>
   <g id="matplotlib.axis_2">
    <g id="ytick_1">
     <g id="line2d_7">
      <path d="M 90 243.935354 
L 343.636364 243.935354 
" clip-path="url(#pef5577f227)" style="fill: none; stroke-dasharray: 2.96,1.28; stroke-dashoffset: 0; stroke: #b0b0b0; stroke-width: 0.8"/>
     </g>
     <g id="line2d_8">
      <defs>
       <path id="m68d1b9eb32" d="M 0 0 
L -3.5 0 
" style="stroke: #000000; stroke-width: 0.8"/>
      </defs>
      <g>
       <use xlink:href="#m68d1b9eb32" x="90" y="243.935354" style="stroke: #000000; stroke-width: 0.8"/>
      </g>
     </g>
     <g id="text_8">
      <!-- 0.90 -->
      <g transform="translate(65.5 247.246291)scale(0.1 -0.1)">
       <defs>
        <path id="TimesNewRomanPS-BoldMT-39" d="M 197 -88 
L 197 0 
Q 716 119 1077 350 
Q 1438 581 1648 922 
Q 1859 1263 1944 1706 
Q 1750 1606 1614 1567 
Q 1478 1528 1328 1528 
Q 847 1528 526 1875 
Q 206 2222 206 2825 
Q 206 3244 379 3592 
Q 553 3941 875 4133 
Q 1197 4325 1544 4325 
Q 1916 4325 2247 4112 
Q 2578 3900 2775 3497 
Q 2972 3094 2972 2578 
Q 2972 1909 2651 1296 
Q 2331 684 1697 314 
Q 1063 -56 197 -88 
z
M 1991 1969 
Q 2022 2319 2022 2584 
Q 2022 3153 1891 3644 
Q 1816 3916 1669 4044 
Q 1591 4113 1466 4113 
Q 1309 4113 1222 3978 
Q 1100 3794 1100 3275 
Q 1100 2409 1306 2081 
Q 1441 1869 1669 1869 
Q 1791 1869 1991 1969 
z
" transform="scale(0.015625)"/>
       </defs>
       <use xlink:href="#TimesNewRomanPS-BoldMT-30"/>
       <use xlink:href="#TimesNewRomanPS-BoldMT-2e" x="50"/>
       <use xlink:href="#TimesNewRomanPS-BoldMT-39" x="75"/>
       <use xlink:href="#TimesNewRomanPS-BoldMT-30" x="125"/>
      </g>
     </g>
    </g>
    <g id="ytick_2">
     <g id="line2d_9">
      <path d="M 90 204.076283 
L 343.636364 204.076283 
" clip-path="url(#pef5577f227)" style="fill: none; stroke-dasharray: 2.96,1.28; stroke-dashoffset: 0; stroke: #b0b0b0; stroke-width: 0.8"/>
     </g>
     <g id="line2d_10">
      <g>
       <use xlink:href="#m68d1b9eb32" x="90" y="204.076283" style="stroke: #000000; stroke-width: 0.8"/>
      </g>
     </g>
     <g id="text_9">
      <!-- 0.92 -->
      <g transform="translate(65.5 207.38722)scale(0.1 -0.1)">
       <use xlink:href="#TimesNewRomanPS-BoldMT-30"/>
       <use xlink:href="#TimesNewRomanPS-BoldMT-2e" x="50"/>
       <use xlink:href="#TimesNewRomanPS-BoldMT-39" x="75"/>
       <use xlink:href="#TimesNewRomanPS-BoldMT-32" x="125"/>
      </g>
     </g>
    </g>
    <g id="ytick_3">
     <g id="line2d_11">
      <path d="M 90 164.217212 
L 343.636364 164.217212 
" clip-path="url(#pef5577f227)" style="fill: none; stroke-dasharray: 2.96,1.28; stroke-dashoffset: 0; stroke: #b0b0b0; stroke-width: 0.8"/>
     </g>
     <g id="line2d_12">
      <g>
       <use xlink:href="#m68d1b9eb32" x="90" y="164.217212" style="stroke: #000000; stroke-width: 0.8"/>
      </g>
     </g>
     <g id="text_10">
      <!-- 0.94 -->
      <g transform="translate(65.5 167.52815)scale(0.1 -0.1)">
       <use xlink:href="#TimesNewRomanPS-BoldMT-30"/>
       <use xlink:href="#TimesNewRomanPS-BoldMT-2e" x="50"/>
       <use xlink:href="#TimesNewRomanPS-BoldMT-39" x="75"/>
       <use xlink:href="#TimesNewRomanPS-BoldMT-34" x="125"/>
      </g>
     </g>
    </g>
    <g id="ytick_4">
     <g id="line2d_13">
      <path d="M 90 124.358141 
L 343.636364 124.358141 
" clip-path="url(#pef5577f227)" style="fill: none; stroke-dasharray: 2.96,1.28; stroke-dashoffset: 0; stroke: #b0b0b0; stroke-width: 0.8"/>
     </g>
     <g id="line2d_14">
      <g>
       <use xlink:href="#m68d1b9eb32" x="90" y="124.358141" style="stroke: #000000; stroke-width: 0.8"/>
      </g>
     </g>
     <g id="text_11">
      <!-- 0.96 -->
      <g transform="translate(65.5 127.669079)scale(0.1 -0.1)">
       <use xlink:href="#TimesNewRomanPS-BoldMT-30"/>
       <use xlink:href="#TimesNewRomanPS-BoldMT-2e" x="50"/>
       <use xlink:href="#TimesNewRomanPS-BoldMT-39" x="75"/>
       <use xlink:href="#TimesNewRomanPS-BoldMT-36" x="125"/>
      </g>
     </g>
    </g>
    <g id="ytick_5">
     <g id="line2d_15">
      <path d="M 90 84.499071 
L 343.636364 84.499071 
" clip-path="url(#pef5577f227)" style="fill: none; stroke-dasharray: 2.96,1.28; stroke-dashoffset: 0; stroke: #b0b0b0; stroke-width: 0.8"/>
     </g>
     <g id="line2d_16">
      <g>
       <use xlink:href="#m68d1b9eb32" x="90" y="84.499071" style="stroke: #000000; stroke-width: 0.8"/>
      </g>
     </g>
     <g id="text_12">
      <!-- 0.98 -->
      <g transform="translate(65.5 87.810008)scale(0.1 -0.1)">
       <use xlink:href="#TimesNewRomanPS-BoldMT-30"/>
       <use xlink:href="#TimesNewRomanPS-BoldMT-2e" x="50"/>
       <use xlink:href="#TimesNewRomanPS-BoldMT-39" x="75"/>
       <use xlink:href="#TimesNewRomanPS-BoldMT-38" x="125"/>
      </g>
     </g>
    </g>
    <g id="ytick_6">
     <g id="line2d_17">
      <path d="M 90 44.64 
L 343.636364 44.64 
" clip-path="url(#pef5577f227)" style="fill: none; stroke-dasharray: 2.96,1.28; stroke-dashoffset: 0; stroke: #b0b0b0; stroke-width: 0.8"/>
     </g>
     <g id="line2d_18">
      <g>
       <use xlink:href="#m68d1b9eb32" x="90" y="44.64" style="stroke: #000000; stroke-width: 0.8"/>
      </g>
     </g>
     <g id="text_13">
      <!-- 1.00 -->
      <g transform="translate(65.5 47.950937)scale(0.1 -0.1)">
       <use xlink:href="#TimesNewRomanPS-BoldMT-31"/>
       <use xlink:href="#TimesNewRomanPS-BoldMT-2e" x="50"/>
       <use xlink:href="#TimesNewRomanPS-BoldMT-30" x="75"/>
       <use xlink:href="#TimesNewRomanPS-BoldMT-30" x="125"/>
      </g>
     </g>
    </g>
   </g>
   <g id="line2d_19">
    <path d="M 101.528926 61.689334 
L 147.644628 44.64 
L 193.760331 44.64 
L 239.876033 44.64 
L 285.991736 44.64 
L 332.107438 44.64 
" clip-path="url(#pef5577f227)" style="fill: none; stroke: #84a98c; stroke-width: 1.5; stroke-linecap: square"/>
    <defs>
     <path id="m72221aab90" d="M 0 3 
C 0.795609 3 1.55874 2.683901 2.12132 2.12132 
C 2.683901 1.55874 3 0.795609 3 0 
C 3 -0.795609 2.683901 -1.55874 2.12132 -2.12132 
C 1.55874 -2.683901 0.795609 -3 0 -3 
C -0.795609 -3 -1.55874 -2.683901 -2.12132 -2.12132 
C -2.683901 -1.55874 -3 -0.795609 -3 0 
C -3 0.795609 -2.683901 1.55874 -2.12132 2.12132 
C -1.55874 2.683901 -0.795609 3 0 3 
z
" style="stroke: #84a98c"/>
    </defs>
    <g clip-path="url(#pef5577f227)">
     <use xlink:href="#m72221aab90" x="101.528926" y="61.689334" style="fill: #84a98c; stroke: #84a98c"/>
     <use xlink:href="#m72221aab90" x="147.644628" y="44.64" style="fill: #84a98c; stroke: #84a98c"/>
     <use xlink:href="#m72221aab90" x="193.760331" y="44.64" style="fill: #84a98c; stroke: #84a98c"/>
     <use xlink:href="#m72221aab90" x="239.876033" y="44.64" style="fill: #84a98c; stroke: #84a98c"/>
     <use xlink:href="#m72221aab90" x="285.991736" y="44.64" style="fill: #84a98c; stroke: #84a98c"/>
     <use xlink:href="#m72221aab90" x="332.107438" y="44.64" style="fill: #84a98c; stroke: #84a98c"/>
    </g>
   </g>
   <g id="line2d_20">
    <path d="M 101.528926 44.64 
L 147.644628 246.24 
L 193.760331 246.24 
L 239.876033 246.24 
L 285.991736 246.24 
L 332.107438 246.24 
" clip-path="url(#pef5577f227)" style="fill: none; stroke: #354f52; stroke-width: 1.5; stroke-linecap: square"/>
    <defs>
     <path id="m70090013d5" d="M 0 3 
C 0.795609 3 1.55874 2.683901 2.12132 2.12132 
C 2.683901 1.55874 3 0.795609 3 0 
C 3 -0.795609 2.683901 -1.55874 2.12132 -2.12132 
C 1.55874 -2.683901 0.795609 -3 0 -3 
C -0.795609 -3 -1.55874 -2.683901 -2.12132 -2.12132 
C -2.683901 -1.55874 -3 -0.795609 -3 0 
C -3 0.795609 -2.683901 1.55874 -2.12132 2.12132 
C -1.55874 2.683901 -0.795609 3 0 3 
z
" style="stroke: #354f52"/>
    </defs>
    <g clip-path="url(#pef5577f227)">
     <use xlink:href="#m70090013d5" x="101.528926" y="44.64" style="fill: #354f52; stroke: #354f52"/>
     <use xlink:href="#m70090013d5" x="147.644628" y="246.24" style="fill: #354f52; stroke: #354f52"/>
     <use xlink:href="#m70090013d5" x="193.760331" y="246.24" style="fill: #354f52; stroke: #354f52"/>
     <use xlink:href="#m70090013d5" x="239.876033" y="246.24" style="fill: #354f52; stroke: #354f52"/>
     <use xlink:href="#m70090013d5" x="285.991736" y="246.24" style="fill: #354f52; stroke: #354f52"/>
     <use xlink:href="#m70090013d5" x="332.107438" y="246.24" style="fill: #354f52; stroke: #354f52"/>
    </g>
   </g>
   <g id="patch_3">
    <path d="M 90 256.32 
L 90 34.56 
" style="fill: none; stroke: #000000; stroke-width: 0.8; stroke-linejoin: miter; stroke-linecap: square"/>
   </g>
   <g id="patch_4">
    <path d="M 343.636364 256.32 
L 343.636364 34.56 
" style="fill: none; stroke: #000000; stroke-width: 0.8; stroke-linejoin: miter; stroke-linecap: square"/>
   </g>
   <g id="patch_5">
    <path d="M 90 256.32 
L 343.636364 256.32 
" style="fill: none; stroke: #000000; stroke-width: 0.8; stroke-linejoin: miter; stroke-linecap: square"/>
   </g>
   <g id="patch_6">
    <path d="M 90 34.56 
L 343.636364 34.56 
" style="fill: none; stroke: #000000; stroke-width: 0.8; stroke-linejoin: miter; stroke-linecap: square"/>
   </g>
   <g id="text_14">
    <!-- For cheapest -->
    <g transform="translate(184.098494 28.56)scale(0.12 -0.12)">
     <defs>
      <path id="TimesNewRomanPS-BoldMT-6f" d="M 1594 3009 
Q 1975 3009 2303 2812 
Q 2631 2616 2801 2253 
Q 2972 1891 2972 1459 
Q 2972 838 2656 419 
Q 2275 -88 1603 -88 
Q 944 -88 587 375 
Q 231 838 231 1447 
Q 231 2075 595 2542 
Q 959 3009 1594 3009 
z
M 1606 2788 
Q 1447 2788 1333 2667 
Q 1219 2547 1183 2192 
Q 1147 1838 1147 1206 
Q 1147 872 1191 581 
Q 1225 359 1337 243 
Q 1450 128 1594 128 
Q 1734 128 1828 206 
Q 1950 313 1991 503 
Q 2053 800 2053 1703 
Q 2053 2234 1993 2432 
Q 1934 2631 1819 2722 
Q 1738 2788 1606 2788 
z
" transform="scale(0.015625)"/>
      <path id="TimesNewRomanPS-BoldMT-63" d="M 2600 753 
L 2697 678 
Q 2491 291 2183 101 
Q 1875 -88 1528 -88 
Q 944 -88 594 353 
Q 244 794 244 1413 
Q 244 2009 563 2463 
Q 947 3009 1622 3009 
Q 2075 3009 2342 2781 
Q 2609 2553 2609 2272 
Q 2609 2094 2501 1987 
Q 2394 1881 2219 1881 
Q 2034 1881 1914 2003 
Q 1794 2125 1766 2438 
Q 1747 2634 1675 2713 
Q 1603 2791 1506 2791 
Q 1356 2791 1250 2631 
Q 1088 2391 1088 1894 
Q 1088 1481 1219 1104 
Q 1350 728 1578 544 
Q 1750 409 1984 409 
Q 2138 409 2275 481 
Q 2413 553 2600 753 
z
" transform="scale(0.015625)"/>
      <path id="TimesNewRomanPS-BoldMT-68" d="M 1409 4238 
L 1409 2547 
Q 1650 2800 1850 2904 
Q 2050 3009 2266 3009 
Q 2541 3009 2736 2853 
Q 2931 2697 2995 2486 
Q 3059 2275 3059 1775 
L 3059 634 
Q 3059 300 3121 217 
Q 3184 134 3375 113 
L 3375 0 
L 1894 0 
L 1894 113 
Q 2050 134 2128 238 
Q 2184 319 2184 634 
L 2184 1938 
Q 2184 2300 2156 2392 
Q 2128 2484 2061 2536 
Q 1994 2588 1909 2588 
Q 1784 2588 1665 2502 
Q 1547 2416 1409 2200 
L 1409 634 
Q 1409 322 1456 244 
Q 1516 138 1700 113 
L 1700 0 
L 219 0 
L 219 113 
Q 403 131 481 231 
Q 534 300 534 634 
L 534 3603 
Q 534 3934 473 4015 
Q 413 4097 219 4122 
L 219 4238 
L 1409 4238 
z
" transform="scale(0.015625)"/>
      <path id="TimesNewRomanPS-BoldMT-70" d="M 1347 297 
L 1347 -791 
Q 1347 -1016 1383 -1097 
Q 1419 -1178 1494 -1215 
Q 1569 -1253 1788 -1253 
L 1788 -1369 
L 122 -1369 
L 122 -1253 
Q 316 -1247 409 -1144 
Q 472 -1072 472 -772 
L 472 2313 
Q 472 2622 400 2708 
Q 328 2794 122 2806 
L 122 2922 
L 1347 2922 
L 1347 2538 
Q 1500 2763 1659 2863 
Q 1888 3009 2156 3009 
Q 2478 3009 2742 2806 
Q 3006 2603 3143 2245 
Q 3281 1888 3281 1475 
Q 3281 1031 3139 664 
Q 2997 297 2726 104 
Q 2456 -88 2125 -88 
Q 1884 -88 1675 19 
Q 1519 100 1347 297 
z
M 1347 613 
Q 1616 231 1922 231 
Q 2091 231 2200 409 
Q 2363 672 2363 1409 
Q 2363 2166 2184 2444 
Q 2066 2628 1866 2628 
Q 1550 2628 1347 2172 
L 1347 613 
z
" transform="scale(0.015625)"/>
      <path id="TimesNewRomanPS-BoldMT-73" d="M 2063 3003 
L 2109 2006 
L 2003 2006 
Q 1813 2450 1608 2612 
Q 1403 2775 1200 2775 
Q 1072 2775 981 2689 
Q 891 2603 891 2491 
Q 891 2406 953 2328 
Q 1053 2200 1512 1889 
Q 1972 1578 2117 1361 
Q 2263 1144 2263 875 
Q 2263 631 2141 397 
Q 2019 163 1797 37 
Q 1575 -88 1306 -88 
Q 1097 -88 747 44 
Q 653 78 619 78 
Q 516 78 447 -78 
L 344 -78 
L 294 972 
L 400 972 
Q 541 559 786 353 
Q 1031 147 1250 147 
Q 1400 147 1495 239 
Q 1591 331 1591 463 
Q 1591 613 1497 722 
Q 1403 831 1078 1053 
Q 600 1384 459 1559 
Q 253 1816 253 2125 
Q 253 2463 486 2736 
Q 719 3009 1159 3009 
Q 1397 3009 1619 2894 
Q 1703 2847 1756 2847 
Q 1813 2847 1847 2870 
Q 1881 2894 1956 3003 
L 2063 3003 
z
" transform="scale(0.015625)"/>
     </defs>
     <use xlink:href="#TimesNewRomanPS-BoldMT-46"/>
     <use xlink:href="#TimesNewRomanPS-BoldMT-6f" x="61.083984"/>
     <use xlink:href="#TimesNewRomanPS-BoldMT-72" x="111.083984"/>
     <use xlink:href="#TimesNewRomanPS-BoldMT-20" x="153.71875"/>
     <use xlink:href="#TimesNewRomanPS-BoldMT-63" x="178.71875"/>
     <use xlink:href="#TimesNewRomanPS-BoldMT-68" x="223.103516"/>
     <use xlink:href="#TimesNewRomanPS-BoldMT-65" x="278.71875"/>
     <use xlink:href="#TimesNewRomanPS-BoldMT-61" x="323.103516"/>
     <use xlink:href="#TimesNewRomanPS-BoldMT-70" x="373.103516"/>
     <use xlink:href="#TimesNewRomanPS-BoldMT-65" x="428.71875"/>
     <use xlink:href="#TimesNewRomanPS-BoldMT-73" x="473.103516"/>
     <use xlink:href="#TimesNewRomanPS-BoldMT-74" x="512.019531"/>
    </g>
   </g>
   <g id="legend_1">
    <g id="patch_7">
     <path d="M 267.416051 161.079063 
L 336.636364 161.079063 
Q 338.636364 161.079063 338.636364 159.079063 
L 338.636364 131.800938 
Q 338.636364 129.800938 336.636364 129.800938 
L 267.416051 129.800938 
Q 265.416051 129.800938 265.416051 131.800938 
L 265.416051 159.079063 
Q 265.416051 161.079063 267.416051 161.079063 
z
" style="fill: #ffffff; opacity: 0.8; stroke: #cccccc; stroke-linejoin: miter"/>
    </g>
    <g id="line2d_21">
     <path d="M 269.416051 137.300938 
L 279.416051 137.300938 
L 289.416051 137.300938 
" style="fill: none; stroke: #84a98c; stroke-width: 1.5; stroke-linecap: square"/>
     <g>
      <use xlink:href="#m72221aab90" x="279.416051" y="137.300938" style="fill: #84a98c; stroke: #84a98c"/>
     </g>
    </g>
    <g id="text_15">
     <!-- Runtime -->
     <g transform="translate(297.416051 140.800938)scale(0.1 -0.1)">
      <defs>
       <path id="TimesNewRomanPS-BoldMT-52" d="M 1700 1931 
L 1700 744 
Q 1700 400 1742 311 
Q 1784 222 1890 169 
Q 1997 116 2288 116 
L 2288 0 
L 119 0 
L 119 116 
Q 413 116 517 170 
Q 622 225 664 312 
Q 706 400 706 744 
L 706 3494 
Q 706 3838 664 3927 
Q 622 4016 515 4069 
Q 409 4122 119 4122 
L 119 4238 
L 2088 4238 
Q 2856 4238 3212 4131 
Q 3569 4025 3794 3739 
Q 4019 3453 4019 3069 
Q 4019 2600 3681 2294 
Q 3466 2100 3078 2003 
L 4097 569 
Q 4297 291 4381 222 
Q 4509 125 4678 116 
L 4678 0 
L 3344 0 
L 1978 1931 
L 1700 1931 
z
M 1700 4009 
L 1700 2153 
L 1878 2153 
Q 2313 2153 2528 2233 
Q 2744 2313 2867 2520 
Q 2991 2728 2991 3063 
Q 2991 3547 2764 3778 
Q 2538 4009 2034 4009 
L 1700 4009 
z
" transform="scale(0.015625)"/>
       <path id="TimesNewRomanPS-BoldMT-6e" d="M 1409 2922 
L 1409 2544 
Q 1634 2788 1840 2898 
Q 2047 3009 2284 3009 
Q 2569 3009 2756 2851 
Q 2944 2694 3006 2459 
Q 3056 2281 3056 1775 
L 3056 638 
Q 3056 300 3117 217 
Q 3178 134 3372 113 
L 3372 0 
L 1894 0 
L 1894 113 
Q 2059 134 2131 250 
Q 2181 328 2181 638 
L 2181 1938 
Q 2181 2297 2153 2390 
Q 2125 2484 2058 2536 
Q 1991 2588 1909 2588 
Q 1641 2588 1409 2203 
L 1409 638 
Q 1409 309 1470 221 
Q 1531 134 1697 113 
L 1697 0 
L 219 0 
L 219 113 
Q 403 131 481 231 
Q 534 300 534 638 
L 534 2288 
Q 534 2619 473 2700 
Q 413 2781 219 2806 
L 219 2922 
L 1409 2922 
z
" transform="scale(0.015625)"/>
       <path id="TimesNewRomanPS-BoldMT-6d" d="M 1428 2922 
L 1428 2538 
Q 1669 2800 1873 2904 
Q 2078 3009 2322 3009 
Q 2603 3009 2793 2878 
Q 2984 2747 3088 2478 
Q 3338 2759 3567 2884 
Q 3797 3009 4047 3009 
Q 4350 3009 4529 2870 
Q 4709 2731 4779 2517 
Q 4850 2303 4850 1834 
L 4850 638 
Q 4850 300 4911 219 
Q 4972 138 5166 113 
L 5166 0 
L 3656 0 
L 3656 113 
Q 3834 128 3919 250 
Q 3975 334 3975 638 
L 3975 1894 
Q 3975 2284 3944 2390 
Q 3913 2497 3845 2548 
Q 3778 2600 3688 2600 
Q 3553 2600 3415 2501 
Q 3278 2403 3138 2206 
L 3138 638 
Q 3138 322 3191 241 
Q 3263 125 3466 113 
L 3466 0 
L 1953 0 
L 1953 113 
Q 2075 119 2145 173 
Q 2216 228 2239 304 
Q 2263 381 2263 638 
L 2263 1894 
Q 2263 2291 2231 2391 
Q 2200 2491 2126 2547 
Q 2053 2603 1969 2603 
Q 1844 2603 1741 2538 
Q 1594 2441 1428 2206 
L 1428 638 
Q 1428 328 1489 229 
Q 1550 131 1744 113 
L 1744 0 
L 238 0 
L 238 113 
Q 422 131 500 231 
Q 553 300 553 638 
L 553 2288 
Q 553 2619 492 2700 
Q 431 2781 238 2806 
L 238 2922 
L 1428 2922 
z
" transform="scale(0.015625)"/>
      </defs>
      <use xlink:href="#TimesNewRomanPS-BoldMT-52"/>
      <use xlink:href="#TimesNewRomanPS-BoldMT-75" x="72.216797"/>
      <use xlink:href="#TimesNewRomanPS-BoldMT-6e" x="127.832031"/>
      <use xlink:href="#TimesNewRomanPS-BoldMT-74" x="183.447266"/>
      <use xlink:href="#TimesNewRomanPS-BoldMT-69" x="216.748047"/>
      <use xlink:href="#TimesNewRomanPS-BoldMT-6d" x="244.53125"/>
      <use xlink:href="#TimesNewRomanPS-BoldMT-65" x="327.832031"/>
     </g>
    </g>
    <g id="line2d_22">
     <path d="M 269.416051 151.44 
L 279.416051 151.44 
L 289.416051 151.44 
" style="fill: none; stroke: #354f52; stroke-width: 1.5; stroke-linecap: square"/>
     <g>
      <use xlink:href="#m70090013d5" x="279.416051" y="151.44" style="fill: #354f52; stroke: #354f52"/>
     </g>
    </g>
    <g id="text_16">
     <!-- Price -->
     <g transform="translate(297.416051 154.94)scale(0.1 -0.1)">
      <defs>
       <path id="TimesNewRomanPS-BoldMT-50" d="M 1728 1919 
L 1728 744 
Q 1728 400 1770 311 
Q 1813 222 1920 169 
Q 2028 116 2316 116 
L 2316 0 
L 163 0 
L 163 116 
Q 456 116 561 170 
Q 666 225 708 312 
Q 750 400 750 744 
L 750 3494 
Q 750 3838 708 3927 
Q 666 4016 559 4069 
Q 453 4122 163 4122 
L 163 4238 
L 2009 4238 
Q 2922 4238 3319 3913 
Q 3716 3588 3716 3100 
Q 3716 2688 3459 2394 
Q 3203 2100 2753 1994 
Q 2450 1919 1728 1919 
z
M 1728 3994 
L 1728 2163 
Q 1831 2156 1884 2156 
Q 2266 2156 2472 2382 
Q 2678 2609 2678 3084 
Q 2678 3556 2472 3775 
Q 2266 3994 1856 3994 
L 1728 3994 
z
" transform="scale(0.015625)"/>
      </defs>
      <use xlink:href="#TimesNewRomanPS-BoldMT-50"/>
      <use xlink:href="#TimesNewRomanPS-BoldMT-72" x="61.083984"/>
      <use xlink:href="#TimesNewRomanPS-BoldMT-69" x="105.46875"/>
      <use xlink:href="#TimesNewRomanPS-BoldMT-63" x="133.251953"/>
      <use xlink:href="#TimesNewRomanPS-BoldMT-65" x="177.636719"/>
     </g>
    </g>
   </g>
  </g>
  <g id="axes_2">
   <g id="patch_8">
    <path d="M 394.363636 256.32 
L 648 256.32 
L 648 34.56 
L 394.363636 34.56 
z
" style="fill: #ffffff"/>
   </g>
   <g id="matplotlib.axis_3">
    <g id="xtick_7">
     <g id="line2d_23">
      <g>
       <use xlink:href="#m8fbb12ad71" x="405.892562" y="256.32" style="stroke: #000000; stroke-width: 0.8"/>
      </g>
     </g>
     <g id="text_17">
      <!-- 0.0 -->
      <g transform="translate(399.642562 269.941875)scale(0.1 -0.1)">
       <use xlink:href="#TimesNewRomanPS-BoldMT-30"/>
       <use xlink:href="#TimesNewRomanPS-BoldMT-2e" x="50"/>
       <use xlink:href="#TimesNewRomanPS-BoldMT-30" x="75"/>
      </g>
     </g>
    </g>
    <g id="xtick_8">
     <g id="line2d_24">
      <g>
       <use xlink:href="#m8fbb12ad71" x="452.008264" y="256.32" style="stroke: #000000; stroke-width: 0.8"/>
      </g>
     </g>
     <g id="text_18">
      <!-- 0.2 -->
      <g transform="translate(445.758264 269.941875)scale(0.1 -0.1)">
       <use xlink:href="#TimesNewRomanPS-BoldMT-30"/>
       <use xlink:href="#TimesNewRomanPS-BoldMT-2e" x="50"/>
       <use xlink:href="#TimesNewRomanPS-BoldMT-32" x="75"/>
      </g>
     </g>
    </g>
    <g id="xtick_9">
     <g id="line2d_25">
      <g>
       <use xlink:href="#m8fbb12ad71" x="498.123967" y="256.32" style="stroke: #000000; stroke-width: 0.8"/>
      </g>
     </g>
     <g id="text_19">
      <!-- 0.4 -->
      <g transform="translate(491.873967 269.941875)scale(0.1 -0.1)">
       <use xlink:href="#TimesNewRomanPS-BoldMT-30"/>
       <use xlink:href="#TimesNewRomanPS-BoldMT-2e" x="50"/>
       <use xlink:href="#TimesNewRomanPS-BoldMT-34" x="75"/>
      </g>
     </g>
    </g>
    <g id="xtick_10">
     <g id="line2d_26">
      <g>
       <use xlink:href="#m8fbb12ad71" x="544.239669" y="256.32" style="stroke: #000000; stroke-width: 0.8"/>
      </g>
     </g>
     <g id="text_20">
      <!-- 0.6 -->
      <g transform="translate(537.989669 269.941875)scale(0.1 -0.1)">
       <use xlink:href="#TimesNewRomanPS-BoldMT-30"/>
       <use xlink:href="#TimesNewRomanPS-BoldMT-2e" x="50"/>
       <use xlink:href="#TimesNewRomanPS-BoldMT-36" x="75"/>
      </g>
     </g>
    </g>
    <g id="xtick_11">
     <g id="line2d_27">
      <g>
       <use xlink:href="#m8fbb12ad71" x="590.355372" y="256.32" style="stroke: #000000; stroke-width: 0.8"/>
      </g>
     </g>
     <g id="text_21">
      <!-- 0.8 -->
      <g transform="translate(584.105372 269.941875)scale(0.1 -0.1)">
       <use xlink:href="#TimesNewRomanPS-BoldMT-30"/>
       <use xlink:href="#TimesNewRomanPS-BoldMT-2e" x="50"/>
       <use xlink:href="#TimesNewRomanPS-BoldMT-38" x="75"/>
      </g>
     </g>
    </g>
    <g id="xtick_12">
     <g id="line2d_28">
      <g>
       <use xlink:href="#m8fbb12ad71" x="636.471074" y="256.32" style="stroke: #000000; stroke-width: 0.8"/>
      </g>
     </g>
     <g id="text_22">
      <!-- 1.0 -->
      <g transform="translate(630.221074 269.941875)scale(0.1 -0.1)">
       <use xlink:href="#TimesNewRomanPS-BoldMT-31"/>
       <use xlink:href="#TimesNewRomanPS-BoldMT-2e" x="50"/>
       <use xlink:href="#TimesNewRomanPS-BoldMT-30" x="75"/>
      </g>
     </g>
    </g>
    <g id="text_23">
     <!-- Failure rate -->
     <g transform="translate(490.800256 284.027188)scale(0.12 -0.12)">
      <use xlink:href="#TimesNewRomanPS-BoldMT-46"/>
      <use xlink:href="#TimesNewRomanPS-BoldMT-61" x="61.083984"/>
      <use xlink:href="#TimesNewRomanPS-BoldMT-69" x="111.083984"/>
      <use xlink:href="#TimesNewRomanPS-BoldMT-6c" x="138.867188"/>
      <use xlink:href="#TimesNewRomanPS-BoldMT-75" x="166.650391"/>
      <use xlink:href="#TimesNewRomanPS-BoldMT-72" x="222.265625"/>
      <use xlink:href="#TimesNewRomanPS-BoldMT-65" x="264.900391"/>
      <use xlink:href="#TimesNewRomanPS-BoldMT-20" x="309.285156"/>
      <use xlink:href="#TimesNewRomanPS-BoldMT-72" x="334.285156"/>
      <use xlink:href="#TimesNewRomanPS-BoldMT-61" x="378.669922"/>
      <use xlink:href="#TimesNewRomanPS-BoldMT-74" x="428.669922"/>
      <use xlink:href="#TimesNewRomanPS-BoldMT-65" x="461.970703"/>
     </g>
    </g>
   </g>
   <g id="matplotlib.axis_4">
    <g id="ytick_7">
     <g id="line2d_29">
      <path d="M 394.363636 250.124496 
L 648 250.124496 
" clip-path="url(#p3f43696079)" style="fill: none; stroke-dasharray: 2.96,1.28; stroke-dashoffset: 0; stroke: #b0b0b0; stroke-width: 0.8"/>
     </g>
     <g id="line2d_30">
      <g>
       <use xlink:href="#m68d1b9eb32" x="394.363636" y="250.124496" style="stroke: #000000; stroke-width: 0.8"/>
      </g>
     </g>
     <g id="text_24">
      <!-- 0.95 -->
      <g transform="translate(369.863636 253.435433)scale(0.1 -0.1)">
       <defs>
        <path id="TimesNewRomanPS-BoldMT-35" d="M 975 4238 
L 2959 4238 
L 2644 3431 
L 975 3431 
L 816 3009 
Q 1894 2969 2475 2472 
Q 2953 2063 2953 1453 
Q 2953 1063 2731 689 
Q 2509 316 2106 114 
Q 1703 -88 1222 -88 
Q 703 -88 425 106 
Q 231 244 231 419 
Q 231 553 332 656 
Q 434 759 569 759 
Q 691 759 816 709 
Q 941 659 1244 447 
Q 1434 316 1572 266 
Q 1669 228 1791 228 
Q 2047 228 2226 415 
Q 2406 603 2406 866 
Q 2406 1416 1856 1759 
Q 1306 2103 469 2103 
Q 384 2103 216 2100 
L 975 4238 
z
" transform="scale(0.015625)"/>
       </defs>
       <use xlink:href="#TimesNewRomanPS-BoldMT-30"/>
       <use xlink:href="#TimesNewRomanPS-BoldMT-2e" x="50"/>
       <use xlink:href="#TimesNewRomanPS-BoldMT-39" x="75"/>
       <use xlink:href="#TimesNewRomanPS-BoldMT-35" x="125"/>
      </g>
     </g>
    </g>
    <g id="ytick_8">
     <g id="line2d_31">
      <path d="M 394.363636 209.027597 
L 648 209.027597 
" clip-path="url(#p3f43696079)" style="fill: none; stroke-dasharray: 2.96,1.28; stroke-dashoffset: 0; stroke: #b0b0b0; stroke-width: 0.8"/>
     </g>
     <g id="line2d_32">
      <g>
       <use xlink:href="#m68d1b9eb32" x="394.363636" y="209.027597" style="stroke: #000000; stroke-width: 0.8"/>
      </g>
     </g>
     <g id="text_25">
      <!-- 0.96 -->
      <g transform="translate(369.863636 212.338534)scale(0.1 -0.1)">
       <use xlink:href="#TimesNewRomanPS-BoldMT-30"/>
       <use xlink:href="#TimesNewRomanPS-BoldMT-2e" x="50"/>
       <use xlink:href="#TimesNewRomanPS-BoldMT-39" x="75"/>
       <use xlink:href="#TimesNewRomanPS-BoldMT-36" x="125"/>
      </g>
     </g>
    </g>
    <g id="ytick_9">
     <g id="line2d_33">
      <path d="M 394.363636 167.930697 
L 648 167.930697 
" clip-path="url(#p3f43696079)" style="fill: none; stroke-dasharray: 2.96,1.28; stroke-dashoffset: 0; stroke: #b0b0b0; stroke-width: 0.8"/>
     </g>
     <g id="line2d_34">
      <g>
       <use xlink:href="#m68d1b9eb32" x="394.363636" y="167.930697" style="stroke: #000000; stroke-width: 0.8"/>
      </g>
     </g>
     <g id="text_26">
      <!-- 0.97 -->
      <g transform="translate(369.863636 171.241635)scale(0.1 -0.1)">
       <defs>
        <path id="TimesNewRomanPS-BoldMT-37" d="M 1134 -88 
L 2288 3409 
L 1409 3409 
Q 894 3409 634 3275 
Q 453 3181 334 2922 
L 216 2922 
L 522 4238 
L 3047 4238 
L 1625 -88 
L 1134 -88 
z
" transform="scale(0.015625)"/>
       </defs>
       <use xlink:href="#TimesNewRomanPS-BoldMT-30"/>
       <use xlink:href="#TimesNewRomanPS-BoldMT-2e" x="50"/>
       <use xlink:href="#TimesNewRomanPS-BoldMT-39" x="75"/>
       <use xlink:href="#TimesNewRomanPS-BoldMT-37" x="125"/>
      </g>
     </g>
    </g>
    <g id="ytick_10">
     <g id="line2d_35">
      <path d="M 394.363636 126.833798 
L 648 126.833798 
" clip-path="url(#p3f43696079)" style="fill: none; stroke-dasharray: 2.96,1.28; stroke-dashoffset: 0; stroke: #b0b0b0; stroke-width: 0.8"/>
     </g>
     <g id="line2d_36">
      <g>
       <use xlink:href="#m68d1b9eb32" x="394.363636" y="126.833798" style="stroke: #000000; stroke-width: 0.8"/>
      </g>
     </g>
     <g id="text_27">
      <!-- 0.98 -->
      <g transform="translate(369.863636 130.144736)scale(0.1 -0.1)">
       <use xlink:href="#TimesNewRomanPS-BoldMT-30"/>
       <use xlink:href="#TimesNewRomanPS-BoldMT-2e" x="50"/>
       <use xlink:href="#TimesNewRomanPS-BoldMT-39" x="75"/>
       <use xlink:href="#TimesNewRomanPS-BoldMT-38" x="125"/>
      </g>
     </g>
    </g>
    <g id="ytick_11">
     <g id="line2d_37">
      <path d="M 394.363636 85.736899 
L 648 85.736899 
" clip-path="url(#p3f43696079)" style="fill: none; stroke-dasharray: 2.96,1.28; stroke-dashoffset: 0; stroke: #b0b0b0; stroke-width: 0.8"/>
     </g>
     <g id="line2d_38">
      <g>
       <use xlink:href="#m68d1b9eb32" x="394.363636" y="85.736899" style="stroke: #000000; stroke-width: 0.8"/>
      </g>
     </g>
     <g id="text_28">
      <!-- 0.99 -->
      <g transform="translate(369.863636 89.047837)scale(0.1 -0.1)">
       <use xlink:href="#TimesNewRomanPS-BoldMT-30"/>
       <use xlink:href="#TimesNewRomanPS-BoldMT-2e" x="50"/>
       <use xlink:href="#TimesNewRomanPS-BoldMT-39" x="75"/>
       <use xlink:href="#TimesNewRomanPS-BoldMT-39" x="125"/>
      </g>
     </g>
    </g>
    <g id="ytick_12">
     <g id="line2d_39">
      <path d="M 394.363636 44.64 
L 648 44.64 
" clip-path="url(#p3f43696079)" style="fill: none; stroke-dasharray: 2.96,1.28; stroke-dashoffset: 0; stroke: #b0b0b0; stroke-width: 0.8"/>
     </g>
     <g id="line2d_40">
      <g>
       <use xlink:href="#m68d1b9eb32" x="394.363636" y="44.64" style="stroke: #000000; stroke-width: 0.8"/>
      </g>
     </g>
     <g id="text_29">
      <!-- 1.00 -->
      <g transform="translate(369.863636 47.950938)scale(0.1 -0.1)">
       <use xlink:href="#TimesNewRomanPS-BoldMT-31"/>
       <use xlink:href="#TimesNewRomanPS-BoldMT-2e" x="50"/>
       <use xlink:href="#TimesNewRomanPS-BoldMT-30" x="75"/>
       <use xlink:href="#TimesNewRomanPS-BoldMT-30" x="125"/>
      </g>
     </g>
    </g>
   </g>
   <g id="line2d_41">
    <path d="M 405.892562 44.64 
L 452.008264 44.645709 
L 498.123967 44.645709 
L 544.239669 44.645709 
L 590.355372 44.645709 
L 636.471074 44.645709 
" clip-path="url(#p3f43696079)" style="fill: none; stroke: #84a98c; stroke-width: 1.5; stroke-linecap: square"/>
    <g clip-path="url(#p3f43696079)">
     <use xlink:href="#m72221aab90" x="405.892562" y="44.64" style="fill: #84a98c; stroke: #84a98c"/>
     <use xlink:href="#m72221aab90" x="452.008264" y="44.645709" style="fill: #84a98c; stroke: #84a98c"/>
     <use xlink:href="#m72221aab90" x="498.123967" y="44.645709" style="fill: #84a98c; stroke: #84a98c"/>
     <use xlink:href="#m72221aab90" x="544.239669" y="44.645709" style="fill: #84a98c; stroke: #84a98c"/>
     <use xlink:href="#m72221aab90" x="590.355372" y="44.645709" style="fill: #84a98c; stroke: #84a98c"/>
     <use xlink:href="#m72221aab90" x="636.471074" y="44.645709" style="fill: #84a98c; stroke: #84a98c"/>
    </g>
   </g>
   <g id="line2d_42">
    <path d="M 405.892562 246.24 
L 452.008264 44.64 
L 498.123967 44.64 
L 544.239669 44.64 
L 590.355372 44.64 
L 636.471074 44.64 
" clip-path="url(#p3f43696079)" style="fill: none; stroke: #354f52; stroke-width: 1.5; stroke-linecap: square"/>
    <g clip-path="url(#p3f43696079)">
     <use xlink:href="#m70090013d5" x="405.892562" y="246.24" style="fill: #354f52; stroke: #354f52"/>
     <use xlink:href="#m70090013d5" x="452.008264" y="44.64" style="fill: #354f52; stroke: #354f52"/>
     <use xlink:href="#m70090013d5" x="498.123967" y="44.64" style="fill: #354f52; stroke: #354f52"/>
     <use xlink:href="#m70090013d5" x="544.239669" y="44.64" style="fill: #354f52; stroke: #354f52"/>
     <use xlink:href="#m70090013d5" x="590.355372" y="44.64" style="fill: #354f52; stroke: #354f52"/>
     <use xlink:href="#m70090013d5" x="636.471074" y="44.64" style="fill: #354f52; stroke: #354f52"/>
    </g>
   </g>
   <g id="patch_9">
    <path d="M 394.363636 256.32 
L 394.363636 34.56 
" style="fill: none; stroke: #000000; stroke-width: 0.8; stroke-linejoin: miter; stroke-linecap: square"/>
   </g>
   <g id="patch_10">
    <path d="M 648 256.32 
L 648 34.56 
" style="fill: none; stroke: #000000; stroke-width: 0.8; stroke-linejoin: miter; stroke-linecap: square"/>
   </g>
   <g id="patch_11">
    <path d="M 394.363636 256.32 
L 648 256.32 
" style="fill: none; stroke: #000000; stroke-width: 0.8; stroke-linejoin: miter; stroke-linecap: square"/>
   </g>
   <g id="patch_12">
    <path d="M 394.363636 34.56 
L 648 34.56 
" style="fill: none; stroke: #000000; stroke-width: 0.8; stroke-linejoin: miter; stroke-linecap: square"/>
   </g>
   <g id="text_30">
    <!-- For fastest -->
    <g transform="translate(494.131193 28.56)scale(0.12 -0.12)">
     <defs>
      <path id="TimesNewRomanPS-BoldMT-66" d="M 1497 2616 
L 1497 588 
Q 1497 294 1559 219 
Q 1659 103 1928 113 
L 1928 0 
L 206 0 
L 206 113 
Q 403 116 486 158 
Q 569 200 600 275 
Q 631 350 631 588 
L 631 2616 
L 206 2616 
L 206 2922 
L 631 2922 
L 631 3138 
L 628 3284 
Q 628 3734 958 4034 
Q 1288 4334 1850 4334 
Q 2234 4334 2420 4190 
Q 2606 4047 2606 3872 
Q 2606 3731 2490 3628 
Q 2375 3525 2184 3525 
Q 2022 3525 1926 3609 
Q 1831 3694 1831 3797 
Q 1831 3825 1850 3913 
Q 1863 3966 1863 4013 
Q 1863 4078 1825 4109 
Q 1775 4156 1703 4156 
Q 1613 4156 1552 4081 
Q 1491 4006 1491 3841 
L 1497 3294 
L 1497 2922 
L 1928 2922 
L 1928 2616 
L 1497 2616 
z
" transform="scale(0.015625)"/>
     </defs>
     <use xlink:href="#TimesNewRomanPS-BoldMT-46"/>
     <use xlink:href="#TimesNewRomanPS-BoldMT-6f" x="61.083984"/>
     <use xlink:href="#TimesNewRomanPS-BoldMT-72" x="111.083984"/>
     <use xlink:href="#TimesNewRomanPS-BoldMT-20" x="153.71875"/>
     <use xlink:href="#TimesNewRomanPS-BoldMT-66" x="178.71875"/>
     <use xlink:href="#TimesNewRomanPS-BoldMT-61" x="212.019531"/>
     <use xlink:href="#TimesNewRomanPS-BoldMT-73" x="262.019531"/>
     <use xlink:href="#TimesNewRomanPS-BoldMT-74" x="300.935547"/>
     <use xlink:href="#TimesNewRomanPS-BoldMT-65" x="334.236328"/>
     <use xlink:href="#TimesNewRomanPS-BoldMT-73" x="378.621094"/>
     <use xlink:href="#TimesNewRomanPS-BoldMT-74" x="417.537109"/>
    </g>
   </g>
   <g id="legend_2">
    <g id="patch_13">
     <path d="M 571.779687 251.32 
L 641 251.32 
Q 643 251.32 643 249.32 
L 643 222.041875 
Q 643 220.041875 641 220.041875 
L 571.779687 220.041875 
Q 569.779687 220.041875 569.779687 222.041875 
L 569.779687 249.32 
Q 569.779687 251.32 571.779687 251.32 
z
" style="fill: #ffffff; opacity: 0.8; stroke: #cccccc; stroke-linejoin: miter"/>
    </g>
    <g id="line2d_43">
     <path d="M 573.779687 227.541875 
L 583.779687 227.541875 
L 593.779687 227.541875 
" style="fill: none; stroke: #84a98c; stroke-width: 1.5; stroke-linecap: square"/>
     <g>
      <use xlink:href="#m72221aab90" x="583.779687" y="227.541875" style="fill: #84a98c; stroke: #84a98c"/>
     </g>
    </g>
    <g id="text_31">
     <!-- Runtime -->
     <g transform="translate(601.779687 231.041875)scale(0.1 -0.1)">
      <use xlink:href="#TimesNewRomanPS-BoldMT-52"/>
      <use xlink:href="#TimesNewRomanPS-BoldMT-75" x="72.216797"/>
      <use xlink:href="#TimesNewRomanPS-BoldMT-6e" x="127.832031"/>
      <use xlink:href="#TimesNewRomanPS-BoldMT-74" x="183.447266"/>
      <use xlink:href="#TimesNewRomanPS-BoldMT-69" x="216.748047"/>
      <use xlink:href="#TimesNewRomanPS-BoldMT-6d" x="244.53125"/>
      <use xlink:href="#TimesNewRomanPS-BoldMT-65" x="327.832031"/>
     </g>
    </g>
    <g id="line2d_44">
     <path d="M 573.779687 241.680937 
L 583.779687 241.680937 
L 593.779687 241.680937 
" style="fill: none; stroke: #354f52; stroke-width: 1.5; stroke-linecap: square"/>
     <g>
      <use xlink:href="#m70090013d5" x="583.779687" y="241.680937" style="fill: #354f52; stroke: #354f52"/>
     </g>
    </g>
    <g id="text_32">
     <!-- Price -->
     <g transform="translate(601.779687 245.180937)scale(0.1 -0.1)">
      <use xlink:href="#TimesNewRomanPS-BoldMT-50"/>
      <use xlink:href="#TimesNewRomanPS-BoldMT-72" x="61.083984"/>
      <use xlink:href="#TimesNewRomanPS-BoldMT-69" x="105.46875"/>
      <use xlink:href="#TimesNewRomanPS-BoldMT-63" x="133.251953"/>
      <use xlink:href="#TimesNewRomanPS-BoldMT-65" x="177.636719"/>
     </g>
    </g>
   </g>
  </g>
  <g id="text_33">
   <!-- incubator-dubbo_dubbo-rpc.dubbo-rpc-dubbo -->
   <g transform="translate(249.647812 14.0925)scale(0.12 -0.12)">
    <defs>
     <path id="TimesNewRomanPSMT-69" d="M 928 4444 
Q 1059 4444 1151 4351 
Q 1244 4259 1244 4128 
Q 1244 3997 1151 3903 
Q 1059 3809 928 3809 
Q 797 3809 703 3903 
Q 609 3997 609 4128 
Q 609 4259 701 4351 
Q 794 4444 928 4444 
z
M 1188 2947 
L 1188 647 
Q 1188 378 1227 289 
Q 1266 200 1342 156 
Q 1419 113 1622 113 
L 1622 0 
L 231 0 
L 231 113 
Q 441 113 512 153 
Q 584 194 626 287 
Q 669 381 669 647 
L 669 1750 
Q 669 2216 641 2353 
Q 619 2453 572 2492 
Q 525 2531 444 2531 
Q 356 2531 231 2484 
L 188 2597 
L 1050 2947 
L 1188 2947 
z
" transform="scale(0.015625)"/>
     <path id="TimesNewRomanPSMT-6e" d="M 1034 2341 
Q 1538 2947 1994 2947 
Q 2228 2947 2397 2830 
Q 2566 2713 2666 2444 
Q 2734 2256 2734 1869 
L 2734 647 
Q 2734 375 2778 278 
Q 2813 200 2889 156 
Q 2966 113 3172 113 
L 3172 0 
L 1756 0 
L 1756 113 
L 1816 113 
Q 2016 113 2095 173 
Q 2175 234 2206 353 
Q 2219 400 2219 647 
L 2219 1819 
Q 2219 2209 2117 2386 
Q 2016 2563 1775 2563 
Q 1403 2563 1034 2156 
L 1034 647 
Q 1034 356 1069 288 
Q 1113 197 1189 155 
Q 1266 113 1500 113 
L 1500 0 
L 84 0 
L 84 113 
L 147 113 
Q 366 113 442 223 
Q 519 334 519 647 
L 519 1709 
Q 519 2225 495 2337 
Q 472 2450 423 2490 
Q 375 2531 294 2531 
Q 206 2531 84 2484 
L 38 2597 
L 900 2947 
L 1034 2947 
L 1034 2341 
z
" transform="scale(0.015625)"/>
     <path id="TimesNewRomanPSMT-63" d="M 2631 1088 
Q 2516 522 2178 217 
Q 1841 -88 1431 -88 
Q 944 -88 581 321 
Q 219 731 219 1428 
Q 219 2103 620 2525 
Q 1022 2947 1584 2947 
Q 2006 2947 2278 2723 
Q 2550 2500 2550 2259 
Q 2550 2141 2473 2067 
Q 2397 1994 2259 1994 
Q 2075 1994 1981 2113 
Q 1928 2178 1911 2362 
Q 1894 2547 1784 2644 
Q 1675 2738 1481 2738 
Q 1169 2738 978 2506 
Q 725 2200 725 1697 
Q 725 1184 976 792 
Q 1228 400 1656 400 
Q 1963 400 2206 609 
Q 2378 753 2541 1131 
L 2631 1088 
z
" transform="scale(0.015625)"/>
     <path id="TimesNewRomanPSMT-75" d="M 2709 2863 
L 2709 1128 
Q 2709 631 2732 520 
Q 2756 409 2807 365 
Q 2859 322 2928 322 
Q 3025 322 3147 375 
L 3191 266 
L 2334 -88 
L 2194 -88 
L 2194 519 
Q 1825 119 1631 15 
Q 1438 -88 1222 -88 
Q 981 -88 804 51 
Q 628 191 559 409 
Q 491 628 491 1028 
L 491 2306 
Q 491 2509 447 2587 
Q 403 2666 317 2708 
Q 231 2750 6 2747 
L 6 2863 
L 1009 2863 
L 1009 947 
Q 1009 547 1148 422 
Q 1288 297 1484 297 
Q 1619 297 1789 381 
Q 1959 466 2194 703 
L 2194 2325 
Q 2194 2569 2105 2655 
Q 2016 2741 1734 2747 
L 1734 2863 
L 2709 2863 
z
" transform="scale(0.015625)"/>
     <path id="TimesNewRomanPSMT-62" d="M 984 2369 
Q 1400 2947 1881 2947 
Q 2322 2947 2650 2570 
Q 2978 2194 2978 1541 
Q 2978 778 2472 313 
Q 2038 -88 1503 -88 
Q 1253 -88 995 3 
Q 738 94 469 275 
L 469 3241 
Q 469 3728 445 3840 
Q 422 3953 372 3993 
Q 322 4034 247 4034 
Q 159 4034 28 3984 
L -16 4094 
L 844 4444 
L 984 4444 
L 984 2369 
z
M 984 2169 
L 984 456 
Q 1144 300 1314 220 
Q 1484 141 1663 141 
Q 1947 141 2192 453 
Q 2438 766 2438 1363 
Q 2438 1913 2192 2208 
Q 1947 2503 1634 2503 
Q 1469 2503 1303 2419 
Q 1178 2356 984 2169 
z
" transform="scale(0.015625)"/>
     <path id="TimesNewRomanPSMT-61" d="M 1822 413 
Q 1381 72 1269 19 
Q 1100 -59 909 -59 
Q 613 -59 420 144 
Q 228 347 228 678 
Q 228 888 322 1041 
Q 450 1253 767 1440 
Q 1084 1628 1822 1897 
L 1822 2009 
Q 1822 2438 1686 2597 
Q 1550 2756 1291 2756 
Q 1094 2756 978 2650 
Q 859 2544 859 2406 
L 866 2225 
Q 866 2081 792 2003 
Q 719 1925 600 1925 
Q 484 1925 411 2006 
Q 338 2088 338 2228 
Q 338 2497 613 2722 
Q 888 2947 1384 2947 
Q 1766 2947 2009 2819 
Q 2194 2722 2281 2516 
Q 2338 2381 2338 1966 
L 2338 994 
Q 2338 584 2353 492 
Q 2369 400 2405 369 
Q 2441 338 2488 338 
Q 2538 338 2575 359 
Q 2641 400 2828 588 
L 2828 413 
Q 2478 -56 2159 -56 
Q 2006 -56 1915 50 
Q 1825 156 1822 413 
z
M 1822 616 
L 1822 1706 
Q 1350 1519 1213 1441 
Q 966 1303 859 1153 
Q 753 1003 753 825 
Q 753 600 887 451 
Q 1022 303 1197 303 
Q 1434 303 1822 616 
z
" transform="scale(0.015625)"/>
     <path id="TimesNewRomanPSMT-74" d="M 1031 3803 
L 1031 2863 
L 1700 2863 
L 1700 2644 
L 1031 2644 
L 1031 788 
Q 1031 509 1111 412 
Q 1191 316 1316 316 
Q 1419 316 1516 380 
Q 1613 444 1666 569 
L 1788 569 
Q 1678 263 1478 108 
Q 1278 -47 1066 -47 
Q 922 -47 784 33 
Q 647 113 581 261 
Q 516 409 516 719 
L 516 2644 
L 63 2644 
L 63 2747 
Q 234 2816 414 2980 
Q 594 3144 734 3369 
Q 806 3488 934 3803 
L 1031 3803 
z
" transform="scale(0.015625)"/>
     <path id="TimesNewRomanPSMT-6f" d="M 1600 2947 
Q 2250 2947 2644 2453 
Q 2978 2031 2978 1484 
Q 2978 1100 2793 706 
Q 2609 313 2286 112 
Q 1963 -88 1566 -88 
Q 919 -88 538 428 
Q 216 863 216 1403 
Q 216 1797 411 2186 
Q 606 2575 925 2761 
Q 1244 2947 1600 2947 
z
M 1503 2744 
Q 1338 2744 1170 2645 
Q 1003 2547 900 2300 
Q 797 2053 797 1666 
Q 797 1041 1045 587 
Q 1294 134 1700 134 
Q 2003 134 2200 384 
Q 2397 634 2397 1244 
Q 2397 2006 2069 2444 
Q 1847 2744 1503 2744 
z
" transform="scale(0.015625)"/>
     <path id="TimesNewRomanPSMT-72" d="M 1038 2947 
L 1038 2303 
Q 1397 2947 1775 2947 
Q 1947 2947 2059 2842 
Q 2172 2738 2172 2600 
Q 2172 2478 2090 2393 
Q 2009 2309 1897 2309 
Q 1788 2309 1652 2417 
Q 1516 2525 1450 2525 
Q 1394 2525 1328 2463 
Q 1188 2334 1038 2041 
L 1038 669 
Q 1038 431 1097 309 
Q 1138 225 1241 169 
Q 1344 113 1538 113 
L 1538 0 
L 72 0 
L 72 113 
Q 291 113 397 181 
Q 475 231 506 341 
Q 522 394 522 644 
L 522 1753 
Q 522 2253 501 2348 
Q 481 2444 426 2487 
Q 372 2531 291 2531 
Q 194 2531 72 2484 
L 41 2597 
L 906 2947 
L 1038 2947 
z
" transform="scale(0.015625)"/>
     <path id="TimesNewRomanPSMT-2d" d="M 259 1672 
L 1875 1672 
L 1875 1200 
L 259 1200 
L 259 1672 
z
" transform="scale(0.015625)"/>
     <path id="TimesNewRomanPSMT-64" d="M 2222 322 
Q 2013 103 1813 7 
Q 1613 -88 1381 -88 
Q 913 -88 563 304 
Q 213 697 213 1313 
Q 213 1928 600 2439 
Q 988 2950 1597 2950 
Q 1975 2950 2222 2709 
L 2222 3238 
Q 2222 3728 2198 3840 
Q 2175 3953 2125 3993 
Q 2075 4034 2000 4034 
Q 1919 4034 1784 3984 
L 1744 4094 
L 2597 4444 
L 2738 4444 
L 2738 1134 
Q 2738 631 2761 520 
Q 2784 409 2836 365 
Q 2888 322 2956 322 
Q 3041 322 3181 375 
L 3216 266 
L 2366 -88 
L 2222 -88 
L 2222 322 
z
M 2222 541 
L 2222 2016 
Q 2203 2228 2109 2403 
Q 2016 2578 1861 2667 
Q 1706 2756 1559 2756 
Q 1284 2756 1069 2509 
Q 784 2184 784 1559 
Q 784 928 1059 592 
Q 1334 256 1672 256 
Q 1956 256 2222 541 
z
" transform="scale(0.015625)"/>
     <path id="TimesNewRomanPSMT-5f" d="M 3256 -1381 
L -53 -1381 
L -53 -1119 
L 3256 -1119 
L 3256 -1381 
z
" transform="scale(0.015625)"/>
     <path id="TimesNewRomanPSMT-70" d="M -6 2578 
L 875 2934 
L 994 2934 
L 994 2266 
Q 1216 2644 1439 2795 
Q 1663 2947 1909 2947 
Q 2341 2947 2628 2609 
Q 2981 2197 2981 1534 
Q 2981 794 2556 309 
Q 2206 -88 1675 -88 
Q 1444 -88 1275 -22 
Q 1150 25 994 166 
L 994 -706 
Q 994 -1000 1030 -1079 
Q 1066 -1159 1155 -1206 
Q 1244 -1253 1478 -1253 
L 1478 -1369 
L -22 -1369 
L -22 -1253 
L 56 -1253 
Q 228 -1256 350 -1188 
Q 409 -1153 442 -1076 
Q 475 -1000 475 -688 
L 475 2019 
Q 475 2297 450 2372 
Q 425 2447 370 2484 
Q 316 2522 222 2522 
Q 147 2522 31 2478 
L -6 2578 
z
M 994 2081 
L 994 1013 
Q 994 666 1022 556 
Q 1066 375 1236 237 
Q 1406 100 1666 100 
Q 1978 100 2172 344 
Q 2425 663 2425 1241 
Q 2425 1897 2138 2250 
Q 1938 2494 1663 2494 
Q 1513 2494 1366 2419 
Q 1253 2363 994 2081 
z
" transform="scale(0.015625)"/>
     <path id="TimesNewRomanPSMT-2e" d="M 800 606 
Q 947 606 1047 504 
Q 1147 403 1147 259 
Q 1147 116 1045 14 
Q 944 -88 800 -88 
Q 656 -88 554 14 
Q 453 116 453 259 
Q 453 406 554 506 
Q 656 606 800 606 
z
" transform="scale(0.015625)"/>
    </defs>
    <use xlink:href="#TimesNewRomanPSMT-69"/>
    <use xlink:href="#TimesNewRomanPSMT-6e" x="27.783203"/>
    <use xlink:href="#TimesNewRomanPSMT-63" x="77.783203"/>
    <use xlink:href="#TimesNewRomanPSMT-75" x="122.167969"/>
    <use xlink:href="#TimesNewRomanPSMT-62" x="172.167969"/>
    <use xlink:href="#TimesNewRomanPSMT-61" x="222.167969"/>
    <use xlink:href="#TimesNewRomanPSMT-74" x="266.552734"/>
    <use xlink:href="#TimesNewRomanPSMT-6f" x="294.335938"/>
    <use xlink:href="#TimesNewRomanPSMT-72" x="344.335938"/>
    <use xlink:href="#TimesNewRomanPSMT-2d" x="375.636719"/>
    <use xlink:href="#TimesNewRomanPSMT-64" x="408.9375"/>
    <use xlink:href="#TimesNewRomanPSMT-75" x="458.9375"/>
    <use xlink:href="#TimesNewRomanPSMT-62" x="508.9375"/>
    <use xlink:href="#TimesNewRomanPSMT-62" x="558.9375"/>
    <use xlink:href="#TimesNewRomanPSMT-6f" x="608.9375"/>
    <use xlink:href="#TimesNewRomanPSMT-5f" x="658.9375"/>
    <use xlink:href="#TimesNewRomanPSMT-64" x="708.9375"/>
    <use xlink:href="#TimesNewRomanPSMT-75" x="758.9375"/>
    <use xlink:href="#TimesNewRomanPSMT-62" x="808.9375"/>
    <use xlink:href="#TimesNewRomanPSMT-62" x="858.9375"/>
    <use xlink:href="#TimesNewRomanPSMT-6f" x="908.9375"/>
    <use xlink:href="#TimesNewRomanPSMT-2d" x="958.9375"/>
    <use xlink:href="#TimesNewRomanPSMT-72" x="992.238281"/>
    <use xlink:href="#TimesNewRomanPSMT-70" x="1025.539062"/>
    <use xlink:href="#TimesNewRomanPSMT-63" x="1075.539062"/>
    <use xlink:href="#TimesNewRomanPSMT-2e" x="1119.923828"/>
    <use xlink:href="#TimesNewRomanPSMT-64" x="1144.923828"/>
    <use xlink:href="#TimesNewRomanPSMT-75" x="1194.923828"/>
    <use xlink:href="#TimesNewRomanPSMT-62" x="1244.923828"/>
    <use xlink:href="#TimesNewRomanPSMT-62" x="1294.923828"/>
    <use xlink:href="#TimesNewRomanPSMT-6f" x="1344.923828"/>
    <use xlink:href="#TimesNewRomanPSMT-2d" x="1394.923828"/>
    <use xlink:href="#TimesNewRomanPSMT-72" x="1428.224609"/>
    <use xlink:href="#TimesNewRomanPSMT-70" x="1461.525391"/>
    <use xlink:href="#TimesNewRomanPSMT-63" x="1511.525391"/>
    <use xlink:href="#TimesNewRomanPSMT-2d" x="1555.910156"/>
    <use xlink:href="#TimesNewRomanPSMT-64" x="1589.210938"/>
    <use xlink:href="#TimesNewRomanPSMT-75" x="1639.210938"/>
    <use xlink:href="#TimesNewRomanPSMT-62" x="1689.210938"/>
    <use xlink:href="#TimesNewRomanPSMT-62" x="1739.210938"/>
    <use xlink:href="#TimesNewRomanPSMT-6f" x="1789.210938"/>
   </g>
  </g>
 </g>
 <defs>
  <clipPath id="pef5577f227">
   <rect x="90" y="34.56" width="253.636364" height="221.76"/>
  </clipPath>
  <clipPath id="p3f43696079">
   <rect x="394.363636" y="34.56" width="253.636364" height="221.76"/>
  </clipPath>
 </defs>
</svg>
