<?xml version="1.0" encoding="utf-8" standalone="no"?>
<!DOCTYPE svg PUBLIC "-//W3C//DTD SVG 1.1//EN"
  "http://www.w3.org/Graphics/SVG/1.1/DTD/svg11.dtd">
<svg xmlns:xlink="http://www.w3.org/1999/xlink" width="460.8pt" height="345.6pt" viewBox="0 0 460.8 345.6" xmlns="http://www.w3.org/2000/svg" version="1.1">
 <metadata>
  <rdf:RDF xmlns:dc="http://purl.org/dc/elements/1.1/" xmlns:cc="http://creativecommons.org/ns#" xmlns:rdf="http://www.w3.org/1999/02/22-rdf-syntax-ns#">
   <cc:Work>
    <dc:type rdf:resource="http://purl.org/dc/dcmitype/StillImage"/>
    <dc:date>2023-09-18T23:47:50.444607</dc:date>
    <dc:format>image/svg+xml</dc:format>
    <dc:creator>
     <cc:Agent>
      <dc:title>Matplotlib v3.5.2, https://matplotlib.org/</dc:title>
     </cc:Agent>
    </dc:creator>
   </cc:Work>
  </rdf:RDF>
 </metadata>
 <defs>
  <style type="text/css">*{stroke-linejoin: round; stroke-linecap: butt}</style>
 </defs>
 <g id="figure_1">
  <g id="patch_1">
   <path d="M 0 345.6 
L 460.8 345.6 
L 460.8 0 
L 0 0 
z
" style="fill: #ffffff"/>
  </g>
  <g id="axes_1">
   <g id="patch_2">
    <path d="M 57.6 147.9168 
L 200.448 147.9168 
L 200.448 41.472 
L 57.6 41.472 
z
" style="fill: #ffffff"/>
   </g>
   <g id="matplotlib.axis_1">
    <g id="xtick_1">
     <g id="line2d_1">
      <defs>
       <path id="mc63fd6cd77" d="M 0 0 
L 0 3.5 
" style="stroke: #000000; stroke-width: 0.8"/>
      </defs>
      <g>
       <use xlink:href="#mc63fd6cd77" x="64.093091" y="147.9168" style="stroke: #000000; stroke-width: 0.8"/>
      </g>
     </g>
     <g id="text_1">
      <!-- 0.0 -->
      <g transform="translate(57.025122 162.91055)scale(0.1 -0.1)">
       <defs>
        <path id="MicrosoftYaHei-30" d="M 284 2325 
Q 284 3606 709 4264 
Q 1134 4922 1941 4922 
Q 3478 4922 3478 2441 
Q 3478 1216 3045 567 
Q 2613 -81 1831 -81 
Q 1094 -81 689 534 
Q 284 1150 284 2325 
z
M 909 2353 
Q 909 425 1888 425 
Q 2850 425 2850 2384 
Q 2850 4413 1906 4413 
Q 909 4413 909 2353 
z
" transform="scale(0.015625)"/>
        <path id="MicrosoftYaHei-2e" d="M 372 322 
Q 372 491 487 606 
Q 603 722 775 722 
Q 950 722 1065 605 
Q 1181 488 1181 322 
Q 1181 159 1065 42 
Q 950 -75 772 -75 
Q 600 -75 486 42 
Q 372 159 372 322 
z
" transform="scale(0.015625)"/>
       </defs>
       <use xlink:href="#MicrosoftYaHei-30"/>
       <use xlink:href="#MicrosoftYaHei-2e" x="58.642578"/>
       <use xlink:href="#MicrosoftYaHei-30" x="82.714844"/>
      </g>
     </g>
    </g>
    <g id="xtick_2">
     <g id="line2d_2">
      <g>
       <use xlink:href="#mc63fd6cd77" x="129.024" y="147.9168" style="stroke: #000000; stroke-width: 0.8"/>
      </g>
     </g>
     <g id="text_2">
      <!-- 0.5 -->
      <g transform="translate(121.956031 162.91055)scale(0.1 -0.1)">
       <defs>
        <path id="MicrosoftYaHei-35" d="M 3294 1494 
Q 3294 784 2823 350 
Q 2353 -84 1559 -84 
Q 878 -84 544 119 
L 544 744 
Q 1034 425 1544 425 
Q 2050 425 2361 704 
Q 2672 984 2672 1447 
Q 2672 1909 2348 2167 
Q 2025 2425 1434 2425 
Q 978 2425 613 2384 
L 791 4841 
L 3053 4841 
L 3053 4303 
L 1306 4303 
L 1206 2931 
L 1647 2950 
Q 2416 2950 2855 2567 
Q 3294 2184 3294 1494 
z
" transform="scale(0.015625)"/>
       </defs>
       <use xlink:href="#MicrosoftYaHei-30"/>
       <use xlink:href="#MicrosoftYaHei-2e" x="58.642578"/>
       <use xlink:href="#MicrosoftYaHei-35" x="82.714844"/>
      </g>
     </g>
    </g>
    <g id="xtick_3">
     <g id="line2d_3">
      <g>
       <use xlink:href="#mc63fd6cd77" x="193.954909" y="147.9168" style="stroke: #000000; stroke-width: 0.8"/>
      </g>
     </g>
     <g id="text_3">
      <!-- 1.0 -->
      <g transform="translate(186.88694 162.91055)scale(0.1 -0.1)">
       <defs>
        <path id="MicrosoftYaHei-31" d="M 1781 0 
L 1781 4141 
Q 1638 3997 1295 3819 
Q 953 3641 663 3569 
L 663 4169 
Q 1047 4275 1484 4508 
Q 1922 4741 2156 4947 
L 2388 4947 
L 2388 0 
L 1781 0 
z
" transform="scale(0.015625)"/>
       </defs>
       <use xlink:href="#MicrosoftYaHei-31"/>
       <use xlink:href="#MicrosoftYaHei-2e" x="58.642578"/>
       <use xlink:href="#MicrosoftYaHei-30" x="82.714844"/>
      </g>
     </g>
    </g>
    <g id="text_4">
     <!-- Failure rate -->
     <g transform="translate(102.575563 177.390237)scale(0.1 -0.1)">
      <defs>
       <path id="MicrosoftYaHei-46" d="M 3119 4284 
L 1250 4284 
L 1250 2666 
L 2981 2666 
L 2981 2116 
L 1250 2116 
L 1250 0 
L 625 0 
L 625 4841 
L 3119 4841 
L 3119 4284 
z
" transform="scale(0.015625)"/>
       <path id="MicrosoftYaHei-61" d="M 628 3216 
Q 1144 3538 1819 3538 
Q 3069 3538 3069 2225 
L 3069 0 
L 2463 0 
L 2463 534 
L 2447 534 
Q 2088 -81 1388 -81 
Q 884 -81 587 191 
Q 291 463 291 925 
Q 291 1894 1438 2053 
L 2463 2197 
Q 2463 3044 1763 3044 
Q 1141 3044 628 2625 
L 628 3216 
z
M 1653 1625 
Q 1228 1569 1067 1412 
Q 906 1256 906 975 
Q 906 728 1081 572 
Q 1256 416 1544 416 
Q 1944 416 2203 697 
Q 2463 978 2463 1403 
L 2463 1734 
L 1653 1625 
z
" transform="scale(0.015625)"/>
       <path id="MicrosoftYaHei-69" d="M 472 4675 
Q 472 4838 583 4948 
Q 694 5059 856 5059 
Q 1022 5059 1136 4950 
Q 1250 4841 1250 4675 
Q 1250 4513 1136 4405 
Q 1022 4297 856 4297 
Q 691 4297 581 4405 
Q 472 4513 472 4675 
z
M 544 0 
L 544 3456 
L 1156 3456 
L 1156 0 
L 544 0 
z
" transform="scale(0.015625)"/>
       <path id="MicrosoftYaHei-6c" d="M 544 0 
L 544 5116 
L 1156 5116 
L 1156 0 
L 544 0 
z
" transform="scale(0.015625)"/>
       <path id="MicrosoftYaHei-75" d="M 3400 0 
L 2784 0 
L 2784 544 
L 2772 544 
Q 2425 -81 1706 -81 
Q 478 -81 478 1388 
L 478 3456 
L 1084 3456 
L 1084 1478 
Q 1084 425 1891 425 
Q 2291 425 2537 720 
Q 2784 1016 2784 1466 
L 2784 3456 
L 3400 3456 
L 3400 0 
z
" transform="scale(0.015625)"/>
       <path id="MicrosoftYaHei-72" d="M 2400 2850 
Q 2247 2959 1978 2959 
Q 1622 2959 1390 2626 
Q 1159 2294 1159 1750 
L 1159 0 
L 547 0 
L 547 3456 
L 1159 3456 
L 1159 2753 
L 1172 2753 
Q 1434 3516 2078 3516 
Q 2288 3516 2400 3469 
L 2400 2850 
z
" transform="scale(0.015625)"/>
       <path id="MicrosoftYaHei-65" d="M 3363 1572 
L 944 1572 
Q 959 1019 1246 717 
Q 1534 416 2050 416 
Q 2631 416 3116 788 
L 3116 241 
Q 2659 -81 1906 -81 
Q 1156 -81 736 394 
Q 316 869 316 1713 
Q 316 2506 777 3022 
Q 1238 3538 1922 3538 
Q 2600 3538 2981 3102 
Q 3363 2666 3363 1881 
L 3363 1572 
z
M 2750 2063 
Q 2747 2531 2528 2787 
Q 2309 3044 1913 3044 
Q 1547 3044 1280 2772 
Q 1013 2500 944 2063 
L 2750 2063 
z
" transform="scale(0.015625)"/>
       <path id="MicrosoftYaHei-20" transform="scale(0.015625)"/>
       <path id="MicrosoftYaHei-74" d="M 2206 34 
Q 2006 -75 1666 -75 
Q 738 -75 738 953 
L 738 2950 
L 144 2950 
L 144 3456 
L 738 3456 
L 738 4288 
L 1347 4481 
L 1347 3456 
L 2206 3456 
L 2206 2950 
L 1347 2950 
L 1347 1063 
Q 1347 722 1462 575 
Q 1578 428 1847 428 
Q 2053 428 2206 544 
L 2206 34 
z
" transform="scale(0.015625)"/>
      </defs>
      <use xlink:href="#MicrosoftYaHei-46"/>
      <use xlink:href="#MicrosoftYaHei-61" x="49.125"/>
      <use xlink:href="#MicrosoftYaHei-69" x="104.398438"/>
      <use xlink:href="#MicrosoftYaHei-6c" x="131.009766"/>
      <use xlink:href="#MicrosoftYaHei-75" x="157.621094"/>
      <use xlink:href="#MicrosoftYaHei-72" x="219.242188"/>
      <use xlink:href="#MicrosoftYaHei-65" x="256.050781"/>
      <use xlink:href="#MicrosoftYaHei-20" x="312.789062"/>
      <use xlink:href="#MicrosoftYaHei-72" x="342.378906"/>
      <use xlink:href="#MicrosoftYaHei-61" x="380.5625"/>
      <use xlink:href="#MicrosoftYaHei-74" x="435.835938"/>
      <use xlink:href="#MicrosoftYaHei-65" x="472.216797"/>
     </g>
    </g>
   </g>
   <g id="matplotlib.axis_2">
    <g id="ytick_1">
     <g id="line2d_4">
      <defs>
       <path id="m7956b72aef" d="M 0 0 
L -3.5 0 
" style="stroke: #000000; stroke-width: 0.8"/>
      </defs>
      <g>
       <use xlink:href="#m7956b72aef" x="57.6" y="122.516664" style="stroke: #000000; stroke-width: 0.8"/>
      </g>
     </g>
     <g id="text_5">
      <!-- 0.925 -->
      <g transform="translate(24.735937 126.513539)scale(0.1 -0.1)">
       <defs>
        <path id="MicrosoftYaHei-39" d="M 578 656 
Q 978 425 1441 425 
Q 2091 425 2448 937 
Q 2806 1450 2806 2394 
Q 2800 2388 2794 2394 
Q 2475 1788 1722 1788 
Q 1113 1788 713 2206 
Q 313 2625 313 3294 
Q 313 4006 750 4464 
Q 1188 4922 1884 4922 
Q 2606 4922 3012 4355 
Q 3419 3788 3419 2703 
Q 3419 1363 2894 641 
Q 2369 -81 1441 -81 
Q 931 -81 578 84 
L 578 656 
z
M 931 3372 
Q 931 2884 1181 2598 
Q 1431 2313 1872 2313 
Q 2253 2313 2512 2573 
Q 2772 2834 2772 3206 
Q 2772 3728 2514 4070 
Q 2256 4413 1834 4413 
Q 1444 4413 1187 4116 
Q 931 3819 931 3372 
z
" transform="scale(0.015625)"/>
        <path id="MicrosoftYaHei-32" d="M 2666 3572 
Q 2666 3963 2419 4186 
Q 2172 4409 1747 4409 
Q 1447 4409 1140 4256 
Q 834 4103 569 3819 
L 569 4413 
Q 806 4659 1107 4790 
Q 1409 4922 1816 4922 
Q 2472 4922 2872 4570 
Q 3272 4219 3272 3619 
Q 3272 3084 3026 2693 
Q 2781 2303 2188 1894 
Q 1581 1475 1376 1294 
Q 1172 1113 1090 947 
Q 1009 781 1009 544 
L 3416 544 
L 3416 0 
L 372 0 
L 372 241 
Q 372 659 486 951 
Q 600 1244 862 1520 
Q 1125 1797 1681 2184 
Q 2250 2584 2458 2886 
Q 2666 3188 2666 3572 
z
" transform="scale(0.015625)"/>
       </defs>
       <use xlink:href="#MicrosoftYaHei-30"/>
       <use xlink:href="#MicrosoftYaHei-2e" x="58.642578"/>
       <use xlink:href="#MicrosoftYaHei-39" x="82.714844"/>
       <use xlink:href="#MicrosoftYaHei-32" x="141.357422"/>
       <use xlink:href="#MicrosoftYaHei-35" x="200"/>
      </g>
     </g>
    </g>
    <g id="ytick_2">
     <g id="line2d_5">
      <g>
       <use xlink:href="#m7956b72aef" x="57.6" y="96.993481" style="stroke: #000000; stroke-width: 0.8"/>
      </g>
     </g>
     <g id="text_6">
      <!-- 0.950 -->
      <g transform="translate(24.735937 100.990356)scale(0.1 -0.1)">
       <use xlink:href="#MicrosoftYaHei-30"/>
       <use xlink:href="#MicrosoftYaHei-2e" x="58.642578"/>
       <use xlink:href="#MicrosoftYaHei-39" x="82.714844"/>
       <use xlink:href="#MicrosoftYaHei-35" x="141.357422"/>
       <use xlink:href="#MicrosoftYaHei-30" x="200"/>
      </g>
     </g>
    </g>
    <g id="ytick_3">
     <g id="line2d_6">
      <g>
       <use xlink:href="#m7956b72aef" x="57.6" y="71.470299" style="stroke: #000000; stroke-width: 0.8"/>
      </g>
     </g>
     <g id="text_7">
      <!-- 0.975 -->
      <g transform="translate(24.735937 75.467174)scale(0.1 -0.1)">
       <defs>
        <path id="MicrosoftYaHei-37" d="M 3422 4463 
Q 2659 3131 2223 1998 
Q 1788 866 1684 0 
L 1047 0 
Q 1163 853 1594 1947 
Q 2025 3041 2747 4300 
L 347 4300 
L 347 4841 
L 3422 4841 
L 3422 4463 
z
" transform="scale(0.015625)"/>
       </defs>
       <use xlink:href="#MicrosoftYaHei-30"/>
       <use xlink:href="#MicrosoftYaHei-2e" x="58.642578"/>
       <use xlink:href="#MicrosoftYaHei-39" x="82.714844"/>
       <use xlink:href="#MicrosoftYaHei-37" x="141.357422"/>
       <use xlink:href="#MicrosoftYaHei-35" x="200"/>
      </g>
     </g>
    </g>
    <g id="ytick_4">
     <g id="line2d_7">
      <g>
       <use xlink:href="#m7956b72aef" x="57.6" y="45.947116" style="stroke: #000000; stroke-width: 0.8"/>
      </g>
     </g>
     <g id="text_8">
      <!-- 1.000 -->
      <g transform="translate(24.735937 49.943991)scale(0.1 -0.1)">
       <use xlink:href="#MicrosoftYaHei-31"/>
       <use xlink:href="#MicrosoftYaHei-2e" x="58.642578"/>
       <use xlink:href="#MicrosoftYaHei-30" x="82.714844"/>
       <use xlink:href="#MicrosoftYaHei-30" x="141.357422"/>
       <use xlink:href="#MicrosoftYaHei-30" x="200"/>
      </g>
     </g>
    </g>
    <g id="text_9">
     <!-- Normalized runtime -->
     <g transform="translate(18.25 142.705337)rotate(-90)scale(0.1 -0.1)">
      <defs>
       <path id="MicrosoftYaHei-4e" d="M 4578 0 
L 3838 0 
L 1403 3766 
Q 1300 3925 1238 4081 
L 1219 4081 
Q 1244 3919 1244 3403 
L 1244 0 
L 625 0 
L 625 4841 
L 1409 4841 
L 3778 1141 
Q 3947 878 3978 806 
L 3991 806 
Q 3959 1013 3959 1513 
L 3959 4841 
L 4578 4841 
L 4578 0 
z
" transform="scale(0.015625)"/>
       <path id="MicrosoftYaHei-6f" d="M 316 1691 
Q 316 2547 794 3042 
Q 1272 3538 2091 3538 
Q 2869 3538 3311 3061 
Q 3753 2584 3753 1744 
Q 3753 925 3281 422 
Q 2809 -81 2016 -81 
Q 1241 -81 778 406 
Q 316 894 316 1691 
z
M 941 1709 
Q 941 1113 1242 769 
Q 1544 425 2053 425 
Q 2578 425 2853 761 
Q 3128 1097 3128 1725 
Q 3128 2356 2853 2693 
Q 2578 3031 2053 3031 
Q 1538 3031 1239 2678 
Q 941 2325 941 1709 
z
" transform="scale(0.015625)"/>
       <path id="MicrosoftYaHei-6d" d="M 5522 0 
L 4909 0 
L 4909 1984 
Q 4909 2547 4734 2789 
Q 4559 3031 4159 3031 
Q 3822 3031 3581 2715 
Q 3341 2400 3341 1969 
L 3341 0 
L 2728 0 
L 2728 2047 
Q 2728 3031 1969 3031 
Q 1619 3031 1389 2731 
Q 1159 2431 1159 1966 
L 1159 0 
L 547 0 
L 547 3456 
L 1159 3456 
L 1159 2909 
L 1172 2909 
Q 1541 3538 2250 3538 
Q 2597 3538 2862 3347 
Q 3128 3156 3231 2831 
Q 3616 3538 4381 3538 
Q 5522 3538 5522 2131 
L 5522 0 
z
" transform="scale(0.015625)"/>
       <path id="MicrosoftYaHei-7a" d="M 2978 0 
L 109 0 
L 109 203 
L 2119 2950 
L 297 2950 
L 297 3456 
L 2991 3456 
L 2991 3256 
L 994 506 
L 2978 506 
L 2978 0 
z
" transform="scale(0.015625)"/>
       <path id="MicrosoftYaHei-64" d="M 3547 0 
L 2934 0 
L 2934 575 
L 2922 575 
Q 2544 -81 1747 -81 
Q 1091 -81 703 386 
Q 316 853 316 1647 
Q 316 2503 753 3020 
Q 1191 3538 1897 3538 
Q 2603 3538 2922 2988 
L 2934 2988 
L 2934 5116 
L 3547 5116 
L 3547 0 
z
M 2938 2056 
Q 2938 2472 2664 2751 
Q 2391 3031 1991 3031 
Q 1503 3031 1222 2667 
Q 941 2303 941 1675 
Q 941 1097 1211 761 
Q 1481 425 1931 425 
Q 2375 425 2656 754 
Q 2938 1084 2938 1575 
L 2938 2056 
z
" transform="scale(0.015625)"/>
       <path id="MicrosoftYaHei-6e" d="M 3469 0 
L 2859 0 
L 2859 1966 
Q 2859 3031 2081 3031 
Q 1678 3031 1418 2731 
Q 1159 2431 1159 1972 
L 1159 0 
L 547 0 
L 547 3456 
L 1159 3456 
L 1159 2884 
L 1172 2884 
Q 1563 3538 2306 3538 
Q 2875 3538 3172 3173 
Q 3469 2809 3469 2113 
L 3469 0 
z
" transform="scale(0.015625)"/>
      </defs>
      <use xlink:href="#MicrosoftYaHei-4e"/>
      <use xlink:href="#MicrosoftYaHei-6f" x="81.298828"/>
      <use xlink:href="#MicrosoftYaHei-72" x="144.873047"/>
      <use xlink:href="#MicrosoftYaHei-6d" x="182.806641"/>
      <use xlink:href="#MicrosoftYaHei-61" x="276.507812"/>
      <use xlink:href="#MicrosoftYaHei-6c" x="331.78125"/>
      <use xlink:href="#MicrosoftYaHei-69" x="358.392578"/>
      <use xlink:href="#MicrosoftYaHei-7a" x="385.003906"/>
      <use xlink:href="#MicrosoftYaHei-65" x="434.173828"/>
      <use xlink:href="#MicrosoftYaHei-64" x="490.912109"/>
      <use xlink:href="#MicrosoftYaHei-20" x="554.876953"/>
      <use xlink:href="#MicrosoftYaHei-72" x="584.466797"/>
      <use xlink:href="#MicrosoftYaHei-75" x="622.650391"/>
      <use xlink:href="#MicrosoftYaHei-6e" x="684.271484"/>
      <use xlink:href="#MicrosoftYaHei-74" x="745.892578"/>
      <use xlink:href="#MicrosoftYaHei-69" x="783.148438"/>
      <use xlink:href="#MicrosoftYaHei-6d" x="809.759766"/>
      <use xlink:href="#MicrosoftYaHei-65" x="903.460938"/>
     </g>
    </g>
   </g>
   <g id="line2d_8">
    <path d="M 64.093091 143.0784 
L 90.065455 58.240593 
L 116.037818 58.603876 
L 142.010182 46.3104 
L 167.982545 46.3104 
L 193.954909 46.3104 
" clip-path="url(#pe69b3a6f12)" style="fill: none; stroke: #1f77b4; stroke-width: 1.5; stroke-linecap: square"/>
   </g>
   <g id="patch_3">
    <path d="M 57.6 147.9168 
L 57.6 41.472 
" style="fill: none; stroke: #000000; stroke-width: 0.8; stroke-linejoin: miter; stroke-linecap: square"/>
   </g>
   <g id="patch_4">
    <path d="M 200.448 147.9168 
L 200.448 41.472 
" style="fill: none; stroke: #000000; stroke-width: 0.8; stroke-linejoin: miter; stroke-linecap: square"/>
   </g>
   <g id="patch_5">
    <path d="M 57.6 147.9168 
L 200.448 147.9168 
" style="fill: none; stroke: #000000; stroke-width: 0.8; stroke-linejoin: miter; stroke-linecap: square"/>
   </g>
   <g id="patch_6">
    <path d="M 57.6 41.472 
L 200.448 41.472 
" style="fill: none; stroke: #000000; stroke-width: 0.8; stroke-linejoin: miter; stroke-linecap: square"/>
   </g>
   <g id="text_10">
    <!-- For cheapest -->
    <g transform="translate(92.2815 35.472)scale(0.12 -0.12)">
     <defs>
      <path id="MicrosoftYaHei-63" d="M 2934 156 
Q 2538 -81 1978 -81 
Q 1228 -81 772 400 
Q 316 881 316 1647 
Q 316 2497 808 3017 
Q 1300 3538 2125 3538 
Q 2600 3538 2938 3369 
L 2938 2763 
Q 2572 3031 2125 3031 
Q 1600 3031 1270 2667 
Q 941 2303 941 1697 
Q 941 1100 1252 762 
Q 1563 425 2091 425 
Q 2538 425 2934 719 
L 2934 156 
z
" transform="scale(0.015625)"/>
      <path id="MicrosoftYaHei-68" d="M 3466 0 
L 2856 0 
L 2856 1988 
Q 2856 3031 2081 3031 
Q 1684 3031 1421 2726 
Q 1159 2422 1159 1959 
L 1159 0 
L 547 0 
L 547 5116 
L 1159 5116 
L 1159 2888 
L 1172 2888 
Q 1569 3538 2300 3538 
Q 3466 3538 3466 2128 
L 3466 0 
z
" transform="scale(0.015625)"/>
      <path id="MicrosoftYaHei-70" d="M 1159 488 
L 1159 -1591 
L 547 -1591 
L 547 3456 
L 1159 3456 
L 1159 2859 
L 1172 2859 
Q 1578 3538 2359 3538 
Q 3022 3538 3398 3073 
Q 3775 2609 3775 1828 
Q 3775 966 3348 442 
Q 2922 -81 2200 -81 
Q 1534 -81 1172 488 
L 1159 488 
z
M 1156 1425 
Q 1156 1003 1428 714 
Q 1700 425 2109 425 
Q 2597 425 2872 800 
Q 3147 1175 3147 1838 
Q 3147 2397 2890 2714 
Q 2634 3031 2191 3031 
Q 1738 3031 1447 2709 
Q 1156 2388 1156 1884 
L 1156 1425 
z
" transform="scale(0.015625)"/>
      <path id="MicrosoftYaHei-73" d="M 353 747 
Q 816 413 1350 413 
Q 2066 413 2066 881 
Q 2066 1081 1909 1211 
Q 1753 1341 1275 1519 
Q 700 1750 528 1976 
Q 356 2203 356 2525 
Q 356 2984 745 3261 
Q 1134 3538 1703 3538 
Q 2144 3538 2522 3384 
L 2522 2794 
Q 2134 3044 1644 3044 
Q 1350 3044 1165 2916 
Q 981 2788 981 2578 
Q 981 2372 1114 2256 
Q 1247 2141 1703 1959 
Q 2281 1744 2484 1512 
Q 2688 1281 2688 941 
Q 2688 466 2298 192 
Q 1909 -81 1291 -81 
Q 753 -81 353 122 
L 353 747 
z
" transform="scale(0.015625)"/>
     </defs>
     <use xlink:href="#MicrosoftYaHei-46"/>
     <use xlink:href="#MicrosoftYaHei-6f" x="53.125"/>
     <use xlink:href="#MicrosoftYaHei-72" x="116.699219"/>
     <use xlink:href="#MicrosoftYaHei-20" x="154.882812"/>
     <use xlink:href="#MicrosoftYaHei-63" x="184.472656"/>
     <use xlink:href="#MicrosoftYaHei-68" x="234.619141"/>
     <use xlink:href="#MicrosoftYaHei-65" x="296.191406"/>
     <use xlink:href="#MicrosoftYaHei-61" x="352.929688"/>
     <use xlink:href="#MicrosoftYaHei-70" x="408.203125"/>
     <use xlink:href="#MicrosoftYaHei-65" x="472.070312"/>
     <use xlink:href="#MicrosoftYaHei-73" x="528.808594"/>
     <use xlink:href="#MicrosoftYaHei-74" x="575.097656"/>
    </g>
   </g>
  </g>
  <g id="axes_2">
   <g id="patch_7">
    <path d="M 271.872 147.9168 
L 414.72 147.9168 
L 414.72 41.472 
L 271.872 41.472 
z
" style="fill: #ffffff"/>
   </g>
   <g id="matplotlib.axis_3">
    <g id="xtick_4">
     <g id="line2d_9">
      <g>
       <use xlink:href="#mc63fd6cd77" x="278.365091" y="147.9168" style="stroke: #000000; stroke-width: 0.8"/>
      </g>
     </g>
     <g id="text_11">
      <!-- 0.0 -->
      <g transform="translate(271.297122 162.91055)scale(0.1 -0.1)">
       <use xlink:href="#MicrosoftYaHei-30"/>
       <use xlink:href="#MicrosoftYaHei-2e" x="58.642578"/>
       <use xlink:href="#MicrosoftYaHei-30" x="82.714844"/>
      </g>
     </g>
    </g>
    <g id="xtick_5">
     <g id="line2d_10">
      <g>
       <use xlink:href="#mc63fd6cd77" x="343.296" y="147.9168" style="stroke: #000000; stroke-width: 0.8"/>
      </g>
     </g>
     <g id="text_12">
      <!-- 0.5 -->
      <g transform="translate(336.228031 162.91055)scale(0.1 -0.1)">
       <use xlink:href="#MicrosoftYaHei-30"/>
       <use xlink:href="#MicrosoftYaHei-2e" x="58.642578"/>
       <use xlink:href="#MicrosoftYaHei-35" x="82.714844"/>
      </g>
     </g>
    </g>
    <g id="xtick_6">
     <g id="line2d_11">
      <g>
       <use xlink:href="#mc63fd6cd77" x="408.226909" y="147.9168" style="stroke: #000000; stroke-width: 0.8"/>
      </g>
     </g>
     <g id="text_13">
      <!-- 1.0 -->
      <g transform="translate(401.15894 162.91055)scale(0.1 -0.1)">
       <use xlink:href="#MicrosoftYaHei-31"/>
       <use xlink:href="#MicrosoftYaHei-2e" x="58.642578"/>
       <use xlink:href="#MicrosoftYaHei-30" x="82.714844"/>
      </g>
     </g>
    </g>
    <g id="text_14">
     <!-- Failure rate -->
     <g transform="translate(316.847562 177.390237)scale(0.1 -0.1)">
      <use xlink:href="#MicrosoftYaHei-46"/>
      <use xlink:href="#MicrosoftYaHei-61" x="49.125"/>
      <use xlink:href="#MicrosoftYaHei-69" x="104.398438"/>
      <use xlink:href="#MicrosoftYaHei-6c" x="131.009766"/>
      <use xlink:href="#MicrosoftYaHei-75" x="157.621094"/>
      <use xlink:href="#MicrosoftYaHei-72" x="219.242188"/>
      <use xlink:href="#MicrosoftYaHei-65" x="256.050781"/>
      <use xlink:href="#MicrosoftYaHei-20" x="312.789062"/>
      <use xlink:href="#MicrosoftYaHei-72" x="342.378906"/>
      <use xlink:href="#MicrosoftYaHei-61" x="380.5625"/>
      <use xlink:href="#MicrosoftYaHei-74" x="435.835938"/>
      <use xlink:href="#MicrosoftYaHei-65" x="472.216797"/>
     </g>
    </g>
   </g>
   <g id="matplotlib.axis_4">
    <g id="ytick_5">
     <g id="line2d_12">
      <g>
       <use xlink:href="#m7956b72aef" x="271.872" y="139.508726" style="stroke: #000000; stroke-width: 0.8"/>
      </g>
     </g>
     <g id="text_15">
      <!-- 0.900 -->
      <g transform="translate(239.007938 143.505601)scale(0.1 -0.1)">
       <use xlink:href="#MicrosoftYaHei-30"/>
       <use xlink:href="#MicrosoftYaHei-2e" x="58.642578"/>
       <use xlink:href="#MicrosoftYaHei-39" x="82.714844"/>
       <use xlink:href="#MicrosoftYaHei-30" x="141.357422"/>
       <use xlink:href="#MicrosoftYaHei-30" x="200"/>
      </g>
     </g>
    </g>
    <g id="ytick_6">
     <g id="line2d_13">
      <g>
       <use xlink:href="#m7956b72aef" x="271.872" y="116.209144" style="stroke: #000000; stroke-width: 0.8"/>
      </g>
     </g>
     <g id="text_16">
      <!-- 0.925 -->
      <g transform="translate(239.007938 120.206019)scale(0.1 -0.1)">
       <use xlink:href="#MicrosoftYaHei-30"/>
       <use xlink:href="#MicrosoftYaHei-2e" x="58.642578"/>
       <use xlink:href="#MicrosoftYaHei-39" x="82.714844"/>
       <use xlink:href="#MicrosoftYaHei-32" x="141.357422"/>
       <use xlink:href="#MicrosoftYaHei-35" x="200"/>
      </g>
     </g>
    </g>
    <g id="ytick_7">
     <g id="line2d_14">
      <g>
       <use xlink:href="#m7956b72aef" x="271.872" y="92.909563" style="stroke: #000000; stroke-width: 0.8"/>
      </g>
     </g>
     <g id="text_17">
      <!-- 0.950 -->
      <g transform="translate(239.007938 96.906438)scale(0.1 -0.1)">
       <use xlink:href="#MicrosoftYaHei-30"/>
       <use xlink:href="#MicrosoftYaHei-2e" x="58.642578"/>
       <use xlink:href="#MicrosoftYaHei-39" x="82.714844"/>
       <use xlink:href="#MicrosoftYaHei-35" x="141.357422"/>
       <use xlink:href="#MicrosoftYaHei-30" x="200"/>
      </g>
     </g>
    </g>
    <g id="ytick_8">
     <g id="line2d_15">
      <g>
       <use xlink:href="#m7956b72aef" x="271.872" y="69.609981" style="stroke: #000000; stroke-width: 0.8"/>
      </g>
     </g>
     <g id="text_18">
      <!-- 0.975 -->
      <g transform="translate(239.007938 73.606856)scale(0.1 -0.1)">
       <use xlink:href="#MicrosoftYaHei-30"/>
       <use xlink:href="#MicrosoftYaHei-2e" x="58.642578"/>
       <use xlink:href="#MicrosoftYaHei-39" x="82.714844"/>
       <use xlink:href="#MicrosoftYaHei-37" x="141.357422"/>
       <use xlink:href="#MicrosoftYaHei-35" x="200"/>
      </g>
     </g>
    </g>
    <g id="ytick_9">
     <g id="line2d_16">
      <g>
       <use xlink:href="#m7956b72aef" x="271.872" y="46.3104" style="stroke: #000000; stroke-width: 0.8"/>
      </g>
     </g>
     <g id="text_19">
      <!-- 1.000 -->
      <g transform="translate(239.007938 50.307275)scale(0.1 -0.1)">
       <use xlink:href="#MicrosoftYaHei-31"/>
       <use xlink:href="#MicrosoftYaHei-2e" x="58.642578"/>
       <use xlink:href="#MicrosoftYaHei-30" x="82.714844"/>
       <use xlink:href="#MicrosoftYaHei-30" x="141.357422"/>
       <use xlink:href="#MicrosoftYaHei-30" x="200"/>
      </g>
     </g>
    </g>
    <g id="text_20">
     <!-- Normalized price -->
     <g transform="translate(232.522 135.695962)rotate(-90)scale(0.1 -0.1)">
      <use xlink:href="#MicrosoftYaHei-4e"/>
      <use xlink:href="#MicrosoftYaHei-6f" x="81.298828"/>
      <use xlink:href="#MicrosoftYaHei-72" x="144.873047"/>
      <use xlink:href="#MicrosoftYaHei-6d" x="182.806641"/>
      <use xlink:href="#MicrosoftYaHei-61" x="276.507812"/>
      <use xlink:href="#MicrosoftYaHei-6c" x="331.78125"/>
      <use xlink:href="#MicrosoftYaHei-69" x="358.392578"/>
      <use xlink:href="#MicrosoftYaHei-7a" x="385.003906"/>
      <use xlink:href="#MicrosoftYaHei-65" x="434.173828"/>
      <use xlink:href="#MicrosoftYaHei-64" x="490.912109"/>
      <use xlink:href="#MicrosoftYaHei-20" x="554.876953"/>
      <use xlink:href="#MicrosoftYaHei-70" x="584.466797"/>
      <use xlink:href="#MicrosoftYaHei-72" x="648.333984"/>
      <use xlink:href="#MicrosoftYaHei-69" x="686.517578"/>
      <use xlink:href="#MicrosoftYaHei-63" x="713.128906"/>
      <use xlink:href="#MicrosoftYaHei-65" x="763.275391"/>
     </g>
    </g>
   </g>
   <g id="line2d_17">
    <path d="M 278.365091 46.3104 
L 304.337455 137.627432 
L 330.309818 137.660892 
L 356.282182 143.0784 
L 382.254545 143.0784 
L 408.226909 143.0784 
" clip-path="url(#paec496c544)" style="fill: none; stroke: #1f77b4; stroke-width: 1.5; stroke-linecap: square"/>
   </g>
   <g id="patch_8">
    <path d="M 271.872 147.9168 
L 271.872 41.472 
" style="fill: none; stroke: #000000; stroke-width: 0.8; stroke-linejoin: miter; stroke-linecap: square"/>
   </g>
   <g id="patch_9">
    <path d="M 414.72 147.9168 
L 414.72 41.472 
" style="fill: none; stroke: #000000; stroke-width: 0.8; stroke-linejoin: miter; stroke-linecap: square"/>
   </g>
   <g id="patch_10">
    <path d="M 271.872 147.9168 
L 414.72 147.9168 
" style="fill: none; stroke: #000000; stroke-width: 0.8; stroke-linejoin: miter; stroke-linecap: square"/>
   </g>
   <g id="patch_11">
    <path d="M 271.872 41.472 
L 414.72 41.472 
" style="fill: none; stroke: #000000; stroke-width: 0.8; stroke-linejoin: miter; stroke-linecap: square"/>
   </g>
   <g id="text_21">
    <!-- For cheapest -->
    <g transform="translate(306.5535 35.472)scale(0.12 -0.12)">
     <use xlink:href="#MicrosoftYaHei-46"/>
     <use xlink:href="#MicrosoftYaHei-6f" x="53.125"/>
     <use xlink:href="#MicrosoftYaHei-72" x="116.699219"/>
     <use xlink:href="#MicrosoftYaHei-20" x="154.882812"/>
     <use xlink:href="#MicrosoftYaHei-63" x="184.472656"/>
     <use xlink:href="#MicrosoftYaHei-68" x="234.619141"/>
     <use xlink:href="#MicrosoftYaHei-65" x="296.191406"/>
     <use xlink:href="#MicrosoftYaHei-61" x="352.929688"/>
     <use xlink:href="#MicrosoftYaHei-70" x="408.203125"/>
     <use xlink:href="#MicrosoftYaHei-65" x="472.070312"/>
     <use xlink:href="#MicrosoftYaHei-73" x="528.808594"/>
     <use xlink:href="#MicrosoftYaHei-74" x="575.097656"/>
    </g>
   </g>
  </g>
  <g id="axes_3">
   <g id="patch_12">
    <path d="M 57.6 307.584 
L 200.448 307.584 
L 200.448 201.1392 
L 57.6 201.1392 
z
" style="fill: #ffffff"/>
   </g>
   <g id="matplotlib.axis_5">
    <g id="xtick_7">
     <g id="line2d_18">
      <g>
       <use xlink:href="#mc63fd6cd77" x="64.093091" y="307.584" style="stroke: #000000; stroke-width: 0.8"/>
      </g>
     </g>
     <g id="text_22">
      <!-- 0.0 -->
      <g transform="translate(57.025122 322.57775)scale(0.1 -0.1)">
       <use xlink:href="#MicrosoftYaHei-30"/>
       <use xlink:href="#MicrosoftYaHei-2e" x="58.642578"/>
       <use xlink:href="#MicrosoftYaHei-30" x="82.714844"/>
      </g>
     </g>
    </g>
    <g id="xtick_8">
     <g id="line2d_19">
      <g>
       <use xlink:href="#mc63fd6cd77" x="129.024" y="307.584" style="stroke: #000000; stroke-width: 0.8"/>
      </g>
     </g>
     <g id="text_23">
      <!-- 0.5 -->
      <g transform="translate(121.956031 322.57775)scale(0.1 -0.1)">
       <use xlink:href="#MicrosoftYaHei-30"/>
       <use xlink:href="#MicrosoftYaHei-2e" x="58.642578"/>
       <use xlink:href="#MicrosoftYaHei-35" x="82.714844"/>
      </g>
     </g>
    </g>
    <g id="xtick_9">
     <g id="line2d_20">
      <g>
       <use xlink:href="#mc63fd6cd77" x="193.954909" y="307.584" style="stroke: #000000; stroke-width: 0.8"/>
      </g>
     </g>
     <g id="text_24">
      <!-- 1.0 -->
      <g transform="translate(186.88694 322.57775)scale(0.1 -0.1)">
       <use xlink:href="#MicrosoftYaHei-31"/>
       <use xlink:href="#MicrosoftYaHei-2e" x="58.642578"/>
       <use xlink:href="#MicrosoftYaHei-30" x="82.714844"/>
      </g>
     </g>
    </g>
    <g id="text_25">
     <!-- Failure rate -->
     <g transform="translate(102.575563 337.057437)scale(0.1 -0.1)">
      <use xlink:href="#MicrosoftYaHei-46"/>
      <use xlink:href="#MicrosoftYaHei-61" x="49.125"/>
      <use xlink:href="#MicrosoftYaHei-69" x="104.398438"/>
      <use xlink:href="#MicrosoftYaHei-6c" x="131.009766"/>
      <use xlink:href="#MicrosoftYaHei-75" x="157.621094"/>
      <use xlink:href="#MicrosoftYaHei-72" x="219.242188"/>
      <use xlink:href="#MicrosoftYaHei-65" x="256.050781"/>
      <use xlink:href="#MicrosoftYaHei-20" x="312.789062"/>
      <use xlink:href="#MicrosoftYaHei-72" x="342.378906"/>
      <use xlink:href="#MicrosoftYaHei-61" x="380.5625"/>
      <use xlink:href="#MicrosoftYaHei-74" x="435.835938"/>
      <use xlink:href="#MicrosoftYaHei-65" x="472.216797"/>
     </g>
    </g>
   </g>
   <g id="matplotlib.axis_6">
    <g id="ytick_10">
     <g id="line2d_21">
      <g>
       <use xlink:href="#m7956b72aef" x="57.6" y="307.129838" style="stroke: #000000; stroke-width: 0.8"/>
      </g>
     </g>
     <g id="text_26">
      <!-- 0.96 -->
      <g transform="translate(30.6 311.126713)scale(0.1 -0.1)">
       <defs>
        <path id="MicrosoftYaHei-36" d="M 3181 4219 
Q 2803 4413 2391 4413 
Q 1763 4413 1381 3866 
Q 1000 3319 994 2372 
L 1009 2372 
Q 1353 3038 2106 3038 
Q 2734 3038 3109 2628 
Q 3484 2219 3484 1541 
Q 3484 831 3051 375 
Q 2619 -81 1947 -81 
Q 1209 -81 789 495 
Q 369 1072 369 2131 
Q 369 3413 920 4167 
Q 1472 4922 2372 4922 
Q 2888 4922 3181 4781 
L 3181 4219 
z
M 1031 1584 
Q 1031 1106 1286 765 
Q 1541 425 1963 425 
Q 2363 425 2613 719 
Q 2863 1013 2863 1475 
Q 2863 1975 2627 2253 
Q 2391 2531 1956 2531 
Q 1544 2531 1287 2250 
Q 1031 1969 1031 1584 
z
" transform="scale(0.015625)"/>
       </defs>
       <use xlink:href="#MicrosoftYaHei-30"/>
       <use xlink:href="#MicrosoftYaHei-2e" x="58.642578"/>
       <use xlink:href="#MicrosoftYaHei-39" x="82.714844"/>
       <use xlink:href="#MicrosoftYaHei-36" x="141.357422"/>
      </g>
     </g>
    </g>
    <g id="ytick_11">
     <g id="line2d_22">
      <g>
       <use xlink:href="#m7956b72aef" x="57.6" y="281.841778" style="stroke: #000000; stroke-width: 0.8"/>
      </g>
     </g>
     <g id="text_27">
      <!-- 0.97 -->
      <g transform="translate(30.6 285.838653)scale(0.1 -0.1)">
       <use xlink:href="#MicrosoftYaHei-30"/>
       <use xlink:href="#MicrosoftYaHei-2e" x="58.642578"/>
       <use xlink:href="#MicrosoftYaHei-39" x="82.714844"/>
       <use xlink:href="#MicrosoftYaHei-37" x="141.357422"/>
      </g>
     </g>
    </g>
    <g id="ytick_12">
     <g id="line2d_23">
      <g>
       <use xlink:href="#m7956b72aef" x="57.6" y="256.553719" style="stroke: #000000; stroke-width: 0.8"/>
      </g>
     </g>
     <g id="text_28">
      <!-- 0.98 -->
      <g transform="translate(30.6 260.550594)scale(0.1 -0.1)">
       <defs>
        <path id="MicrosoftYaHei-38" d="M 306 1350 
Q 306 1769 556 2122 
Q 806 2475 1200 2625 
Q 884 2803 700 3081 
Q 516 3359 516 3684 
Q 516 4028 692 4312 
Q 869 4597 1183 4759 
Q 1497 4922 1875 4922 
Q 2256 4922 2572 4761 
Q 2888 4600 3063 4315 
Q 3238 4031 3238 3684 
Q 3238 3366 3058 3086 
Q 2878 2806 2559 2625 
Q 2953 2472 3200 2119 
Q 3447 1766 3447 1350 
Q 3447 938 3250 611 
Q 3053 284 2690 103 
Q 2328 -78 1875 -78 
Q 1425 -78 1065 103 
Q 706 284 506 612 
Q 306 941 306 1350 
z
M 906 1378 
Q 906 947 1172 687 
Q 1438 428 1878 428 
Q 2309 428 2582 692 
Q 2856 956 2856 1378 
Q 2856 1778 2579 2051 
Q 2303 2325 1878 2325 
Q 1456 2325 1181 2058 
Q 906 1791 906 1378 
z
M 1081 3634 
Q 1081 3309 1312 3076 
Q 1544 2844 1878 2844 
Q 2206 2844 2445 3078 
Q 2684 3313 2684 3634 
Q 2684 3963 2454 4191 
Q 2225 4419 1878 4419 
Q 1534 4419 1307 4195 
Q 1081 3972 1081 3634 
z
" transform="scale(0.015625)"/>
       </defs>
       <use xlink:href="#MicrosoftYaHei-30"/>
       <use xlink:href="#MicrosoftYaHei-2e" x="58.642578"/>
       <use xlink:href="#MicrosoftYaHei-39" x="82.714844"/>
       <use xlink:href="#MicrosoftYaHei-38" x="141.357422"/>
      </g>
     </g>
    </g>
    <g id="ytick_13">
     <g id="line2d_24">
      <g>
       <use xlink:href="#m7956b72aef" x="57.6" y="231.265659" style="stroke: #000000; stroke-width: 0.8"/>
      </g>
     </g>
     <g id="text_29">
      <!-- 0.99 -->
      <g transform="translate(30.6 235.262534)scale(0.1 -0.1)">
       <use xlink:href="#MicrosoftYaHei-30"/>
       <use xlink:href="#MicrosoftYaHei-2e" x="58.642578"/>
       <use xlink:href="#MicrosoftYaHei-39" x="82.714844"/>
       <use xlink:href="#MicrosoftYaHei-39" x="141.357422"/>
      </g>
     </g>
    </g>
    <g id="ytick_14">
     <g id="line2d_25">
      <g>
       <use xlink:href="#m7956b72aef" x="57.6" y="205.9776" style="stroke: #000000; stroke-width: 0.8"/>
      </g>
     </g>
     <g id="text_30">
      <!-- 1.00 -->
      <g transform="translate(30.6 209.974475)scale(0.1 -0.1)">
       <use xlink:href="#MicrosoftYaHei-31"/>
       <use xlink:href="#MicrosoftYaHei-2e" x="58.642578"/>
       <use xlink:href="#MicrosoftYaHei-30" x="82.714844"/>
       <use xlink:href="#MicrosoftYaHei-30" x="141.357422"/>
      </g>
     </g>
    </g>
    <g id="text_31">
     <!-- Normalized runtime -->
     <g transform="translate(24.114062 302.372537)rotate(-90)scale(0.1 -0.1)">
      <use xlink:href="#MicrosoftYaHei-4e"/>
      <use xlink:href="#MicrosoftYaHei-6f" x="81.298828"/>
      <use xlink:href="#MicrosoftYaHei-72" x="144.873047"/>
      <use xlink:href="#MicrosoftYaHei-6d" x="182.806641"/>
      <use xlink:href="#MicrosoftYaHei-61" x="276.507812"/>
      <use xlink:href="#MicrosoftYaHei-6c" x="331.78125"/>
      <use xlink:href="#MicrosoftYaHei-69" x="358.392578"/>
      <use xlink:href="#MicrosoftYaHei-7a" x="385.003906"/>
      <use xlink:href="#MicrosoftYaHei-65" x="434.173828"/>
      <use xlink:href="#MicrosoftYaHei-64" x="490.912109"/>
      <use xlink:href="#MicrosoftYaHei-20" x="554.876953"/>
      <use xlink:href="#MicrosoftYaHei-72" x="584.466797"/>
      <use xlink:href="#MicrosoftYaHei-75" x="622.650391"/>
      <use xlink:href="#MicrosoftYaHei-6e" x="684.271484"/>
      <use xlink:href="#MicrosoftYaHei-74" x="745.892578"/>
      <use xlink:href="#MicrosoftYaHei-69" x="783.148438"/>
      <use xlink:href="#MicrosoftYaHei-6d" x="809.759766"/>
      <use xlink:href="#MicrosoftYaHei-65" x="903.460938"/>
     </g>
    </g>
   </g>
   <g id="line2d_26">
    <path d="M 64.093091 205.9776 
L 90.065455 302.7456 
L 116.037818 302.7456 
L 142.010182 302.7456 
L 167.982545 302.7456 
L 193.954909 302.7456 
" clip-path="url(#pa627aad7ec)" style="fill: none; stroke: #1f77b4; stroke-width: 1.5; stroke-linecap: square"/>
   </g>
   <g id="patch_13">
    <path d="M 57.6 307.584 
L 57.6 201.1392 
" style="fill: none; stroke: #000000; stroke-width: 0.8; stroke-linejoin: miter; stroke-linecap: square"/>
   </g>
   <g id="patch_14">
    <path d="M 200.448 307.584 
L 200.448 201.1392 
" style="fill: none; stroke: #000000; stroke-width: 0.8; stroke-linejoin: miter; stroke-linecap: square"/>
   </g>
   <g id="patch_15">
    <path d="M 57.6 307.584 
L 200.448 307.584 
" style="fill: none; stroke: #000000; stroke-width: 0.8; stroke-linejoin: miter; stroke-linecap: square"/>
   </g>
   <g id="patch_16">
    <path d="M 57.6 201.1392 
L 200.448 201.1392 
" style="fill: none; stroke: #000000; stroke-width: 0.8; stroke-linejoin: miter; stroke-linecap: square"/>
   </g>
   <g id="text_32">
    <!-- For fastest -->
    <g transform="translate(99.180563 195.1392)scale(0.12 -0.12)">
     <defs>
      <path id="MicrosoftYaHei-66" d="M 2319 4594 
Q 2147 4684 1947 4684 
Q 1372 4684 1372 3972 
L 1372 3456 
L 2181 3456 
L 2181 2950 
L 1372 2950 
L 1372 0 
L 766 0 
L 766 2950 
L 175 2950 
L 175 3456 
L 766 3456 
L 766 4000 
Q 766 4556 1086 4873 
Q 1406 5191 1900 5191 
Q 2163 5191 2319 5131 
L 2319 4594 
z
" transform="scale(0.015625)"/>
     </defs>
     <use xlink:href="#MicrosoftYaHei-46"/>
     <use xlink:href="#MicrosoftYaHei-6f" x="53.125"/>
     <use xlink:href="#MicrosoftYaHei-72" x="116.699219"/>
     <use xlink:href="#MicrosoftYaHei-20" x="154.882812"/>
     <use xlink:href="#MicrosoftYaHei-66" x="184.472656"/>
     <use xlink:href="#MicrosoftYaHei-61" x="219.140625"/>
     <use xlink:href="#MicrosoftYaHei-73" x="274.414062"/>
     <use xlink:href="#MicrosoftYaHei-74" x="320.703125"/>
     <use xlink:href="#MicrosoftYaHei-65" x="357.083984"/>
     <use xlink:href="#MicrosoftYaHei-73" x="413.822266"/>
     <use xlink:href="#MicrosoftYaHei-74" x="460.111328"/>
    </g>
   </g>
  </g>
  <g id="axes_4">
   <g id="patch_17">
    <path d="M 271.872 307.584 
L 414.72 307.584 
L 414.72 201.1392 
L 271.872 201.1392 
z
" style="fill: #ffffff"/>
   </g>
   <g id="matplotlib.axis_7">
    <g id="xtick_10">
     <g id="line2d_27">
      <g>
       <use xlink:href="#mc63fd6cd77" x="278.365091" y="307.584" style="stroke: #000000; stroke-width: 0.8"/>
      </g>
     </g>
     <g id="text_33">
      <!-- 0.0 -->
      <g transform="translate(271.297122 322.57775)scale(0.1 -0.1)">
       <use xlink:href="#MicrosoftYaHei-30"/>
       <use xlink:href="#MicrosoftYaHei-2e" x="58.642578"/>
       <use xlink:href="#MicrosoftYaHei-30" x="82.714844"/>
      </g>
     </g>
    </g>
    <g id="xtick_11">
     <g id="line2d_28">
      <g>
       <use xlink:href="#mc63fd6cd77" x="343.296" y="307.584" style="stroke: #000000; stroke-width: 0.8"/>
      </g>
     </g>
     <g id="text_34">
      <!-- 0.5 -->
      <g transform="translate(336.228031 322.57775)scale(0.1 -0.1)">
       <use xlink:href="#MicrosoftYaHei-30"/>
       <use xlink:href="#MicrosoftYaHei-2e" x="58.642578"/>
       <use xlink:href="#MicrosoftYaHei-35" x="82.714844"/>
      </g>
     </g>
    </g>
    <g id="xtick_12">
     <g id="line2d_29">
      <g>
       <use xlink:href="#mc63fd6cd77" x="408.226909" y="307.584" style="stroke: #000000; stroke-width: 0.8"/>
      </g>
     </g>
     <g id="text_35">
      <!-- 1.0 -->
      <g transform="translate(401.15894 322.57775)scale(0.1 -0.1)">
       <use xlink:href="#MicrosoftYaHei-31"/>
       <use xlink:href="#MicrosoftYaHei-2e" x="58.642578"/>
       <use xlink:href="#MicrosoftYaHei-30" x="82.714844"/>
      </g>
     </g>
    </g>
    <g id="text_36">
     <!-- Failure rate -->
     <g transform="translate(316.847562 337.057437)scale(0.1 -0.1)">
      <use xlink:href="#MicrosoftYaHei-46"/>
      <use xlink:href="#MicrosoftYaHei-61" x="49.125"/>
      <use xlink:href="#MicrosoftYaHei-69" x="104.398438"/>
      <use xlink:href="#MicrosoftYaHei-6c" x="131.009766"/>
      <use xlink:href="#MicrosoftYaHei-75" x="157.621094"/>
      <use xlink:href="#MicrosoftYaHei-72" x="219.242188"/>
      <use xlink:href="#MicrosoftYaHei-65" x="256.050781"/>
      <use xlink:href="#MicrosoftYaHei-20" x="312.789062"/>
      <use xlink:href="#MicrosoftYaHei-72" x="342.378906"/>
      <use xlink:href="#MicrosoftYaHei-61" x="380.5625"/>
      <use xlink:href="#MicrosoftYaHei-74" x="435.835938"/>
      <use xlink:href="#MicrosoftYaHei-65" x="472.216797"/>
     </g>
    </g>
   </g>
   <g id="matplotlib.axis_8">
    <g id="ytick_15">
     <g id="line2d_30">
      <g>
       <use xlink:href="#m7956b72aef" x="271.872" y="294.959296" style="stroke: #000000; stroke-width: 0.8"/>
      </g>
     </g>
     <g id="text_37">
      <!-- 0.94 -->
      <g transform="translate(244.872 298.956171)scale(0.1 -0.1)">
       <defs>
        <path id="MicrosoftYaHei-34" d="M 2906 4841 
L 2906 1644 
L 3631 1644 
L 3631 1138 
L 2906 1138 
L 2906 0 
L 2313 0 
L 2313 1138 
L 53 1138 
L 53 1616 
Q 656 2294 1265 3178 
Q 1875 4063 2272 4841 
L 2906 4841 
z
M 741 1644 
L 2313 1644 
L 2313 3950 
Q 1988 3366 1616 2817 
Q 1244 2269 741 1644 
z
" transform="scale(0.015625)"/>
       </defs>
       <use xlink:href="#MicrosoftYaHei-30"/>
       <use xlink:href="#MicrosoftYaHei-2e" x="58.642578"/>
       <use xlink:href="#MicrosoftYaHei-39" x="82.714844"/>
       <use xlink:href="#MicrosoftYaHei-34" x="141.357422"/>
      </g>
     </g>
    </g>
    <g id="ytick_16">
     <g id="line2d_31">
      <g>
       <use xlink:href="#m7956b72aef" x="271.872" y="264.525175" style="stroke: #000000; stroke-width: 0.8"/>
      </g>
     </g>
     <g id="text_38">
      <!-- 0.96 -->
      <g transform="translate(244.872 268.52205)scale(0.1 -0.1)">
       <use xlink:href="#MicrosoftYaHei-30"/>
       <use xlink:href="#MicrosoftYaHei-2e" x="58.642578"/>
       <use xlink:href="#MicrosoftYaHei-39" x="82.714844"/>
       <use xlink:href="#MicrosoftYaHei-36" x="141.357422"/>
      </g>
     </g>
    </g>
    <g id="ytick_17">
     <g id="line2d_32">
      <g>
       <use xlink:href="#m7956b72aef" x="271.872" y="234.091054" style="stroke: #000000; stroke-width: 0.8"/>
      </g>
     </g>
     <g id="text_39">
      <!-- 0.98 -->
      <g transform="translate(244.872 238.087929)scale(0.1 -0.1)">
       <use xlink:href="#MicrosoftYaHei-30"/>
       <use xlink:href="#MicrosoftYaHei-2e" x="58.642578"/>
       <use xlink:href="#MicrosoftYaHei-39" x="82.714844"/>
       <use xlink:href="#MicrosoftYaHei-38" x="141.357422"/>
      </g>
     </g>
    </g>
    <g id="ytick_18">
     <g id="line2d_33">
      <g>
       <use xlink:href="#m7956b72aef" x="271.872" y="203.656933" style="stroke: #000000; stroke-width: 0.8"/>
      </g>
     </g>
     <g id="text_40">
      <!-- 1.00 -->
      <g transform="translate(244.872 207.653808)scale(0.1 -0.1)">
       <use xlink:href="#MicrosoftYaHei-31"/>
       <use xlink:href="#MicrosoftYaHei-2e" x="58.642578"/>
       <use xlink:href="#MicrosoftYaHei-30" x="82.714844"/>
       <use xlink:href="#MicrosoftYaHei-30" x="141.357422"/>
      </g>
     </g>
    </g>
    <g id="text_41">
     <!-- Normalized price -->
     <g transform="translate(238.386063 295.363162)rotate(-90)scale(0.1 -0.1)">
      <use xlink:href="#MicrosoftYaHei-4e"/>
      <use xlink:href="#MicrosoftYaHei-6f" x="81.298828"/>
      <use xlink:href="#MicrosoftYaHei-72" x="144.873047"/>
      <use xlink:href="#MicrosoftYaHei-6d" x="182.806641"/>
      <use xlink:href="#MicrosoftYaHei-61" x="276.507812"/>
      <use xlink:href="#MicrosoftYaHei-6c" x="331.78125"/>
      <use xlink:href="#MicrosoftYaHei-69" x="358.392578"/>
      <use xlink:href="#MicrosoftYaHei-7a" x="385.003906"/>
      <use xlink:href="#MicrosoftYaHei-65" x="434.173828"/>
      <use xlink:href="#MicrosoftYaHei-64" x="490.912109"/>
      <use xlink:href="#MicrosoftYaHei-20" x="554.876953"/>
      <use xlink:href="#MicrosoftYaHei-70" x="584.466797"/>
      <use xlink:href="#MicrosoftYaHei-72" x="648.333984"/>
      <use xlink:href="#MicrosoftYaHei-69" x="686.517578"/>
      <use xlink:href="#MicrosoftYaHei-63" x="713.128906"/>
      <use xlink:href="#MicrosoftYaHei-65" x="763.275391"/>
     </g>
    </g>
   </g>
   <g id="line2d_34">
    <path d="M 278.365091 302.7456 
L 304.337455 205.9776 
L 330.309818 205.9776 
L 356.282182 205.9776 
L 382.254545 205.9776 
L 408.226909 205.9776 
" clip-path="url(#p1c7c5ad0c5)" style="fill: none; stroke: #1f77b4; stroke-width: 1.5; stroke-linecap: square"/>
   </g>
   <g id="patch_18">
    <path d="M 271.872 307.584 
L 271.872 201.1392 
" style="fill: none; stroke: #000000; stroke-width: 0.8; stroke-linejoin: miter; stroke-linecap: square"/>
   </g>
   <g id="patch_19">
    <path d="M 414.72 307.584 
L 414.72 201.1392 
" style="fill: none; stroke: #000000; stroke-width: 0.8; stroke-linejoin: miter; stroke-linecap: square"/>
   </g>
   <g id="patch_20">
    <path d="M 271.872 307.584 
L 414.72 307.584 
" style="fill: none; stroke: #000000; stroke-width: 0.8; stroke-linejoin: miter; stroke-linecap: square"/>
   </g>
   <g id="patch_21">
    <path d="M 271.872 201.1392 
L 414.72 201.1392 
" style="fill: none; stroke: #000000; stroke-width: 0.8; stroke-linejoin: miter; stroke-linecap: square"/>
   </g>
   <g id="text_42">
    <!-- For fastest -->
    <g transform="translate(313.452562 195.1392)scale(0.12 -0.12)">
     <use xlink:href="#MicrosoftYaHei-46"/>
     <use xlink:href="#MicrosoftYaHei-6f" x="53.125"/>
     <use xlink:href="#MicrosoftYaHei-72" x="116.699219"/>
     <use xlink:href="#MicrosoftYaHei-20" x="154.882812"/>
     <use xlink:href="#MicrosoftYaHei-66" x="184.472656"/>
     <use xlink:href="#MicrosoftYaHei-61" x="219.140625"/>
     <use xlink:href="#MicrosoftYaHei-73" x="274.414062"/>
     <use xlink:href="#MicrosoftYaHei-74" x="320.703125"/>
     <use xlink:href="#MicrosoftYaHei-65" x="357.083984"/>
     <use xlink:href="#MicrosoftYaHei-73" x="413.822266"/>
     <use xlink:href="#MicrosoftYaHei-74" x="460.111328"/>
    </g>
   </g>
  </g>
  <g id="text_43">
   <!-- Normalized trend -->
   <g transform="translate(179.9475 16.5045)scale(0.12 -0.12)">
    <use xlink:href="#MicrosoftYaHei-4e"/>
    <use xlink:href="#MicrosoftYaHei-6f" x="81.298828"/>
    <use xlink:href="#MicrosoftYaHei-72" x="144.873047"/>
    <use xlink:href="#MicrosoftYaHei-6d" x="182.806641"/>
    <use xlink:href="#MicrosoftYaHei-61" x="276.507812"/>
    <use xlink:href="#MicrosoftYaHei-6c" x="331.78125"/>
    <use xlink:href="#MicrosoftYaHei-69" x="358.392578"/>
    <use xlink:href="#MicrosoftYaHei-7a" x="385.003906"/>
    <use xlink:href="#MicrosoftYaHei-65" x="434.173828"/>
    <use xlink:href="#MicrosoftYaHei-64" x="490.912109"/>
    <use xlink:href="#MicrosoftYaHei-20" x="554.876953"/>
    <use xlink:href="#MicrosoftYaHei-74" x="584.466797"/>
    <use xlink:href="#MicrosoftYaHei-72" x="621.722656"/>
    <use xlink:href="#MicrosoftYaHei-65" x="658.53125"/>
    <use xlink:href="#MicrosoftYaHei-6e" x="715.269531"/>
    <use xlink:href="#MicrosoftYaHei-64" x="776.890625"/>
   </g>
  </g>
 </g>
 <defs>
  <clipPath id="pe69b3a6f12">
   <rect x="57.6" y="41.472" width="142.848" height="106.4448"/>
  </clipPath>
  <clipPath id="paec496c544">
   <rect x="271.872" y="41.472" width="142.848" height="106.4448"/>
  </clipPath>
  <clipPath id="pa627aad7ec">
   <rect x="57.6" y="201.1392" width="142.848" height="106.4448"/>
  </clipPath>
  <clipPath id="p1c7c5ad0c5">
   <rect x="271.872" y="201.1392" width="142.848" height="106.4448"/>
  </clipPath>
 </defs>
</svg>
