<?xml version="1.0" encoding="utf-8" standalone="no"?>
<!DOCTYPE svg PUBLIC "-//W3C//DTD SVG 1.1//EN"
  "http://www.w3.org/Graphics/SVG/1.1/DTD/svg11.dtd">
<svg xmlns:xlink="http://www.w3.org/1999/xlink" width="460.8pt" height="345.6pt" viewBox="0 0 460.8 345.6" xmlns="http://www.w3.org/2000/svg" version="1.1">
 <metadata>
  <rdf:RDF xmlns:dc="http://purl.org/dc/elements/1.1/" xmlns:cc="http://creativecommons.org/ns#" xmlns:rdf="http://www.w3.org/1999/02/22-rdf-syntax-ns#">
   <cc:Work>
    <dc:type rdf:resource="http://purl.org/dc/dcmitype/StillImage"/>
    <dc:date>2023-09-25T01:50:38.764525</dc:date>
    <dc:format>image/svg+xml</dc:format>
    <dc:creator>
     <cc:Agent>
      <dc:title>Matplotlib v3.8.0, https://matplotlib.org/</dc:title>
     </cc:Agent>
    </dc:creator>
   </cc:Work>
  </rdf:RDF>
 </metadata>
 <defs>
  <style type="text/css">*{stroke-linejoin: round; stroke-linecap: butt}</style>
 </defs>
 <g id="figure_1">
  <g id="patch_1">
   <path d="M 0 345.6 
L 460.8 345.6 
L 460.8 0 
L 0 0 
z
" style="fill: #ffffff"/>
  </g>
  <g id="patch_2">
   <path d="M 103.104 307.584 
L 369.216 307.584 
L 369.216 41.472 
L 103.104 41.472 
z
" style="fill: #ffffff"/>
  </g>
  <g id="pane3d_1">
   <g id="patch_3">
    <path d="M 209.854564 62.073991 
L 117.770234 129.272941 
L 123.197291 241.969309 
L 211.076164 168.307495 
" style="fill: #f2f2f2; opacity: 0.5; stroke: #f2f2f2; stroke-linejoin: miter"/>
   </g>
  </g>
  <g id="pane3d_2">
   <g id="patch_4">
    <path d="M 357.122702 99.402171 
L 209.854564 62.073991 
L 211.076164 168.307495 
L 352.090401 209.294766 
" style="fill: #e6e6e6; opacity: 0.5; stroke: #e6e6e6; stroke-linejoin: miter"/>
   </g>
  </g>
  <g id="pane3d_3">
   <g id="patch_5">
    <path d="M 352.090401 209.294766 
L 211.076164 168.307495 
L 123.197291 241.969309 
L 272.679269 290.790123 
" style="fill: #ececec; opacity: 0.5; stroke: #ececec; stroke-linejoin: miter"/>
   </g>
  </g>
  <g id="grid3d_1">
   <g id="Line3DCollection_1">
    <path d="M 262.55922 287.484915 
L 342.582846 206.531295 
L 347.173926 96.880446 
" style="fill: none; stroke: #b0b0b0; stroke-width: 0.8"/>
    <path d="M 240.266444 280.204094 
L 321.619266 200.43801 
L 325.247495 91.322735 
" style="fill: none; stroke: #b0b0b0; stroke-width: 0.8"/>
    <path d="M 218.313826 273.034369 
L 300.948602 194.429864 
L 303.640912 85.846096 
" style="fill: none; stroke: #b0b0b0; stroke-width: 0.8"/>
    <path d="M 196.69364 265.973216 
L 280.564756 188.505085 
L 282.34723 80.448769 
" style="fill: none; stroke: #b0b0b0; stroke-width: 0.8"/>
    <path d="M 175.398391 259.018188 
L 260.4618 182.661949 
L 261.359699 75.129041 
" style="fill: none; stroke: #b0b0b0; stroke-width: 0.8"/>
    <path d="M 154.420808 252.166909 
L 240.633968 176.898781 
L 240.671764 69.885253 
" style="fill: none; stroke: #b0b0b0; stroke-width: 0.8"/>
    <path d="M 133.753836 245.417076 
L 221.07565 171.21395 
L 220.277057 64.715789 
" style="fill: none; stroke: #b0b0b0; stroke-width: 0.8"/>
   </g>
  </g>
  <g id="grid3d_2">
   <g id="Line3DCollection_2">
    <path d="M 195.433551 72.597789 
L 197.269622 179.880413 
L 339.660573 222.050827 
" style="fill: none; stroke: #b0b0b0; stroke-width: 0.8"/>
    <path d="M 178.981811 84.60352 
L 181.538945 193.066178 
L 325.477475 236.606174 
" style="fill: none; stroke: #b0b0b0; stroke-width: 0.8"/>
    <path d="M 161.98153 97.009551 
L 165.306189 206.672796 
L 310.818188 251.650209 
" style="fill: none; stroke: #b0b0b0; stroke-width: 0.8"/>
    <path d="M 144.404806 109.836243 
L 148.546927 220.720741 
L 295.65832 267.207963 
" style="fill: none; stroke: #b0b0b0; stroke-width: 0.8"/>
    <path d="M 126.221816 123.105361 
L 131.235121 235.231841 
L 279.971785 283.306207 
" style="fill: none; stroke: #b0b0b0; stroke-width: 0.8"/>
   </g>
  </g>
  <g id="grid3d_3">
   <g id="Line3DCollection_3">
    <path d="M 356.789069 106.687843 
L 209.935394 69.103202 
L 118.130604 136.756269 
" style="fill: none; stroke: #b0b0b0; stroke-width: 0.8"/>
    <path d="M 356.10867 121.54602 
L 210.100307 83.444455 
L 118.865283 152.012352 
" style="fill: none; stroke: #b0b0b0; stroke-width: 0.8"/>
    <path d="M 355.436137 136.232433 
L 210.263406 97.627962 
L 119.59114 167.085233 
" style="fill: none; stroke: #b0b0b0; stroke-width: 0.8"/>
    <path d="M 354.771333 150.750042 
L 210.424721 111.656311 
L 120.308332 181.978193 
" style="fill: none; stroke: #b0b0b0; stroke-width: 0.8"/>
    <path d="M 354.114127 165.101742 
L 210.584281 125.532035 
L 121.017014 196.694432 
" style="fill: none; stroke: #b0b0b0; stroke-width: 0.8"/>
    <path d="M 353.464389 179.29036 
L 210.742114 139.25761 
L 121.717336 211.23708 
" style="fill: none; stroke: #b0b0b0; stroke-width: 0.8"/>
    <path d="M 352.821993 193.318661 
L 210.898248 152.835461 
L 122.409446 225.609188 
" style="fill: none; stroke: #b0b0b0; stroke-width: 0.8"/>
    <path d="M 352.186814 207.189346 
L 211.052711 166.26796 
L 123.093487 239.813739 
" style="fill: none; stroke: #b0b0b0; stroke-width: 0.8"/>
   </g>
  </g>
  <g id="axis3d_1">
   <g id="line2d_1">
    <path d="M 123.197291 241.969309 
L 272.679269 290.790123 
" style="fill: none; stroke: #000000; stroke-width: 0.8; stroke-linecap: square"/>
   </g>
   <g id="xtick_1">
    <g id="line2d_2">
     <path d="M 263.258725 286.777281 
L 261.157067 288.903363 
" style="fill: none; stroke: #000000; stroke-width: 0.8; stroke-linecap: square"/>
    </g>
    <g id="text_1">
     <!-- 6 -->
     <g transform="translate(252.352109 311.662795) scale(0.1 -0.1)">
      <defs>
       <path id="Georgia-36" d="M 3359 1441 
Q 3359 1116 3242 831 
Q 3125 547 2928 347 
Q 2700 119 2423 9 
Q 2147 -100 1847 -100 
Q 1500 -100 1219 28 
Q 938 156 741 391 
Q 541 628 431 972 
Q 322 1316 322 1744 
Q 322 2859 986 3625 
Q 1650 4391 2766 4544 
L 2822 4263 
L 2541 4213 
Q 1863 3994 1492 3531 
Q 1122 3069 1013 2409 
Q 1281 2644 1543 2741 
Q 1806 2838 2097 2838 
Q 2619 2838 2989 2438 
Q 3359 2038 3359 1441 
z
M 2681 1356 
Q 2681 1863 2448 2169 
Q 2216 2475 1825 2475 
Q 1591 2475 1389 2387 
Q 1188 2300 1000 2094 
Q 997 2056 990 1920 
Q 984 1784 984 1706 
Q 984 975 1223 561 
Q 1463 147 1853 147 
Q 2225 147 2453 470 
Q 2681 794 2681 1356 
z
" transform="scale(0.015625)"/>
      </defs>
      <use xlink:href="#Georgia-36"/>
     </g>
    </g>
   </g>
   <g id="xtick_2">
    <g id="line2d_3">
     <path d="M 240.977105 279.507295 
L 238.841955 281.6008 
" style="fill: none; stroke: #000000; stroke-width: 0.8; stroke-linecap: square"/>
    </g>
    <g id="text_2">
     <!-- 8 -->
     <g transform="translate(229.878595 304.225593) scale(0.1 -0.1)">
      <defs>
       <path id="Georgia-38" d="M 3491 1175 
Q 3491 650 3037 272 
Q 2584 -106 1847 -106 
Q 1156 -106 740 241 
Q 325 588 325 1134 
Q 325 1538 570 1808 
Q 816 2078 1297 2266 
Q 900 2488 703 2753 
Q 506 3019 506 3353 
Q 506 3863 939 4206 
Q 1372 4550 1975 4550 
Q 2578 4550 2951 4225 
Q 3325 3900 3325 3409 
Q 3325 3094 3119 2811 
Q 2913 2528 2513 2347 
Q 3031 2125 3261 1856 
Q 3491 1588 3491 1175 
z
M 2734 3444 
Q 2734 3825 2507 4064 
Q 2281 4303 1928 4303 
Q 1575 4303 1350 4073 
Q 1125 3844 1125 3503 
Q 1125 3175 1381 2947 
Q 1638 2719 2294 2459 
Q 2528 2609 2631 2856 
Q 2734 3103 2734 3444 
z
M 2866 1028 
Q 2866 1225 2781 1373 
Q 2697 1522 2538 1644 
Q 2384 1763 2111 1892 
Q 1838 2022 1519 2156 
Q 1219 1994 1078 1742 
Q 938 1491 938 1169 
Q 938 709 1208 426 
Q 1478 144 1928 144 
Q 2359 144 2612 394 
Q 2866 644 2866 1028 
z
" transform="scale(0.015625)"/>
      </defs>
      <use xlink:href="#Georgia-38"/>
     </g>
    </g>
   </g>
   <g id="xtick_3">
    <g id="line2d_4">
     <path d="M 219.035222 272.348158 
L 216.867843 274.409829 
" style="fill: none; stroke: #000000; stroke-width: 0.8; stroke-linecap: square"/>
    </g>
    <g id="text_3">
     <!-- 10 -->
     <g transform="translate(205.662614 296.902309) scale(0.1 -0.1)">
      <defs>
       <path id="Georgia-31" d="M 2528 0 
L 422 0 
L 422 222 
Q 516 228 714 248 
Q 913 269 988 291 
Q 1084 322 1136 392 
Q 1188 463 1188 603 
L 1188 2797 
L 409 2797 
L 409 3059 
L 581 3059 
Q 919 3059 1186 3184 
Q 1453 3309 1569 3453 
L 1828 3453 
Q 1819 3250 1809 2978 
Q 1800 2706 1800 2491 
L 1800 638 
Q 1800 528 1848 442 
Q 1897 356 1988 316 
Q 2069 281 2253 253 
Q 2438 225 2528 222 
L 2528 0 
z
" transform="scale(0.015625)"/>
       <path id="Georgia-30" d="M 3209 2919 
Q 3409 2678 3507 2354 
Q 3606 2031 3606 1678 
Q 3606 1253 3484 917 
Q 3363 581 3150 359 
Q 2931 131 2631 15 
Q 2331 -100 1963 -100 
Q 1559 -100 1243 34 
Q 928 169 731 403 
Q 525 647 423 973 
Q 322 1300 322 1678 
Q 322 2050 420 2362 
Q 519 2675 728 2928 
Q 928 3172 1243 3312 
Q 1559 3453 1966 3453 
Q 2394 3453 2700 3309 
Q 3006 3166 3209 2919 
z
M 2916 1678 
Q 2916 2422 2661 2831 
Q 2406 3241 1969 3241 
Q 1525 3241 1269 2831 
Q 1013 2422 1013 1678 
Q 1013 972 1258 542 
Q 1503 113 1963 113 
Q 2422 113 2669 542 
Q 2916 972 2916 1678 
z
" transform="scale(0.015625)"/>
      </defs>
      <use xlink:href="#Georgia-31"/>
      <use xlink:href="#Georgia-30" x="42.96875"/>
     </g>
    </g>
   </g>
   <g id="xtick_4">
    <g id="line2d_5">
     <path d="M 197.425366 265.297353 
L 195.226976 267.327911 
" style="fill: none; stroke: #000000; stroke-width: 0.8; stroke-linecap: square"/>
    </g>
    <g id="text_4">
     <!-- 12 -->
     <g transform="translate(184.292465 289.690344) scale(0.1 -0.1)">
      <defs>
       <path id="Georgia-32" d="M 3272 0 
L 344 0 
L 344 425 
Q 428 522 578 642 
Q 728 763 934 903 
Q 1059 988 1234 1088 
Q 1409 1188 1631 1306 
Q 1878 1438 2011 1538 
Q 2144 1638 2253 1784 
Q 2325 1881 2369 2026 
Q 2413 2172 2413 2441 
Q 2413 2831 2203 3014 
Q 1994 3197 1666 3197 
Q 1463 3197 1281 3117 
Q 1100 3038 1009 2897 
Q 1031 2797 1064 2659 
Q 1097 2522 1097 2391 
Q 1097 2272 998 2180 
Q 900 2088 706 2088 
Q 550 2088 465 2195 
Q 381 2303 381 2484 
Q 381 2653 475 2823 
Q 569 2994 744 3138 
Q 916 3278 1169 3365 
Q 1422 3453 1716 3453 
Q 2356 3453 2732 3167 
Q 3109 2881 3109 2403 
Q 3109 2175 3042 1987 
Q 2975 1800 2825 1656 
Q 2659 1497 2437 1383 
Q 2216 1269 1759 1066 
Q 1488 944 1253 811 
Q 1019 678 869 553 
L 3272 553 
L 3272 0 
z
" transform="scale(0.015625)"/>
      </defs>
      <use xlink:href="#Georgia-31"/>
      <use xlink:href="#Georgia-32" x="42.96875"/>
     </g>
    </g>
   </g>
   <g id="xtick_5">
    <g id="line2d_6">
     <path d="M 176.140056 258.352441 
L 173.911829 260.352584 
" style="fill: none; stroke: #000000; stroke-width: 0.8; stroke-linecap: square"/>
    </g>
    <g id="text_5">
     <!-- 14 -->
     <g transform="translate(162.941056 282.587179) scale(0.1 -0.1)">
      <defs>
       <path id="Georgia-34" d="M 3388 281 
L 2753 281 
L 2753 -1141 
L 2153 -1141 
L 2153 281 
L 153 281 
L 153 763 
L 2344 3434 
L 2753 3434 
L 2753 691 
L 3388 691 
L 3388 281 
z
M 2153 691 
L 2153 2738 
L 466 691 
L 2153 691 
z
" transform="scale(0.015625)"/>
      </defs>
      <use xlink:href="#Georgia-31"/>
      <use xlink:href="#Georgia-34" x="42.96875"/>
     </g>
    </g>
   </g>
   <g id="xtick_6">
    <g id="line2d_7">
     <path d="M 155.172035 251.511053 
L 152.915103 253.48146 
" style="fill: none; stroke: #000000; stroke-width: 0.8; stroke-linecap: square"/>
    </g>
    <g id="text_6">
     <!-- 16 -->
     <g transform="translate(141.936208 275.59037) scale(0.1 -0.1)">
      <use xlink:href="#Georgia-31"/>
      <use xlink:href="#Georgia-36" x="42.96875"/>
     </g>
    </g>
   </g>
   <g id="xtick_7">
    <g id="line2d_8">
     <path d="M 134.514262 244.770891 
L 132.229717 246.712221 
" style="fill: none; stroke: #000000; stroke-width: 0.8; stroke-linecap: square"/>
    </g>
    <g id="text_7">
     <!-- 18 -->
     <g transform="translate(121.096587 268.697548) scale(0.1 -0.1)">
      <use xlink:href="#Georgia-31"/>
      <use xlink:href="#Georgia-38" x="42.96875"/>
     </g>
    </g>
   </g>
   <g id="text_8">
    <!-- Runtime -->
    <g transform="translate(160.445056 297.562671) rotate(-341.912962) scale(0.1 -0.1)">
     <defs>
      <path id="Georgia-52" d="M 4625 0 
L 3431 0 
Q 3034 622 2714 1075 
Q 2394 1528 2019 2009 
L 1566 2009 
L 1566 603 
Q 1566 494 1600 411 
Q 1634 328 1747 284 
Q 1803 263 1943 244 
Q 2084 225 2181 222 
L 2181 0 
L 306 0 
L 306 222 
Q 381 228 523 243 
Q 666 259 722 284 
Q 816 325 858 403 
Q 900 481 900 603 
L 900 3809 
Q 900 3919 869 4003 
Q 838 4088 722 4131 
Q 644 4159 519 4182 
Q 394 4206 306 4213 
L 306 4434 
L 2353 4434 
Q 2634 4434 2881 4376 
Q 3128 4319 3328 4191 
Q 3522 4066 3637 3864 
Q 3753 3663 3753 3378 
Q 3753 3122 3675 2925 
Q 3597 2728 3444 2584 
Q 3303 2450 3106 2351 
Q 2909 2253 2672 2184 
Q 3000 1750 3217 1453 
Q 3434 1156 3750 731 
Q 3888 544 3998 455 
Q 4109 366 4219 309 
Q 4300 269 4422 247 
Q 4544 225 4625 222 
L 4625 0 
z
M 2981 3306 
Q 2981 3709 2750 3945 
Q 2519 4181 2097 4181 
L 1566 4181 
L 1566 2278 
L 1975 2278 
Q 2406 2278 2693 2554 
Q 2981 2831 2981 3306 
z
" transform="scale(0.015625)"/>
      <path id="Georgia-75" d="M 3528 56 
L 2525 -13 
L 2478 31 
L 2478 422 
L 2459 422 
Q 2384 344 2290 255 
Q 2197 166 2075 94 
Q 1934 9 1803 -34 
Q 1672 -78 1431 -78 
Q 1022 -78 808 189 
Q 594 456 594 966 
L 594 2441 
Q 594 2553 551 2629 
Q 509 2706 428 2763 
Q 372 2800 287 2817 
Q 203 2834 109 2841 
L 109 3044 
L 1138 3119 
L 1184 3075 
L 1184 934 
Q 1184 600 1334 431 
Q 1484 263 1694 263 
Q 1866 263 2000 316 
Q 2134 369 2225 441 
Q 2309 506 2373 579 
Q 2438 653 2472 716 
L 2472 2463 
Q 2472 2566 2428 2645 
Q 2384 2725 2306 2781 
Q 2250 2819 2139 2826 
Q 2028 2834 1891 2841 
L 1891 3044 
L 3009 3119 
L 3056 3075 
L 3056 628 
Q 3056 522 3100 447 
Q 3144 372 3222 319 
Q 3278 284 3356 273 
Q 3434 263 3528 259 
L 3528 56 
z
" transform="scale(0.015625)"/>
      <path id="Georgia-6e" d="M 3628 0 
L 2119 0 
L 2119 206 
Q 2191 213 2277 219 
Q 2363 225 2419 244 
Q 2506 272 2548 342 
Q 2591 413 2591 525 
L 2591 2109 
Q 2591 2438 2436 2616 
Q 2281 2794 2059 2794 
Q 1894 2794 1756 2742 
Q 1619 2691 1513 2616 
Q 1409 2544 1348 2461 
Q 1288 2378 1259 2328 
L 1259 556 
Q 1259 450 1303 381 
Q 1347 313 1434 275 
Q 1500 244 1576 228 
Q 1653 213 1734 206 
L 1734 0 
L 225 0 
L 225 206 
Q 297 213 373 219 
Q 450 225 506 244 
Q 594 272 636 342 
Q 678 413 678 525 
L 678 2428 
Q 678 2534 633 2623 
Q 588 2713 506 2769 
Q 447 2806 365 2823 
Q 284 2841 191 2847 
L 191 3050 
L 1216 3119 
L 1259 3075 
L 1259 2641 
L 1275 2641 
Q 1350 2716 1462 2820 
Q 1575 2925 1675 2991 
Q 1791 3066 1950 3116 
Q 2109 3166 2309 3166 
Q 2753 3166 2967 2889 
Q 3181 2613 3181 2153 
L 3181 550 
Q 3181 441 3218 373 
Q 3256 306 3347 269 
Q 3422 238 3476 225 
Q 3531 213 3628 206 
L 3628 0 
z
" transform="scale(0.015625)"/>
      <path id="Georgia-74" d="M 2128 134 
Q 1925 50 1744 -8 
Q 1563 -66 1300 -66 
Q 913 -66 755 129 
Q 597 325 597 681 
L 597 2769 
L 41 2769 
L 41 3069 
L 609 3069 
L 609 4028 
L 1178 4028 
L 1178 3069 
L 2063 3069 
L 2063 2769 
L 1184 2769 
L 1184 1047 
Q 1184 853 1198 723 
Q 1213 594 1266 497 
Q 1316 406 1416 359 
Q 1516 313 1684 313 
Q 1763 313 1914 327 
Q 2066 341 2128 363 
L 2128 134 
z
" transform="scale(0.015625)"/>
      <path id="Georgia-69" d="M 1722 0 
L 231 0 
L 231 206 
Q 303 213 379 219 
Q 456 225 513 244 
Q 600 272 642 342 
Q 684 413 684 525 
L 684 2428 
Q 684 2528 639 2611 
Q 594 2694 513 2750 
Q 453 2788 340 2814 
Q 228 2841 134 2847 
L 134 3050 
L 1222 3119 
L 1266 3075 
L 1266 563 
Q 1266 453 1308 381 
Q 1350 309 1441 275 
Q 1509 247 1575 230 
Q 1641 213 1722 206 
L 1722 0 
z
M 1328 4334 
Q 1328 4156 1211 4023 
Q 1094 3891 922 3891 
Q 763 3891 645 4017 
Q 528 4144 528 4306 
Q 528 4478 645 4606 
Q 763 4734 922 4734 
Q 1100 4734 1214 4614 
Q 1328 4494 1328 4334 
z
" transform="scale(0.015625)"/>
      <path id="Georgia-6d" d="M 5503 0 
L 4000 0 
L 4000 206 
Q 4072 213 4145 219 
Q 4219 225 4275 244 
Q 4363 272 4405 342 
Q 4447 413 4447 525 
L 4447 2116 
Q 4447 2441 4298 2617 
Q 4150 2794 3928 2794 
Q 3775 2794 3640 2747 
Q 3506 2700 3394 2616 
Q 3303 2547 3242 2467 
Q 3181 2388 3150 2334 
L 3150 556 
Q 3150 447 3187 376 
Q 3225 306 3316 269 
Q 3388 241 3445 227 
Q 3503 213 3597 206 
L 3597 0 
L 2125 0 
L 2125 206 
Q 2197 213 2264 219 
Q 2331 225 2388 244 
Q 2475 272 2517 342 
Q 2559 413 2559 525 
L 2559 2116 
Q 2559 2441 2411 2617 
Q 2263 2794 2041 2794 
Q 1888 2794 1753 2745 
Q 1619 2697 1506 2613 
Q 1416 2544 1353 2458 
Q 1291 2372 1259 2328 
L 1259 563 
Q 1259 456 1303 384 
Q 1347 313 1434 275 
Q 1500 244 1569 228 
Q 1638 213 1722 206 
L 1722 0 
L 225 0 
L 225 206 
Q 297 213 373 219 
Q 450 225 506 244 
Q 594 272 636 342 
Q 678 413 678 525 
L 678 2441 
Q 678 2541 633 2620 
Q 588 2700 506 2756 
Q 447 2794 359 2817 
Q 272 2841 178 2847 
L 178 3050 
L 1209 3119 
L 1253 3075 
L 1253 2634 
L 1275 2634 
Q 1353 2713 1465 2819 
Q 1578 2925 1675 2991 
Q 1784 3066 1948 3116 
Q 2113 3166 2303 3166 
Q 2603 3166 2818 3005 
Q 3034 2844 3128 2616 
Q 3241 2725 3327 2808 
Q 3413 2891 3553 2984 
Q 3672 3066 3833 3116 
Q 3994 3166 4191 3166 
Q 4581 3166 4809 2909 
Q 5038 2653 5038 2122 
L 5038 556 
Q 5038 447 5075 376 
Q 5113 306 5203 269 
Q 5275 241 5345 227 
Q 5416 213 5503 206 
L 5503 0 
z
" transform="scale(0.015625)"/>
      <path id="Georgia-65" d="M 2963 725 
Q 2769 356 2444 137 
Q 2119 -81 1697 -81 
Q 1325 -81 1045 50 
Q 766 181 584 406 
Q 403 631 314 931 
Q 225 1231 225 1566 
Q 225 1866 320 2155 
Q 416 2444 600 2675 
Q 778 2897 1042 3033 
Q 1306 3169 1634 3169 
Q 1972 3169 2212 3062 
Q 2453 2956 2603 2772 
Q 2747 2597 2817 2359 
Q 2888 2122 2888 1844 
L 2888 1638 
L 847 1638 
Q 847 1334 905 1087 
Q 963 841 1088 653 
Q 1209 472 1406 367 
Q 1603 263 1875 263 
Q 2153 263 2354 392 
Q 2556 522 2744 859 
L 2963 725 
z
M 2272 1900 
Q 2272 2075 2242 2275 
Q 2213 2475 2147 2609 
Q 2075 2753 1950 2843 
Q 1825 2934 1628 2934 
Q 1300 2934 1083 2661 
Q 866 2388 847 1900 
L 2272 1900 
z
" transform="scale(0.015625)"/>
     </defs>
     <use xlink:href="#Georgia-52"/>
     <use xlink:href="#Georgia-75" x="70.166016"/>
     <use xlink:href="#Georgia-6e" x="127.685547"/>
     <use xlink:href="#Georgia-74" x="186.767578"/>
     <use xlink:href="#Georgia-69" x="221.289062"/>
     <use xlink:href="#Georgia-6d" x="250.585938"/>
     <use xlink:href="#Georgia-65" x="338.671875"/>
    </g>
   </g>
  </g>
  <g id="axis3d_2">
   <g id="line2d_9">
    <path d="M 352.090401 209.294766 
L 272.679269 290.790123 
" style="fill: none; stroke: #000000; stroke-width: 0.8; stroke-linecap: square"/>
   </g>
   <g id="xtick_8">
    <g id="line2d_10">
     <path d="M 338.4647 221.696658 
L 342.055205 222.76002 
" style="fill: none; stroke: #000000; stroke-width: 0.8; stroke-linecap: square"/>
    </g>
    <g id="text_9">
     <!-- 0.2 -->
     <g transform="translate(344.505361 242.101143) scale(0.1 -0.1)">
      <defs>
       <path id="Georgia-2e" d="M 1297 359 
Q 1297 184 1170 60 
Q 1044 -63 869 -63 
Q 694 -63 567 60 
Q 441 184 441 359 
Q 441 534 567 661 
Q 694 788 869 788 
Q 1044 788 1170 661 
Q 1297 534 1297 359 
z
" transform="scale(0.015625)"/>
      </defs>
      <use xlink:href="#Georgia-30"/>
      <use xlink:href="#Georgia-2e" x="61.376953"/>
      <use xlink:href="#Georgia-32" x="88.330078"/>
     </g>
    </g>
   </g>
   <g id="xtick_9">
    <g id="line2d_11">
     <path d="M 324.267658 236.240216 
L 327.900077 237.338988 
" style="fill: none; stroke: #000000; stroke-width: 0.8; stroke-linecap: square"/>
    </g>
    <g id="text_10">
     <!-- 0.3 -->
     <g transform="translate(330.54771 256.871101) scale(0.1 -0.1)">
      <defs>
       <path id="Georgia-33" d="M 1522 -1141 
Q 1228 -1141 984 -1067 
Q 741 -994 566 -869 
Q 391 -744 295 -581 
Q 200 -419 200 -247 
Q 200 -94 275 29 
Q 350 153 516 153 
Q 703 153 801 61 
Q 900 -31 900 -150 
Q 900 -250 867 -403 
Q 834 -556 816 -622 
Q 838 -650 895 -697 
Q 953 -744 1038 -781 
Q 1138 -828 1247 -856 
Q 1356 -884 1556 -884 
Q 1744 -884 1917 -821 
Q 2091 -759 2222 -622 
Q 2359 -478 2436 -286 
Q 2513 -94 2513 219 
Q 2513 388 2477 553 
Q 2441 719 2344 841 
Q 2247 963 2080 1030 
Q 1913 1097 1656 1097 
L 1247 1097 
L 1247 1456 
L 1519 1456 
Q 1950 1456 2140 1693 
Q 2331 1931 2331 2409 
Q 2331 2800 2147 2998 
Q 1963 3197 1625 3197 
Q 1463 3197 1358 3158 
Q 1253 3119 1188 3081 
Q 1109 3038 1059 2984 
Q 1009 2931 984 2906 
Q 1006 2806 1037 2661 
Q 1069 2516 1069 2384 
Q 1069 2269 970 2176 
Q 872 2084 681 2084 
Q 516 2084 439 2203 
Q 363 2322 363 2478 
Q 363 2641 453 2809 
Q 544 2978 722 3125 
Q 900 3272 1156 3362 
Q 1413 3453 1747 3453 
Q 2131 3453 2382 3339 
Q 2634 3225 2778 3063 
Q 2919 2903 2972 2728 
Q 3025 2553 3025 2428 
Q 3025 2272 2981 2114 
Q 2938 1956 2838 1822 
Q 2728 1675 2548 1554 
Q 2369 1434 2097 1359 
L 2097 1309 
Q 2272 1294 2470 1231 
Q 2669 1169 2828 1047 
Q 2994 919 3100 717 
Q 3206 516 3206 206 
Q 3206 -394 2725 -767 
Q 2244 -1141 1522 -1141 
z
" transform="scale(0.015625)"/>
      </defs>
      <use xlink:href="#Georgia-30"/>
      <use xlink:href="#Georgia-2e" x="61.376953"/>
      <use xlink:href="#Georgia-33" x="88.330078"/>
     </g>
    </g>
   </g>
   <g id="xtick_10">
    <g id="line2d_12">
     <path d="M 309.594157 251.271864 
L 313.269304 252.407843 
" style="fill: none; stroke: #000000; stroke-width: 0.8; stroke-linecap: square"/>
    </g>
    <g id="text_11">
     <!-- 0.4 -->
     <g transform="translate(316.019233 272.137238) scale(0.1 -0.1)">
      <use xlink:href="#Georgia-30"/>
      <use xlink:href="#Georgia-2e" x="61.376953"/>
      <use xlink:href="#Georgia-34" x="88.330078"/>
     </g>
    </g>
   </g>
   <g id="xtick_11">
    <g id="line2d_13">
     <path d="M 294.419801 266.816591 
L 298.138501 267.991701 
" style="fill: none; stroke: #000000; stroke-width: 0.8; stroke-linecap: square"/>
    </g>
    <g id="text_12">
     <!-- 0.5 -->
     <g transform="translate(301.246619 287.924985) scale(0.1 -0.1)">
      <defs>
       <path id="Georgia-35" d="M 2634 1466 
Q 2841 1303 2977 1047 
Q 3113 791 3113 406 
Q 3113 -266 2653 -703 
Q 2194 -1141 1488 -1141 
Q 941 -1141 562 -881 
Q 184 -622 184 -278 
Q 184 -119 262 0 
Q 341 119 503 119 
Q 691 119 789 20 
Q 888 -78 888 -194 
Q 888 -294 853 -444 
Q 819 -594 800 -666 
Q 825 -688 881 -725 
Q 938 -763 1016 -797 
Q 1097 -831 1214 -857 
Q 1331 -884 1488 -884 
Q 1688 -884 1866 -803 
Q 2044 -722 2166 -563 
Q 2300 -388 2367 -164 
Q 2434 59 2434 403 
Q 2434 844 2189 1133 
Q 1944 1422 1544 1422 
Q 1294 1422 1076 1328 
Q 859 1234 688 1016 
L 478 1097 
L 744 3353 
L 2981 3353 
L 2981 2797 
L 997 2797 
L 834 1472 
Q 975 1572 1204 1670 
Q 1434 1769 1709 1769 
Q 1938 1769 2183 1698 
Q 2428 1628 2634 1466 
z
" transform="scale(0.015625)"/>
      </defs>
      <use xlink:href="#Georgia-30"/>
      <use xlink:href="#Georgia-2e" x="61.376953"/>
      <use xlink:href="#Georgia-35" x="88.330078"/>
     </g>
    </g>
   </g>
   <g id="xtick_12">
    <g id="line2d_14">
     <path d="M 278.718501 282.901123 
L 282.481589 284.117421 
" style="fill: none; stroke: #000000; stroke-width: 0.8; stroke-linecap: square"/>
    </g>
    <g id="text_13">
     <!-- 0.6 -->
     <g transform="translate(285.582228 304.26154) scale(0.1 -0.1)">
      <use xlink:href="#Georgia-30"/>
      <use xlink:href="#Georgia-2e" x="61.376953"/>
      <use xlink:href="#Georgia-36" x="88.330078"/>
     </g>
    </g>
   </g>
   <g id="text_14">
    <!-- Price -->
    <g transform="translate(335.211928 286.167667) rotate(-45.742112) scale(0.1 -0.1)">
     <defs>
      <path id="Georgia-50" d="M 3700 3341 
Q 3700 2994 3564 2726 
Q 3428 2459 3188 2284 
Q 2950 2109 2665 2028 
Q 2381 1947 2063 1947 
L 1566 1947 
L 1566 603 
Q 1566 494 1602 411 
Q 1638 328 1750 284 
Q 1806 263 1948 244 
Q 2091 225 2209 222 
L 2209 0 
L 306 0 
L 306 222 
Q 381 228 523 243 
Q 666 259 722 284 
Q 816 325 858 403 
Q 900 481 900 603 
L 900 3803 
Q 900 3913 869 4000 
Q 838 4088 722 4131 
Q 603 4172 486 4189 
Q 369 4206 284 4213 
L 284 4434 
L 2309 4434 
Q 2928 4434 3314 4136 
Q 3700 3838 3700 3341 
z
M 2750 2584 
Q 2856 2734 2890 2895 
Q 2925 3056 2925 3184 
Q 2925 3363 2883 3547 
Q 2841 3731 2738 3869 
Q 2628 4016 2450 4097 
Q 2272 4178 2006 4178 
L 1566 4178 
L 1566 2219 
L 1884 2219 
Q 2222 2219 2433 2323 
Q 2644 2428 2750 2584 
z
" transform="scale(0.015625)"/>
      <path id="Georgia-72" d="M 2584 2684 
Q 2584 2525 2506 2401 
Q 2428 2278 2266 2278 
Q 2091 2278 1998 2368 
Q 1906 2459 1906 2569 
Q 1906 2638 1917 2694 
Q 1928 2750 1938 2806 
Q 1791 2806 1594 2687 
Q 1397 2569 1259 2350 
L 1259 556 
Q 1259 447 1301 378 
Q 1344 309 1434 275 
Q 1513 244 1636 228 
Q 1759 213 1850 206 
L 1850 0 
L 225 0 
L 225 206 
Q 297 213 373 219 
Q 450 225 506 244 
Q 594 272 636 342 
Q 678 413 678 525 
L 678 2428 
Q 678 2525 633 2619 
Q 588 2713 506 2769 
Q 447 2806 365 2823 
Q 284 2841 191 2847 
L 191 3050 
L 1216 3119 
L 1259 3075 
L 1259 2641 
L 1275 2641 
Q 1469 2894 1706 3025 
Q 1944 3156 2141 3156 
Q 2338 3156 2461 3028 
Q 2584 2900 2584 2684 
z
" transform="scale(0.015625)"/>
      <path id="Georgia-63" d="M 1650 -81 
Q 981 -81 603 362 
Q 225 806 225 1553 
Q 225 1878 326 2161 
Q 428 2444 622 2675 
Q 806 2897 1084 3033 
Q 1363 3169 1691 3169 
Q 2144 3169 2428 2951 
Q 2713 2734 2713 2359 
Q 2713 2203 2638 2083 
Q 2563 1963 2391 1963 
Q 2206 1963 2104 2056 
Q 2003 2150 2003 2266 
Q 2003 2406 2040 2554 
Q 2078 2703 2084 2772 
Q 2028 2869 1917 2901 
Q 1806 2934 1678 2934 
Q 1528 2934 1392 2870 
Q 1256 2806 1128 2634 
Q 1013 2478 941 2212 
Q 869 1947 869 1578 
Q 869 997 1126 630 
Q 1384 263 1803 263 
Q 2106 263 2311 409 
Q 2516 556 2691 850 
L 2891 719 
Q 2684 350 2346 134 
Q 2009 -81 1650 -81 
z
" transform="scale(0.015625)"/>
     </defs>
     <use xlink:href="#Georgia-50"/>
     <use xlink:href="#Georgia-72" x="60.986328"/>
     <use xlink:href="#Georgia-69" x="101.953125"/>
     <use xlink:href="#Georgia-63" x="131.25"/>
     <use xlink:href="#Georgia-65" x="176.660156"/>
    </g>
   </g>
  </g>
  <g id="axis3d_3">
   <g id="line2d_15">
    <path d="M 352.090401 209.294766 
L 357.122702 99.402171 
" style="fill: none; stroke: #000000; stroke-width: 0.8; stroke-linecap: square"/>
   </g>
   <g id="xtick_13">
    <g id="line2d_16">
     <path d="M 355.554151 106.371787 
L 359.261966 107.320738 
" style="fill: none; stroke: #000000; stroke-width: 0.8; stroke-linecap: square"/>
    </g>
    <g id="text_15">
     <!-- 0.000 -->
     <g transform="translate(362.16129 111.854066) scale(0.1 -0.1)">
      <use xlink:href="#Georgia-30"/>
      <use xlink:href="#Georgia-2e" x="61.376953"/>
      <use xlink:href="#Georgia-30" x="88.330078"/>
      <use xlink:href="#Georgia-30" x="149.707031"/>
      <use xlink:href="#Georgia-30" x="211.083984"/>
     </g>
    </g>
   </g>
   <g id="xtick_14">
    <g id="line2d_17">
     <path d="M 354.881208 121.225708 
L 358.56662 122.187434 
" style="fill: none; stroke: #000000; stroke-width: 0.8; stroke-linecap: square"/>
    </g>
    <g id="text_16">
     <!-- 0.001 -->
     <g transform="translate(362.293227 126.679976) scale(0.1 -0.1)">
      <use xlink:href="#Georgia-30"/>
      <use xlink:href="#Georgia-2e" x="61.376953"/>
      <use xlink:href="#Georgia-30" x="88.330078"/>
      <use xlink:href="#Georgia-30" x="149.707031"/>
      <use xlink:href="#Georgia-31" x="211.083984"/>
     </g>
    </g>
   </g>
   <g id="xtick_15">
    <g id="line2d_18">
     <path d="M 354.21604 135.907983 
L 357.879318 136.882126 
" style="fill: none; stroke: #000000; stroke-width: 0.8; stroke-linecap: square"/>
    </g>
    <g id="text_17">
     <!-- 0.002 -->
     <g transform="translate(360.869407 141.335024) scale(0.1 -0.1)">
      <use xlink:href="#Georgia-30"/>
      <use xlink:href="#Georgia-2e" x="61.376953"/>
      <use xlink:href="#Georgia-30" x="88.330078"/>
      <use xlink:href="#Georgia-30" x="149.707031"/>
      <use xlink:href="#Georgia-32" x="211.083984"/>
     </g>
    </g>
   </g>
   <g id="xtick_16">
    <g id="line2d_19">
     <path d="M 353.558515 150.421572 
L 357.199923 151.407783 
" style="fill: none; stroke: #000000; stroke-width: 0.8; stroke-linecap: square"/>
    </g>
    <g id="text_18">
     <!-- 0.003 -->
     <g transform="translate(360.133423 155.822147) scale(0.1 -0.1)">
      <use xlink:href="#Georgia-30"/>
      <use xlink:href="#Georgia-2e" x="61.376953"/>
      <use xlink:href="#Georgia-30" x="88.330078"/>
      <use xlink:href="#Georgia-30" x="149.707031"/>
      <use xlink:href="#Georgia-33" x="211.083984"/>
     </g>
    </g>
   </g>
   <g id="xtick_17">
    <g id="line2d_20">
     <path d="M 352.908502 164.769363 
L 356.528298 165.767304 
" style="fill: none; stroke: #000000; stroke-width: 0.8; stroke-linecap: square"/>
    </g>
    <g id="text_19">
     <!-- 0.004 -->
     <g transform="translate(359.305434 170.144213) scale(0.1 -0.1)">
      <use xlink:href="#Georgia-30"/>
      <use xlink:href="#Georgia-2e" x="61.376953"/>
      <use xlink:href="#Georgia-30" x="88.330078"/>
      <use xlink:href="#Georgia-30" x="149.707031"/>
      <use xlink:href="#Georgia-34" x="211.083984"/>
     </g>
    </g>
   </g>
   <g id="xtick_18">
    <g id="line2d_21">
     <path d="M 352.265871 178.954183 
L 355.864312 179.963524 
" style="fill: none; stroke: #000000; stroke-width: 0.8; stroke-linecap: square"/>
    </g>
    <g id="text_20">
     <!-- 0.005 -->
     <g transform="translate(358.736073 184.304029) scale(0.1 -0.1)">
      <use xlink:href="#Georgia-30"/>
      <use xlink:href="#Georgia-2e" x="61.376953"/>
      <use xlink:href="#Georgia-30" x="88.330078"/>
      <use xlink:href="#Georgia-30" x="149.707031"/>
      <use xlink:href="#Georgia-35" x="211.083984"/>
     </g>
    </g>
   </g>
   <g id="xtick_19">
    <g id="line2d_22">
     <path d="M 351.630499 192.978792 
L 355.207833 193.999212 
" style="fill: none; stroke: #000000; stroke-width: 0.8; stroke-linecap: square"/>
    </g>
    <g id="text_21">
     <!-- 0.006 -->
     <g transform="translate(357.803319 198.304335) scale(0.1 -0.1)">
      <use xlink:href="#Georgia-30"/>
      <use xlink:href="#Georgia-2e" x="61.376953"/>
      <use xlink:href="#Georgia-30" x="88.330078"/>
      <use xlink:href="#Georgia-30" x="149.707031"/>
      <use xlink:href="#Georgia-36" x="211.083984"/>
     </g>
    </g>
   </g>
   <g id="xtick_20">
    <g id="line2d_23">
     <path d="M 351.002262 206.845889 
L 354.558736 207.877077 
" style="fill: none; stroke: #000000; stroke-width: 0.8; stroke-linecap: square"/>
    </g>
    <g id="text_22">
     <!-- 0.007 -->
     <g transform="translate(357.384373 212.147812) scale(0.1 -0.1)">
      <defs>
       <path id="Georgia-37" d="M 3216 3150 
L 988 -1141 
L 597 -1141 
L 2694 2828 
L 1466 2828 
Q 1194 2828 1041 2822 
Q 888 2816 759 2763 
Q 663 2722 586 2555 
Q 509 2388 469 2128 
L 278 2128 
L 278 3353 
L 3216 3353 
L 3216 3150 
z
" transform="scale(0.015625)"/>
      </defs>
      <use xlink:href="#Georgia-30"/>
      <use xlink:href="#Georgia-2e" x="61.376953"/>
      <use xlink:href="#Georgia-30" x="88.330078"/>
      <use xlink:href="#Georgia-30" x="149.707031"/>
      <use xlink:href="#Georgia-37" x="211.083984"/>
     </g>
    </g>
   </g>
   <g id="text_23">
    <!-- Max Failure Rate -->
    <g transform="translate(395.880733 188.241248) rotate(-87.378092) scale(0.1 -0.1)">
     <defs>
      <path id="Georgia-4d" d="M 5644 0 
L 3684 0 
L 3684 222 
Q 3791 225 3958 244 
Q 4125 263 4188 297 
Q 4284 356 4329 432 
Q 4375 509 4375 625 
L 4375 3850 
L 4328 3850 
L 2816 72 
L 2659 72 
L 1219 3928 
L 1178 3928 
L 1178 1281 
Q 1178 897 1226 697 
Q 1275 497 1375 409 
Q 1444 344 1659 284 
Q 1875 225 1941 222 
L 1941 0 
L 150 0 
L 150 222 
Q 291 234 445 268 
Q 600 303 684 372 
Q 794 459 834 640 
Q 875 822 875 1247 
L 875 3516 
Q 875 3713 828 3838 
Q 781 3963 694 4041 
Q 597 4125 456 4165 
Q 316 4206 178 4213 
L 178 4434 
L 1691 4434 
L 2959 1109 
L 4044 3891 
Q 4103 4044 4145 4211 
Q 4188 4378 4191 4434 
L 5638 4434 
L 5638 4213 
Q 5550 4209 5414 4184 
Q 5278 4159 5216 4138 
Q 5109 4100 5071 4012 
Q 5034 3925 5034 3822 
L 5034 625 
Q 5034 516 5071 441 
Q 5109 366 5216 309 
Q 5272 278 5415 251 
Q 5559 225 5644 222 
L 5644 0 
z
" transform="scale(0.015625)"/>
      <path id="Georgia-61" d="M 3144 56 
Q 2997 3 2886 -30 
Q 2775 -63 2634 -63 
Q 2391 -63 2245 51 
Q 2100 166 2059 384 
L 2041 384 
Q 1838 159 1605 40 
Q 1372 -78 1044 -78 
Q 697 -78 473 134 
Q 250 347 250 691 
Q 250 869 300 1009 
Q 350 1150 450 1263 
Q 528 1356 656 1429 
Q 784 1503 897 1547 
Q 1038 1600 1467 1744 
Q 1897 1888 2047 1969 
L 2047 2278 
Q 2047 2319 2030 2434 
Q 2013 2550 1956 2653 
Q 1894 2769 1780 2855 
Q 1666 2941 1456 2941 
Q 1313 2941 1189 2892 
Q 1066 2844 1016 2791 
Q 1016 2728 1045 2606 
Q 1075 2484 1075 2381 
Q 1075 2272 976 2181 
Q 878 2091 703 2091 
Q 547 2091 473 2202 
Q 400 2313 400 2450 
Q 400 2594 501 2725 
Q 603 2856 766 2959 
Q 906 3047 1106 3108 
Q 1306 3169 1497 3169 
Q 1759 3169 1954 3133 
Q 2150 3097 2309 2978 
Q 2469 2863 2551 2664 
Q 2634 2466 2634 2153 
Q 2634 1706 2625 1361 
Q 2616 1016 2616 606 
Q 2616 484 2658 412 
Q 2700 341 2788 291 
Q 2834 263 2936 259 
Q 3038 256 3144 256 
L 3144 56 
z
M 2053 1706 
Q 1788 1628 1588 1553 
Q 1388 1478 1216 1366 
Q 1059 1259 968 1114 
Q 878 969 878 769 
Q 878 509 1014 387 
Q 1150 266 1359 266 
Q 1581 266 1750 373 
Q 1919 481 2034 628 
L 2053 1706 
z
" transform="scale(0.015625)"/>
      <path id="Georgia-78" d="M 3194 0 
L 1781 0 
L 1781 206 
Q 1922 222 2020 237 
Q 2119 253 2119 319 
Q 2119 347 2087 406 
Q 2056 466 2025 516 
Q 1947 638 1811 842 
Q 1675 1047 1478 1331 
Q 1316 1128 1178 936 
Q 1041 744 891 528 
Q 869 497 845 450 
Q 822 403 822 375 
Q 822 306 911 261 
Q 1000 216 1178 200 
L 1178 0 
L 38 0 
L 38 194 
Q 250 256 379 345 
Q 509 434 619 566 
Q 716 691 889 909 
Q 1063 1128 1338 1503 
Q 1178 1731 948 2061 
Q 719 2391 569 2609 
Q 488 2728 383 2801 
Q 278 2875 88 2875 
L 88 3081 
L 1428 3081 
L 1428 2875 
Q 1328 2875 1231 2862 
Q 1134 2850 1134 2806 
Q 1134 2778 1153 2743 
Q 1172 2709 1200 2669 
Q 1269 2563 1414 2341 
Q 1559 2119 1728 1872 
Q 1838 2022 1983 2222 
Q 2128 2422 2250 2603 
Q 2263 2625 2275 2658 
Q 2288 2691 2288 2722 
Q 2288 2788 2180 2827 
Q 2072 2866 1975 2881 
L 1975 3081 
L 3113 3081 
L 3113 2888 
Q 2872 2825 2737 2739 
Q 2603 2653 2509 2541 
Q 2406 2413 2264 2225 
Q 2122 2038 1866 1700 
Q 2150 1300 2328 1044 
Q 2506 788 2688 516 
Q 2778 378 2889 298 
Q 3000 219 3194 206 
L 3194 0 
z
" transform="scale(0.015625)"/>
      <path id="Georgia-20" transform="scale(0.015625)"/>
      <path id="Georgia-46" d="M 3747 3325 
L 3513 3325 
Q 3447 3572 3239 3853 
Q 3031 4134 2841 4163 
Q 2744 4175 2611 4181 
Q 2478 4188 2309 4188 
L 1566 4188 
L 1566 2406 
L 2075 2406 
Q 2306 2406 2434 2454 
Q 2563 2503 2653 2603 
Q 2716 2672 2767 2817 
Q 2819 2963 2834 3128 
L 3072 3128 
L 3072 1388 
L 2834 1388 
Q 2825 1525 2770 1700 
Q 2716 1875 2653 1953 
Q 2559 2069 2417 2111 
Q 2275 2153 2075 2153 
L 1566 2153 
L 1566 625 
Q 1566 522 1606 440 
Q 1647 359 1750 309 
Q 1797 288 1953 256 
Q 2109 225 2191 222 
L 2191 0 
L 269 0 
L 269 222 
Q 363 228 519 242 
Q 675 256 722 278 
Q 816 319 858 398 
Q 900 478 900 591 
L 900 3791 
Q 900 3894 865 3973 
Q 831 4053 722 4103 
Q 638 4144 495 4175 
Q 353 4206 269 4213 
L 269 4434 
L 3747 4434 
L 3747 3325 
z
" transform="scale(0.015625)"/>
      <path id="Georgia-6c" d="M 1669 0 
L 166 0 
L 166 206 
Q 238 213 319 220 
Q 400 228 453 244 
Q 541 272 584 342 
Q 628 413 628 525 
L 628 4094 
Q 628 4206 579 4304 
Q 531 4403 453 4459 
Q 397 4497 247 4528 
Q 97 4559 6 4566 
L 6 4766 
L 1166 4838 
L 1209 4791 
L 1209 563 
Q 1209 453 1250 383 
Q 1291 313 1381 275 
Q 1450 244 1517 228 
Q 1584 213 1669 206 
L 1669 0 
z
" transform="scale(0.015625)"/>
     </defs>
     <use xlink:href="#Georgia-4d"/>
     <use xlink:href="#Georgia-61" x="92.724609"/>
     <use xlink:href="#Georgia-78" x="143.115234"/>
     <use xlink:href="#Georgia-20" x="193.603516"/>
     <use xlink:href="#Georgia-46" x="217.724609"/>
     <use xlink:href="#Georgia-61" x="277.636719"/>
     <use xlink:href="#Georgia-69" x="328.027344"/>
     <use xlink:href="#Georgia-6c" x="357.324219"/>
     <use xlink:href="#Georgia-75" x="385.9375"/>
     <use xlink:href="#Georgia-72" x="443.457031"/>
     <use xlink:href="#Georgia-65" x="484.423828"/>
     <use xlink:href="#Georgia-20" x="532.763672"/>
     <use xlink:href="#Georgia-52" x="556.884766"/>
     <use xlink:href="#Georgia-61" x="627.050781"/>
     <use xlink:href="#Georgia-74" x="677.441406"/>
     <use xlink:href="#Georgia-65" x="711.962891"/>
    </g>
   </g>
  </g>
  <g id="axes_1">
   <g id="Path3DCollection_1">
    <defs>
     <path id="C0_0_27c110beeb" d="M 0 2.236068 
C 0.593012 2.236068 1.161816 2.000462 1.581139 1.581139 
C 2.000462 1.161816 2.236068 0.593012 2.236068 -0 
C 2.236068 -0.593012 2.000462 -1.161816 1.581139 -1.581139 
C 1.161816 -2.000462 0.593012 -2.236068 0 -2.236068 
C -0.593012 -2.236068 -1.161816 -2.000462 -1.581139 -1.581139 
C -2.000462 -1.161816 -2.236068 -0.593012 -2.236068 0 
C -2.236068 0.593012 -2.000462 1.161816 -1.581139 1.581139 
C -1.161816 2.000462 -0.593012 2.236068 0 2.236068 
z
"/>
    </defs>
    <g clip-path="url(#p13e442542e)">
     <use xlink:href="#C0_0_27c110beeb" x="208.937089" y="126.86281" style="fill: #00ffff; stroke: #00ffff"/>
    </g>
    <g clip-path="url(#p13e442542e)">
     <use xlink:href="#C0_0_27c110beeb" x="208.937089" y="126.86281" style="fill: #00ffff; stroke: #00ffff"/>
    </g>
    <g clip-path="url(#p13e442542e)">
     <use xlink:href="#C0_0_27c110beeb" x="208.937089" y="126.86281" style="fill: #00ffff; stroke: #00ffff"/>
    </g>
    <g clip-path="url(#p13e442542e)">
     <use xlink:href="#C0_0_27c110beeb" x="208.937089" y="126.86281" style="fill: #00ffff; stroke: #00ffff"/>
    </g>
    <g clip-path="url(#p13e442542e)">
     <use xlink:href="#C0_0_27c110beeb" x="208.937089" y="126.86281" style="fill: #00ffff; stroke: #00ffff"/>
    </g>
   </g>
   <g id="text_24">
    <!-- delight-nashorn-sandbox_dot -->
    <g transform="translate(156.5025 35.472) scale(0.12 -0.12)">
     <defs>
      <path id="Georgia-64" d="M 3600 56 
L 2525 -13 
L 2478 31 
L 2478 319 
L 2453 325 
Q 2291 144 2052 28 
Q 1813 -88 1559 -88 
Q 1297 -88 1051 29 
Q 806 147 625 359 
Q 441 575 333 878 
Q 225 1181 225 1547 
Q 225 1881 340 2181 
Q 456 2481 659 2706 
Q 850 2916 1126 3041 
Q 1403 3166 1691 3166 
Q 1906 3166 2114 3111 
Q 2322 3056 2472 2972 
L 2472 4044 
Q 2472 4175 2428 4283 
Q 2384 4391 2306 4447 
Q 2219 4506 2070 4532 
Q 1922 4559 1750 4572 
L 1750 4766 
L 3009 4838 
L 3056 4791 
L 3056 634 
Q 3056 525 3098 448 
Q 3141 372 3222 319 
Q 3281 281 3393 272 
Q 3506 263 3600 259 
L 3600 56 
z
M 2472 597 
L 2472 2400 
Q 2447 2481 2390 2575 
Q 2334 2669 2250 2747 
Q 2159 2825 2037 2876 
Q 1916 2928 1753 2928 
Q 1566 2928 1408 2831 
Q 1250 2734 1128 2553 
Q 1013 2378 945 2108 
Q 878 1838 878 1509 
Q 878 1247 928 1033 
Q 978 819 1097 634 
Q 1206 459 1376 353 
Q 1547 247 1781 247 
Q 2031 247 2195 356 
Q 2359 466 2472 597 
z
" transform="scale(0.015625)"/>
      <path id="Georgia-67" d="M 2866 319 
Q 2991 200 3062 50 
Q 3134 -100 3134 -322 
Q 3134 -544 3037 -739 
Q 2941 -934 2744 -1078 
Q 2534 -1225 2243 -1306 
Q 1953 -1388 1525 -1388 
Q 825 -1388 478 -1183 
Q 131 -978 131 -584 
Q 131 -266 381 -81 
Q 631 103 1019 119 
L 1019 163 
Q 925 191 825 233 
Q 725 275 653 331 
Q 572 397 522 486 
Q 472 575 472 706 
Q 472 872 589 1011 
Q 706 1150 944 1250 
L 944 1297 
Q 644 1438 478 1658 
Q 313 1878 313 2169 
Q 313 2606 639 2887 
Q 966 3169 1475 3169 
Q 1616 3169 1755 3141 
Q 1894 3113 2038 3069 
L 3113 3069 
L 3113 2769 
L 2388 2769 
L 2388 2750 
Q 2503 2616 2559 2453 
Q 2616 2291 2616 2134 
Q 2616 1728 2286 1447 
Q 1956 1166 1519 1166 
L 1141 1166 
Q 1069 1141 991 1075 
Q 913 1009 913 897 
Q 913 781 978 720 
Q 1044 659 1138 638 
Q 1228 613 1348 606 
Q 1469 600 1597 597 
Q 1734 594 1973 578 
Q 2213 563 2313 559 
Q 2456 553 2601 490 
Q 2747 428 2866 319 
z
M 2022 2147 
Q 2022 2513 1873 2730 
Q 1725 2947 1456 2947 
Q 1309 2947 1204 2886 
Q 1100 2825 1034 2713 
Q 972 2609 945 2464 
Q 919 2319 919 2166 
Q 919 1819 1070 1600 
Q 1222 1381 1463 1381 
Q 1731 1381 1876 1598 
Q 2022 1816 2022 2147 
z
M 2622 -438 
Q 2622 -263 2540 -150 
Q 2459 -38 2294 3 
Q 2206 16 1934 31 
Q 1663 47 1303 47 
Q 966 -19 823 -173 
Q 681 -328 681 -572 
Q 681 -681 728 -781 
Q 775 -881 891 -966 
Q 1000 -1047 1184 -1098 
Q 1369 -1150 1634 -1150 
Q 2094 -1150 2358 -973 
Q 2622 -797 2622 -438 
z
" transform="scale(0.015625)"/>
      <path id="Georgia-68" d="M 3572 0 
L 2059 0 
L 2059 206 
Q 2131 213 2218 219 
Q 2306 225 2363 244 
Q 2450 272 2492 342 
Q 2534 413 2534 525 
L 2534 2109 
Q 2534 2438 2379 2616 
Q 2225 2794 2003 2794 
Q 1841 2794 1702 2742 
Q 1563 2691 1453 2616 
Q 1347 2538 1290 2459 
Q 1234 2381 1203 2328 
L 1203 556 
Q 1203 450 1245 381 
Q 1288 313 1375 275 
Q 1444 244 1517 228 
Q 1591 213 1678 206 
L 1678 0 
L 166 0 
L 166 206 
Q 238 213 316 220 
Q 394 228 447 244 
Q 534 272 578 342 
Q 622 413 622 525 
L 622 4113 
Q 622 4219 573 4325 
Q 525 4431 447 4484 
Q 391 4525 248 4542 
Q 106 4559 19 4566 
L 19 4766 
L 1159 4838 
L 1203 4791 
L 1203 2641 
L 1216 2641 
Q 1319 2744 1403 2823 
Q 1488 2903 1625 2991 
Q 1744 3066 1905 3116 
Q 2066 3166 2266 3166 
Q 2678 3166 2900 2905 
Q 3122 2644 3122 2153 
L 3122 550 
Q 3122 441 3161 373 
Q 3200 306 3291 269 
Q 3363 241 3420 227 
Q 3478 213 3572 206 
L 3572 0 
z
" transform="scale(0.015625)"/>
      <path id="Georgia-2d" d="M 2128 1453 
L 266 1453 
L 266 1944 
L 2128 1944 
L 2128 1453 
z
" transform="scale(0.015625)"/>
      <path id="Georgia-73" d="M 2259 1509 
Q 2388 1397 2456 1250 
Q 2525 1103 2525 891 
Q 2525 463 2204 191 
Q 1884 -81 1375 -81 
Q 1106 -81 879 16 
Q 653 113 556 194 
L 494 -9 
L 259 -9 
L 228 1063 
L 444 1063 
Q 469 941 550 778 
Q 631 616 747 484 
Q 869 347 1039 253 
Q 1209 159 1422 159 
Q 1722 159 1884 295 
Q 2047 431 2047 684 
Q 2047 816 1995 911 
Q 1944 1006 1844 1078 
Q 1741 1150 1591 1208 
Q 1441 1266 1256 1322 
Q 1109 1366 929 1442 
Q 750 1519 622 1622 
Q 484 1731 396 1890 
Q 309 2050 309 2266 
Q 309 2644 590 2906 
Q 872 3169 1344 3169 
Q 1525 3169 1714 3122 
Q 1903 3075 2022 3009 
L 2094 3172 
L 2319 3172 
L 2366 2181 
L 2150 2181 
Q 2084 2513 1867 2720 
Q 1650 2928 1338 2928 
Q 1081 2928 934 2800 
Q 788 2672 788 2491 
Q 788 2350 836 2256 
Q 884 2163 981 2097 
Q 1075 2034 1217 1979 
Q 1359 1925 1569 1856 
Q 1775 1791 1958 1703 
Q 2141 1616 2259 1509 
z
" transform="scale(0.015625)"/>
      <path id="Georgia-6f" d="M 3228 1572 
Q 3228 1247 3125 933 
Q 3022 619 2831 400 
Q 2616 150 2331 28 
Q 2047 -94 1694 -94 
Q 1400 -94 1134 17 
Q 869 128 663 341 
Q 459 550 339 851 
Q 219 1153 219 1528 
Q 219 2250 639 2709 
Q 1059 3169 1741 3169 
Q 2388 3169 2808 2733 
Q 3228 2297 3228 1572 
z
M 2581 1566 
Q 2581 1800 2534 2061 
Q 2488 2322 2394 2503 
Q 2294 2697 2131 2814 
Q 1969 2931 1734 2931 
Q 1494 2931 1323 2812 
Q 1153 2694 1047 2488 
Q 947 2297 906 2053 
Q 866 1809 866 1581 
Q 866 1281 914 1026 
Q 963 772 1069 572 
Q 1175 372 1336 258 
Q 1497 144 1734 144 
Q 2125 144 2353 522 
Q 2581 900 2581 1566 
z
" transform="scale(0.015625)"/>
      <path id="Georgia-62" d="M 3353 1544 
Q 3353 850 2915 378 
Q 2478 -94 1900 -94 
Q 1647 -94 1401 -15 
Q 1156 63 941 194 
L 709 -166 
L 516 -122 
Q 531 109 537 434 
Q 544 759 544 1063 
L 544 4113 
Q 544 4219 495 4325 
Q 447 4431 372 4478 
Q 313 4519 173 4539 
Q 34 4559 -50 4566 
L -50 4766 
L 1081 4838 
L 1125 4791 
L 1125 2759 
L 1147 2753 
Q 1341 2959 1570 3062 
Q 1800 3166 2022 3166 
Q 2591 3166 2972 2716 
Q 3353 2266 3353 1544 
z
M 2700 1522 
Q 2700 1753 2650 1993 
Q 2600 2234 2494 2413 
Q 2388 2594 2216 2706 
Q 2044 2819 1803 2819 
Q 1584 2819 1420 2733 
Q 1256 2647 1125 2500 
L 1125 706 
Q 1144 631 1198 531 
Q 1253 431 1347 341 
Q 1441 253 1559 198 
Q 1678 144 1850 144 
Q 2231 144 2465 512 
Q 2700 881 2700 1522 
z
" transform="scale(0.015625)"/>
      <path id="Georgia-5f" d="M 4131 -881 
L -16 -881 
L -16 -566 
L 4131 -566 
L 4131 -881 
z
" transform="scale(0.015625)"/>
     </defs>
     <use xlink:href="#Georgia-64"/>
     <use xlink:href="#Georgia-65" x="57.421875"/>
     <use xlink:href="#Georgia-6c" x="105.761719"/>
     <use xlink:href="#Georgia-69" x="134.375"/>
     <use xlink:href="#Georgia-67" x="163.671875"/>
     <use xlink:href="#Georgia-68" x="214.599609"/>
     <use xlink:href="#Georgia-74" x="272.802734"/>
     <use xlink:href="#Georgia-2d" x="307.324219"/>
     <use xlink:href="#Georgia-6e" x="344.726562"/>
     <use xlink:href="#Georgia-61" x="403.808594"/>
     <use xlink:href="#Georgia-73" x="454.199219"/>
     <use xlink:href="#Georgia-68" x="497.412109"/>
     <use xlink:href="#Georgia-6f" x="555.615234"/>
     <use xlink:href="#Georgia-72" x="609.521484"/>
     <use xlink:href="#Georgia-6e" x="650.488281"/>
     <use xlink:href="#Georgia-2d" x="709.570312"/>
     <use xlink:href="#Georgia-73" x="746.972656"/>
     <use xlink:href="#Georgia-61" x="790.185547"/>
     <use xlink:href="#Georgia-6e" x="840.576172"/>
     <use xlink:href="#Georgia-64" x="899.658203"/>
     <use xlink:href="#Georgia-62" x="957.080078"/>
     <use xlink:href="#Georgia-6f" x="1013.085938"/>
     <use xlink:href="#Georgia-78" x="1066.992188"/>
     <use xlink:href="#Georgia-5f" x="1117.480469"/>
     <use xlink:href="#Georgia-64" x="1181.787109"/>
     <use xlink:href="#Georgia-6f" x="1239.208984"/>
     <use xlink:href="#Georgia-74" x="1293.115234"/>
    </g>
   </g>
   <g id="Path3DCollection_2">
    <defs>
     <path id="C1_0_a59c0f8763" d="M 0 2.236068 
C 0.593012 2.236068 1.161816 2.000462 1.581139 1.581139 
C 2.000462 1.161816 2.236068 0.593012 2.236068 -0 
C 2.236068 -0.593012 2.000462 -1.161816 1.581139 -1.581139 
C 1.161816 -2.000462 0.593012 -2.236068 0 -2.236068 
C -0.593012 -2.236068 -1.161816 -2.000462 -1.581139 -1.581139 
C -2.000462 -1.161816 -2.236068 -0.593012 -2.236068 0 
C -2.236068 0.593012 -2.000462 1.161816 -1.581139 1.581139 
C -1.161816 2.000462 -0.593012 2.236068 0 2.236068 
z
"/>
    </defs>
    <g clip-path="url(#p13e442542e)">
     <use xlink:href="#C1_0_a59c0f8763" x="221.133367" y="170.556634" style="fill: #9370db; fill-opacity: 0.3; stroke: #9370db; stroke-opacity: 0.3"/>
    </g>
    <g clip-path="url(#p13e442542e)">
     <use xlink:href="#C1_0_a59c0f8763" x="221.133367" y="170.556634" style="fill: #9370db; fill-opacity: 0.3; stroke: #9370db; stroke-opacity: 0.3"/>
    </g>
    <g clip-path="url(#p13e442542e)">
     <use xlink:href="#C1_0_a59c0f8763" x="221.133367" y="170.556634" style="fill: #9370db; fill-opacity: 0.3; stroke: #9370db; stroke-opacity: 0.3"/>
    </g>
    <g clip-path="url(#p13e442542e)">
     <use xlink:href="#C1_0_a59c0f8763" x="221.133367" y="170.556634" style="fill: #9370db; fill-opacity: 0.3; stroke: #9370db; stroke-opacity: 0.3"/>
    </g>
    <g clip-path="url(#p13e442542e)">
     <use xlink:href="#C1_0_a59c0f8763" x="221.133367" y="170.556634" style="fill: #9370db; fill-opacity: 0.3; stroke: #9370db; stroke-opacity: 0.3"/>
    </g>
    <g clip-path="url(#p13e442542e)">
     <use xlink:href="#C1_0_a59c0f8763" x="218.010407" y="79.961909" style="fill: #9370db; stroke: #9370db"/>
    </g>
   </g>
   <g id="Path3DCollection_3">
    <defs>
     <path id="C2_0_42a5ed270a" d="M 0 2.236068 
C 0.593012 2.236068 1.161816 2.000462 1.581139 1.581139 
C 2.000462 1.161816 2.236068 0.593012 2.236068 -0 
C 2.236068 -0.593012 2.000462 -1.161816 1.581139 -1.581139 
C 1.161816 -2.000462 0.593012 -2.236068 0 -2.236068 
C -0.593012 -2.236068 -1.161816 -2.000462 -1.581139 -1.581139 
C -2.000462 -1.161816 -2.236068 -0.593012 -2.236068 0 
C -2.236068 0.593012 -2.000462 1.161816 -1.581139 1.581139 
C -1.161816 2.000462 -0.593012 2.236068 0 2.236068 
z
"/>
    </defs>
    <g clip-path="url(#p13e442542e)">
     <use xlink:href="#C2_0_42a5ed270a" x="296.353703" y="193.314922" style="fill: #3cb371; stroke: #3cb371"/>
    </g>
    <g clip-path="url(#p13e442542e)">
     <use xlink:href="#C2_0_42a5ed270a" x="296.353703" y="193.314922" style="fill: #3cb371; stroke: #3cb371"/>
    </g>
    <g clip-path="url(#p13e442542e)">
     <use xlink:href="#C2_0_42a5ed270a" x="296.353703" y="193.314922" style="fill: #3cb371; stroke: #3cb371"/>
    </g>
    <g clip-path="url(#p13e442542e)">
     <use xlink:href="#C2_0_42a5ed270a" x="296.353703" y="193.314922" style="fill: #3cb371; stroke: #3cb371"/>
    </g>
    <g clip-path="url(#p13e442542e)">
     <use xlink:href="#C2_0_42a5ed270a" x="296.353703" y="193.314922" style="fill: #3cb371; stroke: #3cb371"/>
    </g>
   </g>
   <g id="legend_1">
    <g id="patch_6">
     <path d="M 225.47225 118.567 
L 363.616 118.567 
Q 365.216 118.567 365.216 116.967 
L 365.216 47.072 
Q 365.216 45.472 363.616 45.472 
L 225.47225 45.472 
Q 223.87225 45.472 223.87225 47.072 
L 223.87225 116.967 
Q 223.87225 118.567 225.47225 118.567 
z
" style="fill: #ffffff; opacity: 0.8; stroke: #cccccc; stroke-linejoin: miter"/>
    </g>
    <g id="Path3DCollection_4">
     <defs>
      <path id="m81922e4802" d="M 0 2.236068 
C 0.593012 2.236068 1.161816 2.000462 1.581139 1.581139 
C 2.000462 1.161816 2.236068 0.593012 2.236068 0 
C 2.236068 -0.593012 2.000462 -1.161816 1.581139 -1.581139 
C 1.161816 -2.000462 0.593012 -2.236068 0 -2.236068 
C -0.593012 -2.236068 -1.161816 -2.000462 -1.581139 -1.581139 
C -2.000462 -1.161816 -2.236068 -0.593012 -2.236068 0 
C -2.236068 0.593012 -2.000462 1.161816 -1.581139 1.581139 
C -1.161816 2.000462 -0.593012 2.236068 0 2.236068 
z
" style="stroke: #9370db"/>
     </defs>
     <g>
      <use xlink:href="#m81922e4802" x="235.07225" y="52.6195" style="fill: #9370db; stroke: #9370db"/>
     </g>
    </g>
    <g id="text_25">
     <!-- GA Pareto Front: 6 -->
     <g transform="translate(249.47225 54.7195) scale(0.08 -0.08)">
      <defs>
       <path id="Georgia-47" d="M 4597 1772 
Q 4522 1763 4395 1742 
Q 4269 1722 4191 1684 
Q 4097 1638 4058 1552 
Q 4019 1466 4019 1350 
L 4019 1006 
Q 4019 631 4023 500 
Q 4028 369 4034 284 
Q 3619 97 3206 -3 
Q 2794 -103 2397 -103 
Q 1972 -103 1578 56 
Q 1184 216 891 509 
Q 594 806 419 1231 
Q 244 1656 244 2181 
Q 244 2688 411 3120 
Q 578 3553 884 3872 
Q 1181 4184 1592 4357 
Q 2003 4531 2472 4531 
Q 2847 4531 3125 4440 
Q 3403 4350 3616 4222 
L 3744 4434 
L 3994 4434 
L 4022 2884 
L 3766 2884 
Q 3700 3141 3603 3389 
Q 3506 3638 3353 3834 
Q 3200 4031 2979 4148 
Q 2759 4266 2453 4266 
Q 2119 4266 1856 4130 
Q 1594 3994 1400 3725 
Q 1209 3466 1106 3078 
Q 1003 2691 1003 2213 
Q 1003 1791 1104 1417 
Q 1206 1044 1400 772 
Q 1594 494 1884 334 
Q 2175 175 2544 175 
Q 2819 175 3045 259 
Q 3272 344 3366 438 
Q 3391 600 3392 765 
Q 3394 931 3394 1047 
L 3394 1291 
Q 3394 1422 3358 1523 
Q 3322 1625 3209 1672 
Q 3106 1719 2929 1742 
Q 2753 1766 2653 1772 
L 2653 2000 
L 4597 2000 
L 4597 1772 
z
" transform="scale(0.015625)"/>
       <path id="Georgia-41" d="M 4441 0 
L 2594 0 
L 2594 222 
Q 2838 238 2998 284 
Q 3159 331 3159 400 
Q 3159 428 3153 468 
Q 3147 509 3134 541 
L 2766 1534 
L 1213 1534 
Q 1125 1316 1070 1153 
Q 1016 991 972 853 
Q 931 719 915 634 
Q 900 550 900 497 
Q 900 372 1097 303 
Q 1294 234 1541 222 
L 1541 0 
L -128 0 
L -128 222 
Q -47 228 75 258 
Q 197 288 275 338 
Q 400 422 469 514 
Q 538 606 603 769 
Q 938 1603 1341 2643 
Q 1744 3684 2059 4497 
L 2309 4497 
L 3788 672 
Q 3834 550 3893 475 
Q 3953 400 4059 328 
Q 4131 284 4247 254 
Q 4363 225 4441 222 
L 4441 0 
z
M 2653 1813 
L 1981 3531 
L 1322 1813 
L 2653 1813 
z
" transform="scale(0.015625)"/>
       <path id="Georgia-3a" d="M 1428 2666 
Q 1428 2491 1301 2366 
Q 1175 2241 1000 2241 
Q 825 2241 698 2366 
Q 572 2491 572 2666 
Q 572 2841 697 2967 
Q 822 3094 1000 3094 
Q 1178 3094 1303 2967 
Q 1428 2841 1428 2666 
z
M 1428 359 
Q 1428 184 1301 60 
Q 1175 -63 1000 -63 
Q 825 -63 698 60 
Q 572 184 572 359 
Q 572 534 698 661 
Q 825 788 1000 788 
Q 1175 788 1301 661 
Q 1428 534 1428 359 
z
" transform="scale(0.015625)"/>
      </defs>
      <use xlink:href="#Georgia-47"/>
      <use xlink:href="#Georgia-41" x="72.509766"/>
      <use xlink:href="#Georgia-20" x="139.599609"/>
      <use xlink:href="#Georgia-50" x="163.720703"/>
      <use xlink:href="#Georgia-61" x="224.707031"/>
      <use xlink:href="#Georgia-72" x="275.097656"/>
      <use xlink:href="#Georgia-65" x="316.064453"/>
      <use xlink:href="#Georgia-74" x="364.404297"/>
      <use xlink:href="#Georgia-6f" x="398.925781"/>
      <use xlink:href="#Georgia-20" x="452.832031"/>
      <use xlink:href="#Georgia-46" x="476.953125"/>
      <use xlink:href="#Georgia-72" x="536.865234"/>
      <use xlink:href="#Georgia-6f" x="577.832031"/>
      <use xlink:href="#Georgia-6e" x="631.738281"/>
      <use xlink:href="#Georgia-74" x="690.820312"/>
      <use xlink:href="#Georgia-3a" x="725.341797"/>
      <use xlink:href="#Georgia-20" x="756.591797"/>
      <use xlink:href="#Georgia-36" x="780.712891"/>
     </g>
    </g>
    <g id="Path3DCollection_5">
     <defs>
      <path id="md84ea76897" d="M 0 2.236068 
C 0.593012 2.236068 1.161816 2.000462 1.581139 1.581139 
C 2.000462 1.161816 2.236068 0.593012 2.236068 0 
C 2.236068 -0.593012 2.000462 -1.161816 1.581139 -1.581139 
C 1.161816 -2.000462 0.593012 -2.236068 0 -2.236068 
C -0.593012 -2.236068 -1.161816 -2.000462 -1.581139 -1.581139 
C -2.000462 -1.161816 -2.236068 -0.593012 -2.236068 0 
C -2.236068 0.593012 -2.000462 1.161816 -1.581139 1.581139 
C -1.161816 2.000462 -0.593012 2.236068 0 2.236068 
z
" style="stroke: #d8bfd8"/>
     </defs>
     <g>
      <use xlink:href="#md84ea76897" x="235.07225" y="64.402" style="fill: #d8bfd8; stroke: #d8bfd8"/>
     </g>
    </g>
    <g id="text_26">
     <!-- GA Normal: 6 -->
     <g transform="translate(249.47225 66.502) scale(0.08 -0.08)">
      <defs>
       <path id="Georgia-4e" d="M 4856 4213 
Q 4769 4209 4587 4162 
Q 4406 4116 4328 4066 
Q 4216 3988 4177 3766 
Q 4138 3544 4138 3203 
L 4138 -44 
L 3866 -44 
L 1178 3584 
L 1178 1297 
Q 1178 913 1226 706 
Q 1275 500 1375 413 
Q 1447 344 1672 284 
Q 1897 225 1969 222 
L 1969 0 
L 150 0 
L 150 222 
Q 234 228 434 283 
Q 634 338 684 381 
Q 794 469 834 648 
Q 875 828 875 1263 
L 875 3447 
Q 875 3591 825 3734 
Q 775 3878 691 3956 
Q 578 4059 386 4132 
Q 194 4206 75 4213 
L 75 4434 
L 1341 4434 
L 3834 1053 
L 3834 3163 
Q 3834 3550 3784 3758 
Q 3734 3966 3641 4034 
Q 3553 4094 3354 4150 
Q 3156 4206 3053 4213 
L 3053 4434 
L 4856 4434 
L 4856 4213 
z
" transform="scale(0.015625)"/>
      </defs>
      <use xlink:href="#Georgia-47"/>
      <use xlink:href="#Georgia-41" x="72.509766"/>
      <use xlink:href="#Georgia-20" x="139.599609"/>
      <use xlink:href="#Georgia-4e" x="163.720703"/>
      <use xlink:href="#Georgia-6f" x="240.429688"/>
      <use xlink:href="#Georgia-72" x="294.335938"/>
      <use xlink:href="#Georgia-6d" x="335.302734"/>
      <use xlink:href="#Georgia-61" x="423.388672"/>
      <use xlink:href="#Georgia-6c" x="473.779297"/>
      <use xlink:href="#Georgia-3a" x="502.392578"/>
      <use xlink:href="#Georgia-20" x="533.642578"/>
      <use xlink:href="#Georgia-36" x="557.763672"/>
     </g>
    </g>
    <g id="Path3DCollection_6">
     <defs>
      <path id="md0cca5e858" d="M 0 2.236068 
C 0.593012 2.236068 1.161816 2.000462 1.581139 1.581139 
C 2.000462 1.161816 2.236068 0.593012 2.236068 0 
C 2.236068 -0.593012 2.000462 -1.161816 1.581139 -1.581139 
C 1.161816 -2.000462 0.593012 -2.236068 0 -2.236068 
C -0.593012 -2.236068 -1.161816 -2.000462 -1.581139 -1.581139 
C -2.000462 -1.161816 -2.236068 -0.593012 -2.236068 0 
C -2.236068 0.593012 -2.000462 1.161816 -1.581139 1.581139 
C -1.161816 2.000462 -0.593012 2.236068 0 2.236068 
z
" style="stroke: #3cb371"/>
     </defs>
     <g>
      <use xlink:href="#md0cca5e858" x="235.07225" y="76.1845" style="fill: #3cb371; stroke: #3cb371"/>
     </g>
    </g>
    <g id="text_27">
     <!-- Github Caliber Pareto Front: 5 -->
     <g transform="translate(249.47225 78.2845) scale(0.08 -0.08)">
      <defs>
       <path id="Georgia-43" d="M 2259 -103 
Q 1863 -103 1498 53 
Q 1134 209 853 503 
Q 575 797 409 1220 
Q 244 1644 244 2175 
Q 244 2706 406 3139 
Q 569 3572 856 3884 
Q 1141 4194 1528 4362 
Q 1916 4531 2356 4531 
Q 2684 4531 2950 4450 
Q 3216 4369 3456 4222 
L 3584 4434 
L 3834 4434 
L 3863 2853 
L 3606 2853 
Q 3556 3084 3456 3354 
Q 3356 3625 3222 3813 
Q 3072 4025 2865 4145 
Q 2659 4266 2394 4266 
Q 2091 4266 1830 4131 
Q 1569 3997 1378 3734 
Q 1197 3481 1094 3090 
Q 991 2700 991 2219 
Q 991 1794 1098 1439 
Q 1206 1084 1406 816 
Q 1606 550 1879 400 
Q 2153 250 2491 250 
Q 2744 250 2956 329 
Q 3169 409 3325 541 
Q 3481 678 3600 853 
Q 3719 1028 3794 1234 
L 4028 1122 
Q 3759 463 3315 180 
Q 2872 -103 2259 -103 
z
" transform="scale(0.015625)"/>
      </defs>
      <use xlink:href="#Georgia-47"/>
      <use xlink:href="#Georgia-69" x="72.509766"/>
      <use xlink:href="#Georgia-74" x="101.806641"/>
      <use xlink:href="#Georgia-68" x="136.328125"/>
      <use xlink:href="#Georgia-75" x="194.53125"/>
      <use xlink:href="#Georgia-62" x="252.050781"/>
      <use xlink:href="#Georgia-20" x="308.056641"/>
      <use xlink:href="#Georgia-43" x="332.177734"/>
      <use xlink:href="#Georgia-61" x="396.386719"/>
      <use xlink:href="#Georgia-6c" x="446.777344"/>
      <use xlink:href="#Georgia-69" x="475.390625"/>
      <use xlink:href="#Georgia-62" x="504.6875"/>
      <use xlink:href="#Georgia-65" x="560.693359"/>
      <use xlink:href="#Georgia-72" x="609.033203"/>
      <use xlink:href="#Georgia-20" x="650"/>
      <use xlink:href="#Georgia-50" x="674.121094"/>
      <use xlink:href="#Georgia-61" x="735.107422"/>
      <use xlink:href="#Georgia-72" x="785.498047"/>
      <use xlink:href="#Georgia-65" x="826.464844"/>
      <use xlink:href="#Georgia-74" x="874.804688"/>
      <use xlink:href="#Georgia-6f" x="909.326172"/>
      <use xlink:href="#Georgia-20" x="963.232422"/>
      <use xlink:href="#Georgia-46" x="987.353516"/>
      <use xlink:href="#Georgia-72" x="1047.265625"/>
      <use xlink:href="#Georgia-6f" x="1088.232422"/>
      <use xlink:href="#Georgia-6e" x="1142.138672"/>
      <use xlink:href="#Georgia-74" x="1201.220703"/>
      <use xlink:href="#Georgia-3a" x="1235.742188"/>
      <use xlink:href="#Georgia-20" x="1266.992188"/>
      <use xlink:href="#Georgia-35" x="1291.113281"/>
     </g>
    </g>
    <g id="Path3DCollection_7">
     <defs>
      <path id="mdb35c4b22a" d="M 0 2.236068 
C 0.593012 2.236068 1.161816 2.000462 1.581139 1.581139 
C 2.000462 1.161816 2.236068 0.593012 2.236068 0 
C 2.236068 -0.593012 2.000462 -1.161816 1.581139 -1.581139 
C 1.161816 -2.000462 0.593012 -2.236068 0 -2.236068 
C -0.593012 -2.236068 -1.161816 -2.000462 -1.581139 -1.581139 
C -2.000462 -1.161816 -2.236068 -0.593012 -2.236068 0 
C -2.236068 0.593012 -2.000462 1.161816 -1.581139 1.581139 
C -1.161816 2.000462 -0.593012 2.236068 0 2.236068 
z
" style="stroke: #00ffff"/>
     </defs>
     <g>
      <use xlink:href="#mdb35c4b22a" x="235.07225" y="87.967" style="fill: #00ffff; stroke: #00ffff"/>
     </g>
    </g>
    <g id="text_28">
     <!-- Github Caliber Normal: 5 -->
     <g transform="translate(249.47225 90.067) scale(0.08 -0.08)">
      <use xlink:href="#Georgia-47"/>
      <use xlink:href="#Georgia-69" x="72.509766"/>
      <use xlink:href="#Georgia-74" x="101.806641"/>
      <use xlink:href="#Georgia-68" x="136.328125"/>
      <use xlink:href="#Georgia-75" x="194.53125"/>
      <use xlink:href="#Georgia-62" x="252.050781"/>
      <use xlink:href="#Georgia-20" x="308.056641"/>
      <use xlink:href="#Georgia-43" x="332.177734"/>
      <use xlink:href="#Georgia-61" x="396.386719"/>
      <use xlink:href="#Georgia-6c" x="446.777344"/>
      <use xlink:href="#Georgia-69" x="475.390625"/>
      <use xlink:href="#Georgia-62" x="504.6875"/>
      <use xlink:href="#Georgia-65" x="560.693359"/>
      <use xlink:href="#Georgia-72" x="609.033203"/>
      <use xlink:href="#Georgia-20" x="650"/>
      <use xlink:href="#Georgia-4e" x="674.121094"/>
      <use xlink:href="#Georgia-6f" x="750.830078"/>
      <use xlink:href="#Georgia-72" x="804.736328"/>
      <use xlink:href="#Georgia-6d" x="845.703125"/>
      <use xlink:href="#Georgia-61" x="933.789062"/>
      <use xlink:href="#Georgia-6c" x="984.179688"/>
      <use xlink:href="#Georgia-3a" x="1012.792969"/>
      <use xlink:href="#Georgia-20" x="1044.042969"/>
      <use xlink:href="#Georgia-35" x="1068.164062"/>
     </g>
    </g>
    <g id="Path3DCollection_8">
     <defs>
      <path id="mdb128b227a" d="M 0 2.236068 
C 0.593012 2.236068 1.161816 2.000462 1.581139 1.581139 
C 2.000462 1.161816 2.236068 0.593012 2.236068 0 
C 2.236068 -0.593012 2.000462 -1.161816 1.581139 -1.581139 
C 1.161816 -2.000462 0.593012 -2.236068 0 -2.236068 
C -0.593012 -2.236068 -1.161816 -2.000462 -1.581139 -1.581139 
C -2.000462 -1.161816 -2.236068 -0.593012 -2.236068 0 
C -2.236068 0.593012 -2.000462 1.161816 -1.581139 1.581139 
C -1.161816 2.000462 -0.593012 2.236068 0 2.236068 
z
" style="stroke: #4682b4"/>
     </defs>
     <g>
      <use xlink:href="#mdb128b227a" x="235.07225" y="99.7495" style="fill: #4682b4; stroke: #4682b4"/>
     </g>
    </g>
    <g id="text_29">
     <!-- Smart Baseline Pareto Front: 12 -->
     <g transform="translate(249.47225 101.8495) scale(0.08 -0.08)">
      <defs>
       <path id="Georgia-53" d="M 3066 2034 
Q 3206 1878 3273 1692 
Q 3341 1506 3341 1259 
Q 3341 672 2906 290 
Q 2472 -91 1828 -91 
Q 1531 -91 1234 1 
Q 938 94 722 225 
L 588 -3 
L 338 -3 
L 294 1516 
L 547 1516 
Q 625 1234 729 1007 
Q 834 781 1006 584 
Q 1169 400 1386 290 
Q 1603 181 1891 181 
Q 2106 181 2267 237 
Q 2428 294 2528 397 
Q 2628 500 2676 639 
Q 2725 778 2725 959 
Q 2725 1225 2575 1454 
Q 2425 1684 2128 1803 
Q 1925 1884 1662 1982 
Q 1400 2081 1209 2169 
Q 834 2338 626 2611 
Q 419 2884 419 3325 
Q 419 3578 522 3797 
Q 625 4016 816 4188 
Q 997 4350 1244 4442 
Q 1491 4534 1759 4534 
Q 2066 4534 2308 4440 
Q 2550 4347 2750 4222 
L 2878 4434 
L 3128 4434 
L 3153 2963 
L 2900 2963 
Q 2831 3216 2745 3447 
Q 2659 3678 2522 3866 
Q 2388 4047 2194 4155 
Q 2000 4263 1719 4263 
Q 1422 4263 1212 4072 
Q 1003 3881 1003 3606 
Q 1003 3319 1137 3130 
Q 1272 2941 1528 2819 
Q 1756 2709 1976 2629 
Q 2197 2550 2403 2459 
Q 2591 2378 2764 2275 
Q 2938 2172 3066 2034 
z
" transform="scale(0.015625)"/>
       <path id="Georgia-42" d="M 3450 2066 
Q 3644 1934 3772 1721 
Q 3900 1509 3900 1206 
Q 3900 897 3765 669 
Q 3631 441 3416 294 
Q 3206 150 2942 75 
Q 2678 0 2397 0 
L 297 0 
L 297 222 
Q 372 228 515 248 
Q 659 269 722 297 
Q 819 341 859 414 
Q 900 488 900 603 
L 900 3791 
Q 900 3897 864 3978 
Q 828 4059 722 4109 
Q 628 4156 512 4181 
Q 397 4206 319 4213 
L 319 4434 
L 2366 4434 
Q 2603 4434 2820 4387 
Q 3038 4341 3234 4222 
Q 3419 4113 3537 3925 
Q 3656 3738 3656 3469 
Q 3656 3234 3572 3051 
Q 3488 2869 3334 2738 
Q 3191 2613 3005 2527 
Q 2819 2441 2603 2394 
L 2603 2366 
Q 2794 2344 3030 2270 
Q 3266 2197 3450 2066 
z
M 2697 2734 
Q 2813 2869 2858 3028 
Q 2903 3188 2903 3406 
Q 2903 3772 2703 3980 
Q 2503 4188 2072 4188 
Q 1972 4188 1820 4183 
Q 1669 4178 1566 4175 
L 1566 2472 
L 1963 2472 
Q 2219 2472 2401 2537 
Q 2584 2603 2697 2734 
z
M 3128 1319 
Q 3128 1713 2864 1966 
Q 2600 2219 2109 2219 
Q 1909 2219 1771 2214 
Q 1634 2209 1566 2206 
L 1566 644 
Q 1566 447 1725 347 
Q 1884 247 2169 247 
Q 2634 247 2881 519 
Q 3128 791 3128 1319 
z
" transform="scale(0.015625)"/>
      </defs>
      <use xlink:href="#Georgia-53"/>
      <use xlink:href="#Georgia-6d" x="56.103516"/>
      <use xlink:href="#Georgia-61" x="144.189453"/>
      <use xlink:href="#Georgia-72" x="194.580078"/>
      <use xlink:href="#Georgia-74" x="235.546875"/>
      <use xlink:href="#Georgia-20" x="270.068359"/>
      <use xlink:href="#Georgia-42" x="294.189453"/>
      <use xlink:href="#Georgia-61" x="359.570312"/>
      <use xlink:href="#Georgia-73" x="409.960938"/>
      <use xlink:href="#Georgia-65" x="453.173828"/>
      <use xlink:href="#Georgia-6c" x="501.513672"/>
      <use xlink:href="#Georgia-69" x="530.126953"/>
      <use xlink:href="#Georgia-6e" x="559.423828"/>
      <use xlink:href="#Georgia-65" x="618.505859"/>
      <use xlink:href="#Georgia-20" x="666.845703"/>
      <use xlink:href="#Georgia-50" x="690.966797"/>
      <use xlink:href="#Georgia-61" x="751.953125"/>
      <use xlink:href="#Georgia-72" x="802.34375"/>
      <use xlink:href="#Georgia-65" x="843.310547"/>
      <use xlink:href="#Georgia-74" x="891.650391"/>
      <use xlink:href="#Georgia-6f" x="926.171875"/>
      <use xlink:href="#Georgia-20" x="980.078125"/>
      <use xlink:href="#Georgia-46" x="1004.199219"/>
      <use xlink:href="#Georgia-72" x="1064.111328"/>
      <use xlink:href="#Georgia-6f" x="1105.078125"/>
      <use xlink:href="#Georgia-6e" x="1158.984375"/>
      <use xlink:href="#Georgia-74" x="1218.066406"/>
      <use xlink:href="#Georgia-3a" x="1252.587891"/>
      <use xlink:href="#Georgia-20" x="1283.837891"/>
      <use xlink:href="#Georgia-31" x="1307.958984"/>
      <use xlink:href="#Georgia-32" x="1350.927734"/>
     </g>
    </g>
    <g id="Path3DCollection_9">
     <defs>
      <path id="mc24664fd45" d="M 0 2.236068 
C 0.593012 2.236068 1.161816 2.000462 1.581139 1.581139 
C 2.000462 1.161816 2.236068 0.593012 2.236068 0 
C 2.236068 -0.593012 2.000462 -1.161816 1.581139 -1.581139 
C 1.161816 -2.000462 0.593012 -2.236068 0 -2.236068 
C -0.593012 -2.236068 -1.161816 -2.000462 -1.581139 -1.581139 
C -2.000462 -1.161816 -2.236068 -0.593012 -2.236068 0 
C -2.236068 0.593012 -2.000462 1.161816 -1.581139 1.581139 
C -1.161816 2.000462 -0.593012 2.236068 0 2.236068 
z
" style="stroke: #bdb76b"/>
     </defs>
     <g>
      <use xlink:href="#mc24664fd45" x="235.07225" y="111.532" style="fill: #bdb76b; stroke: #bdb76b"/>
     </g>
    </g>
    <g id="text_30">
     <!-- Smart Baseline Normal: 0 -->
     <g transform="translate(249.47225 113.632) scale(0.08 -0.08)">
      <use xlink:href="#Georgia-53"/>
      <use xlink:href="#Georgia-6d" x="56.103516"/>
      <use xlink:href="#Georgia-61" x="144.189453"/>
      <use xlink:href="#Georgia-72" x="194.580078"/>
      <use xlink:href="#Georgia-74" x="235.546875"/>
      <use xlink:href="#Georgia-20" x="270.068359"/>
      <use xlink:href="#Georgia-42" x="294.189453"/>
      <use xlink:href="#Georgia-61" x="359.570312"/>
      <use xlink:href="#Georgia-73" x="409.960938"/>
      <use xlink:href="#Georgia-65" x="453.173828"/>
      <use xlink:href="#Georgia-6c" x="501.513672"/>
      <use xlink:href="#Georgia-69" x="530.126953"/>
      <use xlink:href="#Georgia-6e" x="559.423828"/>
      <use xlink:href="#Georgia-65" x="618.505859"/>
      <use xlink:href="#Georgia-20" x="666.845703"/>
      <use xlink:href="#Georgia-4e" x="690.966797"/>
      <use xlink:href="#Georgia-6f" x="767.675781"/>
      <use xlink:href="#Georgia-72" x="821.582031"/>
      <use xlink:href="#Georgia-6d" x="862.548828"/>
      <use xlink:href="#Georgia-61" x="950.634766"/>
      <use xlink:href="#Georgia-6c" x="1001.025391"/>
      <use xlink:href="#Georgia-3a" x="1029.638672"/>
      <use xlink:href="#Georgia-20" x="1060.888672"/>
      <use xlink:href="#Georgia-30" x="1085.009766"/>
     </g>
    </g>
   </g>
   <g id="Path3DCollection_10">
    <defs>
     <path id="C3_0_6ed0f6aba5" d="M 0 2.236068 
C 0.593012 2.236068 1.161816 2.000462 1.581139 1.581139 
C 2.000462 1.161816 2.236068 0.593012 2.236068 -0 
C 2.236068 -0.593012 2.000462 -1.161816 1.581139 -1.581139 
C 1.161816 -2.000462 0.593012 -2.236068 0 -2.236068 
C -0.593012 -2.236068 -1.161816 -2.000462 -1.581139 -1.581139 
C -2.000462 -1.161816 -2.236068 -0.593012 -2.236068 0 
C -2.236068 0.593012 -2.000462 1.161816 -1.581139 1.581139 
C -1.161816 2.000462 -0.593012 2.236068 0 2.236068 
z
"/>
    </defs>
    <g clip-path="url(#p13e442542e)">
     <use xlink:href="#C3_0_6ed0f6aba5" x="261.411779" y="171.332037" style="fill: #d8bfd8; stroke: #d8bfd8"/>
    </g>
    <g clip-path="url(#p13e442542e)">
     <use xlink:href="#C3_0_6ed0f6aba5" x="261.411779" y="171.332037" style="fill: #d8bfd8; stroke: #d8bfd8"/>
    </g>
    <g clip-path="url(#p13e442542e)">
     <use xlink:href="#C3_0_6ed0f6aba5" x="261.411779" y="171.332037" style="fill: #d8bfd8; stroke: #d8bfd8"/>
    </g>
    <g clip-path="url(#p13e442542e)">
     <use xlink:href="#C3_0_6ed0f6aba5" x="261.411779" y="171.332037" style="fill: #d8bfd8; stroke: #d8bfd8"/>
    </g>
    <g clip-path="url(#p13e442542e)">
     <use xlink:href="#C3_0_6ed0f6aba5" x="261.411779" y="171.332037" style="fill: #d8bfd8; stroke: #d8bfd8"/>
    </g>
    <g clip-path="url(#p13e442542e)">
     <use xlink:href="#C3_0_6ed0f6aba5" x="261.411779" y="171.332037" style="fill: #d8bfd8; stroke: #d8bfd8"/>
    </g>
   </g>
   <g id="Path3DCollection_11">
    <defs>
     <path id="C4_0_d58e8f843d" d="M 0 2.236068 
C 0.593012 2.236068 1.161816 2.000462 1.581139 1.581139 
C 2.000462 1.161816 2.236068 0.593012 2.236068 -0 
C 2.236068 -0.593012 2.000462 -1.161816 1.581139 -1.581139 
C 1.161816 -2.000462 0.593012 -2.236068 0 -2.236068 
C -0.593012 -2.236068 -1.161816 -2.000462 -1.581139 -1.581139 
C -2.000462 -1.161816 -2.236068 -0.593012 -2.236068 0 
C -2.236068 0.593012 -2.000462 1.161816 -1.581139 1.581139 
C -1.161816 2.000462 -0.593012 2.236068 0 2.236068 
z
"/>
    </defs>
    <g clip-path="url(#p13e442542e)">
     <use xlink:href="#C4_0_d58e8f843d" x="209.008287" y="95.166379" style="fill: #4682b4; fill-opacity: 0.3; stroke: #4682b4; stroke-opacity: 0.3"/>
    </g>
    <g clip-path="url(#p13e442542e)">
     <use xlink:href="#C4_0_d58e8f843d" x="209.008287" y="95.166379" style="fill: #4682b4; fill-opacity: 0.3; stroke: #4682b4; stroke-opacity: 0.3"/>
    </g>
    <g clip-path="url(#p13e442542e)">
     <use xlink:href="#C4_0_d58e8f843d" x="209.008287" y="95.166379" style="fill: #4682b4; fill-opacity: 0.3; stroke: #4682b4; stroke-opacity: 0.3"/>
    </g>
    <g clip-path="url(#p13e442542e)">
     <use xlink:href="#C4_0_d58e8f843d" x="209.008287" y="95.166379" style="fill: #4682b4; fill-opacity: 0.3; stroke: #4682b4; stroke-opacity: 0.3"/>
    </g>
    <g clip-path="url(#p13e442542e)">
     <use xlink:href="#C4_0_d58e8f843d" x="209.008287" y="95.166379" style="fill: #4682b4; fill-opacity: 0.3; stroke: #4682b4; stroke-opacity: 0.3"/>
    </g>
    <g clip-path="url(#p13e442542e)">
     <use xlink:href="#C4_0_d58e8f843d" x="282.645824" y="120.004268" style="fill: #4682b4; fill-opacity: 0.521516; stroke: #4682b4; stroke-opacity: 0.521516"/>
    </g>
    <g clip-path="url(#p13e442542e)">
     <use xlink:href="#C4_0_d58e8f843d" x="269.515725" y="173.655086" style="fill: #4682b4; stroke: #4682b4"/>
    </g>
    <g clip-path="url(#p13e442542e)">
     <use xlink:href="#C4_0_d58e8f843d" x="269.515725" y="173.655086" style="fill: #4682b4; stroke: #4682b4"/>
    </g>
    <g clip-path="url(#p13e442542e)">
     <use xlink:href="#C4_0_d58e8f843d" x="269.515725" y="173.655086" style="fill: #4682b4; stroke: #4682b4"/>
    </g>
    <g clip-path="url(#p13e442542e)">
     <use xlink:href="#C4_0_d58e8f843d" x="269.515725" y="173.655086" style="fill: #4682b4; stroke: #4682b4"/>
    </g>
    <g clip-path="url(#p13e442542e)">
     <use xlink:href="#C4_0_d58e8f843d" x="269.515725" y="173.655086" style="fill: #4682b4; stroke: #4682b4"/>
    </g>
    <g clip-path="url(#p13e442542e)">
     <use xlink:href="#C4_0_d58e8f843d" x="269.515725" y="173.655086" style="fill: #4682b4; stroke: #4682b4"/>
    </g>
   </g>
   <g id="Path3DCollection_12"/>
  </g>
 </g>
 <defs>
  <clipPath id="p13e442542e">
   <rect x="103.104" y="41.472" width="266.112" height="266.112"/>
  </clipPath>
 </defs>
</svg>
