<?xml version="1.0" encoding="utf-8" standalone="no"?>
<!DOCTYPE svg PUBLIC "-//W3C//DTD SVG 1.1//EN"
  "http://www.w3.org/Graphics/SVG/1.1/DTD/svg11.dtd">
<svg xmlns:xlink="http://www.w3.org/1999/xlink" width="460.8pt" height="345.6pt" viewBox="0 0 460.8 345.6" xmlns="http://www.w3.org/2000/svg" version="1.1">
 <metadata>
  <rdf:RDF xmlns:dc="http://purl.org/dc/elements/1.1/" xmlns:cc="http://creativecommons.org/ns#" xmlns:rdf="http://www.w3.org/1999/02/22-rdf-syntax-ns#">
   <cc:Work>
    <dc:type rdf:resource="http://purl.org/dc/dcmitype/StillImage"/>
    <dc:date>2023-09-17T21:25:25.922252</dc:date>
    <dc:format>image/svg+xml</dc:format>
    <dc:creator>
     <cc:Agent>
      <dc:title>Matplotlib v3.8.0, https://matplotlib.org/</dc:title>
     </cc:Agent>
    </dc:creator>
   </cc:Work>
  </rdf:RDF>
 </metadata>
 <defs>
  <style type="text/css">*{stroke-linejoin: round; stroke-linecap: butt}</style>
 </defs>
 <g id="figure_1">
  <g id="patch_1">
   <path d="M 0 345.6 
L 460.8 345.6 
L 460.8 0 
L 0 0 
z
" style="fill: #ffffff"/>
  </g>
  <g id="patch_2">
   <path d="M 103.104 307.584 
L 369.216 307.584 
L 369.216 41.472 
L 103.104 41.472 
z
" style="fill: #ffffff"/>
  </g>
  <g id="pane3d_1">
   <g id="patch_3">
    <path d="M 209.854564 62.073991 
L 117.770234 129.272941 
L 123.197291 241.969309 
L 211.076164 168.307495 
" style="fill: #f2f2f2; opacity: 0.5; stroke: #f2f2f2; stroke-linejoin: miter"/>
   </g>
  </g>
  <g id="pane3d_2">
   <g id="patch_4">
    <path d="M 357.122702 99.402171 
L 209.854564 62.073991 
L 211.076164 168.307495 
L 352.090401 209.294766 
" style="fill: #e6e6e6; opacity: 0.5; stroke: #e6e6e6; stroke-linejoin: miter"/>
   </g>
  </g>
  <g id="pane3d_3">
   <g id="patch_5">
    <path d="M 352.090401 209.294766 
L 211.076164 168.307495 
L 123.197291 241.969309 
L 272.679269 290.790123 
" style="fill: #ececec; opacity: 0.5; stroke: #ececec; stroke-linejoin: miter"/>
   </g>
  </g>
  <g id="grid3d_1">
   <g id="Line3DCollection_1">
    <path d="M 240.542223 280.294163 
L 321.87877 200.513438 
L 325.518834 91.391512 
" style="fill: none; stroke: #b0b0b0; stroke-width: 0.8"/>
    <path d="M 211.298259 270.743085 
L 294.337069 192.508153 
L 296.732848 84.095103 
" style="fill: none; stroke: #b0b0b0; stroke-width: 0.8"/>
    <path d="M 182.642692 261.384177 
L 267.303342 184.650516 
L 268.500866 76.939119 
" style="fill: none; stroke: #b0b0b0; stroke-width: 0.8"/>
    <path d="M 154.55794 252.211697 
L 240.763664 176.936479 
L 240.807046 69.919543 
" style="fill: none; stroke: #b0b0b0; stroke-width: 0.8"/>
    <path d="M 127.027115 243.22013 
L 214.704614 169.362142 
L 213.636148 63.032512 
" style="fill: none; stroke: #b0b0b0; stroke-width: 0.8"/>
   </g>
  </g>
  <g id="grid3d_2">
   <g id="Line3DCollection_2">
    <path d="M 202.182012 67.67307 
L 203.728488 174.466463 
L 345.477538 216.08119 
" style="fill: none; stroke: #b0b0b0; stroke-width: 0.8"/>
    <path d="M 188.211257 77.868291 
L 190.361243 185.671153 
L 333.434596 228.440211 
" style="fill: none; stroke: #b0b0b0; stroke-width: 0.8"/>
    <path d="M 173.843211 88.353436 
L 176.629941 197.181003 
L 321.04683 241.153106 
" style="fill: none; stroke: #b0b0b0; stroke-width: 0.8"/>
    <path d="M 159.060684 99.141051 
L 162.519504 209.00865 
L 308.299216 254.235295 
" style="fill: none; stroke: #b0b0b0; stroke-width: 0.8"/>
    <path d="M 143.845477 110.244416 
L 148.01401 221.167443 
L 295.175842 267.703105 
" style="fill: none; stroke: #b0b0b0; stroke-width: 0.8"/>
    <path d="M 128.178312 121.677599 
L 133.096633 233.671485 
L 281.659845 281.573842 
" style="fill: none; stroke: #b0b0b0; stroke-width: 0.8"/>
   </g>
  </g>
  <g id="grid3d_3">
   <g id="Line3DCollection_3">
    <path d="M 356.334589 116.612528 
L 210.045539 78.681694 
L 118.621378 146.947511 
" style="fill: none; stroke: #b0b0b0; stroke-width: 0.8"/>
    <path d="M 355.436137 136.232433 
L 210.263406 97.627962 
L 119.59114 167.085233 
" style="fill: none; stroke: #b0b0b0; stroke-width: 0.8"/>
    <path d="M 354.551427 155.552235 
L 210.478101 116.298387 
L 120.545497 186.903085 
" style="fill: none; stroke: #b0b0b0; stroke-width: 0.8"/>
    <path d="M 353.680147 174.578769 
L 210.689693 134.698951 
L 121.484815 206.408629 
" style="fill: none; stroke: #b0b0b0; stroke-width: 0.8"/>
    <path d="M 352.821993 193.318661 
L 210.898248 152.835461 
L 122.409446 225.609188 
" style="fill: none; stroke: #b0b0b0; stroke-width: 0.8"/>
   </g>
  </g>
  <g id="axis3d_1">
   <g id="line2d_1">
    <path d="M 123.197291 241.969309 
L 272.679269 290.790123 
" style="fill: none; stroke: #000000; stroke-width: 0.8; stroke-linecap: square"/>
   </g>
   <g id="xtick_1">
    <g id="line2d_2">
     <path d="M 241.252747 279.59723 
L 239.118006 281.691137 
" style="fill: none; stroke: #000000; stroke-width: 0.8; stroke-linecap: square"/>
    </g>
    <g id="text_1">
     <!-- 10 -->
     <g transform="translate(226.773476 304.356657) scale(0.1 -0.1)">
      <defs>
       <path id="DejaVuSans-31" d="M 794 531 
L 1825 531 
L 1825 4091 
L 703 3866 
L 703 4441 
L 1819 4666 
L 2450 4666 
L 2450 531 
L 3481 531 
L 3481 0 
L 794 0 
L 794 531 
z
" transform="scale(0.015625)"/>
       <path id="DejaVuSans-30" d="M 2034 4250 
Q 1547 4250 1301 3770 
Q 1056 3291 1056 2328 
Q 1056 1369 1301 889 
Q 1547 409 2034 409 
Q 2525 409 2770 889 
Q 3016 1369 3016 2328 
Q 3016 3291 2770 3770 
Q 2525 4250 2034 4250 
z
M 2034 4750 
Q 2819 4750 3233 4129 
Q 3647 3509 3647 2328 
Q 3647 1150 3233 529 
Q 2819 -91 2034 -91 
Q 1250 -91 836 529 
Q 422 1150 422 2328 
Q 422 3509 836 4129 
Q 1250 4750 2034 4750 
z
" transform="scale(0.015625)"/>
      </defs>
      <use xlink:href="#DejaVuSans-31"/>
      <use xlink:href="#DejaVuSans-30" x="63.623047"/>
     </g>
    </g>
   </g>
   <g id="xtick_2">
    <g id="line2d_3">
     <path d="M 212.023033 270.06024 
L 209.845512 272.111789 
" style="fill: none; stroke: #000000; stroke-width: 0.8; stroke-linecap: square"/>
    </g>
    <g id="text_2">
     <!-- 20 -->
     <g transform="translate(197.493243 294.601104) scale(0.1 -0.1)">
      <defs>
       <path id="DejaVuSans-32" d="M 1228 531 
L 3431 531 
L 3431 0 
L 469 0 
L 469 531 
Q 828 903 1448 1529 
Q 2069 2156 2228 2338 
Q 2531 2678 2651 2914 
Q 2772 3150 2772 3378 
Q 2772 3750 2511 3984 
Q 2250 4219 1831 4219 
Q 1534 4219 1204 4116 
Q 875 4013 500 3803 
L 500 4441 
Q 881 4594 1212 4672 
Q 1544 4750 1819 4750 
Q 2544 4750 2975 4387 
Q 3406 4025 3406 3419 
Q 3406 3131 3298 2873 
Q 3191 2616 2906 2266 
Q 2828 2175 2409 1742 
Q 1991 1309 1228 531 
z
" transform="scale(0.015625)"/>
      </defs>
      <use xlink:href="#DejaVuSans-32"/>
      <use xlink:href="#DejaVuSans-30" x="63.623047"/>
     </g>
    </g>
   </g>
   <g id="xtick_3">
    <g id="line2d_4">
     <path d="M 183.381002 260.714997 
L 181.162846 262.725461 
" style="fill: none; stroke: #000000; stroke-width: 0.8; stroke-linecap: square"/>
    </g>
    <g id="text_3">
     <!-- 30 -->
     <g transform="translate(168.804366 285.042578) scale(0.1 -0.1)">
      <defs>
       <path id="DejaVuSans-33" d="M 2597 2516 
Q 3050 2419 3304 2112 
Q 3559 1806 3559 1356 
Q 3559 666 3084 287 
Q 2609 -91 1734 -91 
Q 1441 -91 1130 -33 
Q 819 25 488 141 
L 488 750 
Q 750 597 1062 519 
Q 1375 441 1716 441 
Q 2309 441 2620 675 
Q 2931 909 2931 1356 
Q 2931 1769 2642 2001 
Q 2353 2234 1838 2234 
L 1294 2234 
L 1294 2753 
L 1863 2753 
Q 2328 2753 2575 2939 
Q 2822 3125 2822 3475 
Q 2822 3834 2567 4026 
Q 2313 4219 1838 4219 
Q 1578 4219 1281 4162 
Q 984 4106 628 3988 
L 628 4550 
Q 988 4650 1302 4700 
Q 1616 4750 1894 4750 
Q 2613 4750 3031 4423 
Q 3450 4097 3450 3541 
Q 3450 3153 3228 2886 
Q 3006 2619 2597 2516 
z
" transform="scale(0.015625)"/>
      </defs>
      <use xlink:href="#DejaVuSans-33"/>
      <use xlink:href="#DejaVuSans-30" x="63.623047"/>
     </g>
    </g>
   </g>
   <g id="xtick_4">
    <g id="line2d_5">
     <path d="M 155.309106 251.555776 
L 153.052359 253.526377 
" style="fill: none; stroke: #000000; stroke-width: 0.8; stroke-linecap: square"/>
    </g>
    <g id="text_4">
     <!-- 40 -->
     <g transform="translate(140.689109 275.67517) scale(0.1 -0.1)">
      <defs>
       <path id="DejaVuSans-34" d="M 2419 4116 
L 825 1625 
L 2419 1625 
L 2419 4116 
z
M 2253 4666 
L 3047 4666 
L 3047 1625 
L 3713 1625 
L 3713 1100 
L 3047 1100 
L 3047 0 
L 2419 0 
L 2419 1100 
L 313 1100 
L 313 1709 
L 2253 4666 
z
" transform="scale(0.015625)"/>
      </defs>
      <use xlink:href="#DejaVuSans-34"/>
      <use xlink:href="#DejaVuSans-30" x="63.623047"/>
     </g>
    </g>
   </g>
   <g id="xtick_5">
    <g id="line2d_6">
     <path d="M 127.790489 242.577077 
L 125.497098 244.508989 
" style="fill: none; stroke: #000000; stroke-width: 0.8; stroke-linecap: square"/>
    </g>
    <g id="text_5">
     <!-- 50 -->
     <g transform="translate(113.130439 266.493205) scale(0.1 -0.1)">
      <defs>
       <path id="DejaVuSans-35" d="M 691 4666 
L 3169 4666 
L 3169 4134 
L 1269 4134 
L 1269 2991 
Q 1406 3038 1543 3061 
Q 1681 3084 1819 3084 
Q 2600 3084 3056 2656 
Q 3513 2228 3513 1497 
Q 3513 744 3044 326 
Q 2575 -91 1722 -91 
Q 1428 -91 1123 -41 
Q 819 9 494 109 
L 494 744 
Q 775 591 1075 516 
Q 1375 441 1709 441 
Q 2250 441 2565 725 
Q 2881 1009 2881 1497 
Q 2881 1984 2565 2268 
Q 2250 2553 1709 2553 
Q 1456 2553 1204 2497 
Q 953 2441 691 2322 
L 691 4666 
z
" transform="scale(0.015625)"/>
      </defs>
      <use xlink:href="#DejaVuSans-35"/>
      <use xlink:href="#DejaVuSans-30" x="63.623047"/>
     </g>
    </g>
   </g>
   <g id="text_6">
    <!-- Runtime -->
    <g transform="translate(158.96884 297.147931) rotate(-341.912962) scale(0.1 -0.1)">
     <defs>
      <path id="DejaVuSans-52" d="M 2841 2188 
Q 3044 2119 3236 1894 
Q 3428 1669 3622 1275 
L 4263 0 
L 3584 0 
L 2988 1197 
Q 2756 1666 2539 1819 
Q 2322 1972 1947 1972 
L 1259 1972 
L 1259 0 
L 628 0 
L 628 4666 
L 2053 4666 
Q 2853 4666 3247 4331 
Q 3641 3997 3641 3322 
Q 3641 2881 3436 2590 
Q 3231 2300 2841 2188 
z
M 1259 4147 
L 1259 2491 
L 2053 2491 
Q 2509 2491 2742 2702 
Q 2975 2913 2975 3322 
Q 2975 3731 2742 3939 
Q 2509 4147 2053 4147 
L 1259 4147 
z
" transform="scale(0.015625)"/>
      <path id="DejaVuSans-75" d="M 544 1381 
L 544 3500 
L 1119 3500 
L 1119 1403 
Q 1119 906 1312 657 
Q 1506 409 1894 409 
Q 2359 409 2629 706 
Q 2900 1003 2900 1516 
L 2900 3500 
L 3475 3500 
L 3475 0 
L 2900 0 
L 2900 538 
Q 2691 219 2414 64 
Q 2138 -91 1772 -91 
Q 1169 -91 856 284 
Q 544 659 544 1381 
z
M 1991 3584 
L 1991 3584 
z
" transform="scale(0.015625)"/>
      <path id="DejaVuSans-6e" d="M 3513 2113 
L 3513 0 
L 2938 0 
L 2938 2094 
Q 2938 2591 2744 2837 
Q 2550 3084 2163 3084 
Q 1697 3084 1428 2787 
Q 1159 2491 1159 1978 
L 1159 0 
L 581 0 
L 581 3500 
L 1159 3500 
L 1159 2956 
Q 1366 3272 1645 3428 
Q 1925 3584 2291 3584 
Q 2894 3584 3203 3211 
Q 3513 2838 3513 2113 
z
" transform="scale(0.015625)"/>
      <path id="DejaVuSans-74" d="M 1172 4494 
L 1172 3500 
L 2356 3500 
L 2356 3053 
L 1172 3053 
L 1172 1153 
Q 1172 725 1289 603 
Q 1406 481 1766 481 
L 2356 481 
L 2356 0 
L 1766 0 
Q 1100 0 847 248 
Q 594 497 594 1153 
L 594 3053 
L 172 3053 
L 172 3500 
L 594 3500 
L 594 4494 
L 1172 4494 
z
" transform="scale(0.015625)"/>
      <path id="DejaVuSans-69" d="M 603 3500 
L 1178 3500 
L 1178 0 
L 603 0 
L 603 3500 
z
M 603 4863 
L 1178 4863 
L 1178 4134 
L 603 4134 
L 603 4863 
z
" transform="scale(0.015625)"/>
      <path id="DejaVuSans-6d" d="M 3328 2828 
Q 3544 3216 3844 3400 
Q 4144 3584 4550 3584 
Q 5097 3584 5394 3201 
Q 5691 2819 5691 2113 
L 5691 0 
L 5113 0 
L 5113 2094 
Q 5113 2597 4934 2840 
Q 4756 3084 4391 3084 
Q 3944 3084 3684 2787 
Q 3425 2491 3425 1978 
L 3425 0 
L 2847 0 
L 2847 2094 
Q 2847 2600 2669 2842 
Q 2491 3084 2119 3084 
Q 1678 3084 1418 2786 
Q 1159 2488 1159 1978 
L 1159 0 
L 581 0 
L 581 3500 
L 1159 3500 
L 1159 2956 
Q 1356 3278 1631 3431 
Q 1906 3584 2284 3584 
Q 2666 3584 2933 3390 
Q 3200 3197 3328 2828 
z
" transform="scale(0.015625)"/>
      <path id="DejaVuSans-65" d="M 3597 1894 
L 3597 1613 
L 953 1613 
Q 991 1019 1311 708 
Q 1631 397 2203 397 
Q 2534 397 2845 478 
Q 3156 559 3463 722 
L 3463 178 
Q 3153 47 2828 -22 
Q 2503 -91 2169 -91 
Q 1331 -91 842 396 
Q 353 884 353 1716 
Q 353 2575 817 3079 
Q 1281 3584 2069 3584 
Q 2775 3584 3186 3129 
Q 3597 2675 3597 1894 
z
M 3022 2063 
Q 3016 2534 2758 2815 
Q 2500 3097 2075 3097 
Q 1594 3097 1305 2825 
Q 1016 2553 972 2059 
L 3022 2063 
z
" transform="scale(0.015625)"/>
     </defs>
     <use xlink:href="#DejaVuSans-52"/>
     <use xlink:href="#DejaVuSans-75" x="64.982422"/>
     <use xlink:href="#DejaVuSans-6e" x="128.361328"/>
     <use xlink:href="#DejaVuSans-74" x="191.740234"/>
     <use xlink:href="#DejaVuSans-69" x="230.949219"/>
     <use xlink:href="#DejaVuSans-6d" x="258.732422"/>
     <use xlink:href="#DejaVuSans-65" x="356.144531"/>
    </g>
   </g>
  </g>
  <g id="axis3d_2">
   <g id="line2d_7">
    <path d="M 352.090401 209.294766 
L 272.679269 290.790123 
" style="fill: none; stroke: #000000; stroke-width: 0.8; stroke-linecap: square"/>
   </g>
   <g id="xtick_6">
    <g id="line2d_8">
     <path d="M 344.287438 215.7318 
L 347.86059 216.780807 
" style="fill: none; stroke: #000000; stroke-width: 0.8; stroke-linecap: square"/>
    </g>
    <g id="text_7">
     <!-- 0.002 -->
     <g transform="translate(343.139198 236.082628) scale(0.1 -0.1)">
      <defs>
       <path id="DejaVuSans-2e" d="M 684 794 
L 1344 794 
L 1344 0 
L 684 0 
L 684 794 
z
" transform="scale(0.015625)"/>
      </defs>
      <use xlink:href="#DejaVuSans-30"/>
      <use xlink:href="#DejaVuSans-2e" x="63.623047"/>
      <use xlink:href="#DejaVuSans-30" x="95.410156"/>
      <use xlink:href="#DejaVuSans-30" x="159.033203"/>
      <use xlink:href="#DejaVuSans-32" x="222.65625"/>
     </g>
    </g>
   </g>
   <g id="xtick_7">
    <g id="line2d_9">
     <path d="M 332.232579 228.080891 
L 335.841552 229.159725 
" style="fill: none; stroke: #000000; stroke-width: 0.8; stroke-linecap: square"/>
    </g>
    <g id="text_8">
     <!-- 0.004 -->
     <g transform="translate(331.258603 248.623764) scale(0.1 -0.1)">
      <use xlink:href="#DejaVuSans-30"/>
      <use xlink:href="#DejaVuSans-2e" x="63.623047"/>
      <use xlink:href="#DejaVuSans-30" x="95.410156"/>
      <use xlink:href="#DejaVuSans-30" x="159.033203"/>
      <use xlink:href="#DejaVuSans-34" x="222.65625"/>
     </g>
    </g>
   </g>
   <g id="xtick_8">
    <g id="line2d_10">
     <path d="M 319.832696 240.783426 
L 323.478093 241.893378 
" style="fill: none; stroke: #000000; stroke-width: 0.8; stroke-linecap: square"/>
    </g>
    <g id="text_9">
     <!-- 0.006 -->
     <g transform="translate(319.037638 261.524193) scale(0.1 -0.1)">
      <defs>
       <path id="DejaVuSans-36" d="M 2113 2584 
Q 1688 2584 1439 2293 
Q 1191 2003 1191 1497 
Q 1191 994 1439 701 
Q 1688 409 2113 409 
Q 2538 409 2786 701 
Q 3034 994 3034 1497 
Q 3034 2003 2786 2293 
Q 2538 2584 2113 2584 
z
M 3366 4563 
L 3366 3988 
Q 3128 4100 2886 4159 
Q 2644 4219 2406 4219 
Q 1781 4219 1451 3797 
Q 1122 3375 1075 2522 
Q 1259 2794 1537 2939 
Q 1816 3084 2150 3084 
Q 2853 3084 3261 2657 
Q 3669 2231 3669 1497 
Q 3669 778 3244 343 
Q 2819 -91 2113 -91 
Q 1303 -91 875 529 
Q 447 1150 447 2328 
Q 447 3434 972 4092 
Q 1497 4750 2381 4750 
Q 2619 4750 2861 4703 
Q 3103 4656 3366 4563 
z
" transform="scale(0.015625)"/>
      </defs>
      <use xlink:href="#DejaVuSans-30"/>
      <use xlink:href="#DejaVuSans-2e" x="63.623047"/>
      <use xlink:href="#DejaVuSans-30" x="95.410156"/>
      <use xlink:href="#DejaVuSans-30" x="159.033203"/>
      <use xlink:href="#DejaVuSans-36" x="222.65625"/>
     </g>
    </g>
   </g>
   <g id="xtick_9">
    <g id="line2d_11">
     <path d="M 307.072762 253.8548 
L 310.755191 254.997236 
" style="fill: none; stroke: #000000; stroke-width: 0.8; stroke-linecap: square"/>
    </g>
    <g id="text_10">
     <!-- 0.008 -->
     <g transform="translate(306.461465 274.79958) scale(0.1 -0.1)">
      <defs>
       <path id="DejaVuSans-38" d="M 2034 2216 
Q 1584 2216 1326 1975 
Q 1069 1734 1069 1313 
Q 1069 891 1326 650 
Q 1584 409 2034 409 
Q 2484 409 2743 651 
Q 3003 894 3003 1313 
Q 3003 1734 2745 1975 
Q 2488 2216 2034 2216 
z
M 1403 2484 
Q 997 2584 770 2862 
Q 544 3141 544 3541 
Q 544 4100 942 4425 
Q 1341 4750 2034 4750 
Q 2731 4750 3128 4425 
Q 3525 4100 3525 3541 
Q 3525 3141 3298 2862 
Q 3072 2584 2669 2484 
Q 3125 2378 3379 2068 
Q 3634 1759 3634 1313 
Q 3634 634 3220 271 
Q 2806 -91 2034 -91 
Q 1263 -91 848 271 
Q 434 634 434 1313 
Q 434 1759 690 2068 
Q 947 2378 1403 2484 
z
M 1172 3481 
Q 1172 3119 1398 2916 
Q 1625 2713 2034 2713 
Q 2441 2713 2670 2916 
Q 2900 3119 2900 3481 
Q 2900 3844 2670 4047 
Q 2441 4250 2034 4250 
Q 1625 4250 1398 4047 
Q 1172 3844 1172 3481 
z
" transform="scale(0.015625)"/>
      </defs>
      <use xlink:href="#DejaVuSans-30"/>
      <use xlink:href="#DejaVuSans-2e" x="63.623047"/>
      <use xlink:href="#DejaVuSans-30" x="95.410156"/>
      <use xlink:href="#DejaVuSans-30" x="159.033203"/>
      <use xlink:href="#DejaVuSans-38" x="222.65625"/>
     </g>
    </g>
   </g>
   <g id="xtick_10">
    <g id="line2d_12">
     <path d="M 293.936865 267.311314 
L 297.656941 268.48768 
" style="fill: none; stroke: #000000; stroke-width: 0.8; stroke-linecap: square"/>
    </g>
    <g id="text_11">
     <!-- 0.010 -->
     <g transform="translate(293.514368 288.466514) scale(0.1 -0.1)">
      <use xlink:href="#DejaVuSans-30"/>
      <use xlink:href="#DejaVuSans-2e" x="63.623047"/>
      <use xlink:href="#DejaVuSans-30" x="95.410156"/>
      <use xlink:href="#DejaVuSans-31" x="159.033203"/>
      <use xlink:href="#DejaVuSans-30" x="222.65625"/>
     </g>
    </g>
   </g>
   <g id="xtick_11">
    <g id="line2d_13">
     <path d="M 280.408139 281.170245 
L 284.166483 282.382076 
" style="fill: none; stroke: #000000; stroke-width: 0.8; stroke-linecap: square"/>
    </g>
    <g id="text_12">
     <!-- 0.012 -->
     <g transform="translate(280.179691 302.542576) scale(0.1 -0.1)">
      <use xlink:href="#DejaVuSans-30"/>
      <use xlink:href="#DejaVuSans-2e" x="63.623047"/>
      <use xlink:href="#DejaVuSans-30" x="95.410156"/>
      <use xlink:href="#DejaVuSans-31" x="159.033203"/>
      <use xlink:href="#DejaVuSans-32" x="222.65625"/>
     </g>
    </g>
   </g>
   <g id="text_13">
    <!-- Price -->
    <g transform="translate(334.596451 286.891093) rotate(-45.742112) scale(0.1 -0.1)">
     <defs>
      <path id="DejaVuSans-50" d="M 1259 4147 
L 1259 2394 
L 2053 2394 
Q 2494 2394 2734 2622 
Q 2975 2850 2975 3272 
Q 2975 3691 2734 3919 
Q 2494 4147 2053 4147 
L 1259 4147 
z
M 628 4666 
L 2053 4666 
Q 2838 4666 3239 4311 
Q 3641 3956 3641 3272 
Q 3641 2581 3239 2228 
Q 2838 1875 2053 1875 
L 1259 1875 
L 1259 0 
L 628 0 
L 628 4666 
z
" transform="scale(0.015625)"/>
      <path id="DejaVuSans-72" d="M 2631 2963 
Q 2534 3019 2420 3045 
Q 2306 3072 2169 3072 
Q 1681 3072 1420 2755 
Q 1159 2438 1159 1844 
L 1159 0 
L 581 0 
L 581 3500 
L 1159 3500 
L 1159 2956 
Q 1341 3275 1631 3429 
Q 1922 3584 2338 3584 
Q 2397 3584 2469 3576 
Q 2541 3569 2628 3553 
L 2631 2963 
z
" transform="scale(0.015625)"/>
      <path id="DejaVuSans-63" d="M 3122 3366 
L 3122 2828 
Q 2878 2963 2633 3030 
Q 2388 3097 2138 3097 
Q 1578 3097 1268 2742 
Q 959 2388 959 1747 
Q 959 1106 1268 751 
Q 1578 397 2138 397 
Q 2388 397 2633 464 
Q 2878 531 3122 666 
L 3122 134 
Q 2881 22 2623 -34 
Q 2366 -91 2075 -91 
Q 1284 -91 818 406 
Q 353 903 353 1747 
Q 353 2603 823 3093 
Q 1294 3584 2113 3584 
Q 2378 3584 2631 3529 
Q 2884 3475 3122 3366 
z
" transform="scale(0.015625)"/>
     </defs>
     <use xlink:href="#DejaVuSans-50"/>
     <use xlink:href="#DejaVuSans-72" x="58.552734"/>
     <use xlink:href="#DejaVuSans-69" x="99.666016"/>
     <use xlink:href="#DejaVuSans-63" x="127.449219"/>
     <use xlink:href="#DejaVuSans-65" x="182.429688"/>
    </g>
   </g>
  </g>
  <g id="axis3d_3">
   <g id="line2d_14">
    <path d="M 352.090401 209.294766 
L 357.122702 99.402171 
" style="fill: none; stroke: #000000; stroke-width: 0.8; stroke-linecap: square"/>
   </g>
   <g id="xtick_12">
    <g id="line2d_15">
     <path d="M 355.104651 116.293621 
L 358.797501 117.251128 
" style="fill: none; stroke: #000000; stroke-width: 0.8; stroke-linecap: square"/>
    </g>
    <g id="text_14">
     <!-- −0.04 -->
     <g transform="translate(359.934689 121.7962) scale(0.1 -0.1)">
      <defs>
       <path id="DejaVuSans-2212" d="M 678 2272 
L 4684 2272 
L 4684 1741 
L 678 1741 
L 678 2272 
z
" transform="scale(0.015625)"/>
      </defs>
      <use xlink:href="#DejaVuSans-2212"/>
      <use xlink:href="#DejaVuSans-30" x="83.789062"/>
      <use xlink:href="#DejaVuSans-2e" x="147.412109"/>
      <use xlink:href="#DejaVuSans-30" x="179.199219"/>
      <use xlink:href="#DejaVuSans-34" x="242.822266"/>
     </g>
    </g>
   </g>
   <g id="xtick_13">
    <g id="line2d_16">
     <path d="M 354.21604 135.907983 
L 357.879318 136.882126 
" style="fill: none; stroke: #000000; stroke-width: 0.8; stroke-linecap: square"/>
    </g>
    <g id="text_15">
     <!-- −0.02 -->
     <g transform="translate(358.893626 141.374087) scale(0.1 -0.1)">
      <use xlink:href="#DejaVuSans-2212"/>
      <use xlink:href="#DejaVuSans-30" x="83.789062"/>
      <use xlink:href="#DejaVuSans-2e" x="147.412109"/>
      <use xlink:href="#DejaVuSans-30" x="179.199219"/>
      <use xlink:href="#DejaVuSans-32" x="242.822266"/>
     </g>
    </g>
   </g>
   <g id="xtick_14">
    <g id="line2d_17">
     <path d="M 353.341016 155.22245 
L 356.975191 156.212608 
" style="fill: none; stroke: #000000; stroke-width: 0.8; stroke-linecap: square"/>
    </g>
    <g id="text_16">
     <!-- 0.00 -->
     <g transform="translate(362.058281 160.653431) scale(0.1 -0.1)">
      <use xlink:href="#DejaVuSans-30"/>
      <use xlink:href="#DejaVuSans-2e" x="63.623047"/>
      <use xlink:href="#DejaVuSans-30" x="95.410156"/>
      <use xlink:href="#DejaVuSans-30" x="159.033203"/>
     </g>
    </g>
   </g>
   <g id="xtick_15">
    <g id="line2d_18">
     <path d="M 352.479269 174.243846 
L 356.0848 175.249423 
" style="fill: none; stroke: #000000; stroke-width: 0.8; stroke-linecap: square"/>
    </g>
    <g id="text_17">
     <!-- 0.02 -->
     <g transform="translate(361.048608 179.64101) scale(0.1 -0.1)">
      <use xlink:href="#DejaVuSans-30"/>
      <use xlink:href="#DejaVuSans-2e" x="63.623047"/>
      <use xlink:href="#DejaVuSans-30" x="95.410156"/>
      <use xlink:href="#DejaVuSans-32" x="159.033203"/>
     </g>
    </g>
   </g>
   <g id="xtick_16">
    <g id="line2d_19">
     <path d="M 351.630499 192.978792 
L 355.207833 193.999212 
" style="fill: none; stroke: #000000; stroke-width: 0.8; stroke-linecap: square"/>
    </g>
    <g id="text_18">
     <!-- 0.04 -->
     <g transform="translate(360.0541 198.343398) scale(0.1 -0.1)">
      <use xlink:href="#DejaVuSans-30"/>
      <use xlink:href="#DejaVuSans-2e" x="63.623047"/>
      <use xlink:href="#DejaVuSans-30" x="95.410156"/>
      <use xlink:href="#DejaVuSans-34" x="159.033203"/>
     </g>
    </g>
   </g>
   <g id="text_19">
    <!-- Max failure rate -->
    <g transform="translate(395.878505 189.69032) rotate(-87.378092) scale(0.1 -0.1)">
     <defs>
      <path id="DejaVuSans-4d" d="M 628 4666 
L 1569 4666 
L 2759 1491 
L 3956 4666 
L 4897 4666 
L 4897 0 
L 4281 0 
L 4281 4097 
L 3078 897 
L 2444 897 
L 1241 4097 
L 1241 0 
L 628 0 
L 628 4666 
z
" transform="scale(0.015625)"/>
      <path id="DejaVuSans-61" d="M 2194 1759 
Q 1497 1759 1228 1600 
Q 959 1441 959 1056 
Q 959 750 1161 570 
Q 1363 391 1709 391 
Q 2188 391 2477 730 
Q 2766 1069 2766 1631 
L 2766 1759 
L 2194 1759 
z
M 3341 1997 
L 3341 0 
L 2766 0 
L 2766 531 
Q 2569 213 2275 61 
Q 1981 -91 1556 -91 
Q 1019 -91 701 211 
Q 384 513 384 1019 
Q 384 1609 779 1909 
Q 1175 2209 1959 2209 
L 2766 2209 
L 2766 2266 
Q 2766 2663 2505 2880 
Q 2244 3097 1772 3097 
Q 1472 3097 1187 3025 
Q 903 2953 641 2809 
L 641 3341 
Q 956 3463 1253 3523 
Q 1550 3584 1831 3584 
Q 2591 3584 2966 3190 
Q 3341 2797 3341 1997 
z
" transform="scale(0.015625)"/>
      <path id="DejaVuSans-78" d="M 3513 3500 
L 2247 1797 
L 3578 0 
L 2900 0 
L 1881 1375 
L 863 0 
L 184 0 
L 1544 1831 
L 300 3500 
L 978 3500 
L 1906 2253 
L 2834 3500 
L 3513 3500 
z
" transform="scale(0.015625)"/>
      <path id="DejaVuSans-20" transform="scale(0.015625)"/>
      <path id="DejaVuSans-66" d="M 2375 4863 
L 2375 4384 
L 1825 4384 
Q 1516 4384 1395 4259 
Q 1275 4134 1275 3809 
L 1275 3500 
L 2222 3500 
L 2222 3053 
L 1275 3053 
L 1275 0 
L 697 0 
L 697 3053 
L 147 3053 
L 147 3500 
L 697 3500 
L 697 3744 
Q 697 4328 969 4595 
Q 1241 4863 1831 4863 
L 2375 4863 
z
" transform="scale(0.015625)"/>
      <path id="DejaVuSans-6c" d="M 603 4863 
L 1178 4863 
L 1178 0 
L 603 0 
L 603 4863 
z
" transform="scale(0.015625)"/>
     </defs>
     <use xlink:href="#DejaVuSans-4d"/>
     <use xlink:href="#DejaVuSans-61" x="86.279297"/>
     <use xlink:href="#DejaVuSans-78" x="147.558594"/>
     <use xlink:href="#DejaVuSans-20" x="206.738281"/>
     <use xlink:href="#DejaVuSans-66" x="238.525391"/>
     <use xlink:href="#DejaVuSans-61" x="273.730469"/>
     <use xlink:href="#DejaVuSans-69" x="335.009766"/>
     <use xlink:href="#DejaVuSans-6c" x="362.792969"/>
     <use xlink:href="#DejaVuSans-75" x="390.576172"/>
     <use xlink:href="#DejaVuSans-72" x="453.955078"/>
     <use xlink:href="#DejaVuSans-65" x="492.818359"/>
     <use xlink:href="#DejaVuSans-20" x="554.341797"/>
     <use xlink:href="#DejaVuSans-72" x="586.128906"/>
     <use xlink:href="#DejaVuSans-61" x="627.242188"/>
     <use xlink:href="#DejaVuSans-74" x="688.521484"/>
     <use xlink:href="#DejaVuSans-65" x="727.730469"/>
    </g>
   </g>
  </g>
  <g id="axes_1">
   <g id="Path3DCollection_1">
    <defs>
     <path id="C0_0_5152044fdf" d="M 0 2.236068 
C 0.593012 2.236068 1.161816 2.000462 1.581139 1.581139 
C 2.000462 1.161816 2.236068 0.593012 2.236068 -0 
C 2.236068 -0.593012 2.000462 -1.161816 1.581139 -1.581139 
C 1.161816 -2.000462 0.593012 -2.236068 0 -2.236068 
C -0.593012 -2.236068 -1.161816 -2.000462 -1.581139 -1.581139 
C -2.000462 -1.161816 -2.236068 -0.593012 -2.236068 0 
C -2.236068 0.593012 -2.000462 1.161816 -1.581139 1.581139 
C -1.161816 2.000462 -0.593012 2.236068 0 2.236068 
z
"/>
    </defs>
    <g clip-path="url(#p8f80cd2087)">
     <use xlink:href="#C0_0_5152044fdf" x="218.468278" y="124.07846" style="fill: #9370db; fill-opacity: 0.3; stroke: #9370db; stroke-opacity: 0.3"/>
    </g>
    <g clip-path="url(#p8f80cd2087)">
     <use xlink:href="#C0_0_5152044fdf" x="218.468278" y="124.07846" style="fill: #9370db; fill-opacity: 0.3; stroke: #9370db; stroke-opacity: 0.3"/>
    </g>
    <g clip-path="url(#p8f80cd2087)">
     <use xlink:href="#C0_0_5152044fdf" x="218.468278" y="124.07846" style="fill: #9370db; fill-opacity: 0.3; stroke: #9370db; stroke-opacity: 0.3"/>
    </g>
    <g clip-path="url(#p8f80cd2087)">
     <use xlink:href="#C0_0_5152044fdf" x="218.468278" y="124.07846" style="fill: #9370db; fill-opacity: 0.3; stroke: #9370db; stroke-opacity: 0.3"/>
    </g>
    <g clip-path="url(#p8f80cd2087)">
     <use xlink:href="#C0_0_5152044fdf" x="218.468278" y="124.07846" style="fill: #9370db; fill-opacity: 0.3; stroke: #9370db; stroke-opacity: 0.3"/>
    </g>
    <g clip-path="url(#p8f80cd2087)">
     <use xlink:href="#C0_0_5152044fdf" x="218.468278" y="124.07846" style="fill: #9370db; fill-opacity: 0.3; stroke: #9370db; stroke-opacity: 0.3"/>
    </g>
    <g clip-path="url(#p8f80cd2087)">
     <use xlink:href="#C0_0_5152044fdf" x="268.898032" y="225.311462" style="fill: #9370db; stroke: #9370db"/>
    </g>
    <g clip-path="url(#p8f80cd2087)">
     <use xlink:href="#C0_0_5152044fdf" x="268.898032" y="225.311462" style="fill: #9370db; stroke: #9370db"/>
    </g>
    <g clip-path="url(#p8f80cd2087)">
     <use xlink:href="#C0_0_5152044fdf" x="268.898032" y="225.311462" style="fill: #9370db; stroke: #9370db"/>
    </g>
    <g clip-path="url(#p8f80cd2087)">
     <use xlink:href="#C0_0_5152044fdf" x="268.898032" y="225.311462" style="fill: #9370db; stroke: #9370db"/>
    </g>
    <g clip-path="url(#p8f80cd2087)">
     <use xlink:href="#C0_0_5152044fdf" x="268.898032" y="225.311462" style="fill: #9370db; stroke: #9370db"/>
    </g>
    <g clip-path="url(#p8f80cd2087)">
     <use xlink:href="#C0_0_5152044fdf" x="268.898032" y="225.311462" style="fill: #9370db; stroke: #9370db"/>
    </g>
   </g>
   <g id="text_20">
    <!-- retrofit_retrofit-adapters.rxjava -->
    <g transform="translate(143.02875 35.472) scale(0.12 -0.12)">
     <defs>
      <path id="DejaVuSans-6f" d="M 1959 3097 
Q 1497 3097 1228 2736 
Q 959 2375 959 1747 
Q 959 1119 1226 758 
Q 1494 397 1959 397 
Q 2419 397 2687 759 
Q 2956 1122 2956 1747 
Q 2956 2369 2687 2733 
Q 2419 3097 1959 3097 
z
M 1959 3584 
Q 2709 3584 3137 3096 
Q 3566 2609 3566 1747 
Q 3566 888 3137 398 
Q 2709 -91 1959 -91 
Q 1206 -91 779 398 
Q 353 888 353 1747 
Q 353 2609 779 3096 
Q 1206 3584 1959 3584 
z
" transform="scale(0.015625)"/>
      <path id="DejaVuSans-5f" d="M 3263 -1063 
L 3263 -1509 
L -63 -1509 
L -63 -1063 
L 3263 -1063 
z
" transform="scale(0.015625)"/>
      <path id="DejaVuSans-2d" d="M 313 2009 
L 1997 2009 
L 1997 1497 
L 313 1497 
L 313 2009 
z
" transform="scale(0.015625)"/>
      <path id="DejaVuSans-64" d="M 2906 2969 
L 2906 4863 
L 3481 4863 
L 3481 0 
L 2906 0 
L 2906 525 
Q 2725 213 2448 61 
Q 2172 -91 1784 -91 
Q 1150 -91 751 415 
Q 353 922 353 1747 
Q 353 2572 751 3078 
Q 1150 3584 1784 3584 
Q 2172 3584 2448 3432 
Q 2725 3281 2906 2969 
z
M 947 1747 
Q 947 1113 1208 752 
Q 1469 391 1925 391 
Q 2381 391 2643 752 
Q 2906 1113 2906 1747 
Q 2906 2381 2643 2742 
Q 2381 3103 1925 3103 
Q 1469 3103 1208 2742 
Q 947 2381 947 1747 
z
" transform="scale(0.015625)"/>
      <path id="DejaVuSans-70" d="M 1159 525 
L 1159 -1331 
L 581 -1331 
L 581 3500 
L 1159 3500 
L 1159 2969 
Q 1341 3281 1617 3432 
Q 1894 3584 2278 3584 
Q 2916 3584 3314 3078 
Q 3713 2572 3713 1747 
Q 3713 922 3314 415 
Q 2916 -91 2278 -91 
Q 1894 -91 1617 61 
Q 1341 213 1159 525 
z
M 3116 1747 
Q 3116 2381 2855 2742 
Q 2594 3103 2138 3103 
Q 1681 3103 1420 2742 
Q 1159 2381 1159 1747 
Q 1159 1113 1420 752 
Q 1681 391 2138 391 
Q 2594 391 2855 752 
Q 3116 1113 3116 1747 
z
" transform="scale(0.015625)"/>
      <path id="DejaVuSans-73" d="M 2834 3397 
L 2834 2853 
Q 2591 2978 2328 3040 
Q 2066 3103 1784 3103 
Q 1356 3103 1142 2972 
Q 928 2841 928 2578 
Q 928 2378 1081 2264 
Q 1234 2150 1697 2047 
L 1894 2003 
Q 2506 1872 2764 1633 
Q 3022 1394 3022 966 
Q 3022 478 2636 193 
Q 2250 -91 1575 -91 
Q 1294 -91 989 -36 
Q 684 19 347 128 
L 347 722 
Q 666 556 975 473 
Q 1284 391 1588 391 
Q 1994 391 2212 530 
Q 2431 669 2431 922 
Q 2431 1156 2273 1281 
Q 2116 1406 1581 1522 
L 1381 1569 
Q 847 1681 609 1914 
Q 372 2147 372 2553 
Q 372 3047 722 3315 
Q 1072 3584 1716 3584 
Q 2034 3584 2315 3537 
Q 2597 3491 2834 3397 
z
" transform="scale(0.015625)"/>
      <path id="DejaVuSans-6a" d="M 603 3500 
L 1178 3500 
L 1178 -63 
Q 1178 -731 923 -1031 
Q 669 -1331 103 -1331 
L -116 -1331 
L -116 -844 
L 38 -844 
Q 366 -844 484 -692 
Q 603 -541 603 -63 
L 603 3500 
z
M 603 4863 
L 1178 4863 
L 1178 4134 
L 603 4134 
L 603 4863 
z
" transform="scale(0.015625)"/>
      <path id="DejaVuSans-76" d="M 191 3500 
L 800 3500 
L 1894 563 
L 2988 3500 
L 3597 3500 
L 2284 0 
L 1503 0 
L 191 3500 
z
" transform="scale(0.015625)"/>
     </defs>
     <use xlink:href="#DejaVuSans-72"/>
     <use xlink:href="#DejaVuSans-65" x="38.863281"/>
     <use xlink:href="#DejaVuSans-74" x="100.386719"/>
     <use xlink:href="#DejaVuSans-72" x="139.595703"/>
     <use xlink:href="#DejaVuSans-6f" x="178.458984"/>
     <use xlink:href="#DejaVuSans-66" x="239.640625"/>
     <use xlink:href="#DejaVuSans-69" x="274.845703"/>
     <use xlink:href="#DejaVuSans-74" x="302.628906"/>
     <use xlink:href="#DejaVuSans-5f" x="341.837891"/>
     <use xlink:href="#DejaVuSans-72" x="391.837891"/>
     <use xlink:href="#DejaVuSans-65" x="430.701172"/>
     <use xlink:href="#DejaVuSans-74" x="492.224609"/>
     <use xlink:href="#DejaVuSans-72" x="531.433594"/>
     <use xlink:href="#DejaVuSans-6f" x="570.296875"/>
     <use xlink:href="#DejaVuSans-66" x="631.478516"/>
     <use xlink:href="#DejaVuSans-69" x="666.683594"/>
     <use xlink:href="#DejaVuSans-74" x="694.466797"/>
     <use xlink:href="#DejaVuSans-2d" x="733.675781"/>
     <use xlink:href="#DejaVuSans-61" x="769.759766"/>
     <use xlink:href="#DejaVuSans-64" x="831.039062"/>
     <use xlink:href="#DejaVuSans-61" x="894.515625"/>
     <use xlink:href="#DejaVuSans-70" x="955.794922"/>
     <use xlink:href="#DejaVuSans-74" x="1019.271484"/>
     <use xlink:href="#DejaVuSans-65" x="1058.480469"/>
     <use xlink:href="#DejaVuSans-72" x="1120.003906"/>
     <use xlink:href="#DejaVuSans-73" x="1161.117188"/>
     <use xlink:href="#DejaVuSans-2e" x="1213.216797"/>
     <use xlink:href="#DejaVuSans-72" x="1245.003906"/>
     <use xlink:href="#DejaVuSans-78" x="1283.492188"/>
     <use xlink:href="#DejaVuSans-6a" x="1342.671875"/>
     <use xlink:href="#DejaVuSans-61" x="1370.455078"/>
     <use xlink:href="#DejaVuSans-76" x="1431.734375"/>
     <use xlink:href="#DejaVuSans-61" x="1490.914062"/>
    </g>
   </g>
   <g id="Path3DCollection_2"/>
   <g id="Path3DCollection_3">
    <defs>
     <path id="C1_0_8df3972084" d="M 0 2.236068 
C 0.593012 2.236068 1.161816 2.000462 1.581139 1.581139 
C 2.000462 1.161816 2.236068 0.593012 2.236068 -0 
C 2.236068 -0.593012 2.000462 -1.161816 1.581139 -1.581139 
C 1.161816 -2.000462 0.593012 -2.236068 0 -2.236068 
C -0.593012 -2.236068 -1.161816 -2.000462 -1.581139 -1.581139 
C -2.000462 -1.161816 -2.236068 -0.593012 -2.236068 0 
C -2.236068 0.593012 -2.000462 1.161816 -1.581139 1.581139 
C -1.161816 2.000462 -0.593012 2.236068 0 2.236068 
z
"/>
    </defs>
    <g clip-path="url(#p8f80cd2087)">
     <use xlink:href="#C1_0_8df3972084" x="303.20323" y="192.003143" style="fill: #3cb371; fill-opacity: 0.3; stroke: #3cb371; stroke-opacity: 0.3"/>
    </g>
    <g clip-path="url(#p8f80cd2087)">
     <use xlink:href="#C1_0_8df3972084" x="303.20323" y="192.003143" style="fill: #3cb371; fill-opacity: 0.3; stroke: #3cb371; stroke-opacity: 0.3"/>
    </g>
    <g clip-path="url(#p8f80cd2087)">
     <use xlink:href="#C1_0_8df3972084" x="303.20323" y="192.003143" style="fill: #3cb371; fill-opacity: 0.3; stroke: #3cb371; stroke-opacity: 0.3"/>
    </g>
    <g clip-path="url(#p8f80cd2087)">
     <use xlink:href="#C1_0_8df3972084" x="303.20323" y="192.003143" style="fill: #3cb371; fill-opacity: 0.3; stroke: #3cb371; stroke-opacity: 0.3"/>
    </g>
    <g clip-path="url(#p8f80cd2087)">
     <use xlink:href="#C1_0_8df3972084" x="303.20323" y="192.003143" style="fill: #3cb371; fill-opacity: 0.3; stroke: #3cb371; stroke-opacity: 0.3"/>
    </g>
    <g clip-path="url(#p8f80cd2087)">
     <use xlink:href="#C1_0_8df3972084" x="303.20323" y="192.003143" style="fill: #3cb371; fill-opacity: 0.3; stroke: #3cb371; stroke-opacity: 0.3"/>
    </g>
    <g clip-path="url(#p8f80cd2087)">
     <use xlink:href="#C1_0_8df3972084" x="302.98812" y="192.216122" style="fill: #3cb371; stroke: #3cb371"/>
    </g>
    <g clip-path="url(#p8f80cd2087)">
     <use xlink:href="#C1_0_8df3972084" x="302.98812" y="192.216122" style="fill: #3cb371; stroke: #3cb371"/>
    </g>
    <g clip-path="url(#p8f80cd2087)">
     <use xlink:href="#C1_0_8df3972084" x="302.98812" y="192.216122" style="fill: #3cb371; stroke: #3cb371"/>
    </g>
    <g clip-path="url(#p8f80cd2087)">
     <use xlink:href="#C1_0_8df3972084" x="302.98812" y="192.216122" style="fill: #3cb371; stroke: #3cb371"/>
    </g>
    <g clip-path="url(#p8f80cd2087)">
     <use xlink:href="#C1_0_8df3972084" x="302.98812" y="192.216122" style="fill: #3cb371; stroke: #3cb371"/>
    </g>
    <g clip-path="url(#p8f80cd2087)">
     <use xlink:href="#C1_0_8df3972084" x="302.98812" y="192.216122" style="fill: #3cb371; stroke: #3cb371"/>
    </g>
   </g>
   <g id="legend_1">
    <g id="patch_6">
     <path d="M 110.104 302.584 
L 312.764938 302.584 
Q 314.764938 302.584 314.764938 300.584 
L 314.764938 213.51525 
Q 314.764938 211.51525 312.764938 211.51525 
L 110.104 211.51525 
Q 108.104 211.51525 108.104 213.51525 
L 108.104 300.584 
Q 108.104 302.584 110.104 302.584 
z
" style="fill: #ffffff; opacity: 0.8; stroke: #cccccc; stroke-linejoin: miter"/>
    </g>
    <g id="Path3DCollection_4">
     <defs>
      <path id="mb092ba5da5" d="M 0 2.236068 
C 0.593012 2.236068 1.161816 2.000462 1.581139 1.581139 
C 2.000462 1.161816 2.236068 0.593012 2.236068 0 
C 2.236068 -0.593012 2.000462 -1.161816 1.581139 -1.581139 
C 1.161816 -2.000462 0.593012 -2.236068 0 -2.236068 
C -0.593012 -2.236068 -1.161816 -2.000462 -1.581139 -1.581139 
C -2.000462 -1.161816 -2.236068 -0.593012 -2.236068 0 
C -2.236068 0.593012 -2.000462 1.161816 -1.581139 1.581139 
C -1.161816 2.000462 -0.593012 2.236068 0 2.236068 
z
" style="stroke: #9370db"/>
     </defs>
     <g>
      <use xlink:href="#mb092ba5da5" x="122.104" y="220.488687" style="fill: #9370db; stroke: #9370db"/>
     </g>
    </g>
    <g id="text_21">
     <!-- GA pareto frontiers: 12 -->
     <g transform="translate(140.104 223.113687) scale(0.1 -0.1)">
      <defs>
       <path id="DejaVuSans-47" d="M 3809 666 
L 3809 1919 
L 2778 1919 
L 2778 2438 
L 4434 2438 
L 4434 434 
Q 4069 175 3628 42 
Q 3188 -91 2688 -91 
Q 1594 -91 976 548 
Q 359 1188 359 2328 
Q 359 3472 976 4111 
Q 1594 4750 2688 4750 
Q 3144 4750 3555 4637 
Q 3966 4525 4313 4306 
L 4313 3634 
Q 3963 3931 3569 4081 
Q 3175 4231 2741 4231 
Q 1884 4231 1454 3753 
Q 1025 3275 1025 2328 
Q 1025 1384 1454 906 
Q 1884 428 2741 428 
Q 3075 428 3337 486 
Q 3600 544 3809 666 
z
" transform="scale(0.015625)"/>
       <path id="DejaVuSans-41" d="M 2188 4044 
L 1331 1722 
L 3047 1722 
L 2188 4044 
z
M 1831 4666 
L 2547 4666 
L 4325 0 
L 3669 0 
L 3244 1197 
L 1141 1197 
L 716 0 
L 50 0 
L 1831 4666 
z
" transform="scale(0.015625)"/>
       <path id="DejaVuSans-3a" d="M 750 794 
L 1409 794 
L 1409 0 
L 750 0 
L 750 794 
z
M 750 3309 
L 1409 3309 
L 1409 2516 
L 750 2516 
L 750 3309 
z
" transform="scale(0.015625)"/>
      </defs>
      <use xlink:href="#DejaVuSans-47"/>
      <use xlink:href="#DejaVuSans-41" x="77.490234"/>
      <use xlink:href="#DejaVuSans-20" x="145.898438"/>
      <use xlink:href="#DejaVuSans-70" x="177.685547"/>
      <use xlink:href="#DejaVuSans-61" x="241.162109"/>
      <use xlink:href="#DejaVuSans-72" x="302.441406"/>
      <use xlink:href="#DejaVuSans-65" x="341.304688"/>
      <use xlink:href="#DejaVuSans-74" x="402.828125"/>
      <use xlink:href="#DejaVuSans-6f" x="442.037109"/>
      <use xlink:href="#DejaVuSans-20" x="503.21875"/>
      <use xlink:href="#DejaVuSans-66" x="535.005859"/>
      <use xlink:href="#DejaVuSans-72" x="570.210938"/>
      <use xlink:href="#DejaVuSans-6f" x="609.074219"/>
      <use xlink:href="#DejaVuSans-6e" x="670.255859"/>
      <use xlink:href="#DejaVuSans-74" x="733.634766"/>
      <use xlink:href="#DejaVuSans-69" x="772.84375"/>
      <use xlink:href="#DejaVuSans-65" x="800.626953"/>
      <use xlink:href="#DejaVuSans-72" x="862.150391"/>
      <use xlink:href="#DejaVuSans-73" x="903.263672"/>
      <use xlink:href="#DejaVuSans-3a" x="955.363281"/>
      <use xlink:href="#DejaVuSans-20" x="989.054688"/>
      <use xlink:href="#DejaVuSans-31" x="1020.841797"/>
      <use xlink:href="#DejaVuSans-32" x="1084.464844"/>
     </g>
    </g>
    <g id="Path3DCollection_5">
     <defs>
      <path id="md3970cb559" d="M 0 2.236068 
C 0.593012 2.236068 1.161816 2.000462 1.581139 1.581139 
C 2.000462 1.161816 2.236068 0.593012 2.236068 0 
C 2.236068 -0.593012 2.000462 -1.161816 1.581139 -1.581139 
C 1.161816 -2.000462 0.593012 -2.236068 0 -2.236068 
C -0.593012 -2.236068 -1.161816 -2.000462 -1.581139 -1.581139 
C -2.000462 -1.161816 -2.236068 -0.593012 -2.236068 0 
C -2.236068 0.593012 -2.000462 1.161816 -1.581139 1.581139 
C -1.161816 2.000462 -0.593012 2.236068 0 2.236068 
z
" style="stroke: #d8bfd8"/>
     </defs>
     <g>
      <use xlink:href="#md3970cb559" x="122.104" y="235.166812" style="fill: #d8bfd8; stroke: #d8bfd8"/>
     </g>
    </g>
    <g id="text_22">
     <!-- GA normal: 0 -->
     <g transform="translate(140.104 237.791812) scale(0.1 -0.1)">
      <use xlink:href="#DejaVuSans-47"/>
      <use xlink:href="#DejaVuSans-41" x="77.490234"/>
      <use xlink:href="#DejaVuSans-20" x="145.898438"/>
      <use xlink:href="#DejaVuSans-6e" x="177.685547"/>
      <use xlink:href="#DejaVuSans-6f" x="241.064453"/>
      <use xlink:href="#DejaVuSans-72" x="302.246094"/>
      <use xlink:href="#DejaVuSans-6d" x="341.609375"/>
      <use xlink:href="#DejaVuSans-61" x="439.021484"/>
      <use xlink:href="#DejaVuSans-6c" x="500.300781"/>
      <use xlink:href="#DejaVuSans-3a" x="528.083984"/>
      <use xlink:href="#DejaVuSans-20" x="561.775391"/>
      <use xlink:href="#DejaVuSans-30" x="593.5625"/>
     </g>
    </g>
    <g id="Path3DCollection_6">
     <defs>
      <path id="m4651c121a0" d="M 0 2.236068 
C 0.593012 2.236068 1.161816 2.000462 1.581139 1.581139 
C 2.000462 1.161816 2.236068 0.593012 2.236068 0 
C 2.236068 -0.593012 2.000462 -1.161816 1.581139 -1.581139 
C 1.161816 -2.000462 0.593012 -2.236068 0 -2.236068 
C -0.593012 -2.236068 -1.161816 -2.000462 -1.581139 -1.581139 
C -2.000462 -1.161816 -2.236068 -0.593012 -2.236068 0 
C -2.236068 0.593012 -2.000462 1.161816 -1.581139 1.581139 
C -1.161816 2.000462 -0.593012 2.236068 0 2.236068 
z
" style="stroke: #3cb371"/>
     </defs>
     <g>
      <use xlink:href="#m4651c121a0" x="122.104" y="249.844937" style="fill: #3cb371; stroke: #3cb371"/>
     </g>
    </g>
    <g id="text_23">
     <!-- Github caliber pareto frontiers: 12 -->
     <g transform="translate(140.104 252.469937) scale(0.1 -0.1)">
      <defs>
       <path id="DejaVuSans-68" d="M 3513 2113 
L 3513 0 
L 2938 0 
L 2938 2094 
Q 2938 2591 2744 2837 
Q 2550 3084 2163 3084 
Q 1697 3084 1428 2787 
Q 1159 2491 1159 1978 
L 1159 0 
L 581 0 
L 581 4863 
L 1159 4863 
L 1159 2956 
Q 1366 3272 1645 3428 
Q 1925 3584 2291 3584 
Q 2894 3584 3203 3211 
Q 3513 2838 3513 2113 
z
" transform="scale(0.015625)"/>
       <path id="DejaVuSans-62" d="M 3116 1747 
Q 3116 2381 2855 2742 
Q 2594 3103 2138 3103 
Q 1681 3103 1420 2742 
Q 1159 2381 1159 1747 
Q 1159 1113 1420 752 
Q 1681 391 2138 391 
Q 2594 391 2855 752 
Q 3116 1113 3116 1747 
z
M 1159 2969 
Q 1341 3281 1617 3432 
Q 1894 3584 2278 3584 
Q 2916 3584 3314 3078 
Q 3713 2572 3713 1747 
Q 3713 922 3314 415 
Q 2916 -91 2278 -91 
Q 1894 -91 1617 61 
Q 1341 213 1159 525 
L 1159 0 
L 581 0 
L 581 4863 
L 1159 4863 
L 1159 2969 
z
" transform="scale(0.015625)"/>
      </defs>
      <use xlink:href="#DejaVuSans-47"/>
      <use xlink:href="#DejaVuSans-69" x="77.490234"/>
      <use xlink:href="#DejaVuSans-74" x="105.273438"/>
      <use xlink:href="#DejaVuSans-68" x="144.482422"/>
      <use xlink:href="#DejaVuSans-75" x="207.861328"/>
      <use xlink:href="#DejaVuSans-62" x="271.240234"/>
      <use xlink:href="#DejaVuSans-20" x="334.716797"/>
      <use xlink:href="#DejaVuSans-63" x="366.503906"/>
      <use xlink:href="#DejaVuSans-61" x="421.484375"/>
      <use xlink:href="#DejaVuSans-6c" x="482.763672"/>
      <use xlink:href="#DejaVuSans-69" x="510.546875"/>
      <use xlink:href="#DejaVuSans-62" x="538.330078"/>
      <use xlink:href="#DejaVuSans-65" x="601.806641"/>
      <use xlink:href="#DejaVuSans-72" x="663.330078"/>
      <use xlink:href="#DejaVuSans-20" x="704.443359"/>
      <use xlink:href="#DejaVuSans-70" x="736.230469"/>
      <use xlink:href="#DejaVuSans-61" x="799.707031"/>
      <use xlink:href="#DejaVuSans-72" x="860.986328"/>
      <use xlink:href="#DejaVuSans-65" x="899.849609"/>
      <use xlink:href="#DejaVuSans-74" x="961.373047"/>
      <use xlink:href="#DejaVuSans-6f" x="1000.582031"/>
      <use xlink:href="#DejaVuSans-20" x="1061.763672"/>
      <use xlink:href="#DejaVuSans-66" x="1093.550781"/>
      <use xlink:href="#DejaVuSans-72" x="1128.755859"/>
      <use xlink:href="#DejaVuSans-6f" x="1167.619141"/>
      <use xlink:href="#DejaVuSans-6e" x="1228.800781"/>
      <use xlink:href="#DejaVuSans-74" x="1292.179688"/>
      <use xlink:href="#DejaVuSans-69" x="1331.388672"/>
      <use xlink:href="#DejaVuSans-65" x="1359.171875"/>
      <use xlink:href="#DejaVuSans-72" x="1420.695312"/>
      <use xlink:href="#DejaVuSans-73" x="1461.808594"/>
      <use xlink:href="#DejaVuSans-3a" x="1513.908203"/>
      <use xlink:href="#DejaVuSans-20" x="1547.599609"/>
      <use xlink:href="#DejaVuSans-31" x="1579.386719"/>
      <use xlink:href="#DejaVuSans-32" x="1643.009766"/>
     </g>
    </g>
    <g id="Path3DCollection_7">
     <defs>
      <path id="mdbc119dfe8" d="M 0 2.236068 
C 0.593012 2.236068 1.161816 2.000462 1.581139 1.581139 
C 2.000462 1.161816 2.236068 0.593012 2.236068 0 
C 2.236068 -0.593012 2.000462 -1.161816 1.581139 -1.581139 
C 1.161816 -2.000462 0.593012 -2.236068 0 -2.236068 
C -0.593012 -2.236068 -1.161816 -2.000462 -1.581139 -1.581139 
C -2.000462 -1.161816 -2.236068 -0.593012 -2.236068 0 
C -2.236068 0.593012 -2.000462 1.161816 -1.581139 1.581139 
C -1.161816 2.000462 -0.593012 2.236068 0 2.236068 
z
" style="stroke: #00ffff"/>
     </defs>
     <g>
      <use xlink:href="#mdbc119dfe8" x="122.104" y="264.523062" style="fill: #00ffff; stroke: #00ffff"/>
     </g>
    </g>
    <g id="text_24">
     <!-- Github caliber normal: 0 -->
     <g transform="translate(140.104 267.148062) scale(0.1 -0.1)">
      <use xlink:href="#DejaVuSans-47"/>
      <use xlink:href="#DejaVuSans-69" x="77.490234"/>
      <use xlink:href="#DejaVuSans-74" x="105.273438"/>
      <use xlink:href="#DejaVuSans-68" x="144.482422"/>
      <use xlink:href="#DejaVuSans-75" x="207.861328"/>
      <use xlink:href="#DejaVuSans-62" x="271.240234"/>
      <use xlink:href="#DejaVuSans-20" x="334.716797"/>
      <use xlink:href="#DejaVuSans-63" x="366.503906"/>
      <use xlink:href="#DejaVuSans-61" x="421.484375"/>
      <use xlink:href="#DejaVuSans-6c" x="482.763672"/>
      <use xlink:href="#DejaVuSans-69" x="510.546875"/>
      <use xlink:href="#DejaVuSans-62" x="538.330078"/>
      <use xlink:href="#DejaVuSans-65" x="601.806641"/>
      <use xlink:href="#DejaVuSans-72" x="663.330078"/>
      <use xlink:href="#DejaVuSans-20" x="704.443359"/>
      <use xlink:href="#DejaVuSans-6e" x="736.230469"/>
      <use xlink:href="#DejaVuSans-6f" x="799.609375"/>
      <use xlink:href="#DejaVuSans-72" x="860.791016"/>
      <use xlink:href="#DejaVuSans-6d" x="900.154297"/>
      <use xlink:href="#DejaVuSans-61" x="997.566406"/>
      <use xlink:href="#DejaVuSans-6c" x="1058.845703"/>
      <use xlink:href="#DejaVuSans-3a" x="1086.628906"/>
      <use xlink:href="#DejaVuSans-20" x="1120.320312"/>
      <use xlink:href="#DejaVuSans-30" x="1152.107422"/>
     </g>
    </g>
    <g id="Path3DCollection_8">
     <defs>
      <path id="m5be6df1329" d="M 0 2.236068 
C 0.593012 2.236068 1.161816 2.000462 1.581139 1.581139 
C 2.000462 1.161816 2.236068 0.593012 2.236068 0 
C 2.236068 -0.593012 2.000462 -1.161816 1.581139 -1.581139 
C 1.161816 -2.000462 0.593012 -2.236068 0 -2.236068 
C -0.593012 -2.236068 -1.161816 -2.000462 -1.581139 -1.581139 
C -2.000462 -1.161816 -2.236068 -0.593012 -2.236068 0 
C -2.236068 0.593012 -2.000462 1.161816 -1.581139 1.581139 
C -1.161816 2.000462 -0.593012 2.236068 0 2.236068 
z
" style="stroke: #4682b4"/>
     </defs>
     <g>
      <use xlink:href="#m5be6df1329" x="122.104" y="279.201188" style="fill: #4682b4; stroke: #4682b4"/>
     </g>
    </g>
    <g id="text_25">
     <!-- Smart baseline pareto frontiers: 0 -->
     <g transform="translate(140.104 281.826188) scale(0.1 -0.1)">
      <defs>
       <path id="DejaVuSans-53" d="M 3425 4513 
L 3425 3897 
Q 3066 4069 2747 4153 
Q 2428 4238 2131 4238 
Q 1616 4238 1336 4038 
Q 1056 3838 1056 3469 
Q 1056 3159 1242 3001 
Q 1428 2844 1947 2747 
L 2328 2669 
Q 3034 2534 3370 2195 
Q 3706 1856 3706 1288 
Q 3706 609 3251 259 
Q 2797 -91 1919 -91 
Q 1588 -91 1214 -16 
Q 841 59 441 206 
L 441 856 
Q 825 641 1194 531 
Q 1563 422 1919 422 
Q 2459 422 2753 634 
Q 3047 847 3047 1241 
Q 3047 1584 2836 1778 
Q 2625 1972 2144 2069 
L 1759 2144 
Q 1053 2284 737 2584 
Q 422 2884 422 3419 
Q 422 4038 858 4394 
Q 1294 4750 2059 4750 
Q 2388 4750 2728 4690 
Q 3069 4631 3425 4513 
z
" transform="scale(0.015625)"/>
      </defs>
      <use xlink:href="#DejaVuSans-53"/>
      <use xlink:href="#DejaVuSans-6d" x="63.476562"/>
      <use xlink:href="#DejaVuSans-61" x="160.888672"/>
      <use xlink:href="#DejaVuSans-72" x="222.167969"/>
      <use xlink:href="#DejaVuSans-74" x="263.28125"/>
      <use xlink:href="#DejaVuSans-20" x="302.490234"/>
      <use xlink:href="#DejaVuSans-62" x="334.277344"/>
      <use xlink:href="#DejaVuSans-61" x="397.753906"/>
      <use xlink:href="#DejaVuSans-73" x="459.033203"/>
      <use xlink:href="#DejaVuSans-65" x="511.132812"/>
      <use xlink:href="#DejaVuSans-6c" x="572.65625"/>
      <use xlink:href="#DejaVuSans-69" x="600.439453"/>
      <use xlink:href="#DejaVuSans-6e" x="628.222656"/>
      <use xlink:href="#DejaVuSans-65" x="691.601562"/>
      <use xlink:href="#DejaVuSans-20" x="753.125"/>
      <use xlink:href="#DejaVuSans-70" x="784.912109"/>
      <use xlink:href="#DejaVuSans-61" x="848.388672"/>
      <use xlink:href="#DejaVuSans-72" x="909.667969"/>
      <use xlink:href="#DejaVuSans-65" x="948.53125"/>
      <use xlink:href="#DejaVuSans-74" x="1010.054688"/>
      <use xlink:href="#DejaVuSans-6f" x="1049.263672"/>
      <use xlink:href="#DejaVuSans-20" x="1110.445312"/>
      <use xlink:href="#DejaVuSans-66" x="1142.232422"/>
      <use xlink:href="#DejaVuSans-72" x="1177.4375"/>
      <use xlink:href="#DejaVuSans-6f" x="1216.300781"/>
      <use xlink:href="#DejaVuSans-6e" x="1277.482422"/>
      <use xlink:href="#DejaVuSans-74" x="1340.861328"/>
      <use xlink:href="#DejaVuSans-69" x="1380.070312"/>
      <use xlink:href="#DejaVuSans-65" x="1407.853516"/>
      <use xlink:href="#DejaVuSans-72" x="1469.376953"/>
      <use xlink:href="#DejaVuSans-73" x="1510.490234"/>
      <use xlink:href="#DejaVuSans-3a" x="1562.589844"/>
      <use xlink:href="#DejaVuSans-20" x="1596.28125"/>
      <use xlink:href="#DejaVuSans-30" x="1628.068359"/>
     </g>
    </g>
    <g id="Path3DCollection_9">
     <defs>
      <path id="m816d23e684" d="M 0 2.236068 
C 0.593012 2.236068 1.161816 2.000462 1.581139 1.581139 
C 2.000462 1.161816 2.236068 0.593012 2.236068 0 
C 2.236068 -0.593012 2.000462 -1.161816 1.581139 -1.581139 
C 1.161816 -2.000462 0.593012 -2.236068 0 -2.236068 
C -0.593012 -2.236068 -1.161816 -2.000462 -1.581139 -1.581139 
C -2.000462 -1.161816 -2.236068 -0.593012 -2.236068 0 
C -2.236068 0.593012 -2.000462 1.161816 -1.581139 1.581139 
C -1.161816 2.000462 -0.593012 2.236068 0 2.236068 
z
" style="stroke: #bdb76b"/>
     </defs>
     <g>
      <use xlink:href="#m816d23e684" x="122.104" y="293.879312" style="fill: #bdb76b; stroke: #bdb76b"/>
     </g>
    </g>
    <g id="text_26">
     <!-- Smart baseline normal: 12 -->
     <g transform="translate(140.104 296.504312) scale(0.1 -0.1)">
      <use xlink:href="#DejaVuSans-53"/>
      <use xlink:href="#DejaVuSans-6d" x="63.476562"/>
      <use xlink:href="#DejaVuSans-61" x="160.888672"/>
      <use xlink:href="#DejaVuSans-72" x="222.167969"/>
      <use xlink:href="#DejaVuSans-74" x="263.28125"/>
      <use xlink:href="#DejaVuSans-20" x="302.490234"/>
      <use xlink:href="#DejaVuSans-62" x="334.277344"/>
      <use xlink:href="#DejaVuSans-61" x="397.753906"/>
      <use xlink:href="#DejaVuSans-73" x="459.033203"/>
      <use xlink:href="#DejaVuSans-65" x="511.132812"/>
      <use xlink:href="#DejaVuSans-6c" x="572.65625"/>
      <use xlink:href="#DejaVuSans-69" x="600.439453"/>
      <use xlink:href="#DejaVuSans-6e" x="628.222656"/>
      <use xlink:href="#DejaVuSans-65" x="691.601562"/>
      <use xlink:href="#DejaVuSans-20" x="753.125"/>
      <use xlink:href="#DejaVuSans-6e" x="784.912109"/>
      <use xlink:href="#DejaVuSans-6f" x="848.291016"/>
      <use xlink:href="#DejaVuSans-72" x="909.472656"/>
      <use xlink:href="#DejaVuSans-6d" x="948.835938"/>
      <use xlink:href="#DejaVuSans-61" x="1046.248047"/>
      <use xlink:href="#DejaVuSans-6c" x="1107.527344"/>
      <use xlink:href="#DejaVuSans-3a" x="1135.310547"/>
      <use xlink:href="#DejaVuSans-20" x="1169.001953"/>
      <use xlink:href="#DejaVuSans-31" x="1200.789062"/>
      <use xlink:href="#DejaVuSans-32" x="1264.412109"/>
     </g>
    </g>
   </g>
   <g id="Path3DCollection_10"/>
   <g id="Path3DCollection_11"/>
   <g id="Path3DCollection_12">
    <defs>
     <path id="C2_0_e32bb12fbf" d="M 0 2.236068 
C 0.593012 2.236068 1.161816 2.000462 1.581139 1.581139 
C 2.000462 1.161816 2.236068 0.593012 2.236068 -0 
C 2.236068 -0.593012 2.000462 -1.161816 1.581139 -1.581139 
C 1.161816 -2.000462 0.593012 -2.236068 0 -2.236068 
C -0.593012 -2.236068 -1.161816 -2.000462 -1.581139 -1.581139 
C -2.000462 -1.161816 -2.236068 -0.593012 -2.236068 0 
C -2.236068 0.593012 -2.000462 1.161816 -1.581139 1.581139 
C -1.161816 2.000462 -0.593012 2.236068 0 2.236068 
z
"/>
    </defs>
    <g clip-path="url(#p8f80cd2087)">
     <use xlink:href="#C2_0_e32bb12fbf" x="201.999916" y="132.374642" style="fill: #bdb76b; fill-opacity: 0.3; stroke: #bdb76b; stroke-opacity: 0.3"/>
    </g>
    <g clip-path="url(#p8f80cd2087)">
     <use xlink:href="#C2_0_e32bb12fbf" x="201.999916" y="132.374642" style="fill: #bdb76b; fill-opacity: 0.3; stroke: #bdb76b; stroke-opacity: 0.3"/>
    </g>
    <g clip-path="url(#p8f80cd2087)">
     <use xlink:href="#C2_0_e32bb12fbf" x="201.999916" y="132.374642" style="fill: #bdb76b; fill-opacity: 0.3; stroke: #bdb76b; stroke-opacity: 0.3"/>
    </g>
    <g clip-path="url(#p8f80cd2087)">
     <use xlink:href="#C2_0_e32bb12fbf" x="201.999916" y="132.374642" style="fill: #bdb76b; fill-opacity: 0.3; stroke: #bdb76b; stroke-opacity: 0.3"/>
    </g>
    <g clip-path="url(#p8f80cd2087)">
     <use xlink:href="#C2_0_e32bb12fbf" x="201.999916" y="132.374642" style="fill: #bdb76b; fill-opacity: 0.3; stroke: #bdb76b; stroke-opacity: 0.3"/>
    </g>
    <g clip-path="url(#p8f80cd2087)">
     <use xlink:href="#C2_0_e32bb12fbf" x="201.999916" y="132.374642" style="fill: #bdb76b; fill-opacity: 0.3; stroke: #bdb76b; stroke-opacity: 0.3"/>
    </g>
    <g clip-path="url(#p8f80cd2087)">
     <use xlink:href="#C2_0_e32bb12fbf" x="202.987013" y="133.108725" style="fill: #bdb76b; stroke: #bdb76b"/>
    </g>
    <g clip-path="url(#p8f80cd2087)">
     <use xlink:href="#C2_0_e32bb12fbf" x="202.987013" y="133.108725" style="fill: #bdb76b; stroke: #bdb76b"/>
    </g>
    <g clip-path="url(#p8f80cd2087)">
     <use xlink:href="#C2_0_e32bb12fbf" x="202.987013" y="133.108725" style="fill: #bdb76b; stroke: #bdb76b"/>
    </g>
    <g clip-path="url(#p8f80cd2087)">
     <use xlink:href="#C2_0_e32bb12fbf" x="202.987013" y="133.108725" style="fill: #bdb76b; stroke: #bdb76b"/>
    </g>
    <g clip-path="url(#p8f80cd2087)">
     <use xlink:href="#C2_0_e32bb12fbf" x="202.987013" y="133.108725" style="fill: #bdb76b; stroke: #bdb76b"/>
    </g>
    <g clip-path="url(#p8f80cd2087)">
     <use xlink:href="#C2_0_e32bb12fbf" x="202.987013" y="133.108725" style="fill: #bdb76b; stroke: #bdb76b"/>
    </g>
   </g>
  </g>
 </g>
 <defs>
  <clipPath id="p8f80cd2087">
   <rect x="103.104" y="41.472" width="266.112" height="266.112"/>
  </clipPath>
 </defs>
</svg>
