<?xml version="1.0" encoding="utf-8" standalone="no"?>
<!DOCTYPE svg PUBLIC "-//W3C//DTD SVG 1.1//EN"
  "http://www.w3.org/Graphics/SVG/1.1/DTD/svg11.dtd">
<svg xmlns:xlink="http://www.w3.org/1999/xlink" width="460.8pt" height="345.6pt" viewBox="0 0 460.8 345.6" xmlns="http://www.w3.org/2000/svg" version="1.1">
 <metadata>
  <rdf:RDF xmlns:dc="http://purl.org/dc/elements/1.1/" xmlns:cc="http://creativecommons.org/ns#" xmlns:rdf="http://www.w3.org/1999/02/22-rdf-syntax-ns#">
   <cc:Work>
    <dc:type rdf:resource="http://purl.org/dc/dcmitype/StillImage"/>
    <dc:date>2023-09-18T21:56:30.925013</dc:date>
    <dc:format>image/svg+xml</dc:format>
    <dc:creator>
     <cc:Agent>
      <dc:title>Matplotlib v3.5.2, https://matplotlib.org/</dc:title>
     </cc:Agent>
    </dc:creator>
   </cc:Work>
  </rdf:RDF>
 </metadata>
 <defs>
  <style type="text/css">*{stroke-linejoin: round; stroke-linecap: butt}</style>
 </defs>
 <g id="figure_1">
  <g id="patch_1">
   <path d="M 0 345.6 
L 460.8 345.6 
L 460.8 0 
L 0 0 
z
" style="fill: #ffffff"/>
  </g>
  <g id="axes_1">
   <g id="patch_2">
    <path d="M 57.6 307.584 
L 414.72 307.584 
L 414.72 41.472 
L 57.6 41.472 
z
" style="fill: #ffffff"/>
   </g>
   <g id="PathCollection_1">
    <defs>
     <path id="md992f4f498" d="M 0 3 
C 0.795609 3 1.55874 2.683901 2.12132 2.12132 
C 2.683901 1.55874 3 0.795609 3 0 
C 3 -0.795609 2.683901 -1.55874 2.12132 -2.12132 
C 1.55874 -2.683901 0.795609 -3 0 -3 
C -0.795609 -3 -1.55874 -2.683901 -2.12132 -2.12132 
C -2.683901 -1.55874 -3 -0.795609 -3 0 
C -3 0.795609 -2.683901 1.55874 -2.12132 2.12132 
C -1.55874 2.683901 -0.795609 3 0 3 
z
" style="stroke: #9370db; stroke-opacity: 0.5"/>
    </defs>
    <g clip-path="url(#p7abe93830e)">
     <use xlink:href="#md992f4f498" x="106.547367" y="56.173555" style="fill: #9370db; fill-opacity: 0.5; stroke: #9370db; stroke-opacity: 0.5"/>
     <use xlink:href="#md992f4f498" x="106.547367" y="56.173555" style="fill: #9370db; fill-opacity: 0.5; stroke: #9370db; stroke-opacity: 0.5"/>
     <use xlink:href="#md992f4f498" x="73.832727" y="53.568" style="fill: #9370db; fill-opacity: 0.5; stroke: #9370db; stroke-opacity: 0.5"/>
     <use xlink:href="#md992f4f498" x="180.352127" y="108.793491" style="fill: #9370db; fill-opacity: 0.5; stroke: #9370db; stroke-opacity: 0.5"/>
     <use xlink:href="#md992f4f498" x="180.352127" y="108.793491" style="fill: #9370db; fill-opacity: 0.5; stroke: #9370db; stroke-opacity: 0.5"/>
     <use xlink:href="#md992f4f498" x="322.70276" y="235.516794" style="fill: #9370db; fill-opacity: 0.5; stroke: #9370db; stroke-opacity: 0.5"/>
     <use xlink:href="#md992f4f498" x="385.04701" y="284.422671" style="fill: #9370db; fill-opacity: 0.5; stroke: #9370db; stroke-opacity: 0.5"/>
     <use xlink:href="#md992f4f498" x="385.04701" y="284.422671" style="fill: #9370db; fill-opacity: 0.5; stroke: #9370db; stroke-opacity: 0.5"/>
     <use xlink:href="#md992f4f498" x="398.487273" y="295.488" style="fill: #9370db; fill-opacity: 0.5; stroke: #9370db; stroke-opacity: 0.5"/>
     <use xlink:href="#md992f4f498" x="398.487273" y="295.488" style="fill: #9370db; fill-opacity: 0.5; stroke: #9370db; stroke-opacity: 0.5"/>
     <use xlink:href="#md992f4f498" x="398.487273" y="295.488" style="fill: #9370db; fill-opacity: 0.5; stroke: #9370db; stroke-opacity: 0.5"/>
     <use xlink:href="#md992f4f498" x="398.487273" y="295.488" style="fill: #9370db; fill-opacity: 0.5; stroke: #9370db; stroke-opacity: 0.5"/>
     <use xlink:href="#md992f4f498" x="398.487273" y="295.488" style="fill: #9370db; fill-opacity: 0.5; stroke: #9370db; stroke-opacity: 0.5"/>
     <use xlink:href="#md992f4f498" x="398.487273" y="295.488" style="fill: #9370db; fill-opacity: 0.5; stroke: #9370db; stroke-opacity: 0.5"/>
     <use xlink:href="#md992f4f498" x="398.487273" y="295.488" style="fill: #9370db; fill-opacity: 0.5; stroke: #9370db; stroke-opacity: 0.5"/>
     <use xlink:href="#md992f4f498" x="398.487273" y="295.488" style="fill: #9370db; fill-opacity: 0.5; stroke: #9370db; stroke-opacity: 0.5"/>
     <use xlink:href="#md992f4f498" x="398.487273" y="295.488" style="fill: #9370db; fill-opacity: 0.5; stroke: #9370db; stroke-opacity: 0.5"/>
     <use xlink:href="#md992f4f498" x="398.487273" y="295.488" style="fill: #9370db; fill-opacity: 0.5; stroke: #9370db; stroke-opacity: 0.5"/>
    </g>
   </g>
   <g id="PathCollection_2"/>
   <g id="PathCollection_3"/>
   <g id="PathCollection_4"/>
   <g id="PathCollection_5">
    <defs>
     <path id="mfe50e30555" d="M 0 3 
C 0.795609 3 1.55874 2.683901 2.12132 2.12132 
C 2.683901 1.55874 3 0.795609 3 0 
C 3 -0.795609 2.683901 -1.55874 2.12132 -2.12132 
C 1.55874 -2.683901 0.795609 -3 0 -3 
C -0.795609 -3 -1.55874 -2.683901 -2.12132 -2.12132 
C -2.683901 -1.55874 -3 -0.795609 -3 0 
C -3 0.795609 -2.683901 1.55874 -2.12132 2.12132 
C -1.55874 2.683901 -0.795609 3 0 3 
z
" style="stroke: #4682b4; stroke-opacity: 0.5"/>
    </defs>
    <g clip-path="url(#p7abe93830e)">
     <use xlink:href="#mfe50e30555" x="398.487273" y="295.488" style="fill: #4682b4; fill-opacity: 0.5; stroke: #4682b4; stroke-opacity: 0.5"/>
     <use xlink:href="#mfe50e30555" x="398.487273" y="295.488" style="fill: #4682b4; fill-opacity: 0.5; stroke: #4682b4; stroke-opacity: 0.5"/>
     <use xlink:href="#mfe50e30555" x="398.487273" y="295.488" style="fill: #4682b4; fill-opacity: 0.5; stroke: #4682b4; stroke-opacity: 0.5"/>
     <use xlink:href="#mfe50e30555" x="398.487273" y="295.488" style="fill: #4682b4; fill-opacity: 0.5; stroke: #4682b4; stroke-opacity: 0.5"/>
     <use xlink:href="#mfe50e30555" x="398.487273" y="295.488" style="fill: #4682b4; fill-opacity: 0.5; stroke: #4682b4; stroke-opacity: 0.5"/>
     <use xlink:href="#mfe50e30555" x="398.487273" y="295.488" style="fill: #4682b4; fill-opacity: 0.5; stroke: #4682b4; stroke-opacity: 0.5"/>
     <use xlink:href="#mfe50e30555" x="398.487273" y="295.488" style="fill: #4682b4; fill-opacity: 0.5; stroke: #4682b4; stroke-opacity: 0.5"/>
     <use xlink:href="#mfe50e30555" x="398.487273" y="295.488" style="fill: #4682b4; fill-opacity: 0.5; stroke: #4682b4; stroke-opacity: 0.5"/>
     <use xlink:href="#mfe50e30555" x="398.487273" y="295.488" style="fill: #4682b4; fill-opacity: 0.5; stroke: #4682b4; stroke-opacity: 0.5"/>
     <use xlink:href="#mfe50e30555" x="398.487273" y="295.488" style="fill: #4682b4; fill-opacity: 0.5; stroke: #4682b4; stroke-opacity: 0.5"/>
     <use xlink:href="#mfe50e30555" x="398.487273" y="295.488" style="fill: #4682b4; fill-opacity: 0.5; stroke: #4682b4; stroke-opacity: 0.5"/>
     <use xlink:href="#mfe50e30555" x="398.487273" y="295.488" style="fill: #4682b4; fill-opacity: 0.5; stroke: #4682b4; stroke-opacity: 0.5"/>
     <use xlink:href="#mfe50e30555" x="398.487273" y="295.488" style="fill: #4682b4; fill-opacity: 0.5; stroke: #4682b4; stroke-opacity: 0.5"/>
     <use xlink:href="#mfe50e30555" x="398.487273" y="295.488" style="fill: #4682b4; fill-opacity: 0.5; stroke: #4682b4; stroke-opacity: 0.5"/>
     <use xlink:href="#mfe50e30555" x="398.487273" y="295.488" style="fill: #4682b4; fill-opacity: 0.5; stroke: #4682b4; stroke-opacity: 0.5"/>
     <use xlink:href="#mfe50e30555" x="398.487273" y="295.488" style="fill: #4682b4; fill-opacity: 0.5; stroke: #4682b4; stroke-opacity: 0.5"/>
     <use xlink:href="#mfe50e30555" x="398.487273" y="295.488" style="fill: #4682b4; fill-opacity: 0.5; stroke: #4682b4; stroke-opacity: 0.5"/>
     <use xlink:href="#mfe50e30555" x="398.487273" y="295.488" style="fill: #4682b4; fill-opacity: 0.5; stroke: #4682b4; stroke-opacity: 0.5"/>
    </g>
   </g>
   <g id="PathCollection_6"/>
   <g id="matplotlib.axis_1">
    <g id="xtick_1">
     <g id="line2d_1">
      <defs>
       <path id="m5fda8313f8" d="M 0 0 
L 0 3.5 
" style="stroke: #000000; stroke-width: 0.8"/>
      </defs>
      <g>
       <use xlink:href="#m5fda8313f8" x="385.506046" y="307.584" style="stroke: #000000; stroke-width: 0.8"/>
      </g>
     </g>
     <g id="text_1">
      <!-- 6.7 -->
      <g transform="translate(378.438078 322.57775)scale(0.1 -0.1)">
       <defs>
        <path id="MicrosoftYaHei-36" d="M 3181 4219 
Q 2803 4413 2391 4413 
Q 1763 4413 1381 3866 
Q 1000 3319 994 2372 
L 1009 2372 
Q 1353 3038 2106 3038 
Q 2734 3038 3109 2628 
Q 3484 2219 3484 1541 
Q 3484 831 3051 375 
Q 2619 -81 1947 -81 
Q 1209 -81 789 495 
Q 369 1072 369 2131 
Q 369 3413 920 4167 
Q 1472 4922 2372 4922 
Q 2888 4922 3181 4781 
L 3181 4219 
z
M 1031 1584 
Q 1031 1106 1286 765 
Q 1541 425 1963 425 
Q 2363 425 2613 719 
Q 2863 1013 2863 1475 
Q 2863 1975 2627 2253 
Q 2391 2531 1956 2531 
Q 1544 2531 1287 2250 
Q 1031 1969 1031 1584 
z
" transform="scale(0.015625)"/>
        <path id="MicrosoftYaHei-2e" d="M 372 322 
Q 372 491 487 606 
Q 603 722 775 722 
Q 950 722 1065 605 
Q 1181 488 1181 322 
Q 1181 159 1065 42 
Q 950 -75 772 -75 
Q 600 -75 486 42 
Q 372 159 372 322 
z
" transform="scale(0.015625)"/>
        <path id="MicrosoftYaHei-37" d="M 3422 4463 
Q 2659 3131 2223 1998 
Q 1788 866 1684 0 
L 1047 0 
Q 1163 853 1594 1947 
Q 2025 3041 2747 4300 
L 347 4300 
L 347 4841 
L 3422 4841 
L 3422 4463 
z
" transform="scale(0.015625)"/>
       </defs>
       <use xlink:href="#MicrosoftYaHei-36"/>
       <use xlink:href="#MicrosoftYaHei-2e" x="58.642578"/>
       <use xlink:href="#MicrosoftYaHei-37" x="82.714844"/>
      </g>
     </g>
    </g>
    <g id="xtick_2">
     <g id="line2d_2">
      <g>
       <use xlink:href="#m5fda8313f8" x="308.572662" y="307.584" style="stroke: #000000; stroke-width: 0.8"/>
      </g>
     </g>
     <g id="text_2">
      <!-- 6.8 -->
      <g transform="translate(301.504693 322.57775)scale(0.1 -0.1)">
       <defs>
        <path id="MicrosoftYaHei-38" d="M 306 1350 
Q 306 1769 556 2122 
Q 806 2475 1200 2625 
Q 884 2803 700 3081 
Q 516 3359 516 3684 
Q 516 4028 692 4312 
Q 869 4597 1183 4759 
Q 1497 4922 1875 4922 
Q 2256 4922 2572 4761 
Q 2888 4600 3063 4315 
Q 3238 4031 3238 3684 
Q 3238 3366 3058 3086 
Q 2878 2806 2559 2625 
Q 2953 2472 3200 2119 
Q 3447 1766 3447 1350 
Q 3447 938 3250 611 
Q 3053 284 2690 103 
Q 2328 -78 1875 -78 
Q 1425 -78 1065 103 
Q 706 284 506 612 
Q 306 941 306 1350 
z
M 906 1378 
Q 906 947 1172 687 
Q 1438 428 1878 428 
Q 2309 428 2582 692 
Q 2856 956 2856 1378 
Q 2856 1778 2579 2051 
Q 2303 2325 1878 2325 
Q 1456 2325 1181 2058 
Q 906 1791 906 1378 
z
M 1081 3634 
Q 1081 3309 1312 3076 
Q 1544 2844 1878 2844 
Q 2206 2844 2445 3078 
Q 2684 3313 2684 3634 
Q 2684 3963 2454 4191 
Q 2225 4419 1878 4419 
Q 1534 4419 1307 4195 
Q 1081 3972 1081 3634 
z
" transform="scale(0.015625)"/>
       </defs>
       <use xlink:href="#MicrosoftYaHei-36"/>
       <use xlink:href="#MicrosoftYaHei-2e" x="58.642578"/>
       <use xlink:href="#MicrosoftYaHei-38" x="82.714844"/>
      </g>
     </g>
    </g>
    <g id="xtick_3">
     <g id="line2d_3">
      <g>
       <use xlink:href="#m5fda8313f8" x="231.639277" y="307.584" style="stroke: #000000; stroke-width: 0.8"/>
      </g>
     </g>
     <g id="text_3">
      <!-- 6.9 -->
      <g transform="translate(224.571309 322.57775)scale(0.1 -0.1)">
       <defs>
        <path id="MicrosoftYaHei-39" d="M 578 656 
Q 978 425 1441 425 
Q 2091 425 2448 937 
Q 2806 1450 2806 2394 
Q 2800 2388 2794 2394 
Q 2475 1788 1722 1788 
Q 1113 1788 713 2206 
Q 313 2625 313 3294 
Q 313 4006 750 4464 
Q 1188 4922 1884 4922 
Q 2606 4922 3012 4355 
Q 3419 3788 3419 2703 
Q 3419 1363 2894 641 
Q 2369 -81 1441 -81 
Q 931 -81 578 84 
L 578 656 
z
M 931 3372 
Q 931 2884 1181 2598 
Q 1431 2313 1872 2313 
Q 2253 2313 2512 2573 
Q 2772 2834 2772 3206 
Q 2772 3728 2514 4070 
Q 2256 4413 1834 4413 
Q 1444 4413 1187 4116 
Q 931 3819 931 3372 
z
" transform="scale(0.015625)"/>
       </defs>
       <use xlink:href="#MicrosoftYaHei-36"/>
       <use xlink:href="#MicrosoftYaHei-2e" x="58.642578"/>
       <use xlink:href="#MicrosoftYaHei-39" x="82.714844"/>
      </g>
     </g>
    </g>
    <g id="xtick_4">
     <g id="line2d_4">
      <g>
       <use xlink:href="#m5fda8313f8" x="154.705893" y="307.584" style="stroke: #000000; stroke-width: 0.8"/>
      </g>
     </g>
     <g id="text_4">
      <!-- 7.0 -->
      <g transform="translate(147.637924 322.57775)scale(0.1 -0.1)">
       <defs>
        <path id="MicrosoftYaHei-30" d="M 284 2325 
Q 284 3606 709 4264 
Q 1134 4922 1941 4922 
Q 3478 4922 3478 2441 
Q 3478 1216 3045 567 
Q 2613 -81 1831 -81 
Q 1094 -81 689 534 
Q 284 1150 284 2325 
z
M 909 2353 
Q 909 425 1888 425 
Q 2850 425 2850 2384 
Q 2850 4413 1906 4413 
Q 909 4413 909 2353 
z
" transform="scale(0.015625)"/>
       </defs>
       <use xlink:href="#MicrosoftYaHei-37"/>
       <use xlink:href="#MicrosoftYaHei-2e" x="58.642578"/>
       <use xlink:href="#MicrosoftYaHei-30" x="82.714844"/>
      </g>
     </g>
    </g>
    <g id="xtick_5">
     <g id="line2d_5">
      <g>
       <use xlink:href="#m5fda8313f8" x="77.772508" y="307.584" style="stroke: #000000; stroke-width: 0.8"/>
      </g>
     </g>
     <g id="text_5">
      <!-- 7.1 -->
      <g transform="translate(70.70454 322.57775)scale(0.1 -0.1)">
       <defs>
        <path id="MicrosoftYaHei-31" d="M 1781 0 
L 1781 4141 
Q 1638 3997 1295 3819 
Q 953 3641 663 3569 
L 663 4169 
Q 1047 4275 1484 4508 
Q 1922 4741 2156 4947 
L 2388 4947 
L 2388 0 
L 1781 0 
z
" transform="scale(0.015625)"/>
       </defs>
       <use xlink:href="#MicrosoftYaHei-37"/>
       <use xlink:href="#MicrosoftYaHei-2e" x="58.642578"/>
       <use xlink:href="#MicrosoftYaHei-31" x="82.714844"/>
      </g>
     </g>
    </g>
    <g id="text_6">
     <!-- Runtime -->
     <g transform="translate(216.018594 337.057437)scale(0.1 -0.1)">
      <defs>
       <path id="MicrosoftYaHei-52" d="M 4159 0 
L 3422 0 
L 2619 1344 
Q 2378 1747 2178 1892 
Q 1978 2038 1700 2038 
L 1250 2038 
L 1250 0 
L 625 0 
L 625 4841 
L 2100 4841 
Q 2806 4841 3206 4500 
Q 3606 4159 3606 3547 
Q 3606 2541 2531 2241 
L 2531 2225 
Q 2731 2141 2876 1984 
Q 3022 1828 3253 1450 
L 4159 0 
z
M 1250 4294 
L 1250 2584 
L 1988 2584 
Q 2416 2584 2683 2834 
Q 2950 3084 2950 3491 
Q 2950 3869 2706 4081 
Q 2463 4294 1997 4294 
L 1250 4294 
z
" transform="scale(0.015625)"/>
       <path id="MicrosoftYaHei-75" d="M 3400 0 
L 2784 0 
L 2784 544 
L 2772 544 
Q 2425 -81 1706 -81 
Q 478 -81 478 1388 
L 478 3456 
L 1084 3456 
L 1084 1478 
Q 1084 425 1891 425 
Q 2291 425 2537 720 
Q 2784 1016 2784 1466 
L 2784 3456 
L 3400 3456 
L 3400 0 
z
" transform="scale(0.015625)"/>
       <path id="MicrosoftYaHei-6e" d="M 3469 0 
L 2859 0 
L 2859 1966 
Q 2859 3031 2081 3031 
Q 1678 3031 1418 2731 
Q 1159 2431 1159 1972 
L 1159 0 
L 547 0 
L 547 3456 
L 1159 3456 
L 1159 2884 
L 1172 2884 
Q 1563 3538 2306 3538 
Q 2875 3538 3172 3173 
Q 3469 2809 3469 2113 
L 3469 0 
z
" transform="scale(0.015625)"/>
       <path id="MicrosoftYaHei-74" d="M 2206 34 
Q 2006 -75 1666 -75 
Q 738 -75 738 953 
L 738 2950 
L 144 2950 
L 144 3456 
L 738 3456 
L 738 4288 
L 1347 4481 
L 1347 3456 
L 2206 3456 
L 2206 2950 
L 1347 2950 
L 1347 1063 
Q 1347 722 1462 575 
Q 1578 428 1847 428 
Q 2053 428 2206 544 
L 2206 34 
z
" transform="scale(0.015625)"/>
       <path id="MicrosoftYaHei-69" d="M 472 4675 
Q 472 4838 583 4948 
Q 694 5059 856 5059 
Q 1022 5059 1136 4950 
Q 1250 4841 1250 4675 
Q 1250 4513 1136 4405 
Q 1022 4297 856 4297 
Q 691 4297 581 4405 
Q 472 4513 472 4675 
z
M 544 0 
L 544 3456 
L 1156 3456 
L 1156 0 
L 544 0 
z
" transform="scale(0.015625)"/>
       <path id="MicrosoftYaHei-6d" d="M 5522 0 
L 4909 0 
L 4909 1984 
Q 4909 2547 4734 2789 
Q 4559 3031 4159 3031 
Q 3822 3031 3581 2715 
Q 3341 2400 3341 1969 
L 3341 0 
L 2728 0 
L 2728 2047 
Q 2728 3031 1969 3031 
Q 1619 3031 1389 2731 
Q 1159 2431 1159 1966 
L 1159 0 
L 547 0 
L 547 3456 
L 1159 3456 
L 1159 2909 
L 1172 2909 
Q 1541 3538 2250 3538 
Q 2597 3538 2862 3347 
Q 3128 3156 3231 2831 
Q 3616 3538 4381 3538 
Q 5522 3538 5522 2131 
L 5522 0 
z
" transform="scale(0.015625)"/>
       <path id="MicrosoftYaHei-65" d="M 3363 1572 
L 944 1572 
Q 959 1019 1246 717 
Q 1534 416 2050 416 
Q 2631 416 3116 788 
L 3116 241 
Q 2659 -81 1906 -81 
Q 1156 -81 736 394 
Q 316 869 316 1713 
Q 316 2506 777 3022 
Q 1238 3538 1922 3538 
Q 2600 3538 2981 3102 
Q 3363 2666 3363 1881 
L 3363 1572 
z
M 2750 2063 
Q 2747 2531 2528 2787 
Q 2309 3044 1913 3044 
Q 1547 3044 1280 2772 
Q 1013 2500 944 2063 
L 2750 2063 
z
" transform="scale(0.015625)"/>
      </defs>
      <use xlink:href="#MicrosoftYaHei-52"/>
      <use xlink:href="#MicrosoftYaHei-75" x="65.283203"/>
      <use xlink:href="#MicrosoftYaHei-6e" x="126.904297"/>
      <use xlink:href="#MicrosoftYaHei-74" x="188.525391"/>
      <use xlink:href="#MicrosoftYaHei-69" x="225.78125"/>
      <use xlink:href="#MicrosoftYaHei-6d" x="252.392578"/>
      <use xlink:href="#MicrosoftYaHei-65" x="346.09375"/>
     </g>
    </g>
   </g>
   <g id="matplotlib.axis_2">
    <g id="ytick_1">
     <g id="line2d_6">
      <defs>
       <path id="mab256f81d6" d="M 0 0 
L -3.5 0 
" style="stroke: #000000; stroke-width: 0.8"/>
      </defs>
      <g>
       <use xlink:href="#mab256f81d6" x="57.6" y="66.470651" style="stroke: #000000; stroke-width: 0.8"/>
      </g>
     </g>
     <g id="text_7">
      <!-- 0.040 -->
      <g transform="translate(24.735937 70.467526)scale(0.1 -0.1)">
       <defs>
        <path id="MicrosoftYaHei-34" d="M 2906 4841 
L 2906 1644 
L 3631 1644 
L 3631 1138 
L 2906 1138 
L 2906 0 
L 2313 0 
L 2313 1138 
L 53 1138 
L 53 1616 
Q 656 2294 1265 3178 
Q 1875 4063 2272 4841 
L 2906 4841 
z
M 741 1644 
L 2313 1644 
L 2313 3950 
Q 1988 3366 1616 2817 
Q 1244 2269 741 1644 
z
" transform="scale(0.015625)"/>
       </defs>
       <use xlink:href="#MicrosoftYaHei-30"/>
       <use xlink:href="#MicrosoftYaHei-2e" x="58.642578"/>
       <use xlink:href="#MicrosoftYaHei-30" x="82.714844"/>
       <use xlink:href="#MicrosoftYaHei-34" x="141.357422"/>
       <use xlink:href="#MicrosoftYaHei-30" x="200"/>
      </g>
     </g>
    </g>
    <g id="ytick_2">
     <g id="line2d_7">
      <g>
       <use xlink:href="#mab256f81d6" x="57.6" y="101.224577" style="stroke: #000000; stroke-width: 0.8"/>
      </g>
     </g>
     <g id="text_8">
      <!-- 0.045 -->
      <g transform="translate(24.735937 105.221452)scale(0.1 -0.1)">
       <defs>
        <path id="MicrosoftYaHei-35" d="M 3294 1494 
Q 3294 784 2823 350 
Q 2353 -84 1559 -84 
Q 878 -84 544 119 
L 544 744 
Q 1034 425 1544 425 
Q 2050 425 2361 704 
Q 2672 984 2672 1447 
Q 2672 1909 2348 2167 
Q 2025 2425 1434 2425 
Q 978 2425 613 2384 
L 791 4841 
L 3053 4841 
L 3053 4303 
L 1306 4303 
L 1206 2931 
L 1647 2950 
Q 2416 2950 2855 2567 
Q 3294 2184 3294 1494 
z
" transform="scale(0.015625)"/>
       </defs>
       <use xlink:href="#MicrosoftYaHei-30"/>
       <use xlink:href="#MicrosoftYaHei-2e" x="58.642578"/>
       <use xlink:href="#MicrosoftYaHei-30" x="82.714844"/>
       <use xlink:href="#MicrosoftYaHei-34" x="141.357422"/>
       <use xlink:href="#MicrosoftYaHei-35" x="200"/>
      </g>
     </g>
    </g>
    <g id="ytick_3">
     <g id="line2d_8">
      <g>
       <use xlink:href="#mab256f81d6" x="57.6" y="135.978504" style="stroke: #000000; stroke-width: 0.8"/>
      </g>
     </g>
     <g id="text_9">
      <!-- 0.050 -->
      <g transform="translate(24.735937 139.975379)scale(0.1 -0.1)">
       <use xlink:href="#MicrosoftYaHei-30"/>
       <use xlink:href="#MicrosoftYaHei-2e" x="58.642578"/>
       <use xlink:href="#MicrosoftYaHei-30" x="82.714844"/>
       <use xlink:href="#MicrosoftYaHei-35" x="141.357422"/>
       <use xlink:href="#MicrosoftYaHei-30" x="200"/>
      </g>
     </g>
    </g>
    <g id="ytick_4">
     <g id="line2d_9">
      <g>
       <use xlink:href="#mab256f81d6" x="57.6" y="170.73243" style="stroke: #000000; stroke-width: 0.8"/>
      </g>
     </g>
     <g id="text_10">
      <!-- 0.055 -->
      <g transform="translate(24.735937 174.729305)scale(0.1 -0.1)">
       <use xlink:href="#MicrosoftYaHei-30"/>
       <use xlink:href="#MicrosoftYaHei-2e" x="58.642578"/>
       <use xlink:href="#MicrosoftYaHei-30" x="82.714844"/>
       <use xlink:href="#MicrosoftYaHei-35" x="141.357422"/>
       <use xlink:href="#MicrosoftYaHei-35" x="200"/>
      </g>
     </g>
    </g>
    <g id="ytick_5">
     <g id="line2d_10">
      <g>
       <use xlink:href="#mab256f81d6" x="57.6" y="205.486357" style="stroke: #000000; stroke-width: 0.8"/>
      </g>
     </g>
     <g id="text_11">
      <!-- 0.060 -->
      <g transform="translate(24.735937 209.483232)scale(0.1 -0.1)">
       <use xlink:href="#MicrosoftYaHei-30"/>
       <use xlink:href="#MicrosoftYaHei-2e" x="58.642578"/>
       <use xlink:href="#MicrosoftYaHei-30" x="82.714844"/>
       <use xlink:href="#MicrosoftYaHei-36" x="141.357422"/>
       <use xlink:href="#MicrosoftYaHei-30" x="200"/>
      </g>
     </g>
    </g>
    <g id="ytick_6">
     <g id="line2d_11">
      <g>
       <use xlink:href="#mab256f81d6" x="57.6" y="240.240284" style="stroke: #000000; stroke-width: 0.8"/>
      </g>
     </g>
     <g id="text_12">
      <!-- 0.065 -->
      <g transform="translate(24.735937 244.237159)scale(0.1 -0.1)">
       <use xlink:href="#MicrosoftYaHei-30"/>
       <use xlink:href="#MicrosoftYaHei-2e" x="58.642578"/>
       <use xlink:href="#MicrosoftYaHei-30" x="82.714844"/>
       <use xlink:href="#MicrosoftYaHei-36" x="141.357422"/>
       <use xlink:href="#MicrosoftYaHei-35" x="200"/>
      </g>
     </g>
    </g>
    <g id="ytick_7">
     <g id="line2d_12">
      <g>
       <use xlink:href="#mab256f81d6" x="57.6" y="274.99421" style="stroke: #000000; stroke-width: 0.8"/>
      </g>
     </g>
     <g id="text_13">
      <!-- 0.070 -->
      <g transform="translate(24.735937 278.991085)scale(0.1 -0.1)">
       <use xlink:href="#MicrosoftYaHei-30"/>
       <use xlink:href="#MicrosoftYaHei-2e" x="58.642578"/>
       <use xlink:href="#MicrosoftYaHei-30" x="82.714844"/>
       <use xlink:href="#MicrosoftYaHei-37" x="141.357422"/>
       <use xlink:href="#MicrosoftYaHei-30" x="200"/>
      </g>
     </g>
    </g>
    <g id="text_14">
     <!-- Price -->
     <g transform="translate(18.25 186.170969)rotate(-90)scale(0.1 -0.1)">
      <defs>
       <path id="MicrosoftYaHei-50" d="M 1250 1809 
L 1250 0 
L 625 0 
L 625 4841 
L 2000 4841 
Q 2784 4841 3217 4462 
Q 3650 4084 3650 3381 
Q 3650 2669 3144 2226 
Q 2638 1784 1878 1809 
L 1250 1809 
z
M 1250 4291 
L 1250 2359 
L 1828 2359 
Q 2400 2359 2697 2617 
Q 2994 2875 2994 3356 
Q 2994 4291 1888 4291 
L 1250 4291 
z
" transform="scale(0.015625)"/>
       <path id="MicrosoftYaHei-72" d="M 2400 2850 
Q 2247 2959 1978 2959 
Q 1622 2959 1390 2626 
Q 1159 2294 1159 1750 
L 1159 0 
L 547 0 
L 547 3456 
L 1159 3456 
L 1159 2753 
L 1172 2753 
Q 1434 3516 2078 3516 
Q 2288 3516 2400 3469 
L 2400 2850 
z
" transform="scale(0.015625)"/>
       <path id="MicrosoftYaHei-63" d="M 2934 156 
Q 2538 -81 1978 -81 
Q 1228 -81 772 400 
Q 316 881 316 1647 
Q 316 2497 808 3017 
Q 1300 3538 2125 3538 
Q 2600 3538 2938 3369 
L 2938 2763 
Q 2572 3031 2125 3031 
Q 1600 3031 1270 2667 
Q 941 2303 941 1697 
Q 941 1100 1252 762 
Q 1563 425 2091 425 
Q 2538 425 2934 719 
L 2934 156 
z
" transform="scale(0.015625)"/>
      </defs>
      <use xlink:href="#MicrosoftYaHei-50"/>
      <use xlink:href="#MicrosoftYaHei-72" x="61.181641"/>
      <use xlink:href="#MicrosoftYaHei-69" x="99.365234"/>
      <use xlink:href="#MicrosoftYaHei-63" x="125.976562"/>
      <use xlink:href="#MicrosoftYaHei-65" x="176.123047"/>
     </g>
    </g>
   </g>
   <g id="patch_3">
    <path d="M 57.6 307.584 
L 57.6 41.472 
" style="fill: none; stroke: #000000; stroke-width: 0.8; stroke-linejoin: miter; stroke-linecap: square"/>
   </g>
   <g id="patch_4">
    <path d="M 414.72 307.584 
L 414.72 41.472 
" style="fill: none; stroke: #000000; stroke-width: 0.8; stroke-linejoin: miter; stroke-linecap: square"/>
   </g>
   <g id="patch_5">
    <path d="M 57.6 307.584 
L 414.72 307.584 
" style="fill: none; stroke: #000000; stroke-width: 0.8; stroke-linejoin: miter; stroke-linecap: square"/>
   </g>
   <g id="patch_6">
    <path d="M 57.6 41.472 
L 414.72 41.472 
" style="fill: none; stroke: #000000; stroke-width: 0.8; stroke-linejoin: miter; stroke-linecap: square"/>
   </g>
   <g id="text_15">
    <!-- delight-nashorn-sandbox_dot -->
    <g transform="translate(151.035937 35.472)scale(0.12 -0.12)">
     <defs>
      <path id="MicrosoftYaHei-64" d="M 3547 0 
L 2934 0 
L 2934 575 
L 2922 575 
Q 2544 -81 1747 -81 
Q 1091 -81 703 386 
Q 316 853 316 1647 
Q 316 2503 753 3020 
Q 1191 3538 1897 3538 
Q 2603 3538 2922 2988 
L 2934 2988 
L 2934 5116 
L 3547 5116 
L 3547 0 
z
M 2938 2056 
Q 2938 2472 2664 2751 
Q 2391 3031 1991 3031 
Q 1503 3031 1222 2667 
Q 941 2303 941 1675 
Q 941 1097 1211 761 
Q 1481 425 1931 425 
Q 2375 425 2656 754 
Q 2938 1084 2938 1575 
L 2938 2056 
z
" transform="scale(0.015625)"/>
      <path id="MicrosoftYaHei-6c" d="M 544 0 
L 544 5116 
L 1156 5116 
L 1156 0 
L 544 0 
z
" transform="scale(0.015625)"/>
      <path id="MicrosoftYaHei-67" d="M 3547 291 
Q 3547 -1628 1684 -1628 
Q 1041 -1628 566 -1388 
L 566 -797 
Q 1144 -1119 1675 -1119 
Q 2934 -1119 2934 206 
L 2934 572 
L 2922 572 
Q 2528 -81 1747 -81 
Q 1097 -81 706 384 
Q 316 850 316 1619 
Q 316 2503 747 3020 
Q 1178 3538 1897 3538 
Q 2588 3538 2922 2988 
L 2934 2988 
L 2934 3456 
L 3547 3456 
L 3547 291 
z
M 2934 2056 
Q 2938 2456 2666 2743 
Q 2394 3031 1997 3031 
Q 1497 3031 1219 2664 
Q 941 2297 941 1656 
Q 941 1106 1209 765 
Q 1478 425 1922 425 
Q 2369 425 2653 750 
Q 2938 1075 2934 1575 
L 2934 2056 
z
" transform="scale(0.015625)"/>
      <path id="MicrosoftYaHei-68" d="M 3466 0 
L 2856 0 
L 2856 1988 
Q 2856 3031 2081 3031 
Q 1684 3031 1421 2726 
Q 1159 2422 1159 1959 
L 1159 0 
L 547 0 
L 547 5116 
L 1159 5116 
L 1159 2888 
L 1172 2888 
Q 1569 3538 2300 3538 
Q 3466 3538 3466 2128 
L 3466 0 
z
" transform="scale(0.015625)"/>
      <path id="MicrosoftYaHei-2d" d="M 2328 1681 
L 488 1681 
L 488 2153 
L 2328 2153 
L 2328 1681 
z
" transform="scale(0.015625)"/>
      <path id="MicrosoftYaHei-61" d="M 628 3216 
Q 1144 3538 1819 3538 
Q 3069 3538 3069 2225 
L 3069 0 
L 2463 0 
L 2463 534 
L 2447 534 
Q 2088 -81 1388 -81 
Q 884 -81 587 191 
Q 291 463 291 925 
Q 291 1894 1438 2053 
L 2463 2197 
Q 2463 3044 1763 3044 
Q 1141 3044 628 2625 
L 628 3216 
z
M 1653 1625 
Q 1228 1569 1067 1412 
Q 906 1256 906 975 
Q 906 728 1081 572 
Q 1256 416 1544 416 
Q 1944 416 2203 697 
Q 2463 978 2463 1403 
L 2463 1734 
L 1653 1625 
z
" transform="scale(0.015625)"/>
      <path id="MicrosoftYaHei-73" d="M 353 747 
Q 816 413 1350 413 
Q 2066 413 2066 881 
Q 2066 1081 1909 1211 
Q 1753 1341 1275 1519 
Q 700 1750 528 1976 
Q 356 2203 356 2525 
Q 356 2984 745 3261 
Q 1134 3538 1703 3538 
Q 2144 3538 2522 3384 
L 2522 2794 
Q 2134 3044 1644 3044 
Q 1350 3044 1165 2916 
Q 981 2788 981 2578 
Q 981 2372 1114 2256 
Q 1247 2141 1703 1959 
Q 2281 1744 2484 1512 
Q 2688 1281 2688 941 
Q 2688 466 2298 192 
Q 1909 -81 1291 -81 
Q 753 -81 353 122 
L 353 747 
z
" transform="scale(0.015625)"/>
      <path id="MicrosoftYaHei-6f" d="M 316 1691 
Q 316 2547 794 3042 
Q 1272 3538 2091 3538 
Q 2869 3538 3311 3061 
Q 3753 2584 3753 1744 
Q 3753 925 3281 422 
Q 2809 -81 2016 -81 
Q 1241 -81 778 406 
Q 316 894 316 1691 
z
M 941 1709 
Q 941 1113 1242 769 
Q 1544 425 2053 425 
Q 2578 425 2853 761 
Q 3128 1097 3128 1725 
Q 3128 2356 2853 2693 
Q 2578 3031 2053 3031 
Q 1538 3031 1239 2678 
Q 941 2325 941 1709 
z
" transform="scale(0.015625)"/>
      <path id="MicrosoftYaHei-62" d="M 1159 488 
L 1159 0 
L 547 0 
L 547 5116 
L 1159 5116 
L 1159 2859 
L 1172 2859 
Q 1578 3538 2359 3538 
Q 3009 3538 3392 3080 
Q 3775 2622 3775 1828 
Q 3775 953 3345 436 
Q 2916 -81 2200 -81 
Q 1525 -81 1172 488 
L 1159 488 
z
M 1156 1422 
Q 1156 1003 1428 714 
Q 1700 425 2109 425 
Q 2597 425 2872 800 
Q 3147 1175 3147 1838 
Q 3147 2384 2890 2707 
Q 2634 3031 2191 3031 
Q 1741 3031 1448 2709 
Q 1156 2388 1156 1891 
L 1156 1422 
z
" transform="scale(0.015625)"/>
      <path id="MicrosoftYaHei-78" d="M 3163 3456 
L 2006 1716 
L 3147 0 
L 2434 0 
L 1775 1100 
Q 1722 1188 1625 1369 
L 1613 1369 
Q 1609 1350 1456 1100 
L 784 0 
L 81 0 
L 1256 1697 
L 134 3456 
L 847 3456 
L 1494 2300 
Q 1553 2194 1638 2025 
L 1650 2025 
L 2491 3456 
L 3163 3456 
z
" transform="scale(0.015625)"/>
      <path id="MicrosoftYaHei-5f" d="M 2869 -1634 
L 0 -1634 
L 0 -1231 
L 2869 -1231 
L 2869 -1634 
z
" transform="scale(0.015625)"/>
     </defs>
     <use xlink:href="#MicrosoftYaHei-64"/>
     <use xlink:href="#MicrosoftYaHei-65" x="63.964844"/>
     <use xlink:href="#MicrosoftYaHei-6c" x="120.703125"/>
     <use xlink:href="#MicrosoftYaHei-69" x="147.314453"/>
     <use xlink:href="#MicrosoftYaHei-67" x="173.925781"/>
     <use xlink:href="#MicrosoftYaHei-68" x="237.890625"/>
     <use xlink:href="#MicrosoftYaHei-74" x="299.462891"/>
     <use xlink:href="#MicrosoftYaHei-2d" x="330.71875"/>
     <use xlink:href="#MicrosoftYaHei-6e" x="373.980469"/>
     <use xlink:href="#MicrosoftYaHei-61" x="435.601562"/>
     <use xlink:href="#MicrosoftYaHei-73" x="490.875"/>
     <use xlink:href="#MicrosoftYaHei-68" x="537.164062"/>
     <use xlink:href="#MicrosoftYaHei-6f" x="598.736328"/>
     <use xlink:href="#MicrosoftYaHei-72" x="662.310547"/>
     <use xlink:href="#MicrosoftYaHei-6e" x="700.244141"/>
     <use xlink:href="#MicrosoftYaHei-2d" x="761.865234"/>
     <use xlink:href="#MicrosoftYaHei-73" x="805.126953"/>
     <use xlink:href="#MicrosoftYaHei-61" x="851.416016"/>
     <use xlink:href="#MicrosoftYaHei-6e" x="906.689453"/>
     <use xlink:href="#MicrosoftYaHei-64" x="968.310547"/>
     <use xlink:href="#MicrosoftYaHei-62" x="1032.275391"/>
     <use xlink:href="#MicrosoftYaHei-6f" x="1096.142578"/>
     <use xlink:href="#MicrosoftYaHei-78" x="1158.341797"/>
     <use xlink:href="#MicrosoftYaHei-5f" x="1209.025391"/>
     <use xlink:href="#MicrosoftYaHei-64" x="1253.849609"/>
     <use xlink:href="#MicrosoftYaHei-6f" x="1317.814453"/>
     <use xlink:href="#MicrosoftYaHei-74" x="1381.388672"/>
    </g>
   </g>
   <g id="legend_1">
    <g id="patch_7">
     <path d="M 306.387969 92.086844 
L 411.22 92.086844 
Q 412.22 92.086844 412.22 91.086844 
L 412.22 44.972 
Q 412.22 43.972 411.22 43.972 
L 306.387969 43.972 
Q 305.387969 43.972 305.387969 44.972 
L 305.387969 91.086844 
Q 305.387969 92.086844 306.387969 92.086844 
z
" style="fill: #ffffff; opacity: 0.8; stroke: #cccccc; stroke-linejoin: miter"/>
    </g>
    <g id="PathCollection_7">
     <g>
      <use xlink:href="#md992f4f498" x="312.387969" y="48.714969" style="fill: #9370db; fill-opacity: 0.5; stroke: #9370db; stroke-opacity: 0.5"/>
     </g>
    </g>
    <g id="text_16">
     <!-- GA pareto frontiers: 13(18) -->
     <g transform="translate(321.387969 50.027469)scale(0.05 -0.05)">
      <defs>
       <path id="MicrosoftYaHei-47" d="M 4284 331 
Q 3559 -81 2647 -81 
Q 1597 -81 955 583 
Q 313 1247 313 2356 
Q 313 3478 1022 4200 
Q 1731 4922 2841 4922 
Q 3625 4922 4169 4672 
L 4169 3997 
Q 3588 4363 2784 4363 
Q 1994 4363 1481 3822 
Q 969 3281 969 2397 
Q 969 1488 1441 981 
Q 1913 475 2716 475 
Q 3269 475 3656 688 
L 3656 1997 
L 2606 1997 
L 2606 2550 
L 4284 2550 
L 4284 331 
z
" transform="scale(0.015625)"/>
       <path id="MicrosoftYaHei-41" d="M 4428 0 
L 3738 0 
L 3244 1325 
L 1228 1325 
L 763 0 
L 72 0 
L 1916 4841 
L 2584 4841 
L 4428 0 
z
M 3050 1872 
L 2319 3884 
Q 2284 3981 2244 4222 
L 2228 4222 
Q 2194 4003 2150 3884 
L 1425 1872 
L 3050 1872 
z
" transform="scale(0.015625)"/>
       <path id="MicrosoftYaHei-20" transform="scale(0.015625)"/>
       <path id="MicrosoftYaHei-70" d="M 1159 488 
L 1159 -1591 
L 547 -1591 
L 547 3456 
L 1159 3456 
L 1159 2859 
L 1172 2859 
Q 1578 3538 2359 3538 
Q 3022 3538 3398 3073 
Q 3775 2609 3775 1828 
Q 3775 966 3348 442 
Q 2922 -81 2200 -81 
Q 1534 -81 1172 488 
L 1159 488 
z
M 1156 1425 
Q 1156 1003 1428 714 
Q 1700 425 2109 425 
Q 2597 425 2872 800 
Q 3147 1175 3147 1838 
Q 3147 2397 2890 2714 
Q 2634 3031 2191 3031 
Q 1738 3031 1447 2709 
Q 1156 2388 1156 1884 
L 1156 1425 
z
" transform="scale(0.015625)"/>
       <path id="MicrosoftYaHei-66" d="M 2319 4594 
Q 2147 4684 1947 4684 
Q 1372 4684 1372 3972 
L 1372 3456 
L 2181 3456 
L 2181 2950 
L 1372 2950 
L 1372 0 
L 766 0 
L 766 2950 
L 175 2950 
L 175 3456 
L 766 3456 
L 766 4000 
Q 766 4556 1086 4873 
Q 1406 5191 1900 5191 
Q 2163 5191 2319 5131 
L 2319 4594 
z
" transform="scale(0.015625)"/>
       <path id="MicrosoftYaHei-3a" d="M 372 3134 
Q 372 3303 490 3415 
Q 609 3528 775 3528 
Q 944 3528 1062 3414 
Q 1181 3300 1181 3134 
Q 1181 2969 1065 2853 
Q 950 2738 772 2738 
Q 603 2738 487 2853 
Q 372 2969 372 3134 
z
M 372 322 
Q 372 491 487 606 
Q 603 722 775 722 
Q 950 722 1065 605 
Q 1181 488 1181 322 
Q 1181 159 1065 42 
Q 950 -75 772 -75 
Q 600 -75 486 42 
Q 372 159 372 322 
z
" transform="scale(0.015625)"/>
       <path id="MicrosoftYaHei-33" d="M 447 809 
Q 944 425 1569 425 
Q 2069 425 2361 670 
Q 2653 916 2653 1328 
Q 2653 2247 1338 2247 
L 934 2247 
L 934 2753 
L 1319 2753 
Q 2484 2753 2484 3616 
Q 2484 4413 1594 4413 
Q 1084 4413 634 4069 
L 634 4647 
Q 1109 4922 1744 4922 
Q 2363 4922 2738 4598 
Q 3113 4275 3113 3759 
Q 3113 2809 2144 2538 
L 2144 2525 
Q 2669 2469 2973 2155 
Q 3278 1841 3278 1372 
Q 3278 719 2808 319 
Q 2338 -81 1556 -81 
Q 869 -81 447 175 
L 447 809 
z
" transform="scale(0.015625)"/>
       <path id="MicrosoftYaHei-28" d="M 1531 -1100 
Q 478 100 478 1847 
Q 478 3594 1531 4841 
L 2072 4841 
Q 1016 3544 1016 1853 
Q 1016 166 2066 -1100 
L 1531 -1100 
z
" transform="scale(0.015625)"/>
       <path id="MicrosoftYaHei-29" d="M 78 -1100 
Q 1131 163 1131 1853 
Q 1131 3547 72 4841 
L 616 4841 
Q 1672 3603 1672 1847 
Q 1672 91 616 -1100 
L 78 -1100 
z
" transform="scale(0.015625)"/>
      </defs>
      <use xlink:href="#MicrosoftYaHei-47"/>
      <use xlink:href="#MicrosoftYaHei-41" x="74.365234"/>
      <use xlink:href="#MicrosoftYaHei-20" x="144.726562"/>
      <use xlink:href="#MicrosoftYaHei-70" x="174.316406"/>
      <use xlink:href="#MicrosoftYaHei-61" x="236.808594"/>
      <use xlink:href="#MicrosoftYaHei-72" x="292.082031"/>
      <use xlink:href="#MicrosoftYaHei-65" x="328.890625"/>
      <use xlink:href="#MicrosoftYaHei-74" x="385.628906"/>
      <use xlink:href="#MicrosoftYaHei-6f" x="422.009766"/>
      <use xlink:href="#MicrosoftYaHei-20" x="485.583984"/>
      <use xlink:href="#MicrosoftYaHei-66" x="515.173828"/>
      <use xlink:href="#MicrosoftYaHei-72" x="549.841797"/>
      <use xlink:href="#MicrosoftYaHei-6f" x="586.650391"/>
      <use xlink:href="#MicrosoftYaHei-6e" x="650.224609"/>
      <use xlink:href="#MicrosoftYaHei-74" x="711.845703"/>
      <use xlink:href="#MicrosoftYaHei-69" x="749.101562"/>
      <use xlink:href="#MicrosoftYaHei-65" x="775.712891"/>
      <use xlink:href="#MicrosoftYaHei-72" x="832.451172"/>
      <use xlink:href="#MicrosoftYaHei-73" x="871.384766"/>
      <use xlink:href="#MicrosoftYaHei-3a" x="917.673828"/>
      <use xlink:href="#MicrosoftYaHei-20" x="941.746094"/>
      <use xlink:href="#MicrosoftYaHei-31" x="971.335938"/>
      <use xlink:href="#MicrosoftYaHei-33" x="1029.978516"/>
      <use xlink:href="#MicrosoftYaHei-28" x="1088.621094"/>
      <use xlink:href="#MicrosoftYaHei-31" x="1122.019531"/>
      <use xlink:href="#MicrosoftYaHei-38" x="1180.662109"/>
      <use xlink:href="#MicrosoftYaHei-29" x="1239.304688"/>
     </g>
    </g>
    <g id="PathCollection_8">
     <defs>
      <path id="m91f537c903" d="M 0 3 
C 0.795609 3 1.55874 2.683901 2.12132 2.12132 
C 2.683901 1.55874 3 0.795609 3 0 
C 3 -0.795609 2.683901 -1.55874 2.12132 -2.12132 
C 1.55874 -2.683901 0.795609 -3 0 -3 
C -0.795609 -3 -1.55874 -2.683901 -2.12132 -2.12132 
C -2.683901 -1.55874 -3 -0.795609 -3 0 
C -3 0.795609 -2.683901 1.55874 -2.12132 2.12132 
C -1.55874 2.683901 -0.795609 3 0 3 
z
" style="stroke: #d8bfd8; stroke-opacity: 0.5"/>
     </defs>
     <g>
      <use xlink:href="#m91f537c903" x="312.387969" y="56.454813" style="fill: #d8bfd8; fill-opacity: 0.5; stroke: #d8bfd8; stroke-opacity: 0.5"/>
     </g>
    </g>
    <g id="text_17">
     <!-- GA normal: 0(0) -->
     <g transform="translate(321.387969 57.767313)scale(0.05 -0.05)">
      <use xlink:href="#MicrosoftYaHei-47"/>
      <use xlink:href="#MicrosoftYaHei-41" x="74.365234"/>
      <use xlink:href="#MicrosoftYaHei-20" x="144.726562"/>
      <use xlink:href="#MicrosoftYaHei-6e" x="174.316406"/>
      <use xlink:href="#MicrosoftYaHei-6f" x="235.9375"/>
      <use xlink:href="#MicrosoftYaHei-72" x="299.511719"/>
      <use xlink:href="#MicrosoftYaHei-6d" x="337.445312"/>
      <use xlink:href="#MicrosoftYaHei-61" x="431.146484"/>
      <use xlink:href="#MicrosoftYaHei-6c" x="486.419922"/>
      <use xlink:href="#MicrosoftYaHei-3a" x="513.03125"/>
      <use xlink:href="#MicrosoftYaHei-20" x="537.103516"/>
      <use xlink:href="#MicrosoftYaHei-30" x="566.693359"/>
      <use xlink:href="#MicrosoftYaHei-28" x="625.335938"/>
      <use xlink:href="#MicrosoftYaHei-30" x="658.734375"/>
      <use xlink:href="#MicrosoftYaHei-29" x="717.376953"/>
     </g>
    </g>
    <g id="PathCollection_9">
     <defs>
      <path id="mbf29d095e4" d="M 0 3 
C 0.795609 3 1.55874 2.683901 2.12132 2.12132 
C 2.683901 1.55874 3 0.795609 3 0 
C 3 -0.795609 2.683901 -1.55874 2.12132 -2.12132 
C 1.55874 -2.683901 0.795609 -3 0 -3 
C -0.795609 -3 -1.55874 -2.683901 -2.12132 -2.12132 
C -2.683901 -1.55874 -3 -0.795609 -3 0 
C -3 0.795609 -2.683901 1.55874 -2.12132 2.12132 
C -1.55874 2.683901 -0.795609 3 0 3 
z
" style="stroke: #3cb371; stroke-opacity: 0.5"/>
     </defs>
     <g>
      <use xlink:href="#mbf29d095e4" x="312.387969" y="64.25325" style="fill: #3cb371; fill-opacity: 0.5; stroke: #3cb371; stroke-opacity: 0.5"/>
     </g>
    </g>
    <g id="text_18">
     <!-- Github caliber pareto frontiers: 0(0) -->
     <g transform="translate(321.387969 65.56575)scale(0.05 -0.05)">
      <use xlink:href="#MicrosoftYaHei-47"/>
      <use xlink:href="#MicrosoftYaHei-69" x="74.365234"/>
      <use xlink:href="#MicrosoftYaHei-74" x="100.976562"/>
      <use xlink:href="#MicrosoftYaHei-68" x="138.232422"/>
      <use xlink:href="#MicrosoftYaHei-75" x="199.804688"/>
      <use xlink:href="#MicrosoftYaHei-62" x="261.425781"/>
      <use xlink:href="#MicrosoftYaHei-20" x="325.292969"/>
      <use xlink:href="#MicrosoftYaHei-63" x="354.882812"/>
      <use xlink:href="#MicrosoftYaHei-61" x="405.029297"/>
      <use xlink:href="#MicrosoftYaHei-6c" x="460.302734"/>
      <use xlink:href="#MicrosoftYaHei-69" x="486.914062"/>
      <use xlink:href="#MicrosoftYaHei-62" x="513.525391"/>
      <use xlink:href="#MicrosoftYaHei-65" x="577.392578"/>
      <use xlink:href="#MicrosoftYaHei-72" x="634.130859"/>
      <use xlink:href="#MicrosoftYaHei-20" x="672.314453"/>
      <use xlink:href="#MicrosoftYaHei-70" x="701.904297"/>
      <use xlink:href="#MicrosoftYaHei-61" x="764.396484"/>
      <use xlink:href="#MicrosoftYaHei-72" x="819.669922"/>
      <use xlink:href="#MicrosoftYaHei-65" x="856.478516"/>
      <use xlink:href="#MicrosoftYaHei-74" x="913.216797"/>
      <use xlink:href="#MicrosoftYaHei-6f" x="949.597656"/>
      <use xlink:href="#MicrosoftYaHei-20" x="1013.171875"/>
      <use xlink:href="#MicrosoftYaHei-66" x="1042.761719"/>
      <use xlink:href="#MicrosoftYaHei-72" x="1077.429688"/>
      <use xlink:href="#MicrosoftYaHei-6f" x="1114.238281"/>
      <use xlink:href="#MicrosoftYaHei-6e" x="1177.8125"/>
      <use xlink:href="#MicrosoftYaHei-74" x="1239.433594"/>
      <use xlink:href="#MicrosoftYaHei-69" x="1276.689453"/>
      <use xlink:href="#MicrosoftYaHei-65" x="1303.300781"/>
      <use xlink:href="#MicrosoftYaHei-72" x="1360.039062"/>
      <use xlink:href="#MicrosoftYaHei-73" x="1398.972656"/>
      <use xlink:href="#MicrosoftYaHei-3a" x="1445.261719"/>
      <use xlink:href="#MicrosoftYaHei-20" x="1469.333984"/>
      <use xlink:href="#MicrosoftYaHei-30" x="1498.923828"/>
      <use xlink:href="#MicrosoftYaHei-28" x="1557.566406"/>
      <use xlink:href="#MicrosoftYaHei-30" x="1590.964844"/>
      <use xlink:href="#MicrosoftYaHei-29" x="1649.607422"/>
     </g>
    </g>
    <g id="PathCollection_10">
     <defs>
      <path id="mb684ff4bec" d="M 0 3 
C 0.795609 3 1.55874 2.683901 2.12132 2.12132 
C 2.683901 1.55874 3 0.795609 3 0 
C 3 -0.795609 2.683901 -1.55874 2.12132 -2.12132 
C 1.55874 -2.683901 0.795609 -3 0 -3 
C -0.795609 -3 -1.55874 -2.683901 -2.12132 -2.12132 
C -2.683901 -1.55874 -3 -0.795609 -3 0 
C -3 0.795609 -2.683901 1.55874 -2.12132 2.12132 
C -1.55874 2.683901 -0.795609 3 0 3 
z
" style="stroke: #00ffff; stroke-opacity: 0.5"/>
     </defs>
     <g>
      <use xlink:href="#mb684ff4bec" x="312.387969" y="71.993094" style="fill: #00ffff; fill-opacity: 0.5; stroke: #00ffff; stroke-opacity: 0.5"/>
     </g>
    </g>
    <g id="text_19">
     <!-- Github caliber normal: 0(0) -->
     <g transform="translate(321.387969 73.305594)scale(0.05 -0.05)">
      <use xlink:href="#MicrosoftYaHei-47"/>
      <use xlink:href="#MicrosoftYaHei-69" x="74.365234"/>
      <use xlink:href="#MicrosoftYaHei-74" x="100.976562"/>
      <use xlink:href="#MicrosoftYaHei-68" x="138.232422"/>
      <use xlink:href="#MicrosoftYaHei-75" x="199.804688"/>
      <use xlink:href="#MicrosoftYaHei-62" x="261.425781"/>
      <use xlink:href="#MicrosoftYaHei-20" x="325.292969"/>
      <use xlink:href="#MicrosoftYaHei-63" x="354.882812"/>
      <use xlink:href="#MicrosoftYaHei-61" x="405.029297"/>
      <use xlink:href="#MicrosoftYaHei-6c" x="460.302734"/>
      <use xlink:href="#MicrosoftYaHei-69" x="486.914062"/>
      <use xlink:href="#MicrosoftYaHei-62" x="513.525391"/>
      <use xlink:href="#MicrosoftYaHei-65" x="577.392578"/>
      <use xlink:href="#MicrosoftYaHei-72" x="634.130859"/>
      <use xlink:href="#MicrosoftYaHei-20" x="672.314453"/>
      <use xlink:href="#MicrosoftYaHei-6e" x="701.904297"/>
      <use xlink:href="#MicrosoftYaHei-6f" x="763.525391"/>
      <use xlink:href="#MicrosoftYaHei-72" x="827.099609"/>
      <use xlink:href="#MicrosoftYaHei-6d" x="865.033203"/>
      <use xlink:href="#MicrosoftYaHei-61" x="958.734375"/>
      <use xlink:href="#MicrosoftYaHei-6c" x="1014.007812"/>
      <use xlink:href="#MicrosoftYaHei-3a" x="1040.619141"/>
      <use xlink:href="#MicrosoftYaHei-20" x="1064.691406"/>
      <use xlink:href="#MicrosoftYaHei-30" x="1094.28125"/>
      <use xlink:href="#MicrosoftYaHei-28" x="1152.923828"/>
      <use xlink:href="#MicrosoftYaHei-30" x="1186.322266"/>
      <use xlink:href="#MicrosoftYaHei-29" x="1244.964844"/>
     </g>
    </g>
    <g id="PathCollection_11">
     <g>
      <use xlink:href="#mfe50e30555" x="312.387969" y="79.791531" style="fill: #4682b4; fill-opacity: 0.5; stroke: #4682b4; stroke-opacity: 0.5"/>
     </g>
    </g>
    <g id="text_20">
     <!-- Smart baseline pareto frontiers: 3(18) -->
     <g transform="translate(321.387969 81.104031)scale(0.05 -0.05)">
      <defs>
       <path id="MicrosoftYaHei-53" d="M 400 909 
Q 622 716 994 591 
Q 1366 466 1700 466 
Q 2719 466 2719 1191 
Q 2719 1394 2609 1556 
Q 2500 1719 2309 1844 
Q 2119 1969 1594 2228 
Q 866 2591 634 2902 
Q 403 3213 403 3613 
Q 403 4216 887 4569 
Q 1372 4922 2109 4922 
Q 2831 4922 3169 4747 
L 3169 4066 
Q 2731 4369 2063 4369 
Q 1619 4369 1339 4183 
Q 1059 3997 1059 3666 
Q 1059 3372 1253 3187 
Q 1447 3003 2094 2684 
Q 2806 2344 3090 2003 
Q 3375 1663 3375 1238 
Q 3375 600 2912 259 
Q 2450 -81 1628 -81 
Q 1341 -81 958 -1 
Q 575 78 400 197 
L 400 909 
z
" transform="scale(0.015625)"/>
      </defs>
      <use xlink:href="#MicrosoftYaHei-53"/>
      <use xlink:href="#MicrosoftYaHei-6d" x="57.714844"/>
      <use xlink:href="#MicrosoftYaHei-61" x="151.416016"/>
      <use xlink:href="#MicrosoftYaHei-72" x="206.689453"/>
      <use xlink:href="#MicrosoftYaHei-74" x="247.998047"/>
      <use xlink:href="#MicrosoftYaHei-20" x="285.253906"/>
      <use xlink:href="#MicrosoftYaHei-62" x="314.84375"/>
      <use xlink:href="#MicrosoftYaHei-61" x="377.335938"/>
      <use xlink:href="#MicrosoftYaHei-73" x="432.609375"/>
      <use xlink:href="#MicrosoftYaHei-65" x="478.898438"/>
      <use xlink:href="#MicrosoftYaHei-6c" x="535.636719"/>
      <use xlink:href="#MicrosoftYaHei-69" x="562.248047"/>
      <use xlink:href="#MicrosoftYaHei-6e" x="588.859375"/>
      <use xlink:href="#MicrosoftYaHei-65" x="650.480469"/>
      <use xlink:href="#MicrosoftYaHei-20" x="707.21875"/>
      <use xlink:href="#MicrosoftYaHei-70" x="736.808594"/>
      <use xlink:href="#MicrosoftYaHei-61" x="799.300781"/>
      <use xlink:href="#MicrosoftYaHei-72" x="854.574219"/>
      <use xlink:href="#MicrosoftYaHei-65" x="891.382812"/>
      <use xlink:href="#MicrosoftYaHei-74" x="948.121094"/>
      <use xlink:href="#MicrosoftYaHei-6f" x="984.501953"/>
      <use xlink:href="#MicrosoftYaHei-20" x="1048.076172"/>
      <use xlink:href="#MicrosoftYaHei-66" x="1077.666016"/>
      <use xlink:href="#MicrosoftYaHei-72" x="1112.333984"/>
      <use xlink:href="#MicrosoftYaHei-6f" x="1149.142578"/>
      <use xlink:href="#MicrosoftYaHei-6e" x="1212.716797"/>
      <use xlink:href="#MicrosoftYaHei-74" x="1274.337891"/>
      <use xlink:href="#MicrosoftYaHei-69" x="1311.59375"/>
      <use xlink:href="#MicrosoftYaHei-65" x="1338.205078"/>
      <use xlink:href="#MicrosoftYaHei-72" x="1394.943359"/>
      <use xlink:href="#MicrosoftYaHei-73" x="1433.876953"/>
      <use xlink:href="#MicrosoftYaHei-3a" x="1480.166016"/>
      <use xlink:href="#MicrosoftYaHei-20" x="1504.238281"/>
      <use xlink:href="#MicrosoftYaHei-33" x="1533.828125"/>
      <use xlink:href="#MicrosoftYaHei-28" x="1592.470703"/>
      <use xlink:href="#MicrosoftYaHei-31" x="1625.869141"/>
      <use xlink:href="#MicrosoftYaHei-38" x="1684.511719"/>
      <use xlink:href="#MicrosoftYaHei-29" x="1743.154297"/>
     </g>
    </g>
    <g id="PathCollection_12">
     <defs>
      <path id="mf04c1fa88e" d="M 0 3 
C 0.795609 3 1.55874 2.683901 2.12132 2.12132 
C 2.683901 1.55874 3 0.795609 3 0 
C 3 -0.795609 2.683901 -1.55874 2.12132 -2.12132 
C 1.55874 -2.683901 0.795609 -3 0 -3 
C -0.795609 -3 -1.55874 -2.683901 -2.12132 -2.12132 
C -2.683901 -1.55874 -3 -0.795609 -3 0 
C -3 0.795609 -2.683901 1.55874 -2.12132 2.12132 
C -1.55874 2.683901 -0.795609 3 0 3 
z
" style="stroke: #bdb76b; stroke-opacity: 0.5"/>
     </defs>
     <g>
      <use xlink:href="#mf04c1fa88e" x="312.387969" y="87.531375" style="fill: #bdb76b; fill-opacity: 0.5; stroke: #bdb76b; stroke-opacity: 0.5"/>
     </g>
    </g>
    <g id="text_21">
     <!-- Smart baseline normal: 0(0) -->
     <g transform="translate(321.387969 88.843875)scale(0.05 -0.05)">
      <use xlink:href="#MicrosoftYaHei-53"/>
      <use xlink:href="#MicrosoftYaHei-6d" x="57.714844"/>
      <use xlink:href="#MicrosoftYaHei-61" x="151.416016"/>
      <use xlink:href="#MicrosoftYaHei-72" x="206.689453"/>
      <use xlink:href="#MicrosoftYaHei-74" x="247.998047"/>
      <use xlink:href="#MicrosoftYaHei-20" x="285.253906"/>
      <use xlink:href="#MicrosoftYaHei-62" x="314.84375"/>
      <use xlink:href="#MicrosoftYaHei-61" x="377.335938"/>
      <use xlink:href="#MicrosoftYaHei-73" x="432.609375"/>
      <use xlink:href="#MicrosoftYaHei-65" x="478.898438"/>
      <use xlink:href="#MicrosoftYaHei-6c" x="535.636719"/>
      <use xlink:href="#MicrosoftYaHei-69" x="562.248047"/>
      <use xlink:href="#MicrosoftYaHei-6e" x="588.859375"/>
      <use xlink:href="#MicrosoftYaHei-65" x="650.480469"/>
      <use xlink:href="#MicrosoftYaHei-20" x="707.21875"/>
      <use xlink:href="#MicrosoftYaHei-6e" x="736.808594"/>
      <use xlink:href="#MicrosoftYaHei-6f" x="798.429688"/>
      <use xlink:href="#MicrosoftYaHei-72" x="862.003906"/>
      <use xlink:href="#MicrosoftYaHei-6d" x="899.9375"/>
      <use xlink:href="#MicrosoftYaHei-61" x="993.638672"/>
      <use xlink:href="#MicrosoftYaHei-6c" x="1048.912109"/>
      <use xlink:href="#MicrosoftYaHei-3a" x="1075.523438"/>
      <use xlink:href="#MicrosoftYaHei-20" x="1099.595703"/>
      <use xlink:href="#MicrosoftYaHei-30" x="1129.185547"/>
      <use xlink:href="#MicrosoftYaHei-28" x="1187.828125"/>
      <use xlink:href="#MicrosoftYaHei-30" x="1221.226562"/>
      <use xlink:href="#MicrosoftYaHei-29" x="1279.869141"/>
     </g>
    </g>
   </g>
  </g>
 </g>
 <defs>
  <clipPath id="p7abe93830e">
   <rect x="57.6" y="41.472" width="357.12" height="266.112"/>
  </clipPath>
 </defs>
</svg>
